<?xml version="1.0" encoding="UTF-8"?><svg id="Layer_1" xmlns="http://www.w3.org/2000/svg" viewBox="0 0 245.7761 141.5378"><defs><style>.cls-1,.cls-2{fill:none;}.cls-3{fill:#f2f2f2;}.cls-4{fill:#fff;}.cls-5,.cls-6{fill:#7ec500;}.cls-7{fill:#bcbebe;}.cls-8{font-size:2px;}.cls-8,.cls-9,.cls-10{font-family:Montserrat-Bold, Montserrat;}.cls-6,.cls-11,.cls-12{stroke:#fff;}.cls-6,.cls-11,.cls-12,.cls-2{stroke-miterlimit:10;stroke-width:.5px;}.cls-11{fill:#1256bb;}.cls-12{fill:#50a8ff;}.cls-9{fill:#5a5a5c;}.cls-9,.cls-13,.cls-14{font-size:7px;}.cls-13{font-family:Montserrat-ExtraBold, Montserrat;}.cls-14{font-family:Montserrat-Regular, Montserrat;}.cls-10{font-size:14.2528px;}.cls-2{stroke:#7ec500;}</style></defs><g><path class="cls-7" d="M72.849,70.7463L35.3431,19.1239c11.4041-8.2856,23.4096-12.1864,37.5059-12.1864v63.8088Z"/><path class="cls-12" d="M72.849,70.7463L12.1632,90.4643c-8.712-26.8127,.3717-54.7693,23.1799-71.3404l37.5059,51.6224Z"/><path class="cls-11" d="M72.849,70.7463l37.5059,51.6224c-28.5103,20.7139-68.4144,14.3937-89.1283-14.1165-4.1428-5.7021-6.8854-11.0847-9.0634-17.7879l60.6858-19.718Z"/><path class="cls-6" d="M72.849,70.7463V6.9375c35.2406,0,63.8088,28.5682,63.8088,63.8088,0,21.1444-9.1968,39.194-26.3029,51.6224l-37.5059-51.6224Z"/></g><text class="cls-5" transform="translate(153.3243 25.1293)"><tspan class="cls-10" x="0" y="0">40</tspan><tspan class="cls-8" x="19.4976" y="0"> </tspan><tspan class="cls-13" x="20.0635" y="0">%</tspan></text><text class="cls-14" transform="translate(153.7665 33.9093)"><tspan x="0" y="0">Продукты питания</tspan></text><text class="cls-9" transform="translate(153.7665 104.7202)"><tspan x="0" y="0">ХХ</tspan></text><text class="cls-14" transform="translate(168.6791 104.7486)"><tspan x="0" y="0">Одежда</tspan></text><text class="cls-9" transform="translate(153.7665 117.1392)"><tspan x="0" y="0">ХХ</tspan></text><text class="cls-14" transform="translate(168.6791 117.1675)"><tspan x="0" y="0">Развлечения</tspan></text><text class="cls-9" transform="translate(153.7665 129.5591)"><tspan x="0" y="0">ХХ</tspan></text><text class="cls-14" transform="translate(168.6791 129.5874)"><tspan x="0" y="0">Медицина</tspan></text><polyline class="cls-1" points="196.4414 -14.2947 13.0654 -14.2947 13.0654 155.4127"/><path class="cls-4" d="M72.7516,109.1082c-21.1107,0-38.2853-17.1746-38.2853-38.2849s17.1746-38.2853,38.2853-38.2853,38.2853,17.1746,38.2853,38.2853-17.1746,38.2849-38.2853,38.2849"/><path class="cls-3" d="M72.7516,33.4173c20.6586,0,37.4058,16.7471,37.4058,37.4058s-16.7471,37.4058-37.4058,37.4058-37.4058-16.7475-37.4058-37.4058,16.7471-37.4058,37.4058-37.4058m0-1.7591c-10.4612,0-20.2964,4.0738-27.6937,11.4711-7.3973,7.3973-11.4711,17.2322-11.4711,27.6937s4.0738,20.2964,11.4711,27.6937c7.3973,7.397,17.2325,11.4711,27.6937,11.4711s20.2964-4.0741,27.6937-11.4711c7.3973-7.3973,11.4711-17.2325,11.4711-27.6937s-4.0738-20.2964-11.4711-27.6937c-7.3973-7.3973-17.2325-11.4711-27.6937-11.4711"/><text/><line class="cls-2" x1="104.7534" y1="21.3827" x2="149.4786" y2="21.3827"/></svg>