<?xml version="1.0" encoding="UTF-8"?><svg id="Layer_1" xmlns="http://www.w3.org/2000/svg" viewBox="0 0 262.7298 141.5378"><defs><style>.cls-1,.cls-2,.cls-3,.cls-4{fill:none;}.cls-5{letter-spacing:-.01em;}.cls-6{letter-spacing:-.039em;}.cls-7{font-size:4.0415px;}.cls-7,.cls-8,.cls-9,.cls-10{fill:#595959;}.cls-7,.cls-9,.cls-11,.cls-12{font-family:Ekibastuz-Bold, Ekibastuz;}.cls-13{letter-spacing:-.0001em;}.cls-8{font-family:RoadRadio, RoadRadio;font-size:15.7881px;}.cls-14{letter-spacing:-.009em;}.cls-15{letter-spacing:-.0101em;}.cls-9,.cls-11,.cls-12{font-size:4.9742px;}.cls-16{fill:#f2f2f2;}.cls-17{fill:#fff;}.cls-18{fill:#b3b3b3;}.cls-19{fill:#939397;}.cls-20{fill:#bcbebe;}.cls-21{fill:#1256bb;}.cls-22{fill:#5a5a5c;}.cls-23{letter-spacing:-.0339em;}.cls-24{letter-spacing:-.0089em;}.cls-25{letter-spacing:.0001em;}.cls-11{letter-spacing:0em;}.cls-26{letter-spacing:-.024em;}.cls-27,.cls-28,.cls-29{font-family:RoadRadio-Black, RoadRadio;font-size:9.3265px;}.cls-28{letter-spacing:0em;}.cls-30{letter-spacing:-.0239em;}.cls-31{letter-spacing:-.0091em;}.cls-32{letter-spacing:.0001em;}.cls-33{letter-spacing:-.0191em;}.cls-34{letter-spacing:-.029em;}.cls-35{letter-spacing:-.029em;}.cls-2{stroke:#1256bb;}.cls-2,.cls-3,.cls-4{stroke-miterlimit:10;}.cls-3{stroke:#b3b3b3;}.cls-4{stroke:#595959;}.cls-29{letter-spacing:-.039em;}.cls-36{font-family:RoadRadio-Bold, RoadRadio;font-size:4.6633px;}</style></defs><g><path class="cls-20" d="M134.9258,74.4051L102.7373,30.1014c9.7873-7.1109,20.0907-10.4587,32.1885-10.4587v54.7624Z"/><path class="cls-19" d="M134.9258,74.4051l-52.0821,16.9225c-7.4768-23.0113,.319-47.0044,19.8936-61.2262l32.1885,44.3037Z"/><path class="cls-22" d="M134.9258,74.4051l32.1885,44.3037c-24.4682,17.7772-58.715,12.3531-76.4922-12.1152-3.5554-4.8936-5.9092-9.5132-7.7784-15.266l52.0821-16.9225Z"/><path class="cls-21" d="M134.9258,74.4051V19.6427c30.2444,0,54.7624,24.5179,54.7624,54.7624,0,18.1466-7.8929,33.6373-22.5739,44.3037l-32.1885-44.3037Z"/></g><polyline class="cls-4" points="119.7194 77.431 81.2832 75.0497 71.5503 75.0497"/><path class="cls-10" d="M71.6088,73.8808c-.6454,0-1.1689,.5235-1.1689,1.1689s.5235,1.1689,1.1689,1.1689,1.1689-.5235,1.1689-1.1689-.5235-1.1689-1.1689-1.1689"/><polyline class="cls-1" points="292.66 145.1626 135.2839 129.1713 135.2839 18.8799 292.661 -.4842"/><polyline class="cls-1" points="292.6619 -.4845 135.2839 -.4845 135.2839 145.1628"/><path class="cls-17" d="M134.8423,107.3282c-18.1177,0-32.8574-14.7397-32.8574-32.8571s14.7397-32.8574,32.8574-32.8574,32.8574,14.7397,32.8574,32.8574-14.7397,32.8571-32.8574,32.8571"/><path class="cls-16" d="M134.8423,42.3683c17.7298,0,32.1026,14.3728,32.1026,32.1026s-14.3728,32.1026-32.1026,32.1026-32.1026-14.3731-32.1026-32.1026,14.3728-32.1026,32.1026-32.1026m0-1.5097c-8.9781,0-17.4189,3.4962-23.7675,9.8448-6.3486,6.3486-9.8448,14.7891-9.8448,23.7675s3.4962,17.4189,9.8448,23.7675c6.3486,6.3483,14.7894,9.8448,23.7675,9.8448s17.4189-3.4965,23.7674-9.8448c6.3486-6.3486,9.8448-14.7894,9.8448-23.7675s-3.4962-17.4189-9.8448-23.7675c-6.3486-6.3486-14.7894-9.8448-23.7674-9.8448"/><text class="cls-7" transform="translate(203.5078 89.6176)"><tspan x="0" y="0">The costs of all equipment</tspan><tspan x="0" y="4.8496">lorem ips </tspan></text><text class="cls-7" transform="translate(31.6465 89.622)"><tspan class="cls-6" x="0" y="0">f</tspan><tspan x="1.4751" y="0">acilities, ma</tspan><tspan class="cls-15" x="22.3491" y="0">t</tspan><tspan class="cls-25" x="23.8926" y="0">erials, </tspan></text><text class="cls-7" transform="translate(6.2988 95.5263)"><tspan class="cls-31" x="0" y="0">s</tspan><tspan class="cls-25" x="2.0005" y="0">ervices, equipmentand activities </tspan></text><text class="cls-7" transform="translate(10.457 101.4355)"><tspan class="cls-30" x="0" y="0">r</tspan><tspan x="1.439" y="0">equi</tspan><tspan class="cls-30" x="9.0889" y="0">r</tspan><tspan x="10.5278" y="0">ed </tspan><tspan class="cls-31" x="16.0605" y="0">t</tspan><tspan class="cls-13" x="17.6084" y="0">o support the p</tspan><tspan class="cls-35" x="45.668" y="0">r</tspan><tspan x="47.0864" y="0">oject </tspan></text><text class="cls-7" transform="translate(24.0273 107.3437)"><tspan x="0" y="0">during the engineering, </tspan></text><text class="cls-7" transform="translate(10.3799 113.2528)"><tspan x="0" y="0">p</tspan><tspan class="cls-35" x="2.2876" y="0">r</tspan><tspan class="cls-13" x="3.7061" y="0">ocu</tspan><tspan class="cls-30" x="10.1602" y="0">r</tspan><tspan x="11.5991" y="0">ement, construction and </tspan></text><text class="cls-7" transform="translate(12.2676 119.161)"><tspan x="0" y="0">p</tspan><tspan class="cls-26" x="2.2876" y="0">r</tspan><tspan class="cls-25" x="3.7261" y="0">eope</tspan><tspan class="cls-23" x="12.5444" y="0">r</tspan><tspan class="cls-25" x="13.9429" y="0">ational </tspan><tspan class="cls-5" x="27.231" y="0">t</tspan><tspan x="28.7749" y="0">esting pha</tspan><tspan class="cls-5" x="47.8423" y="0">s</tspan><tspan x="49.8389" y="0">es</tspan></text><text class="cls-7" transform="translate(29.5527 27.6698)"><tspan x="0" y="0">of ca. 15% </tspan><tspan class="cls-5" x="21.1367" y="0">t</tspan><tspan class="cls-13" x="22.6807" y="0">o c</tspan><tspan class="cls-33" x="27.8579" y="0">ov</tspan><tspan x="32.0044" y="0">er </tspan></text><text class="cls-7" transform="translate(16.3047 33.5741)"><tspan x="0" y="0">un</tspan><tspan class="cls-6" x="4.6558" y="0">f</tspan><tspan class="cls-13" x="6.1309" y="0">o</tspan><tspan class="cls-30" x="8.3857" y="0">r</tspan><tspan x="9.8247" y="0">e</tspan><tspan class="cls-5" x="11.9624" y="0">s</tspan><tspan class="cls-25" x="13.959" y="0">eeable i</tspan><tspan class="cls-5" x="27.6309" y="0">t</tspan><tspan class="cls-25" x="29.1748" y="0">ems within </tspan></text><text class="cls-7" transform="translate(18.7744 39.4833)"><tspan x="0" y="0">the </tspan><tspan class="cls-31" x="7.1006" y="0">s</tspan><tspan class="cls-25" x="9.1011" y="0">cope of the estima</tspan><tspan class="cls-31" x="42.7705" y="0">t</tspan><tspan x="44.3184" y="0" xml:space="preserve">e  </tspan></text><text class="cls-36" transform="translate(203.5068 76.0473)"><tspan x="0" y="0">продукты питания</tspan></text><text class="cls-36" transform="translate(30.5967 76.0473)"><tspan x="0" y="0">Indir</tspan><tspan class="cls-24" x="11.3359" y="0">ec</tspan><tspan x="17.2026" y="0">t </tspan><tspan class="cls-14" x="21.5063" y="0">cost</tspan><tspan x="33.7241" y="0">s</tspan></text><text class="cls-36" transform="translate(35.2422 12.5102)"><tspan class="cls-14" x="0" y="0">C</tspan><tspan x="3.0684" y="0">ontingen</tspan><tspan class="cls-34" x="25.8433" y="0">c</tspan><tspan class="cls-32" x="28.8184" y="0">y</tspan></text><text class="cls-10" transform="translate(203.6963 83.9823)"><tspan class="cls-27" x="0" y="0">2.4</tspan><tspan class="cls-12" x="14.3252" y="0" xml:space="preserve"> bln</tspan></text><text class="cls-10" transform="translate(43.874 83.9823)"><tspan class="cls-29" x="0" y="0">0</tspan><tspan class="cls-28" x="5.9878" y="0">.5</tspan><tspan class="cls-11" x="14.3442" y="0" xml:space="preserve"> bln</tspan></text><text class="cls-10" transform="translate(43.5654 21.3822)"><tspan class="cls-29" x="0" y="0">0</tspan><tspan class="cls-28" x="5.9878" y="0">.4</tspan><tspan class="cls-12" x="14.6519" y="0" xml:space="preserve"> bln</tspan></text><g><line class="cls-2" x1="187.2587" y1="74.8848" x2="199.6826" y2="74.8848"/><path class="cls-21" d="M199.6241,76.0536c.6454,0,1.1689-.5235,1.1689-1.1689s-.5235-1.1689-1.1689-1.1689-1.1689,.5235-1.1689,1.1689,.5235,1.1689,1.1689,1.1689"/><polyline class="cls-3" points="71.5507 10.3249 89.0787 10.3249 103.5255 27.6287"/><path class="cls-18" d="M71.6091,11.4937c-.6454,0-1.1689-.5235-1.1689-1.1689s.5235-1.1689,1.1689-1.1689,1.1689,.5235,1.1689,1.1689-.5235,1.1689-1.1689,1.1689"/></g><text class="cls-8" transform="translate(123.3203 77.394)"><tspan x="0" y="0">40</tspan></text><text class="cls-9" transform="translate(144.8691 77.394)"><tspan x="0" y="0">%</tspan></text><text/></svg>