<?xml version="1.0" encoding="UTF-8"?><svg id="Layer_1" xmlns="http://www.w3.org/2000/svg" viewBox="0 0 245.7761 141.5378"><defs><style>.cls-1,.cls-2{fill:none;}.cls-3{fill:#f2f2f2;}.cls-4{fill:#fff;}.cls-5,.cls-6{fill:#7ec500;}.cls-7{fill:#bcbebe;}.cls-8{fill:#5a5a5c;}.cls-6,.cls-9,.cls-10{stroke:#fff;}.cls-6,.cls-9,.cls-10,.cls-2{stroke-miterlimit:10;stroke-width:.5px;}.cls-9{fill:#1256bb;}.cls-10{fill:#50a8ff;}.cls-2{stroke:#7ec500;}</style></defs><g><path class="cls-7" d="M72.849,70.7463L35.3431,19.1239c11.4041-8.2856,23.4096-12.1864,37.5059-12.1864v63.8088Z"/><path class="cls-10" d="M72.849,70.7463L12.1632,90.4643c-8.712-26.8127,.3717-54.7693,23.1799-71.3404l37.5059,51.6224Z"/><path class="cls-9" d="M72.849,70.7463l37.5059,51.6224c-28.5103,20.7139-68.4144,14.3937-89.1283-14.1165-4.1428-5.7021-6.8854-11.0847-9.0634-17.7879l60.6858-19.718Z"/><path class="cls-6" d="M72.849,70.7463V6.9375c35.2406,0,63.8088,28.5682,63.8088,63.8088,0,21.1444-9.1968,39.194-26.3029,51.6224l-37.5059-51.6224Z"/></g><g><path class="cls-5" d="M163.0162,23.0341h-1.625v2.0952h-2.252v-2.0952h-5.373v-1.5537l4.7036-6.3281h2.4229l-4.3613,6.0005h2.6792v-1.8672h2.1807v1.8672h1.625v1.8813Z"/><path class="cls-5" d="M165.7672,24.6874c-.6465-.4082-1.1523-1-1.5181-1.7744s-.5488-1.6982-.5488-2.772,.1831-1.998,.5488-2.7725,.8716-1.3657,1.5181-1.7744c.646-.4082,1.3823-.6128,2.209-.6128s1.563,.2046,2.2095,.6128c.646,.4087,1.1519,1,1.5176,1.7744s.5488,1.6987,.5488,2.7725-.1831,1.9976-.5488,2.772-.8716,1.3662-1.5176,1.7744c-.6465,.4087-1.3828,.6128-2.2095,.6128s-1.563-.2041-2.209-.6128Zm3.6416-2.1235c.3467-.5225,.52-1.3301,.52-2.4229s-.1733-1.9004-.52-2.4233c-.3472-.5225-.8247-.7837-1.4326-.7837-.5986,0-1.0713,.2612-1.418,.7837-.3472,.5229-.52,1.3306-.52,2.4233s.1729,1.9004,.52,2.4229c.3467,.5225,.8193,.7837,1.418,.7837,.6079,0,1.0854-.2612,1.4326-.7837Z"/><path class="cls-5" d="M173.8917,22.5185c-.2334-.2427-.3501-.5742-.3501-.9941,0-.2754,.0537-.5156,.1611-.7212,.1074-.2051,.2554-.3628,.4443-.4722,.1895-.1099,.4048-.1646,.6479-.1646,.373,0,.6763,.1226,.9097,.3672,.2334,.2451,.3501,.5752,.3501,.9907,0,.4199-.1167,.7515-.3501,.9941s-.5366,.3638-.9097,.3638c-.3691,0-.6699-.1211-.9033-.3638Zm3.8013-2.2891h1.0078l-3.3462,4.8999h-1.0078l3.3462-4.8999Zm-2.5972,1.8198c.0747-.1118,.1118-.2871,.1118-.5249s-.0371-.4131-.1118-.5249c-.0747-.1123-.1748-.168-.3008-.168-.1216,0-.2207,.0571-.2979,.1714-.0767,.1143-.1152,.2881-.1152,.5215s.0386,.4072,.1152,.5215c.0771,.1143,.1763,.1714,.2979,.1714,.126,0,.2261-.0557,.3008-.168Zm2.2505,2.7793c-.231-.2427-.3467-.5742-.3467-.9941,0-.4155,.1167-.7456,.3501-.9907,.2334-.2446,.5342-.3672,.9033-.3672,.373,0,.6763,.1226,.9097,.3672,.2334,.2451,.3501,.5752,.3501,.9907,0,.4199-.1167,.7515-.3501,.9941s-.5366,.3638-.9097,.3638c-.3735,0-.6758-.1211-.9067-.3638Zm1.2075-.4692c.0747-.1118,.1118-.2871,.1118-.5249,0-.2383-.0371-.4131-.1118-.5249-.0747-.1123-.1748-.168-.3008-.168-.1265,0-.2266,.0557-.3013,.168-.0747,.1118-.1118,.2866-.1118,.5249,0,.2378,.0371,.4131,.1118,.5249s.1748,.168,.3013,.168c.126,0,.2261-.0562,.3008-.168Z"/></g><g><path d="M158.7155,29.0092v4.9004h-.5112v-4.4521h-3.1011v4.4521h-.5107v-4.9004h4.123Z"/><path d="M163.0831,30.434c.2798,.1562,.4995,.377,.6582,.6611,.1582,.2852,.2378,.6094,.2378,.9736,0,.3682-.0796,.6953-.2378,.9795-.1587,.2852-.377,.5059-.6548,.6621s-.5913,.2344-.9414,.2344c-.2988,0-.5684-.0615-.8086-.1855s-.4375-.3047-.5913-.543v2.0518h-.4971v-5.04h.4761v.7275c.1494-.2422,.3462-.4287,.5913-.5596s.5215-.1963,.8296-.1963c.3452,0,.6582,.0781,.938,.2344Zm-.2729,2.8906c.21-.1182,.3745-.2881,.4937-.5068,.1187-.2197,.1782-.4688,.1782-.749s-.0596-.5283-.1782-.7461c-.1191-.2168-.2837-.3857-.4937-.5068s-.4434-.1826-.7002-.1826c-.2612,0-.4956,.0615-.7031,.1826-.208,.1211-.3711,.29-.4902,.5068-.1191,.2178-.1787,.4658-.1787,.7461s.0596,.5293,.1787,.749c.1191,.2188,.2822,.3887,.4902,.5068,.2075,.1191,.4419,.1787,.7031,.1787,.2568,0,.4902-.0596,.7002-.1787Z"/><path d="M165.61,33.7035c-.2847-.1611-.5088-.3838-.6719-.6689-.1636-.2842-.2451-.6064-.2451-.9658s.0815-.6816,.2451-.9658c.1631-.2852,.3872-.5068,.6719-.665,.2847-.1592,.604-.2383,.959-.2383,.3545,0,.6743,.0791,.959,.2383,.2847,.1582,.5073,.3799,.6685,.665,.1611,.2842,.2417,.6064,.2417,.9658s-.0806,.6816-.2417,.9658c-.1611,.2852-.3838,.5078-.6685,.6689-.2847,.1602-.6045,.2412-.959,.2412-.355,0-.6743-.0811-.959-.2412Zm1.6626-.3789c.2075-.1182,.3696-.2881,.4863-.5068,.1167-.2197,.1748-.4688,.1748-.749s-.0581-.5293-.1748-.749-.2788-.3887-.4863-.5078c-.208-.1191-.4424-.1787-.7036-.1787-.2617,0-.4961,.0596-.7036,.1787s-.3711,.2881-.4897,.5078c-.1191,.2197-.1787,.4688-.1787,.749s.0596,.5293,.1787,.749c.1187,.2188,.2822,.3887,.4897,.5068,.2075,.1191,.4419,.1787,.7036,.1787,.2612,0,.4956-.0596,.7036-.1787Z"/><path d="M173.0929,33.476v1.3223h-.4688v-.8887h-3.2969v.8887h-.4692v-1.3223h.21c.2476-.0146,.4155-.1963,.5039-.5469,.0889-.3496,.1494-.8398,.1821-1.4697l.0488-1.2314h2.7163v3.248h.5737Zm-3.0171-.6973c-.0649,.3389-.1816,.5713-.3496,.6973h2.2959v-2.8076h-1.771l-.042,.8193c-.0234,.5225-.0679,.9531-.1333,1.291Z"/><path d="M177.1881,30.2279l-1.8408,4.123c-.1494,.3447-.3223,.5898-.5181,.7344-.1963,.1445-.4316,.2168-.707,.2168-.1772,0-.3433-.0273-.4971-.084-.1538-.0557-.2871-.1396-.3989-.252l.231-.3711c.1865,.1875,.4106,.2803,.6719,.2803,.168,0,.3115-.0469,.4307-.1396,.1191-.0938,.23-.252,.3325-.4766l.1611-.3564-1.645-3.6748h.5181l1.3857,3.1289,1.3862-3.1289h.4897Z"/><path d="M179.3019,32.2719h-.8398v1.6377h-.4971v-3.6816h.4971v1.6162h.8467l1.2954-1.6162h.5386l-1.4487,1.7842,1.5542,1.8975h-.5884l-1.3579-1.6377Z"/><path d="M184.6217,30.6684h-1.3931v3.2412h-.4966v-3.2412h-1.3931v-.4404h3.2827v.4404Z"/><path d="M187.9469,31.8373c.2427,.2012,.3638,.4902,.3638,.8682,0,.3926-.1304,.6934-.3916,.9033-.2617,.21-.6348,.3125-1.1201,.3076l-1.4561-.0068v-3.6816h.4971v1.2881l1.0498,.0137c.4619,.0049,.8145,.1074,1.0571,.3076Zm-.4023,1.4951c.1748-.1426,.2622-.3516,.2622-.627,0-.2705-.0864-.4717-.2588-.6016-.1729-.1309-.4316-.1982-.7773-.2031l-.9307-.0146v1.6387l.9307,.0137c.3408,.0049,.5986-.0645,.7739-.2061Zm1.3823-3.1045h.4971v3.6816h-.4971v-3.6816Z"/><path d="M195.9757,30.2279v3.6816h-.4971v-3.2412h-2.3101v3.2412h-.4971v-3.6816h3.3042Z"/><path d="M197.3898,30.2279h.4971v2.9258l2.457-2.9258h.4409v3.6816h-.4971v-2.9258l-2.4502,2.9258h-.4478v-3.6816Z"/><path d="M204.7955,30.6684h-1.3931v3.2412h-.4966v-3.2412h-1.3931v-.4404h3.2827v.4404Z"/><path d="M207.8898,30.56c.2563,.2402,.3848,.5967,.3848,1.0674v2.2822h-.4761v-.5742c-.1118,.1914-.2764,.3408-.4932,.4482-.2173,.1074-.4751,.1611-.7734,.1611-.4106,0-.7378-.0986-.98-.2939-.2427-.1963-.3643-.4551-.3643-.7773,0-.3125,.1133-.5645,.3394-.7559,.2266-.1914,.5869-.2871,1.0815-.2871h1.1689v-.2236c0-.3174-.0884-.5586-.2656-.7246-.1777-.166-.4365-.249-.7773-.249-.2334,0-.457,.0391-.6719,.1162-.2148,.0762-.3989,.1826-.5527,.3184l-.2241-.3711c.1865-.1592,.4106-.2812,.6719-.3672,.2612-.0869,.5366-.1299,.8262-.1299,.4805,0,.8491,.1201,1.106,.3604Zm-.5601,2.7998c.2007-.1279,.3501-.3135,.4478-.5566v-.6016h-1.1548c-.6299,0-.9448,.2197-.9448,.6582,0,.2148,.0815,.3838,.2446,.5068,.1636,.124,.3921,.1855,.686,.1855,.2803,0,.5205-.0635,.7212-.1924Z"/><path d="M209.5973,30.2279h.4971v1.6309h2.3169v-1.6309h.4971v3.6816h-.4971v-1.624h-2.3169v1.624h-.4971v-3.6816Z"/><path d="M214.3224,30.2279h.4971v2.9258l2.457-2.9258h.4409v3.6816h-.4971v-2.9258l-2.4502,2.9258h-.4478v-3.6816Z"/><path d="M221.9664,30.2279v3.6816h-.4551v-1.2178h-1.2949l-.854,1.2178h-.5391l.917-1.2881c-.2847-.0791-.5039-.2148-.6582-.4062-.1538-.1914-.231-.4336-.231-.7275,0-.4111,.1401-.7236,.4199-.9385,.2803-.2139,.6626-.3213,1.1479-.3213h1.5474Zm-1.5684,2.0928h1.1133v-1.6523h-1.0781c-.7188,0-1.0781,.2783-1.0781,.833,0,.5459,.3477,.8193,1.043,.8193Z"/></g><g><path class="cls-8" d="M155.2575,99.8197l1.0146,1.4844,1.0151-1.4844h1.3301l-1.6309,2.3457,1.7637,2.5547h-1.3369l-1.1411-1.624-1.127,1.624h-1.3091l1.75-2.5059-1.6377-2.3945h1.3091Z"/><path class="cls-8" d="M160.3112,99.8197l1.0146,1.4844,1.0151-1.4844h1.3301l-1.6309,2.3457,1.7637,2.5547h-1.3369l-1.1411-1.624-1.127,1.624h-1.3091l1.75-2.5059-1.6377-2.3945h1.3091Z"/></g><g><path d="M170.3341,104.4652c-.394-.2178-.7021-.5146-.9238-.8926s-.3325-.8027-.3325-1.2744c0-.4707,.1108-.8955,.3325-1.2734s.5298-.6758,.9238-.8926c.3945-.2178,.8345-.3262,1.3198-.3262s.9229,.1074,1.3125,.3223,.6963,.5127,.9204,.8926c.2241,.3809,.3359,.8066,.3359,1.2773,0,.4717-.1118,.8975-.3359,1.2773-.2241,.3809-.5308,.6787-.9204,.8926-.3896,.2148-.8271,.3223-1.3125,.3223s-.9253-.1084-1.3198-.3252Zm2.3696-.3994c.3125-.1748,.5576-.417,.7349-.7275,.1777-.3105,.2661-.6572,.2661-1.04s-.0884-.7285-.2661-1.0391c-.1772-.3105-.4224-.5537-.7349-.7285s-.6626-.2627-1.0498-.2627c-.3877,0-.7388,.0879-1.0537,.2627s-.5625,.418-.7417,.7285c-.1797,.3105-.2695,.6562-.2695,1.0391s.0898,.7295,.2695,1.04c.1792,.3105,.4268,.5527,.7417,.7275s.666,.2627,1.0537,.2627c.3872,0,.7373-.0879,1.0498-.2627Z"/><path d="M178.9337,104.3149v1.3223h-.4688v-.8887h-3.2969v.8887h-.4692v-1.3223h.21c.2476-.0146,.4155-.1963,.5039-.5469,.0889-.3496,.1494-.8398,.1821-1.4697l.0488-1.2314h2.7163v3.248h.5737Zm-3.0171-.6973c-.0649,.3389-.1816,.5713-.3496,.6973h2.2959v-2.8076h-1.771l-.042,.8193c-.0234,.5225-.0679,.9531-.1333,1.291Z"/><path d="M183.1193,103.0619h-3.0796c.0278,.3818,.1748,.6914,.4409,.9268,.2661,.2363,.6021,.3535,1.0078,.3535,.2285,0,.4385-.041,.6299-.1221,.1914-.082,.3574-.2021,.4971-.3604l.2803,.3213c-.1636,.1963-.3677,.3457-.6128,.4482-.2446,.1025-.5142,.1543-.8081,.1543-.3784,0-.7129-.0811-1.0049-.2412-.2915-.1611-.519-.3838-.6821-.6689-.1636-.2842-.2451-.6064-.2451-.9658s.0781-.6816,.2344-.9658c.1562-.2852,.3711-.5068,.644-.665,.2729-.1592,.5796-.2383,.9204-.2383s.6465,.0791,.917,.2383c.2705,.1582,.4829,.3789,.6372,.6611,.1538,.2822,.231,.6055,.231,.9697l-.0073,.1543Zm-2.6704-1.2568c-.2402,.2266-.377,.5215-.4092,.8857h2.6108c-.0327-.3643-.1694-.6592-.4097-.8857s-.54-.3398-.8994-.3398c-.3545,0-.6523,.1133-.8926,.3398Z"/><path d="M187.4528,103.1108h-.7979v1.6377h-.4971v-1.6377h-.7983l-1.127,1.6377h-.5947l1.3228-1.8975-1.2178-1.7842h.5391l1.0776,1.6162h.7983v-1.6162h.4971v1.6162h.7979l1.085-1.6162h.5391l-1.2183,1.792,1.3232,1.8896h-.5952l-1.1338-1.6377Z"/><path d="M193.5983,104.3149v1.3223h-.4688v-.8887h-3.2969v.8887h-.4692v-1.3223h.21c.2476-.0146,.4155-.1963,.5039-.5469,.0889-.3496,.1494-.8398,.1821-1.4697l.0488-1.2314h2.7163v3.248h.5737Zm-3.0171-.6973c-.0649,.3389-.1816,.5713-.3496,.6973h2.2959v-2.8076h-1.771l-.042,.8193c-.0234,.5225-.0679,.9531-.1333,1.291Z"/><path d="M196.9376,101.3988c.2563,.2402,.3848,.5967,.3848,1.0674v2.2822h-.4761v-.5742c-.1118,.1914-.2764,.3408-.4932,.4482-.2173,.1074-.4751,.1611-.7734,.1611-.4106,0-.7378-.0986-.98-.2939-.2427-.1963-.3643-.4551-.3643-.7773,0-.3125,.1133-.5645,.3394-.7559,.2266-.1914,.5869-.2871,1.0815-.2871h1.1689v-.2236c0-.3174-.0884-.5586-.2656-.7246-.1777-.166-.4365-.249-.7773-.249-.2334,0-.457,.0391-.6719,.1162-.2148,.0762-.3989,.1826-.5527,.3184l-.2241-.3711c.1865-.1592,.4106-.2812,.6719-.3672,.2612-.0869,.5366-.1299,.8262-.1299,.4805,0,.8491,.1201,1.106,.3604Zm-.5601,2.7998c.2007-.1279,.3501-.3135,.4478-.5566v-.6016h-1.1548c-.6299,0-.9448,.2197-.9448,.6582,0,.2148,.0815,.3838,.2446,.5068,.1636,.124,.3921,.1855,.686,.1855,.2803,0,.5205-.0635,.7212-.1924Z"/></g><g><path class="cls-8" d="M155.2575,112.2387l1.0146,1.4844,1.0151-1.4844h1.3301l-1.6309,2.3457,1.7637,2.5547h-1.3369l-1.1411-1.624-1.127,1.624h-1.3091l1.75-2.5059-1.6377-2.3945h1.3091Z"/><path class="cls-8" d="M160.3112,112.2387l1.0146,1.4844,1.0151-1.4844h1.3301l-1.6309,2.3457,1.7637,2.5547h-1.3369l-1.1411-1.624-1.127,1.624h-1.3091l1.75-2.5059-1.6377-2.3945h1.3091Z"/></g><g><path d="M172.8087,112.7152c.3545,.2988,.5322,.71,.5322,1.2324s-.1777,.9316-.5322,1.2285c-.3545,.2959-.8447,.4443-1.4697,.4443h-1.3159v1.5469h-.5181v-4.9004h1.834c.625,0,1.1152,.1494,1.4697,.4482Zm-.3711,2.1318c.2568-.2129,.3853-.5127,.3853-.8994,0-.3965-.1284-.7012-.3853-.9141-.2563-.2119-.6274-.3184-1.1128-.3184h-1.3018v2.4502h1.3018c.4854,0,.8564-.1064,1.1128-.3184Z"/><path d="M176.7286,113.8178c.2563,.2402,.3848,.5967,.3848,1.0674v2.2822h-.4761v-.5742c-.1118,.1914-.2764,.3408-.4932,.4482-.2173,.1074-.4751,.1611-.7734,.1611-.4106,0-.7378-.0986-.98-.2939-.2427-.1963-.3643-.4551-.3643-.7773,0-.3125,.1133-.5645,.3394-.7559,.2266-.1914,.5869-.2871,1.0815-.2871h1.1689v-.2236c0-.3174-.0884-.5586-.2656-.7246-.1777-.166-.4365-.249-.7773-.249-.2334,0-.457,.0391-.6719,.1162-.2148,.0762-.3989,.1826-.5527,.3184l-.2241-.3711c.1865-.1592,.4106-.2812,.6719-.3672,.2612-.0869,.5366-.1299,.8262-.1299,.4805,0,.8491,.1201,1.106,.3604Zm-.5601,2.7998c.2007-.1279,.3501-.3135,.4478-.5566v-.6016h-1.1548c-.6299,0-.9448,.2197-.9448,.6582,0,.2148,.0815,.3838,.2446,.5068,.1636,.124,.3921,.1855,.686,.1855,.2803,0,.5205-.0635,.7212-.1924Z"/><path d="M180.8341,115.5649c.1421,.1494,.2134,.3311,.2134,.5459,0,.2139-.0732,.4053-.2202,.5732s-.3467,.2979-.5986,.3887-.5298,.1367-.833,.1367c-.2661,0-.5273-.0381-.7842-.1152-.2563-.0771-.4805-.1904-.6719-.3398l.168-.3711c.168,.126,.3643,.2246,.5879,.2939,.2241,.0703,.4507,.1055,.6792,.1055,.3403,0,.6196-.0645,.8364-.1924,.2173-.1289,.3257-.3027,.3257-.5215,0-.1963-.0889-.3496-.2661-.459s-.4199-.1641-.728-.1641h-.6299v-.3643h.6021c.2749,0,.4971-.0527,.665-.1572,.168-.1055,.252-.2461,.252-.4238,0-.1963-.0947-.3496-.2837-.4619s-.4351-.168-.7383-.168c-.397,0-.7891,.1006-1.1763,.3008l-.1401-.3848c.439-.2285,.894-.3428,1.3652-.3428,.2798,0,.5332,.041,.7593,.1221,.2266,.082,.4038,.1973,.5322,.3467s.1924,.3223,.1924,.5176c0,.1865-.064,.3525-.1924,.4971s-.3022,.252-.5215,.3223c.2612,.0605,.4629,.166,.6055,.3154Z"/><path d="M185.2687,116.1664c0,.3223-.1187,.5693-.3569,.7422-.2378,.1729-.5928,.2588-1.064,.2588h-1.6729v-3.6816h1.624c.4199,0,.749,.0811,.9868,.2451,.2383,.1631,.3569,.3965,.3569,.6992,0,.2012-.0547,.3721-.1641,.5146-.1099,.1426-.2627,.249-.459,.3184,.4995,.1172,.749,.418,.749,.9033Zm-2.6108-1.043h1.106c.2847,0,.5029-.0537,.6548-.1611,.1514-.1074,.2275-.2637,.2275-.4688s-.0762-.3594-.2275-.4619c-.1519-.1025-.3701-.1543-.6548-.1543h-1.106v1.2461Zm1.8833,1.498c.1582-.1025,.2378-.2637,.2378-.4834,0-.2188-.0723-.3809-.2168-.4863-.145-.1045-.3735-.1572-.686-.1572h-1.2183v1.2812h1.1689c.3174,0,.5552-.0518,.7144-.1543Z"/><path d="M189.4406,113.4858v3.6816h-.4966v-3.2412h-1.7642l-.0488,.9102c-.0376,.7656-.1265,1.3535-.2661,1.7637-.1401,.4111-.3896,.6162-.749,.6162-.0981,0-.2173-.0186-.3569-.0557l.0347-.4268c.084,.0186,.1426,.0273,.1753,.0273,.1914,0,.3359-.0879,.4341-.2656,.0977-.1777,.1631-.3965,.1958-.6582,.0327-.2607,.0605-.6064,.084-1.0361l.063-1.3154h2.6948Z"/><path d="M194.0743,115.4809h-3.0796c.0278,.3818,.1748,.6914,.4409,.9268,.2661,.2363,.6021,.3535,1.0078,.3535,.2285,0,.4385-.041,.6299-.1221,.1914-.082,.3574-.2021,.4971-.3604l.2803,.3213c-.1636,.1963-.3677,.3457-.6128,.4482-.2446,.1025-.5142,.1543-.8081,.1543-.3784,0-.7129-.0811-1.0049-.2412-.2915-.1611-.519-.3838-.6821-.6689-.1636-.2842-.2451-.6064-.2451-.9658s.0781-.6816,.2344-.9658c.1562-.2852,.3711-.5068,.644-.665,.2729-.1592,.5796-.2383,.9204-.2383s.6465,.0791,.917,.2383c.2705,.1582,.4829,.3789,.6372,.6611,.1538,.2822,.231,.6055,.231,.9697l-.0073,.1543Zm-2.6704-1.2568c-.2402,.2266-.377,.5215-.4092,.8857h2.6108c-.0327-.3643-.1694-.6592-.4097-.8857s-.54-.3398-.8994-.3398c-.3545,0-.6523,.1133-.8926,.3398Z"/><path d="M197.9591,113.4858v3.6816h-.4971v-1.5332c-.4243,.1865-.8423,.2803-1.2529,.2803-.4434,0-.7886-.1016-1.0356-.3047-.2476-.2031-.3711-.5078-.3711-.9131v-1.2109h.4971v1.1826c0,.2754,.0884,.4844,.2656,.627,.1777,.1416,.4224,.2129,.7354,.2129,.3452,0,.7324-.0908,1.1616-.2725v-1.75h.4971Z"/><path d="M202.5934,115.4809h-3.0796c.0278,.3818,.1748,.6914,.4409,.9268,.2661,.2363,.6021,.3535,1.0078,.3535,.2285,0,.4385-.041,.6299-.1221,.1914-.082,.3574-.2021,.4971-.3604l.2803,.3213c-.1636,.1963-.3677,.3457-.6128,.4482-.2446,.1025-.5142,.1543-.8081,.1543-.3784,0-.7129-.0811-1.0049-.2412-.2915-.1611-.519-.3838-.6821-.6689-.1636-.2842-.2451-.6064-.2451-.9658s.0781-.6816,.2344-.9658c.1562-.2852,.3711-.5068,.644-.665,.2729-.1592,.5796-.2383,.9204-.2383s.6465,.0791,.917,.2383c.2705,.1582,.4829,.3789,.6372,.6611,.1538,.2822,.231,.6055,.231,.9697l-.0073,.1543Zm-2.6704-1.2568c-.2402,.2266-.377,.5215-.4092,.8857h2.6108c-.0327-.3643-.1694-.6592-.4097-.8857s-.54-.3398-.8994-.3398c-.3545,0-.6523,.1133-.8926,.3398Z"/><path d="M203.6993,113.4858h.4971v1.6309h2.3169v-1.6309h.4971v3.6816h-.4971v-1.624h-2.3169v1.624h-.4971v-3.6816Z"/><path d="M208.4244,113.4858h.4971v2.9258l2.457-2.9258h.4409v3.6816h-.4971v-2.9258l-2.4502,2.9258h-.4478v-3.6816Z"/><path d="M216.0685,113.4858v3.6816h-.4551v-1.2178h-1.2949l-.854,1.2178h-.5391l.917-1.2881c-.2847-.0791-.5039-.2148-.6582-.4062-.1538-.1914-.231-.4336-.231-.7275,0-.4111,.1401-.7236,.4199-.9385,.2803-.2139,.6626-.3213,1.1479-.3213h1.5474Zm-1.5684,2.0928h1.1133v-1.6523h-1.0781c-.7188,0-1.0781,.2783-1.0781,.833,0,.5459,.3477,.8193,1.043,.8193Z"/></g><g><path class="cls-8" d="M155.2575,124.6586l1.0146,1.4844,1.0151-1.4844h1.3301l-1.6309,2.3457,1.7637,2.5547h-1.3369l-1.1411-1.624-1.127,1.624h-1.3091l1.75-2.5059-1.6377-2.3945h1.3091Z"/><path class="cls-8" d="M160.3112,124.6586l1.0146,1.4844,1.0151-1.4844h1.3301l-1.6309,2.3457,1.7637,2.5547h-1.3369l-1.1411-1.624-1.127,1.624h-1.3091l1.75-2.5059-1.6377-2.3945h1.3091Z"/></g><g><path d="M174.5939,124.6869v4.9004h-.4971v-3.9199l-1.9248,3.2969h-.2451l-1.9248-3.2764v3.8994h-.4971v-4.9004h.4268l2.1279,3.6338,2.1069-3.6338h.4272Z"/><path d="M179.3468,127.9008h-3.0796c.0278,.3818,.1748,.6914,.4409,.9268,.2661,.2363,.6021,.3535,1.0078,.3535,.2285,0,.4385-.041,.6299-.1221,.1914-.082,.3574-.2021,.4971-.3604l.2803,.3213c-.1636,.1963-.3677,.3457-.6128,.4482-.2446,.1025-.5142,.1543-.8081,.1543-.3784,0-.7129-.0811-1.0049-.2412-.2915-.1611-.519-.3838-.6821-.6689-.1636-.2842-.2451-.6064-.2451-.9658s.0781-.6816,.2344-.9658c.1562-.2852,.3711-.5068,.644-.665,.2729-.1592,.5796-.2383,.9204-.2383s.6465,.0791,.917,.2383c.2705,.1582,.4829,.3789,.6372,.6611,.1538,.2822,.231,.6055,.231,.9697l-.0073,.1543Zm-2.6704-1.2568c-.2402,.2266-.377,.5215-.4092,.8857h2.6108c-.0327-.3643-.1694-.6592-.4097-.8857s-.54-.3398-.8994-.3398c-.3545,0-.6523,.1133-.8926,.3398Z"/><path d="M184.0436,129.1537v1.3223h-.4688v-.8887h-3.2969v.8887h-.4692v-1.3223h.21c.2476-.0146,.4155-.1963,.5039-.5469,.0889-.3496,.1494-.8398,.1821-1.4697l.0488-1.2314h2.7163v3.248h.5737Zm-3.0171-.6973c-.0649,.3389-.1816,.5713-.3496,.6973h2.2959v-2.8076h-1.771l-.042,.8193c-.0234,.5225-.0679,.9531-.1333,1.291Z"/><path d="M185.0099,125.9057h.4971v2.9258l2.457-2.9258h.4409v3.6816h-.4971v-2.9258l-2.4502,2.9258h-.4478v-3.6816Z"/><path d="M193.6617,129.1537v1.3574h-.4688v-.9238h-3.3672v-3.6816h.4971v3.248h2.2471v-3.248h.4971v3.248h.5947Z"/><path d="M194.6134,125.9057h.4971v2.9258l2.457-2.9258h.4409v3.6816h-.4971v-2.9258l-2.4502,2.9258h-.4478v-3.6816Z"/><path d="M199.4293,125.9057h.4971v1.6309h2.3169v-1.6309h.4971v3.6816h-.4971v-1.624h-2.3169v1.624h-.4971v-3.6816Z"/><path d="M206.5275,126.2377c.2563,.2402,.3848,.5967,.3848,1.0674v2.2822h-.4761v-.5742c-.1118,.1914-.2764,.3408-.4932,.4482-.2173,.1074-.4751,.1611-.7734,.1611-.4106,0-.7378-.0986-.98-.2939-.2427-.1963-.3643-.4551-.3643-.7773,0-.3125,.1133-.5645,.3394-.7559,.2266-.1914,.5869-.2871,1.0815-.2871h1.1689v-.2236c0-.3174-.0884-.5586-.2656-.7246-.1777-.166-.4365-.249-.7773-.249-.2334,0-.457,.0391-.6719,.1162-.2148,.0762-.3989,.1826-.5527,.3184l-.2241-.3711c.1865-.1592,.4106-.2812,.6719-.3672,.2612-.0869,.5366-.1299,.8262-.1299,.4805,0,.8491,.1201,1.106,.3604Zm-.5601,2.7998c.2007-.1279,.3501-.3135,.4478-.5566v-.6016h-1.1548c-.6299,0-.9448,.2197-.9448,.6582,0,.2148,.0815,.3838,.2446,.5068,.1636,.124,.3921,.1855,.686,.1855,.2803,0,.5205-.0635,.7212-.1924Z"/></g><polyline class="cls-1" points="196.4414 -14.2947 13.0654 -14.2947 13.0654 155.4127"/><path class="cls-4" d="M72.7516,109.1082c-21.1107,0-38.2853-17.1746-38.2853-38.2849s17.1746-38.2853,38.2853-38.2853,38.2853,17.1746,38.2853,38.2853-17.1746,38.2849-38.2853,38.2849"/><path class="cls-3" d="M72.7516,33.4173c20.6586,0,37.4058,16.7471,37.4058,37.4058s-16.7471,37.4058-37.4058,37.4058-37.4058-16.7475-37.4058-37.4058,16.7471-37.4058,37.4058-37.4058m0-1.7591c-10.4612,0-20.2964,4.0738-27.6937,11.4711-7.3973,7.3973-11.4711,17.2322-11.4711,27.6937s4.0738,20.2964,11.4711,27.6937c7.3973,7.397,17.2325,11.4711,27.6937,11.4711s20.2964-4.0741,27.6937-11.4711c7.3973-7.3973,11.4711-17.2325,11.4711-27.6937s-4.0738-20.2964-11.4711-27.6937c-7.3973-7.3973-17.2325-11.4711-27.6937-11.4711"/><line class="cls-2" x1="104.7534" y1="21.3827" x2="149.4786" y2="21.3827"/></svg>