<?xml version="1.0" encoding="UTF-8"?><svg id="Layer_1" xmlns="http://www.w3.org/2000/svg" viewBox="0 0 339.9832 205.3148"><defs><style>.cls-1,.cls-2{fill:#7ec500;}.cls-3{fill:#222;}.cls-4{fill:#a2a2a2;}.cls-2,.cls-5{stroke:#fff;stroke-miterlimit:10;stroke-width:.5px;}.cls-5{fill:#1256bb;}</style></defs><g><path class="cls-3" d="M3.9613,5.1006v1.2949h-.6001v-.7451H.6762v.7451H.0712l.0054-1.2949H.2265c.2197-.0103,.374-.1729,.4624-.4878s.1426-.7656,.1626-1.3525l.04-1.1099H3.4564v2.9502h.5049Zm-2.6499-.6475c-.0566,.3013-.147,.5171-.27,.6475h1.7749V2.7002H1.4462l-.0249,.6201c-.0166,.4536-.0532,.8311-.1099,1.1328Z"/><path class="cls-3" d="M4.5966,2.1504h.6396v2.4849l1.8804-2.4849h.605v3.5h-.6401V3.1704l-1.8799,2.48h-.605V2.1504Z"/><path class="cls-3" d="M11.8314,2.1504v3.5h-.6499v-1.5h-1.8101v1.5h-.6499V2.1504h.6499v1.4448h1.8101v-1.4448h.6499Z"/><path class="cls-3" d="M15.1513,4.8403h-1.75l-.3452,.8101h-.6699l1.5752-3.5h.6396l1.5801,3.5h-.6797l-.3501-.8101Zm-.2148-.5098l-.6602-1.5303-.6553,1.5303h1.3154Z"/><path class="cls-3" d="M19.9511,5.6504l-.0049-2.3198-1.1504,1.9199h-.29l-1.1499-1.8901v2.29h-.6147V2.1504h.5347l1.3853,2.3149,1.3701-2.3149h.5298l.0103,3.5h-.6201Z"/><path class="cls-3" d="M21.5766,2.1504h.6396v2.4849l1.8804-2.4849h.605v3.5h-.6401V3.1704l-1.8799,2.48h-.605V2.1504Z"/><path class="cls-3" d="M26.9911,4.1753h-.6499v1.4751h-.6396V2.1504h.6396v1.4648h.6699l1.0054-1.4648h.6899l-1.1953,1.6948,1.2402,1.8052h-.7349l-1.0254-1.4751Z"/><path class="cls-3" d="M31.6513,4.8403h-1.75l-.3452,.8101h-.6699l1.5752-3.5h.6396l1.5801,3.5h-.6797l-.3501-.8101Zm-.2148-.5098l-.6602-1.5303-.6553,1.5303h1.3154Z"/><path class="cls-3" d="M36.8686,2.3003c.2246,.1001,.3975,.2437,.5176,.4302,.1196,.1865,.1797,.4082,.1797,.665,0,.2534-.0601,.4741-.1797,.6626-.1201,.188-.293,.3325-.5176,.4321-.2251,.1001-.4893,.1504-.7925,.1504h-.79v1.0098h-.6499V2.1504h1.4399c.3032,0,.5674,.0498,.7925,.1499Zm-.1777,1.6099c.1465-.1196,.2202-.2915,.2202-.5146,0-.2236-.0737-.395-.2202-.5151s-.3618-.1802-.645-.1802h-.7598v1.3901h.7598c.2832,0,.4985-.0601,.645-.1802Z"/><path class="cls-3" d="M40.8764,5.1055v.5449h-2.625V2.1504h2.5547v.5449h-1.9048v.9102h1.6899v.5352h-1.6899v.9648h1.9751Z"/><path class="cls-3" d="M43.9408,4.8403h-1.75l-.3452,.8101h-.6699l1.5752-3.5h.6396l1.5801,3.5h-.6797l-.3501-.8101Zm-.2148-.5098l-.6602-1.5303-.6553,1.5303h1.3154Z"/><path class="cls-3" d="M48.516,2.1504v3.5h-.6401V2.7002h-1.3799l-.0298,.875c-.0171,.4902-.0571,.8877-.1201,1.1929-.0635,.3047-.165,.5366-.3052,.6948-.1396,.1582-.333,.2373-.5801,.2373-.0864,0-.2046-.0166-.355-.0498l.0454-.5649c.043,.0132,.0933,.02,.1499,.02,.2031,0,.3472-.1211,.4321-.3628,.0854-.2412,.1377-.6221,.1577-1.1421l.0498-1.4502h2.5752Z"/><path class="cls-3" d="M52.1029,3.6177c.2251,.1885,.3379,.4678,.3379,.8379,0,.3867-.1235,.6821-.3701,.8872s-.5933,.3076-1.04,.3076h-1.5049V2.1504h.6396v1.1851h.9702c.4199,0,.7427,.0942,.9673,.2822Zm-.5171,1.3579c.1362-.1167,.2046-.2866,.2046-.5103,0-.4233-.2632-.6348-.7896-.6348h-.8354v1.3198h.8354c.2529,0,.4482-.0581,.585-.1748Z"/><path class="cls-3" d="M56.2357,2.1504v3.5h-.6499v-1.5h-1.8101v1.5h-.6499V2.1504h.6499v1.4448h1.8101v-1.4448h.6499Z"/><path class="cls-3" d="M57.891,5.4678c-.2866-.1548-.5117-.3701-.6748-.645-.1636-.2749-.2451-.5825-.2451-.9224s.0815-.6475,.2451-.9224c.1631-.2749,.3882-.4902,.6748-.645,.2866-.1553,.6084-.2324,.9648-.2324,.3569,0,.6782,.0771,.9653,.2324,.2866,.1548,.5112,.3691,.6748,.6426,.1631,.2729,.2451,.5815,.2451,.9248s-.082,.6519-.2451,.9248c-.1636,.2734-.3882,.4878-.6748,.6426-.2871,.1553-.6084,.2324-.9653,.2324-.3564,0-.6782-.0771-.9648-.2324Zm1.5952-.4951c.1865-.105,.333-.2515,.4399-.4399,.1064-.188,.1597-.3989,.1597-.6323s-.0532-.4443-.1597-.6323c-.1069-.1885-.2534-.335-.4399-.4399-.187-.1055-.397-.1577-.6304-.1577s-.4434,.0522-.6299,.1577c-.1865,.105-.3335,.2515-.4399,.4399-.1069,.188-.1602,.3989-.1602,.6323s.0532,.4443,.1602,.6323c.1064,.1885,.2534,.335,.4399,.4399,.1865,.1055,.3965,.1577,.6299,.1577s.4434-.0522,.6304-.1577Z"/><path class="cls-3" d="M63.8559,2.7002h-1.7354l.0049,2.9502h-.6396V2.1504h2.375l-.0049,.5498Z"/><path class="cls-3" d="M65.081,5.4678c-.2866-.1548-.5117-.3701-.6748-.645-.1636-.2749-.2451-.5825-.2451-.9224s.0815-.6475,.2451-.9224c.1631-.2749,.3882-.4902,.6748-.645,.2866-.1553,.6084-.2324,.9648-.2324,.3569,0,.6782,.0771,.9653,.2324,.2866,.1548,.5112,.3691,.6748,.6426,.1631,.2729,.2451,.5815,.2451,.9248s-.082,.6519-.2451,.9248c-.1636,.2734-.3882,.4878-.6748,.6426-.2871,.1553-.6084,.2324-.9653,.2324-.3564,0-.6782-.0771-.9648-.2324Zm1.5952-.4951c.1865-.105,.333-.2515,.4399-.4399,.1064-.188,.1597-.3989,.1597-.6323s-.0532-.4443-.1597-.6323c-.1069-.1885-.2534-.335-.4399-.4399-.187-.1055-.397-.1577-.6304-.1577s-.4434,.0522-.6299,.1577c-.1865,.105-.3335,.2515-.4399,.4399-.1069,.188-.1602,.3989-.1602,.6323s.0532,.4443,.1602,.6323c.1064,.1885,.2534,.335,.4399,.4399,.1865,.1055,.3965,.1577,.6299,.1577s.4434-.0522,.6304-.1577Z"/><path class="cls-3" d="M72.8856,4.1377c.1167,.145,.1748,.3262,.1748,.5425,0,.3071-.1133,.5454-.3398,.7153-.2271,.1699-.5552,.2549-.9854,.2549h-1.6597V2.1504h1.5649c.3931,0,.6997,.0781,.9199,.2349s.3301,.3784,.3301,.665c0,.1836-.0444,.3418-.1323,.4751-.0884,.1333-.2163,.2349-.3828,.3052,.2231,.0601,.3936,.1621,.5103,.3071Zm-2.1704-.4922h.8701c.21,0,.3701-.042,.48-.125,.1104-.0835,.165-.2065,.165-.3701,0-.1631-.0547-.2876-.165-.3726-.1099-.085-.27-.1274-.48-.1274h-.8701v.9951Zm1.6904,.9849c0-.3398-.23-.5098-.6904-.5098h-1v1.0298h1c.4604,0,.6904-.1733,.6904-.52Z"/><path class="cls-3" d="M76.6356,4.1377c.1167,.145,.1748,.3262,.1748,.5425,0,.3071-.1133,.5454-.3398,.7153-.2271,.1699-.5552,.2549-.9854,.2549h-1.6597V2.1504h1.5649c.3931,0,.6997,.0781,.9199,.2349s.3301,.3784,.3301,.665c0,.1836-.0444,.3418-.1323,.4751-.0884,.1333-.2163,.2349-.3828,.3052,.2231,.0601,.3936,.1621,.5103,.3071Zm-2.1704-.4922h.8701c.21,0,.3701-.042,.48-.125,.1104-.0835,.165-.2065,.165-.3701,0-.1631-.0547-.2876-.165-.3726-.1099-.085-.27-.1274-.48-.1274h-.8701v.9951Zm1.6904,.9849c0-.3398-.23-.5098-.6904-.5098h-1v1.0298h1c.4604,0,.6904-.1733,.6904-.52Z"/><path class="cls-3" d="M80.6703,2.1504v3.5h-.6396V2.7002h-1.8154v2.9502h-.6396V2.1504h3.0947Z"/><path class="cls-3" d="M85.308,2.3003c.2246,.1001,.3975,.2437,.5176,.4302,.1196,.1865,.1797,.4082,.1797,.665,0,.2534-.0601,.4741-.1797,.6626-.1201,.188-.293,.3325-.5176,.4321-.2251,.1001-.4893,.1504-.7925,.1504h-.79v1.0098h-.6499V2.1504h1.4399c.3032,0,.5674,.0498,.7925,.1499Zm-.1777,1.6099c.1465-.1196,.2202-.2915,.2202-.5146,0-.2236-.0737-.395-.2202-.5151s-.3618-.1802-.645-.1802h-.7598v1.3901h.7598c.2832,0,.4985-.0601,.645-.1802Z"/><path class="cls-3" d="M87.3451,5.4678c-.2866-.1548-.5117-.3701-.6748-.645-.1636-.2749-.2451-.5825-.2451-.9224s.0815-.6475,.2451-.9224c.1631-.2749,.3882-.4902,.6748-.645,.2866-.1553,.6084-.2324,.9648-.2324,.3569,0,.6782,.0771,.9653,.2324,.2866,.1548,.5112,.3691,.6748,.6426,.1631,.2729,.2451,.5815,.2451,.9248s-.082,.6519-.2451,.9248c-.1636,.2734-.3882,.4878-.6748,.6426-.2871,.1553-.6084,.2324-.9653,.2324-.3564,0-.6782-.0771-.9648-.2324Zm1.5952-.4951c.1865-.105,.333-.2515,.4399-.4399,.1064-.188,.1597-.3989,.1597-.6323s-.0532-.4443-.1597-.6323c-.1069-.1885-.2534-.335-.4399-.4399-.187-.1055-.397-.1577-.6304-.1577s-.4434,.0522-.6299,.1577c-.1865,.105-.3335,.2515-.4399,.4399-.1069,.188-.1602,.3989-.1602,.6323s.0532,.4443,.1602,.6323c.1064,.1885,.2534,.335,.4399,.4399,.1865,.1055,.3965,.1577,.6299,.1577s.4434-.0522,.6304-.1577Z"/><path class="cls-3" d="M91.5878,5.4678c-.2852-.1548-.5083-.3691-.6699-.6426-.1621-.2729-.2427-.5815-.2427-.9248s.0815-.6519,.2451-.9248c.1631-.2734,.3872-.4878,.6724-.6426,.2852-.1553,.604-.2324,.9575-.2324,.2866,0,.5483,.0498,.7852,.1499,.2363,.1001,.4365,.2451,.6001,.4351l-.4204,.395c-.2534-.2734-.5649-.4102-.9351-.4102-.2397,0-.4546,.0522-.6445,.1577-.1904,.105-.3384,.2505-.4453,.4375-.1064,.1865-.1602,.3979-.1602,.6348s.0537,.4482,.1602,.6348c.1069,.187,.2549,.3325,.4453,.4375,.1899,.1055,.4048,.1577,.6445,.1577,.3701,0,.6816-.1382,.9351-.415l.4204,.3999c-.1636,.1899-.3643,.335-.6025,.4351-.2388,.1001-.501,.1499-.7876,.1499-.3535,0-.6724-.0771-.9575-.2324Z"/><path class="cls-3" d="M95.2128,5.4678c-.2852-.1548-.5083-.3691-.6699-.6426-.1621-.2729-.2427-.5815-.2427-.9248s.0815-.6519,.2451-.9248c.1631-.2734,.3872-.4878,.6724-.6426,.2852-.1553,.604-.2324,.9575-.2324,.2866,0,.5483,.0498,.7852,.1499,.2363,.1001,.4365,.2451,.6001,.4351l-.4204,.395c-.2534-.2734-.5649-.4102-.9351-.4102-.2397,0-.4546,.0522-.6445,.1577-.1904,.105-.3384,.2505-.4453,.4375-.1064,.1865-.1602,.3979-.1602,.6348s.0537,.4482,.1602,.6348c.1069,.187,.2549,.3325,.4453,.4375,.1899,.1055,.4048,.1577,.6445,.1577,.3701,0,.6816-.1382,.9351-.415l.4204,.3999c-.1636,.1899-.3643,.335-.6025,.4351-.2388,.1001-.501,.1499-.7876,.1499-.3535,0-.6724-.0771-.9575-.2324Z"/><path class="cls-3" d="M98.1903,2.1504h.6396v2.4849l1.8804-2.4849h.605v3.5h-.6401V3.1704l-1.8799,2.48h-.605V2.1504Z"/><path class="cls-3" d="M102.3202,2.1504h.6396v2.4849l1.8804-2.4849h.605v3.5h-.6401V3.1704l-1.8799,2.48h-.605V2.1504Z"/></g><g><rect class="cls-5" x="140.121" y="112.3034" width="28.1708" height="23.9884"/><rect class="cls-5" x="168.2918" y="94.3121" width="28.1708" height="41.9796"/><rect class="cls-5" x="196.4625" y="103.3077" width="28.1708" height="32.984"/><rect class="cls-5" x="224.6333" y="136.2917" width="28.1708" height="40.4804"/><g><path class="cls-4" d="M150.3974,144.2241h-2.4609v-.5103c.1709-.1465,.3423-.293,.5142-.4395,.1714-.1465,.3315-.292,.4795-.437,.3125-.3027,.5264-.543,.6421-.7217,.1157-.1777,.1733-.3706,.1733-.5771,0-.189-.0625-.3364-.1865-.4434-.125-.1064-.2983-.1597-.5215-.1597-.1479,0-.3086,.0259-.481,.0781s-.3408,.1318-.5054,.2393h-.0244v-.5127c.1157-.0571,.2695-.1089,.4629-.1562,.1924-.0474,.3794-.0708,.5601-.0708,.3726,0,.665,.0898,.8765,.2695,.2114,.1802,.3174,.4238,.3174,.7314,0,.1382-.0176,.2676-.0527,.3867-.0347,.1201-.0864,.2334-.1548,.3408-.0635,.1011-.1382,.2002-.2231,.2979-.0859,.0977-.1895,.2061-.3115,.3247-.1743,.1709-.354,.3364-.5396,.4966-.1855,.1606-.3589,.3091-.52,.4458h1.9556v.4175Z"/><path class="cls-4" d="M153.5712,142.4053c0,.6528-.1021,1.1313-.3062,1.437-.2046,.3047-.5215,.4575-.9512,.4575-.436,0-.7549-.1548-.9561-.4639-.2007-.3091-.3013-.7847-.3013-1.4258,0-.646,.1016-1.1235,.3052-1.4321,.2036-.3081,.521-.4624,.9521-.4624,.436,0,.7549,.1567,.9561,.4702,.2007,.313,.3013,.7861,.3013,1.4194Zm-.6421,1.1084c.0571-.1318,.0957-.2866,.1162-.4653,.02-.1777,.0303-.3926,.0303-.6431,0-.2476-.0103-.4624-.0303-.6445-.0205-.1821-.0601-.3369-.1187-.4639-.0571-.1255-.1348-.2197-.2329-.2832-.0986-.0635-.2251-.0952-.3799-.0952-.1528,0-.2793,.0317-.3799,.0952-.0996,.0635-.1792,.1597-.2378,.2881-.0552,.1206-.0933,.2773-.1138,.4712-.02,.1938-.0303,.4062-.0303,.6372,0,.2539,.0088,.4663,.0269,.6372s.0562,.3237,.1147,.459c.0537,.127,.1299,.2236,.2285,.2905,.0981,.0669,.229,.1001,.3916,.1001,.1528,0,.2798-.0317,.3809-.0952s.1792-.1597,.2344-.2881Z"/><path class="cls-4" d="M156.5473,144.2241h-1.9678v-.3711h.7568v-2.4365h-.7568v-.332c.1025,0,.2124-.0088,.3296-.0254,.1172-.0176,.2061-.042,.2661-.0747,.0747-.0405,.1338-.0923,.1768-.1548,.0435-.063,.0684-.147,.0747-.2529h.3784v3.2764h.7422v.3711Z"/><path class="cls-4" d="M159.9433,141.1333l-1.6455,3.0908h-.5225l1.7505-3.208h-2.0703v-.4272h2.4878v.5444Z"/></g><g><path class="cls-4" d="M178.4916,144.2241h-2.4609v-.5103c.1709-.1465,.3423-.293,.5142-.4395,.1714-.1465,.3315-.292,.4795-.437,.3125-.3027,.5264-.543,.6421-.7217,.1157-.1777,.1733-.3706,.1733-.5771,0-.189-.0625-.3364-.1865-.4434-.125-.1064-.2983-.1597-.5215-.1597-.1479,0-.3086,.0259-.481,.0781s-.3408,.1318-.5054,.2393h-.0244v-.5127c.1157-.0571,.2695-.1089,.4629-.1562,.1924-.0474,.3794-.0708,.5601-.0708,.3726,0,.665,.0898,.8765,.2695,.2114,.1802,.3174,.4238,.3174,.7314,0,.1382-.0176,.2676-.0527,.3867-.0347,.1201-.0864,.2334-.1548,.3408-.0635,.1011-.1382,.2002-.2231,.2979-.0859,.0977-.1895,.2061-.3115,.3247-.1743,.1709-.354,.3364-.5396,.4966-.1855,.1606-.3589,.3091-.52,.4458h1.9556v.4175Z"/><path class="cls-4" d="M181.6654,142.4053c0,.6528-.1021,1.1313-.3062,1.437-.2046,.3047-.5215,.4575-.9512,.4575-.436,0-.7549-.1548-.9561-.4639-.2007-.3091-.3013-.7847-.3013-1.4258,0-.646,.1016-1.1235,.3052-1.4321,.2036-.3081,.521-.4624,.9521-.4624,.436,0,.7549,.1567,.9561,.4702,.2007,.313,.3013,.7861,.3013,1.4194Zm-.6421,1.1084c.0571-.1318,.0957-.2866,.1162-.4653,.02-.1777,.0303-.3926,.0303-.6431,0-.2476-.0103-.4624-.0303-.6445-.0205-.1821-.0601-.3369-.1187-.4639-.0571-.1255-.1348-.2197-.2329-.2832-.0986-.0635-.2251-.0952-.3799-.0952-.1528,0-.2793,.0317-.3799,.0952-.0996,.0635-.1792,.1597-.2378,.2881-.0552,.1206-.0933,.2773-.1138,.4712-.02,.1938-.0303,.4062-.0303,.6372,0,.2539,.0088,.4663,.0269,.6372s.0562,.3237,.1147,.459c.0537,.127,.1299,.2236,.2285,.2905,.0981,.0669,.229,.1001,.3916,.1001,.1528,0,.2798-.0317,.3809-.0952s.1792-.1597,.2344-.2881Z"/><path class="cls-4" d="M184.6415,144.2241h-1.9678v-.3711h.7568v-2.4365h-.7568v-.332c.1025,0,.2124-.0088,.3296-.0254,.1172-.0176,.2061-.042,.2661-.0747,.0747-.0405,.1338-.0923,.1768-.1548,.0435-.063,.0684-.147,.0747-.2529h.3784v3.2764h.7422v.3711Z"/><path class="cls-4" d="M188.0546,143.2109c0,.314-.1226,.5752-.3672,.7837-.2451,.2085-.5532,.3125-.9243,.3125-.394,0-.7075-.1016-.9409-.3052-.2339-.2036-.3506-.4639-.3506-.7812,0-.2017,.0586-.3843,.1758-.5483,.1172-.1631,.2822-.293,.4956-.3892v-.0146c-.1953-.104-.3398-.2183-.4331-.3418-.0938-.1235-.1406-.2783-.1406-.4639,0-.2734,.1123-.5015,.3369-.6836s.5103-.2734,.8569-.2734c.3628,0,.6528,.0869,.8691,.2612s.3247,.3955,.3247,.6641c0,.1646-.0513,.3262-.1538,.4844-.1025,.1592-.2529,.2832-.4517,.3726v.0146c.228,.0977,.4019,.2183,.5225,.3613s.1807,.3257,.1807,.5469Zm-.5029,.0464c0-.1499-.0332-.2695-.0986-.3604-.0664-.0898-.1953-.1807-.3872-.272-.0767-.0356-.1602-.0693-.2515-.1001s-.2124-.0742-.3638-.1294c-.1465,.0796-.2642,.188-.353,.3247-.0884,.1367-.1328,.2915-.1328,.4639,0,.2197,.0757,.4014,.2271,.5444s.3433,.2148,.5762,.2148c.2378,0,.4277-.061,.5698-.1831,.1426-.1221,.2139-.2896,.2139-.5029Zm-.0757-1.8213c0-.1743-.0669-.313-.2017-.416-.1338-.1035-.3052-.1553-.5137-.1553-.2051,0-.373,.0488-.5039,.1465-.1313,.0977-.1968,.2295-.1968,.3955,0,.1172,.0327,.2188,.0991,.3037,.0654,.0859,.1655,.1616,.2988,.2285,.0601,.0293,.147,.0674,.2598,.1147,.1133,.0474,.2236,.0864,.3311,.1172,.1611-.1074,.2725-.2188,.3345-.3345s.0928-.249,.0928-.4004Z"/></g><g><path class="cls-4" d="M206.5863,144.2241h-2.4609v-.5103c.1709-.1465,.3423-.293,.5142-.4395,.1714-.1465,.3315-.292,.4795-.437,.3125-.3027,.5264-.543,.6421-.7217,.1157-.1777,.1733-.3706,.1733-.5771,0-.189-.0625-.3364-.1865-.4434-.125-.1064-.2983-.1597-.5215-.1597-.1479,0-.3086,.0259-.481,.0781s-.3408,.1318-.5054,.2393h-.0244v-.5127c.1157-.0571,.2695-.1089,.4629-.1562,.1924-.0474,.3794-.0708,.5601-.0708,.3726,0,.665,.0898,.8765,.2695,.2114,.1802,.3174,.4238,.3174,.7314,0,.1382-.0176,.2676-.0527,.3867-.0347,.1201-.0864,.2334-.1548,.3408-.0635,.1011-.1382,.2002-.2231,.2979-.0859,.0977-.1895,.2061-.3115,.3247-.1743,.1709-.354,.3364-.5396,.4966-.1855,.1606-.3589,.3091-.52,.4458h1.9556v.4175Z"/><path class="cls-4" d="M209.7602,142.4053c0,.6528-.1021,1.1313-.3062,1.437-.2046,.3047-.5215,.4575-.9512,.4575-.436,0-.7549-.1548-.9561-.4639-.2007-.3091-.3013-.7847-.3013-1.4258,0-.646,.1016-1.1235,.3052-1.4321,.2036-.3081,.521-.4624,.9521-.4624,.436,0,.7549,.1567,.9561,.4702,.2007,.313,.3013,.7861,.3013,1.4194Zm-.6421,1.1084c.0571-.1318,.0957-.2866,.1162-.4653,.02-.1777,.0303-.3926,.0303-.6431,0-.2476-.0103-.4624-.0303-.6445-.0205-.1821-.0601-.3369-.1187-.4639-.0571-.1255-.1348-.2197-.2329-.2832-.0986-.0635-.2251-.0952-.3799-.0952-.1528,0-.2793,.0317-.3799,.0952-.0996,.0635-.1792,.1597-.2378,.2881-.0552,.1206-.0933,.2773-.1138,.4712-.02,.1938-.0303,.4062-.0303,.6372,0,.2539,.0088,.4663,.0269,.6372s.0562,.3237,.1147,.459c.0537,.127,.1299,.2236,.2285,.2905,.0981,.0669,.229,.1001,.3916,.1001,.1528,0,.2798-.0317,.3809-.0952s.1792-.1597,.2344-.2881Z"/><path class="cls-4" d="M212.7362,144.2241h-1.9678v-.3711h.7568v-2.4365h-.7568v-.332c.1025,0,.2124-.0088,.3296-.0254,.1172-.0176,.2061-.042,.2661-.0747,.0747-.0405,.1338-.0923,.1768-.1548,.0435-.063,.0684-.147,.0747-.2529h.3784v3.2764h.7422v.3711Z"/><path class="cls-4" d="M216.1176,142.188c0,.3174-.0361,.6055-.1089,.8643-.0723,.2588-.1816,.4795-.3281,.6616-.1479,.1855-.3335,.3286-.5566,.4297s-.4849,.1514-.7861,.1514c-.0845,0-.1646-.0044-.2393-.0132-.0747-.0093-.1416-.0234-.2002-.043v-.4663h.0244c.0474,.0244,.1138,.0474,.2002,.0698,.0864,.0215,.1821,.0327,.2881,.0327,.3599,0,.6416-.1079,.8457-.3237,.2046-.2153,.3228-.5127,.3555-.8921-.1514,.0913-.2939,.1562-.4272,.1953s-.2793,.0586-.437,.0586c-.1499,0-.2852-.0146-.4062-.0439-.1216-.0293-.2432-.0864-.3652-.1709-.1431-.0991-.251-.2256-.3232-.3784-.0728-.1528-.1089-.3359-.1089-.5493,0-.3711,.1221-.6729,.3662-.9058s.542-.3491,.8936-.3491c.1758,0,.3384,.0273,.4883,.0815,.1499,.0547,.2808,.1367,.3931,.2456,.1382,.1353,.2451,.3091,.3198,.521,.0747,.2129,.1123,.4873,.1123,.8242Zm-.4932-.105c0-.2524-.0259-.4551-.0781-.6079s-.1235-.272-.2148-.3564c-.0767-.0732-.1587-.126-.2466-.1572-.0879-.0322-.1831-.0479-.2856-.0479-.2344,0-.4194,.0732-.5552,.2197-.1362,.1465-.2041,.3525-.2041,.6177,0,.1548,.022,.2808,.0659,.3784s.1182,.1831,.2222,.2563c.0732,.0503,.1538,.0845,.2417,.1011,.0879,.0176,.1855,.0259,.293,.0259,.127,0,.2554-.0171,.3857-.0513s.2524-.084,.3662-.1489c.0015-.0342,.0034-.0679,.0063-.1011,.002-.0337,.0034-.0762,.0034-.1284Z"/></g><g><path class="cls-4" d="M66.1142,144.2241h-2.4609v-.5103c.1709-.1465,.3418-.293,.5137-.4395s.332-.292,.4795-.437c.3125-.3027,.5264-.543,.6426-.7217,.1152-.1777,.1729-.3706,.1729-.5771,0-.189-.0625-.3364-.1865-.4434-.125-.1064-.2979-.1597-.5215-.1597-.1475,0-.3086,.0259-.4805,.0781-.1729,.0522-.3408,.1318-.5059,.2393h-.0244v-.5127c.1162-.0571,.2695-.1089,.4629-.1562,.1924-.0474,.3799-.0708,.5605-.0708,.3721,0,.665,.0898,.876,.2695,.2119,.1802,.3174,.4238,.3174,.7314,0,.1382-.0176,.2676-.0527,.3867-.0342,.1201-.0859,.2334-.1543,.3408-.0635,.1011-.1387,.2002-.2236,.2979-.0859,.0977-.1895,.2061-.3115,.3247-.1738,.1709-.3535,.3364-.5391,.4966-.1855,.1606-.3594,.3091-.5205,.4458h1.9561v.4175Z"/><path class="cls-4" d="M69.288,142.4053c0,.6528-.1025,1.1313-.3066,1.437-.2041,.3047-.5215,.4575-.9512,.4575-.4355,0-.7549-.1548-.9561-.4639-.2002-.3091-.3008-.7847-.3008-1.4258,0-.646,.1016-1.1235,.3047-1.4321,.2041-.3081,.5215-.4624,.9521-.4624,.4365,0,.7549,.1567,.9561,.4702,.2012,.313,.3018,.7861,.3018,1.4194Zm-.6426,1.1084c.0576-.1318,.0957-.2866,.1162-.4653,.0205-.1777,.0303-.3926,.0303-.6431,0-.2476-.0098-.4624-.0303-.6445s-.0596-.3369-.1182-.4639c-.0576-.1255-.1348-.2197-.2334-.2832s-.2246-.0952-.3799-.0952c-.1523,0-.2793,.0317-.3799,.0952-.0996,.0635-.1787,.1597-.2373,.2881-.0557,.1206-.0938,.2773-.1143,.4712-.0195,.1938-.0303,.4062-.0303,.6372,0,.2539,.0088,.4663,.0273,.6372,.0176,.1709,.0557,.3237,.1143,.459,.0537,.127,.1299,.2236,.2285,.2905s.2295,.1001,.3916,.1001c.1533,0,.2803-.0317,.3809-.0952,.1016-.0635,.1797-.1597,.2344-.2881Z"/><path class="cls-4" d="M72.2636,144.2241h-1.9678v-.3711h.7568v-2.4365h-.7568v-.332c.1025,0,.2129-.0088,.3301-.0254,.1172-.0176,.2061-.042,.2656-.0747,.0752-.0405,.1338-.0923,.1768-.1548,.0439-.063,.0684-.147,.0752-.2529h.3779v3.2764h.7422v.3711Z"/><path class="cls-4" d="M75.7333,143.2012h-.54v1.0229h-.4688v-1.0229h-1.7402v-.5615l1.7598-2.0508h.4492v2.2217h.54v.3906Zm-1.0088-.3906v-1.6406l-1.4082,1.6406h1.4082Z"/></g><g><path class="cls-4" d="M95.0468,143.9116v.3125h-2.3989v-.249l1.4219-1.3926c.1792-.1758,.3003-.3281,.3638-.4565,.0635-.1289,.0952-.2583,.0952-.3887,0-.2017-.0688-.3589-.2075-.4712-.1382-.1128-.3364-.1689-.5938-.1689-.4004,0-.7114,.1274-.9331,.3813l-.249-.2148c.1338-.1567,.3037-.2769,.5107-.3618,.2065-.0845,.4404-.127,.7012-.127,.3481,0,.6245,.0825,.8276,.2466,.2036,.1646,.3057,.3901,.3057,.6768,0,.1758-.0391,.3452-.1172,.5083-.0781,.1626-.2266,.3501-.4448,.5615l-1.1626,1.1436h1.8809Z"/><path class="cls-4" d="M96.1239,144.0435c-.207-.1401-.3682-.3413-.4839-.6035-.1152-.2622-.1733-.5708-.1733-.9258s.0581-.6636,.1733-.9258c.1157-.2622,.2769-.4634,.4839-.6035,.207-.1396,.4424-.21,.7061-.21s.499,.0703,.7061,.21c.2065,.1401,.3687,.3413,.4858,.6035s.1758,.5708,.1758,.9258-.0586,.6636-.1758,.9258-.2793,.4634-.4858,.6035c-.207,.1401-.4424,.21-.7061,.21s-.499-.0698-.7061-.21Zm1.231-.2788c.1519-.1104,.2695-.2715,.3545-.4834,.0845-.2119,.127-.4673,.127-.7671s-.0425-.5552-.127-.7671c-.085-.2114-.2026-.373-.3545-.4834-.1514-.1108-.3262-.1665-.5249-.1665s-.374,.0557-.5254,.1665c-.1514,.1104-.2695,.272-.354,.4834-.085,.2119-.127,.4673-.127,.7671s.042,.5552,.127,.7671c.0845,.2119,.2026,.373,.354,.4834,.1514,.1108,.3267,.1665,.5254,.1665s.3735-.0557,.5249-.1665Z"/><path class="cls-4" d="M99.6391,140.8042v3.4199h-.3516v-3.1074h-.8062v-.3125h1.1577Z"/><path class="cls-4" d="M102.4364,142.4727c.2261,.1777,.3394,.4258,.3394,.7451,0,.1987-.0464,.376-.1392,.5322-.0928,.1567-.2319,.2793-.418,.3691-.1855,.0894-.4136,.1343-.6836,.1343-.2446,0-.4766-.04-.6963-.1196-.2202-.0796-.3965-.1865-.5303-.3198l.1709-.2788c.1143,.1172,.2642,.2124,.4497,.2861,.1855,.0732,.3857,.1099,.6011,.1099,.2832,0,.502-.0635,.6567-.1909,.1548-.127,.2324-.2959,.2324-.5078,0-.2344-.0874-.4121-.2617-.5327-.1743-.1201-.4683-.1807-.8818-.1807h-.728l.1763-1.7148h1.8711v.3125h-1.5635l-.1172,1.0898h.4395c.4951,0,.856,.0884,1.0825,.2661Z"/></g><g><path class="cls-4" d="M122.3026,144.2241h-2.4609v-.5103c.1709-.1465,.3423-.293,.5142-.4395,.1714-.1465,.3315-.292,.4795-.437,.3125-.3027,.5264-.543,.6421-.7217,.1157-.1777,.1733-.3706,.1733-.5771,0-.189-.0625-.3364-.1865-.4434-.125-.1064-.2983-.1597-.5215-.1597-.1479,0-.3086,.0259-.481,.0781s-.3408,.1318-.5054,.2393h-.0244v-.5127c.1157-.0571,.2695-.1089,.4629-.1562,.1924-.0474,.3794-.0708,.5601-.0708,.3726,0,.665,.0898,.8765,.2695,.2114,.1802,.3174,.4238,.3174,.7314,0,.1382-.0176,.2676-.0527,.3867-.0347,.1201-.0864,.2334-.1548,.3408-.0635,.1011-.1382,.2002-.2231,.2979-.0859,.0977-.1895,.2061-.3115,.3247-.1743,.1709-.354,.3364-.5396,.4966-.1855,.1606-.3589,.3091-.52,.4458h1.9556v.4175Z"/><path class="cls-4" d="M125.4765,142.4053c0,.6528-.1021,1.1313-.3062,1.437-.2046,.3047-.5215,.4575-.9512,.4575-.436,0-.7549-.1548-.9561-.4639-.2007-.3091-.3013-.7847-.3013-1.4258,0-.646,.1016-1.1235,.3052-1.4321,.2036-.3081,.521-.4624,.9521-.4624,.436,0,.7549,.1567,.9561,.4702,.2007,.313,.3013,.7861,.3013,1.4194Zm-.6421,1.1084c.0571-.1318,.0957-.2866,.1162-.4653,.02-.1777,.0303-.3926,.0303-.6431,0-.2476-.0103-.4624-.0303-.6445-.0205-.1821-.0601-.3369-.1187-.4639-.0571-.1255-.1348-.2197-.2329-.2832-.0986-.0635-.2251-.0952-.3799-.0952-.1528,0-.2793,.0317-.3799,.0952-.0996,.0635-.1792,.1597-.2378,.2881-.0552,.1206-.0933,.2773-.1138,.4712-.02,.1938-.0303,.4062-.0303,.6372,0,.2539,.0088,.4663,.0269,.6372s.0562,.3237,.1147,.459c.0537,.127,.1299,.2236,.2285,.2905,.0981,.0669,.229,.1001,.3916,.1001,.1528,0,.2798-.0317,.3809-.0952s.1792-.1597,.2344-.2881Z"/><path class="cls-4" d="M128.4525,144.2241h-1.9678v-.3711h.7568v-2.4365h-.7568v-.332c.1025,0,.2124-.0088,.3296-.0254,.1172-.0176,.2061-.042,.2661-.0747,.0747-.0405,.1338-.0923,.1768-.1548,.0435-.063,.0684-.147,.0747-.2529h.3784v3.2764h.7422v.3711Z"/><path class="cls-4" d="M131.8925,143.0449c0,.3696-.1216,.6709-.3647,.9048-.2437,.2334-.542,.3501-.895,.3501-.1792,0-.3418-.0278-.4883-.083s-.2759-.1377-.3882-.2466c-.1401-.1353-.248-.314-.3232-.5371-.0762-.2231-.1138-.4917-.1138-.8057,0-.3223,.0347-.6079,.104-.8569,.0688-.249,.1792-.4702,.3306-.6641,.1431-.1841,.3281-.3276,.5542-.4312,.2261-.103,.4897-.1548,.791-.1548,.0962,0,.1768,.0039,.2417,.0122s.1309,.0229,.1978,.0439v.4663h-.0244c-.0454-.0244-.1143-.0474-.2061-.0698-.0923-.0215-.186-.0327-.2822-.0327-.3501,0-.6289,.1094-.8374,.3286-.2085,.2188-.3296,.5146-.3638,.8872,.1367-.083,.2715-.146,.4043-.189,.1323-.0435,.2856-.0649,.46-.0649,.1548,0,.291,.0142,.4092,.0425,.1177,.0288,.2388,.0859,.3623,.1724,.1431,.0991,.251,.2246,.3232,.376,.0728,.1514,.1089,.3354,.1089,.5518Zm-.4956,.0195c0-.1514-.0225-.2769-.0674-.376-.0444-.0991-.1182-.1855-.2207-.2588-.0747-.0522-.1577-.0864-.249-.1025s-.1865-.0244-.2856-.0244c-.1382,0-.2671,.0161-.3857,.0488s-.2407,.083-.3662,.1514c-.0034,.0356-.0059,.0703-.0073,.104-.0015,.0332-.0024,.0752-.0024,.1255,0,.2573,.0264,.4604,.0796,.6089,.0527,.1494,.1255,.2666,.2183,.353,.0747,.0718,.1558,.124,.2427,.1577,.0874,.0332,.1821,.0498,.2847,.0498,.2358,0,.4214-.0723,.5566-.2158,.1353-.1445,.2026-.3516,.2026-.6216Z"/></g><g><path class="cls-3" d="M152.3329,104.1733v4.2749h-.4399v-3.8843h-1.0073v-.3906h1.4473Z"/><path class="cls-3" d="M153.9208,107.9077c.061,.063,.0913,.1416,.0913,.2354,0,.0488-.0073,.1016-.0215,.1587s-.0356,.1221-.064,.1953l-.2563,.8428h-.2935l.208-.8853c-.0654-.0205-.1182-.0581-.1592-.1133-.0405-.0547-.061-.1211-.061-.1982,0-.0938,.0308-.1724,.0918-.2354s.1382-.0947,.2319-.0947,.1709,.0317,.2324,.0947Z"/><path class="cls-3" d="M157.0995,106.0483c.2178,.106,.3877,.2554,.5098,.4487s.1831,.4185,.1831,.6748c0,.2607-.063,.4907-.1895,.6899-.126,.1997-.3003,.3535-.522,.4614-.2222,.1079-.4712,.1616-.748,.1616-.5659,0-.9995-.186-1.3008-.5586s-.4521-.8989-.4521-1.5786c0-.4766,.0815-.8794,.2446-1.2095,.1626-.3296,.3906-.5791,.6836-.748,.2935-.1689,.6353-.2534,1.0264-.2534,.4233,0,.7612,.0771,1.0137,.2319l-.1772,.3545c-.2036-.1343-.4805-.2017-.8306-.2017-.4722,0-.8428,.1494-1.1113,.4487s-.4033,.7339-.4033,1.3037c0,.1021,.0063,.2183,.0186,.3481,.106-.2319,.2749-.4121,.5068-.5405,.2319-.1279,.4985-.1919,.7998-.1919,.2812,0,.5303,.0527,.7485,.1587Zm-.0308,1.8105c.1934-.1689,.29-.394,.29-.6748s-.0967-.5049-.29-.6719-.4551-.2505-.7847-.2505c-.2158,0-.4062,.041-.5713,.1226-.1646,.0811-.2939,.1934-.3877,.3354-.0938,.1426-.1401,.3018-.1401,.4766,0,.1631,.0435,.3135,.1309,.4521,.0879,.1382,.2168,.25,.3882,.3354,.1709,.0859,.3745,.1284,.6104,.1284,.3096,0,.561-.0845,.7544-.2534Z"/></g><g><path class="cls-3" d="M181.223,90.6416v.3906h-2.9985v-.3115l1.7769-1.7402c.2241-.2202,.376-.4102,.4551-.5713,.0796-.1606,.1191-.3228,.1191-.4854,0-.2524-.0864-.4487-.2598-.5894-.1729-.1406-.4204-.2109-.7417-.2109-.501,0-.8896,.1592-1.1665,.4766l-.3115-.2686c.167-.1958,.3799-.3462,.6382-.4521,.2588-.106,.5508-.1587,.8765-.1587,.4355,0,.7808,.103,1.0352,.3086s.3818,.4873,.3818,.8457c0,.2197-.0493,.4316-.147,.6353s-.2827,.4375-.5557,.7021l-1.4531,1.4292h2.3511Z"/><path class="cls-3" d="M182.4018,90.4917c.061,.063,.0913,.1416,.0913,.2354,0,.0488-.0073,.1016-.0215,.1587s-.0356,.1221-.064,.1953l-.2563,.8428h-.2935l.208-.8853c-.0654-.0205-.1182-.0581-.1592-.1133-.0405-.0547-.061-.1211-.061-.1982,0-.0938,.0308-.1724,.0918-.2354s.1382-.0947,.2319-.0947,.1709,.0317,.2324,.0947Z"/><path class="cls-3" d="M186.2577,89.1938c.1445,.1792,.2168,.395,.2168,.6475,0,.2485-.0669,.4653-.2017,.6504-.1343,.1855-.3267,.3276-.5767,.4277-.2505,.0996-.5449,.1494-.8828,.1494-.5127,0-.916-.1099-1.209-.3296-.293-.2202-.4399-.519-.4399-.8979,0-.2563,.0703-.4731,.2109-.6504s.3447-.3105,.6138-.3999c-.2197-.0854-.3867-.2085-.501-.3696-.1138-.1606-.1709-.3511-.1709-.5708,0-.3462,.1353-.6211,.4062-.8247,.2705-.2036,.6338-.3052,1.0898-.3052,.3013,0,.5649,.0459,.791,.1372,.2261,.0918,.4019,.2231,.5283,.394,.126,.1709,.1895,.3706,.1895,.5986,0,.2197-.0591,.4102-.1772,.5708-.1182,.1611-.2871,.2842-.5068,.3696,.2686,.0894,.4751,.2241,.6196,.4028Zm-.5557,1.2705c.2139-.1548,.3208-.3643,.3208-.6289s-.1069-.4736-.3208-.626c-.2139-.1528-.5098-.229-.8887-.229-.3745,0-.6685,.0762-.8823,.229-.2139,.1523-.3208,.3613-.3208,.626,0,.2686,.106,.479,.3179,.6318,.2114,.1528,.5068,.229,.8853,.229,.3789,0,.6748-.0771,.8887-.2319Zm-1.6641-2.04c.187,.1387,.4458,.208,.7754,.208,.3301,0,.5894-.0693,.7788-.208,.1895-.1382,.2842-.3232,.2842-.5557,0-.2402-.0972-.4292-.2905-.5679-.1934-.1382-.4507-.2075-.7725-.2075-.3257,0-.583,.0693-.7725,.2075-.1895,.1387-.2837,.3257-.2837,.562,0,.2358,.0933,.4233,.2808,.5615Z"/></g><g><path class="cls-3" d="M209.6073,97.1655v.3906h-2.9985v-.3115l1.7769-1.7402c.2241-.2202,.376-.4102,.4551-.5713,.0796-.1606,.1191-.3228,.1191-.4854,0-.2524-.0864-.4487-.2598-.5894-.1729-.1406-.4204-.2109-.7417-.2109-.501,0-.8896,.1592-1.1665,.4766l-.3115-.2686c.167-.1958,.3799-.3462,.6382-.4521,.2588-.106,.5508-.1587,.8765-.1587,.4355,0,.7808,.103,1.0352,.3086s.3818,.4873,.3818,.8457c0,.2197-.0493,.4316-.147,.6353s-.2827,.4375-.5557,.7021l-1.4531,1.4292h2.3511Z"/><path class="cls-3" d="M210.786,97.0156c.061,.063,.0913,.1416,.0913,.2354,0,.0488-.0073,.1016-.0215,.1587s-.0356,.1221-.064,.1953l-.2563,.8428h-.2935l.208-.8853c-.0654-.0205-.1182-.0581-.1592-.1133-.0405-.0547-.061-.1211-.061-.1982,0-.0938,.0308-.1724,.0918-.2354s.1382-.0947,.2319-.0947,.1709,.0317,.2324,.0947Z"/><path class="cls-3" d="M214.4926,97.1655v.3906h-2.9985v-.3115l1.7769-1.7402c.2241-.2202,.376-.4102,.4551-.5713,.0796-.1606,.1191-.3228,.1191-.4854,0-.2524-.0864-.4487-.2598-.5894-.1729-.1406-.4204-.2109-.7417-.2109-.501,0-.8896,.1592-1.1665,.4766l-.3115-.2686c.167-.1958,.3799-.3462,.6382-.4521,.2588-.106,.5508-.1587,.8765-.1587,.4355,0,.7808,.103,1.0352,.3086s.3818,.4873,.3818,.8457c0,.2197-.0493,.4316-.147,.6353s-.2827,.4375-.5557,.7021l-1.4531,1.4292h2.3511Z"/></g><g><path class="cls-3" d="M233.2528,181.3335h2.6562v.3604h-2.6562v-.3604Z"/><path class="cls-3" d="M239.5009,183.2573v.3906h-2.999v-.3115l1.7773-1.7402c.2236-.2202,.376-.4102,.4551-.5713,.0791-.1606,.1191-.3228,.1191-.4854,0-.2524-.0869-.4487-.2598-.5894s-.4209-.2109-.7422-.2109c-.501,0-.8896,.1592-1.166,.4766l-.3115-.2686c.167-.1958,.3799-.3462,.6377-.4521,.2588-.106,.5508-.1587,.877-.1587,.4355,0,.7803,.103,1.0352,.3086,.2539,.2056,.3818,.4873,.3818,.8457,0,.2197-.0498,.4316-.1475,.6353s-.2822,.4375-.5557,.7021l-1.4531,1.4292h2.3516Z"/><path class="cls-3" d="M240.6786,183.1074c.0615,.063,.0918,.1416,.0918,.2354,0,.0488-.0078,.1016-.0215,.1587-.0146,.0571-.0361,.1221-.0645,.1953l-.2559,.8428h-.2939l.208-.8853c-.0654-.0205-.1182-.0581-.1592-.1133-.04-.0547-.0605-.1211-.0605-.1982,0-.0938,.0303-.1724,.0918-.2354,.0605-.063,.1377-.0947,.2314-.0947s.1709,.0317,.2324,.0947Z"/><path class="cls-3" d="M244.3495,179.373v.3115l-1.79,3.9634h-.4756l1.7588-3.8843h-2.1992v.8003h-.4336v-1.1909h3.1396Z"/></g><g><path class="cls-4" d="M263.5463,143.9043v.3198h-2.4551v-.2549l1.4551-1.4253c.1836-.1797,.3076-.3354,.3726-.4673s.0977-.2642,.0977-.3975c0-.2065-.0708-.3677-.2124-.4824-.1421-.1152-.3442-.1729-.6079-.1729-.4097,0-.728,.1304-.9546,.3901l-.2554-.2197c.1367-.1602,.311-.2837,.5225-.3701,.2119-.0869,.4512-.1299,.7178-.1299,.3564,0,.6392,.084,.8477,.2524,.208,.168,.3125,.3989,.3125,.6924,0,.1802-.04,.3535-.1201,.52s-.2319,.3584-.4551,.5747l-1.1899,1.1704h1.9248Z"/><path class="cls-4" d="M264.6488,144.0391c-.2119-.1431-.377-.3491-.4951-.6177-.1182-.2681-.1777-.584-.1777-.9473s.0596-.6792,.1777-.9473c.1182-.2686,.2832-.4746,.4951-.6177,.2114-.1436,.4521-.2148,.7222-.2148s.5112,.0713,.7227,.2148c.2119,.1431,.3774,.3491,.4976,.6177,.1201,.2681,.1802,.584,.1802,.9473s-.0601,.6792-.1802,.9473c-.1201,.2686-.2856,.4746-.4976,.6177-.2114,.1436-.4526,.2148-.7227,.2148s-.5107-.0713-.7222-.2148Zm1.2598-.2852c.1553-.1133,.2759-.2778,.3628-.4946,.0864-.2168,.1299-.4785,.1299-.7852s-.0435-.5684-.1299-.7852c-.0869-.2163-.2075-.3813-.3628-.4946-.1548-.1133-.334-.1704-.5376-.1704-.2031,0-.3823,.0571-.5371,.1704-.1553,.1133-.2759,.2783-.3628,.4946-.0864,.2168-.1299,.4785-.1299,.7852s.0435,.5684,.1299,.7852c.0869,.2168,.2075,.3813,.3628,.4946,.1548,.1138,.334,.1704,.5371,.1704,.2036,0,.3828-.0566,.5376-.1704Z"/><path class="cls-4" d="M269.6664,143.9043v.3198h-2.4551v-.2549l1.4551-1.4253c.1836-.1797,.3076-.3354,.3726-.4673s.0977-.2642,.0977-.3975c0-.2065-.0708-.3677-.2124-.4824-.1421-.1152-.3442-.1729-.6079-.1729-.4097,0-.728,.1304-.9546,.3901l-.2554-.2197c.1367-.1602,.311-.2837,.5225-.3701,.2119-.0869,.4512-.1299,.7178-.1299,.3564,0,.6392,.084,.8477,.2524,.208,.168,.3125,.3989,.3125,.6924,0,.1802-.04,.3535-.1201,.52s-.2319,.3584-.4551,.5747l-1.1899,1.1704h1.9248Z"/><path class="cls-4" d="M271.0863,140.7241v3.5h-.3599v-3.1802h-.8252v-.3198h1.1851Z"/></g><rect class="cls-2" x="252.804" y="65.8259" width="26.9494" height="70.4658"/><g><path class="cls-1" d="M265.622,61.0513h-.6963v.8979h-.9648v-.8979h-2.3018v-.6655l2.0146-2.7114h1.0381l-1.8682,2.5713h1.1475v-.8003h.9346v.8003h.6963v.8057Z"/><path class="cls-1" d="M267.0263,60.9751c.1104,.1079,.165,.2495,.165,.4243,0,.0815-.0098,.1631-.0303,.2446s-.0654,.2036-.1348,.3662l-.3477,.8794h-.6045l.2686-.9712c-.1016-.0405-.1826-.1064-.2412-.1982-.0596-.0918-.0889-.1982-.0889-.3208,0-.1748,.0557-.3164,.168-.4243s.2539-.1616,.4248-.1616,.3115,.0537,.4209,.1616Z"/><path class="cls-1" d="M270.8866,57.6743v.6411l-1.5879,3.6338h-1.0752l1.5332-3.4688h-1.417v.6963h-.8799v-1.5024h3.4268Z"/></g><g><path class="cls-4" d="M38.0199,144.2241h-2.4609v-.5103c.1709-.1465,.3423-.293,.5142-.4395,.1714-.1465,.3315-.292,.4795-.437,.3125-.3027,.5264-.543,.6421-.7217,.1157-.1777,.1733-.3706,.1733-.5771,0-.189-.0625-.3364-.1865-.4434-.125-.1064-.2983-.1597-.5215-.1597-.1479,0-.3086,.0259-.481,.0781s-.3408,.1318-.5054,.2393h-.0244v-.5127c.1157-.0571,.2695-.1089,.4629-.1562,.1924-.0474,.3794-.0708,.5601-.0708,.3726,0,.665,.0898,.8765,.2695,.2114,.1802,.3174,.4238,.3174,.7314,0,.1382-.0176,.2676-.0527,.3867-.0347,.1201-.0864,.2334-.1548,.3408-.0635,.1011-.1382,.2002-.2231,.2979-.0859,.0977-.1895,.2061-.3115,.3247-.1743,.1709-.354,.3364-.5396,.4966-.1855,.1606-.3589,.3091-.52,.4458h1.9556v.4175Z"/><path class="cls-4" d="M41.1938,142.4053c0,.6528-.1021,1.1313-.3062,1.437-.2046,.3047-.5215,.4575-.9512,.4575-.436,0-.7549-.1548-.9561-.4639-.2007-.3091-.3013-.7847-.3013-1.4258,0-.646,.1016-1.1235,.3052-1.4321,.2036-.3081,.521-.4624,.9521-.4624,.436,0,.7549,.1567,.9561,.4702,.2007,.313,.3013,.7861,.3013,1.4194Zm-.6421,1.1084c.0571-.1318,.0957-.2866,.1162-.4653,.02-.1777,.0303-.3926,.0303-.6431,0-.2476-.0103-.4624-.0303-.6445-.0205-.1821-.0601-.3369-.1187-.4639-.0571-.1255-.1348-.2197-.2329-.2832-.0986-.0635-.2251-.0952-.3799-.0952-.1528,0-.2793,.0317-.3799,.0952-.0996,.0635-.1792,.1597-.2378,.2881-.0552,.1206-.0933,.2773-.1138,.4712-.02,.1938-.0303,.4062-.0303,.6372,0,.2539,.0088,.4663,.0269,.6372s.0562,.3237,.1147,.459c.0537,.127,.1299,.2236,.2285,.2905,.0981,.0669,.229,.1001,.3916,.1001,.1528,0,.2798-.0317,.3809-.0952s.1792-.1597,.2344-.2881Z"/><path class="cls-4" d="M44.1698,144.2241h-1.9678v-.3711h.7568v-2.4365h-.7568v-.332c.1025,0,.2124-.0088,.3296-.0254,.1172-.0176,.2061-.042,.2661-.0747,.0747-.0405,.1338-.0923,.1768-.1548,.0435-.063,.0684-.147,.0747-.2529h.3784v3.2764h.7422v.3711Z"/><path class="cls-4" d="M47.2362,142.4736c.0781,.0698,.1426,.1577,.1929,.2637s.0757,.2427,.0757,.4102c0,.166-.0303,.3184-.0903,.4565s-.145,.2588-.2539,.3613c-.1221,.1138-.2656,.1982-.4312,.2529-.165,.0542-.3462,.0815-.543,.0815-.2017,0-.4004-.0239-.5957-.0718-.1953-.0483-.3555-.1006-.481-.1577v-.5103h.0366c.1382,.0913,.3013,.167,.4883,.2271s.3677,.0903,.542,.0903c.1025,0,.2114-.0171,.3271-.0513s.209-.0845,.2808-.1514c.0747-.0718,.1304-.1504,.1675-.2368,.0361-.0864,.0547-.1953,.0547-.3271,0-.1304-.0205-.2383-.0625-.3232-.041-.0859-.0986-.1528-.1719-.2017-.0732-.0503-.1621-.085-.2661-.104-.104-.0186-.2163-.0278-.3369-.0278h-.2197v-.4053h.1709c.2476,0,.4448-.0518,.5923-.1548,.147-.1035,.2207-.2544,.2207-.4531,0-.0879-.0186-.165-.0562-.2305-.0376-.0664-.0894-.1201-.1562-.1626-.0698-.0425-.145-.0718-.2246-.0879s-.1699-.0244-.271-.0244c-.1548,0-.3188,.0278-.4932,.083s-.3384,.1333-.4932,.2344h-.0244v-.5103c.1157-.0571,.2695-.1094,.4629-.1572,.1924-.0483,.3794-.0723,.5601-.0723,.1772,0,.3335,.0161,.4688,.0488s.2573,.0845,.3662,.1562c.1172,.0781,.2061,.1724,.2661,.2832s.0903,.2402,.0903,.3882c0,.2017-.0713,.3779-.2134,.5288-.1426,.1504-.3105,.2451-.5044,.2842v.0342c.0781,.0132,.1675,.04,.2686,.082,.1011,.041,.1865,.0928,.2563,.1548Z"/></g><g><path class="cls-4" d="M11.3007,144.2241h-2.4609v-.5103c.1709-.1465,.3423-.293,.5142-.4395,.1714-.1465,.3315-.292,.4795-.437,.3125-.3027,.5264-.543,.6421-.7217,.1157-.1777,.1733-.3706,.1733-.5771,0-.189-.0625-.3364-.1865-.4434-.125-.1064-.2983-.1597-.5215-.1597-.1479,0-.3086,.0259-.481,.0781s-.3408,.1318-.5054,.2393h-.0244v-.5127c.1157-.0571,.2695-.1089,.4629-.1562,.1924-.0474,.3794-.0708,.5601-.0708,.3726,0,.665,.0898,.8765,.2695,.2114,.1802,.3174,.4238,.3174,.7314,0,.1382-.0176,.2676-.0527,.3867-.0347,.1201-.0864,.2334-.1548,.3408-.0635,.1011-.1382,.2002-.2231,.2979-.0859,.0977-.1895,.2061-.3115,.3247-.1743,.1709-.354,.3364-.5396,.4966-.1855,.1606-.3589,.3091-.52,.4458h1.9556v.4175Z"/><path class="cls-4" d="M14.4745,142.4053c0,.6528-.1021,1.1313-.3062,1.437-.2046,.3047-.5215,.4575-.9512,.4575-.436,0-.7549-.1548-.9561-.4639-.2007-.3091-.3013-.7847-.3013-1.4258,0-.646,.1016-1.1235,.3052-1.4321,.2036-.3081,.521-.4624,.9521-.4624,.436,0,.7549,.1567,.9561,.4702,.2007,.313,.3013,.7861,.3013,1.4194Zm-.6421,1.1084c.0571-.1318,.0957-.2866,.1162-.4653,.02-.1777,.0303-.3926,.0303-.6431,0-.2476-.0103-.4624-.0303-.6445-.0205-.1821-.0601-.3369-.1187-.4639-.0571-.1255-.1348-.2197-.2329-.2832-.0986-.0635-.2251-.0952-.3799-.0952-.1528,0-.2793,.0317-.3799,.0952-.0996,.0635-.1792,.1597-.2378,.2881-.0552,.1206-.0933,.2773-.1138,.4712-.02,.1938-.0303,.4062-.0303,.6372,0,.2539,.0088,.4663,.0269,.6372s.0562,.3237,.1147,.459c.0537,.127,.1299,.2236,.2285,.2905,.0981,.0669,.229,.1001,.3916,.1001,.1528,0,.2798-.0317,.3809-.0952s.1792-.1597,.2344-.2881Z"/><path class="cls-4" d="M17.4506,144.2241h-1.9678v-.3711h.7568v-2.4365h-.7568v-.332c.1025,0,.2124-.0088,.3296-.0254,.1172-.0176,.2061-.042,.2661-.0747,.0747-.0405,.1338-.0923,.1768-.1548,.0435-.063,.0684-.147,.0747-.2529h.3784v3.2764h.7422v.3711Z"/><path class="cls-4" d="M20.8368,144.2241h-2.4609v-.5103c.1709-.1465,.3423-.293,.5142-.4395,.1714-.1465,.3315-.292,.4795-.437,.3125-.3027,.5264-.543,.6421-.7217,.1157-.1777,.1733-.3706,.1733-.5771,0-.189-.0625-.3364-.1865-.4434-.125-.1064-.2983-.1597-.5215-.1597-.1479,0-.3086,.0259-.481,.0781s-.3408,.1318-.5054,.2393h-.0244v-.5127c.1157-.0571,.2695-.1089,.4629-.1562,.1924-.0474,.3794-.0708,.5601-.0708,.3726,0,.665,.0898,.8765,.2695,.2114,.1802,.3174,.4238,.3174,.7314,0,.1382-.0176,.2676-.0527,.3867-.0347,.1201-.0864,.2334-.1548,.3408-.0635,.1011-.1382,.2002-.2231,.2979-.0859,.0977-.1895,.2061-.3115,.3247-.1743,.1709-.354,.3364-.5396,.4966-.1855,.1606-.3589,.3091-.52,.4458h1.9556v.4175Z"/></g><rect class="cls-5" x="27.438" y="109.3048" width="28.1708" height="26.9869"/><rect class="cls-5" x=".7186" y="76.3208" width="28.1708" height="59.9709"/><rect class="cls-5" x="83.7795" y="136.2917" width="28.1708" height="29.9854"/><rect class="cls-5" x="55.6087" y="125.7968" width="28.1708" height="10.4949"/><rect class="cls-5" x="111.9502" y="133.2932" width="28.1708" height="2.9985"/><g><path class="cls-3" d="M39.7157,102.6733v4.2749h-.4399v-3.8843h-1.0073v-.3906h1.4473Z"/><path class="cls-3" d="M41.3036,106.4077c.061,.063,.0913,.1416,.0913,.2354,0,.0488-.0073,.1016-.0215,.1587s-.0356,.1221-.064,.1953l-.2563,.8428h-.2935l.208-.8853c-.0654-.0205-.1182-.0581-.1592-.1133-.0405-.0547-.061-.1211-.061-.1982,0-.0938,.0308-.1724,.0918-.2354s.1382-.0947,.2319-.0947,.1709,.0317,.2324,.0947Z"/><path class="cls-3" d="M45.1596,105.1099c.1445,.1792,.2168,.395,.2168,.6475,0,.2485-.0669,.4653-.2017,.6504-.1343,.1855-.3267,.3276-.5767,.4277-.2505,.0996-.5449,.1494-.8828,.1494-.5127,0-.916-.1099-1.209-.3296-.293-.2202-.4399-.519-.4399-.8979,0-.2563,.0703-.4731,.2109-.6504s.3447-.3105,.6138-.3999c-.2197-.0854-.3867-.2085-.501-.3696-.1138-.1606-.1709-.3511-.1709-.5708,0-.3462,.1353-.6211,.4062-.8247,.2705-.2036,.6338-.3052,1.0898-.3052,.3013,0,.5649,.0459,.791,.1372,.2261,.0918,.4019,.2231,.5283,.394,.126,.1709,.1895,.3706,.1895,.5986,0,.2197-.0591,.4102-.1772,.5708-.1182,.1611-.2871,.2842-.5068,.3696,.2686,.0894,.4751,.2241,.6196,.4028Zm-.5557,1.2705c.2139-.1548,.3208-.3643,.3208-.6289s-.1069-.4736-.3208-.626c-.2139-.1528-.5098-.229-.8887-.229-.3745,0-.6685,.0762-.8823,.229-.2139,.1523-.3208,.3613-.3208,.626,0,.2686,.106,.479,.3179,.6318,.2114,.1528,.5068,.229,.8853,.229,.3789,0,.6748-.0771,.8887-.2319Zm-1.6641-2.04c.187,.1387,.4458,.208,.7754,.208,.3301,0,.5894-.0693,.7788-.208,.1895-.1382,.2842-.3232,.2842-.5557,0-.2402-.0972-.4292-.2905-.5679-.1934-.1382-.4507-.2075-.7725-.2075-.3257,0-.583,.0693-.7725,.2075-.1895,.1387-.2837,.3257-.2837,.562,0,.2358,.0933,.4233,.2808,.5615Z"/></g><g><path class="cls-3" d="M14.0404,72.3569h-.855v1.1235h-.4395v-1.1235h-2.4126v-.3179l2.2656-2.8335h.4888l-2.1865,2.7603h1.8569v-.9893h.4272v.9893h.855v.3911Z"/><path class="cls-3" d="M15.1337,72.9399c.061,.063,.0913,.1416,.0913,.2354,0,.0488-.0073,.1016-.0215,.1587s-.0356,.1221-.064,.1953l-.2563,.8428h-.2935l.208-.8853c-.0654-.0205-.1182-.0581-.1592-.1133-.0405-.0547-.061-.1211-.061-.1982,0-.0938,.0308-.1724,.0918-.2354s.1382-.0947,.2319-.0947,.1709,.0317,.2324,.0947Z"/><path class="cls-3" d="M16.6147,73.2544c-.2588-.1748-.4604-.4263-.605-.7539s-.2168-.7139-.2168-1.1572c0-.4438,.0723-.8296,.2168-1.1577,.1445-.3276,.3462-.5791,.605-.7539,.2583-.1753,.5522-.2627,.8823-.2627,.3296,0,.624,.0874,.8823,.2627,.2588,.1748,.4609,.4263,.6079,.7539,.1465,.3281,.2197,.7139,.2197,1.1577,0,.4434-.0732,.8296-.2197,1.1572-.147,.3276-.3491,.5791-.6079,.7539-.2583,.1753-.5527,.2627-.8823,.2627-.3301,0-.624-.0874-.8823-.2627Zm1.5386-.3481c.1895-.1382,.3369-.3398,.4429-.6045s.1587-.584,.1587-.9585c0-.375-.0527-.6943-.1587-.959s-.2534-.4663-.4429-.6045c-.189-.1387-.4082-.208-.6562-.208-.2485,0-.4673,.0693-.6567,.208-.189,.1382-.3369,.3398-.4424,.6045-.106,.2646-.1592,.584-.1592,.959,0,.3745,.0532,.6938,.1592,.9585,.1055,.2646,.2534,.4663,.4424,.6045,.1895,.1387,.4082,.208,.6567,.208,.248,0,.4673-.0693,.6562-.208Z"/></g><g><path class="cls-3" d="M66.4359,123.0146c-.2588-.1748-.4604-.4263-.605-.7539s-.2168-.7139-.2168-1.1572c0-.4438,.0723-.8296,.2168-1.1577,.1445-.3276,.3462-.5791,.605-.7539,.2583-.1753,.5522-.2627,.8823-.2627,.3296,0,.624,.0874,.8823,.2627,.2588,.1748,.4609,.4263,.6079,.7539,.1465,.3281,.2197,.7139,.2197,1.1577,0,.4434-.0732,.8296-.2197,1.1572-.147,.3276-.3491,.5791-.6079,.7539-.2583,.1753-.5527,.2627-.8823,.2627-.3301,0-.624-.0874-.8823-.2627Zm1.5386-.3481c.1895-.1382,.3369-.3398,.4429-.6045s.1587-.584,.1587-.9585c0-.375-.0527-.6943-.1587-.959s-.2534-.4663-.4429-.6045c-.189-.1387-.4082-.208-.6562-.208-.2485,0-.4673,.0693-.6567,.208-.189,.1382-.3369,.3398-.4424,.6045-.106,.2646-.1592,.584-.1592,.959,0,.3745,.0532,.6938,.1592,.9585,.1055,.2646,.2534,.4663,.4424,.6045,.1895,.1387,.4082,.208,.6567,.208,.248,0,.4673-.0693,.6562-.208Z"/><path class="cls-3" d="M70.1581,122.7002c.061,.063,.0913,.1416,.0913,.2354,0,.0488-.0073,.1016-.0215,.1587s-.0356,.1221-.064,.1953l-.2563,.8428h-.2935l.208-.8853c-.0654-.0205-.1182-.0581-.1592-.1133-.0405-.0547-.061-.1211-.061-.1982,0-.0938,.0308-.1724,.0918-.2354s.1382-.0947,.2319-.0947,.1709,.0317,.2324,.0947Z"/><path class="cls-3" d="M73.828,118.9658v.3115l-1.7896,3.9634h-.4761l1.7588-3.8843h-2.1987v.8003h-.4336v-1.1909h3.1392Z"/></g><g><path class="cls-3" d="M92.1728,170.8384h2.6567v.3604h-2.6567v-.3604Z"/><path class="cls-3" d="M98.4208,172.7622v.3906h-2.9985v-.3115l1.7769-1.7402c.2241-.2202,.376-.4102,.4551-.5713,.0796-.1606,.1191-.3228,.1191-.4854,0-.2524-.0864-.4487-.2598-.5894-.1729-.1406-.4204-.2109-.7417-.2109-.501,0-.8896,.1592-1.1665,.4766l-.3115-.2686c.167-.1958,.3799-.3462,.6382-.4521,.2588-.106,.5508-.1587,.8765-.1587,.4355,0,.7808,.103,1.0352,.3086s.3818,.4873,.3818,.8457c0,.2197-.0493,.4316-.147,.6353s-.2827,.4375-.5557,.7021l-1.4531,1.4292h2.3511Z"/><path class="cls-3" d="M99.599,172.6123c.061,.063,.0913,.1416,.0913,.2354,0,.0488-.0073,.1016-.0215,.1587s-.0356,.1221-.064,.1953l-.2563,.8428h-.2935l.208-.8853c-.0654-.0205-.1182-.0581-.1592-.1133-.0405-.0547-.061-.1211-.061-.1982,0-.0938,.0308-.1724,.0918-.2354s.1382-.0947,.2319-.0947,.1709,.0317,.2324,.0947Z"/><path class="cls-3" d="M101.08,172.9268c-.2588-.1748-.4604-.4263-.605-.7539s-.2168-.7139-.2168-1.1572c0-.4438,.0723-.8296,.2168-1.1577,.1445-.3276,.3462-.5791,.605-.7539,.2583-.1753,.5522-.2627,.8823-.2627,.3296,0,.624,.0874,.8823,.2627,.2588,.1748,.4609,.4263,.6079,.7539,.1465,.3281,.2197,.7139,.2197,1.1577,0,.4434-.0732,.8296-.2197,1.1572-.147,.3276-.3491,.5791-.6079,.7539-.2583,.1753-.5527,.2627-.8823,.2627-.3301,0-.624-.0874-.8823-.2627Zm1.5386-.3481c.1895-.1382,.3369-.3398,.4429-.6045s.1587-.584,.1587-.9585c0-.375-.0527-.6943-.1587-.959s-.2534-.4663-.4429-.6045c-.189-.1387-.4082-.208-.6562-.208-.2485,0-.4673,.0693-.6567,.208-.189,.1382-.3369,.3398-.4424,.6045-.106,.2646-.1592,.584-.1592,.959,0,.3745,.0532,.6938,.1592,.9585,.1055,.2646,.2534,.4663,.4424,.6045,.1895,.1387,.4082,.208,.6567,.208,.248,0,.4673-.0693,.6562-.208Z"/></g><g><path class="cls-3" d="M122.7748,130.5459c-.2588-.1748-.4604-.4263-.605-.7539s-.2168-.7139-.2168-1.1572c0-.4438,.0723-.8296,.2168-1.1577,.1445-.3276,.3462-.5791,.605-.7539,.2583-.1753,.5522-.2627,.8823-.2627,.3296,0,.624,.0874,.8823,.2627,.2588,.1748,.4609,.4263,.6079,.7539,.1465,.3281,.2197,.7139,.2197,1.1577,0,.4434-.0732,.8296-.2197,1.1572-.147,.3276-.3491,.5791-.6079,.7539-.2583,.1753-.5527,.2627-.8823,.2627-.3301,0-.624-.0874-.8823-.2627Zm1.5386-.3481c.1895-.1382,.3369-.3398,.4429-.6045s.1587-.584,.1587-.9585c0-.375-.0527-.6943-.1587-.959s-.2534-.4663-.4429-.6045c-.189-.1387-.4082-.208-.6562-.208-.2485,0-.4673,.0693-.6567,.208-.189,.1382-.3369,.3398-.4424,.6045-.106,.2646-.1592,.584-.1592,.959,0,.3745,.0532,.6938,.1592,.9585,.1055,.2646,.2534,.4663,.4424,.6045,.1895,.1387,.4082,.208,.6567,.208,.248,0,.4673-.0693,.6562-.208Z"/><path class="cls-3" d="M126.497,130.2314c.061,.063,.0913,.1416,.0913,.2354,0,.0488-.0073,.1016-.0215,.1587s-.0356,.1221-.064,.1953l-.2563,.8428h-.2935l.208-.8853c-.0654-.0205-.1182-.0581-.1592-.1133-.0405-.0547-.061-.1211-.061-.1982,0-.0938,.0308-.1724,.0918-.2354s.1382-.0947,.2319-.0947,.1709,.0317,.2324,.0947Z"/><path class="cls-3" d="M130.2035,130.3813v.3906h-2.9985v-.3115l1.7769-1.7402c.2241-.2202,.376-.4102,.4551-.5713,.0796-.1606,.1191-.3228,.1191-.4854,0-.2524-.0864-.4487-.2598-.5894-.1729-.1406-.4204-.2109-.7417-.2109-.501,0-.8896,.1592-1.1665,.4766l-.3115-.2686c.167-.1958,.3799-.3462,.6382-.4521,.2588-.106,.5508-.1587,.8765-.1587,.4355,0,.7808,.103,1.0352,.3086s.3818,.4873,.3818,.8457c0,.2197-.0493,.4316-.147,.6353s-.2827,.4375-.5557,.7021l-1.4531,1.4292h2.3511Z"/></g></g></svg>