<?xml version="1.0" encoding="UTF-8"?><svg id="Layer_1" xmlns="http://www.w3.org/2000/svg" viewBox="0 0 285.9232 148.1641"><defs><style>.cls-1{fill:#7ec500;}.cls-2{fill:#1256bb;}.cls-3{fill:#a2a2a2;}.cls-4,.cls-5{fill:#f8f8f7;}.cls-4,.cls-5,.cls-6,.cls-7,.cls-8{stroke-miterlimit:10;}.cls-4,.cls-6{stroke:#1256bb;}.cls-5,.cls-7{stroke:#7ec500;}.cls-6,.cls-7,.cls-8{fill:none;}.cls-8{stroke:#a2a2a2;stroke-width:.5px;}</style></defs><polyline class="cls-7" points="4.5743 25.3724 15.4048 67.4636 26.0752 74.0133 36.9056 77.6805 47.8981 84.8414 58.7285 92.3903 69.56 95.5832 80.3904 101.0853 91.2208 106.5863 102.0523 109.2061 112.7217 108.0712 123.7142 104.2289 134.5446 98.203 145.3761 89.2961 156.2065 90.1685 166.8759 94.797 177.8684 100.3866 188.6988 107.6349 199.5303 103.5302 210.3607 100.3866 221.1922 94.4482 232.0226 86.7637 242.8541 83.4452 253.6845 77.8555 264.5149 68.1624"/><polyline class="cls-6" points="4.5743 16.4646 15.4048 76.6335 26.3973 85.1917 37.0667 81.5232 47.8981 89.2089 58.7285 98.4646 69.56 96.3698 80.3904 104.6655 91.2208 115.6686 102.0523 117.7647 112.7217 121.432 123.5531 113.3987 134.5446 100.037 145.3761 85.1042 156.2065 83.4443 167.0369 89.6279 177.8684 99.6883 188.6988 110.3759 199.5303 100.1061 210.3607 95.2163 221.1922 85.7154 232.0226 73.8386 242.8541 74.7468 253.6845 69.2977 264.5149 51.1818"/><g><path class="cls-1" d="M270.5518,68.9785c.0996,.1523,.1494,.3291,.1494,.5283,0,.2363-.0674,.4424-.2012,.6191-.1348,.1758-.3232,.3125-.5674,.4082-.2432,.0967-.5244,.1445-.8438,.1445-.3203,0-.6006-.0479-.8418-.1445-.2422-.0957-.4287-.2324-.5615-.4082-.1328-.1768-.1992-.3828-.1992-.6191,0-.1992,.0498-.376,.1504-.5283,.0996-.1523,.2422-.2754,.4277-.3701-.1416-.0879-.251-.1973-.3271-.3301s-.1143-.2842-.1143-.4551c0-.2217,.0615-.4141,.1846-.5771,.124-.1641,.2969-.29,.5186-.3789,.2207-.0889,.4756-.1338,.7627-.1338,.29,0,.5469,.0449,.7705,.1338s.3975,.2148,.5205,.3789c.123,.1631,.1855,.3555,.1855,.5771,0,.1709-.0381,.3223-.1143,.4551-.0771,.1328-.1875,.2422-.333,.3301,.1895,.0947,.333,.2178,.4336,.3701Zm-.9375,.9023c.1289-.1006,.1934-.2334,.1934-.4014,0-.167-.0645-.2988-.1934-.3975-.1289-.0977-.3037-.1465-.5254-.1465-.2188,0-.3906,.0488-.5176,.1465-.1279,.0986-.1914,.2305-.1914,.3975,0,.1709,.0635,.3057,.1914,.4033,.127,.0986,.2988,.1475,.5176,.1475,.2217,0,.3965-.0498,.5254-.1494Zm-.9531-2.3711c-.1074,.0859-.1611,.2031-.1611,.3516,0,.1455,.0527,.2598,.1582,.3438,.1055,.083,.249,.125,.4307,.125s.3262-.042,.4355-.125c.1094-.084,.1631-.1982,.1631-.3438,0-.1484-.0537-.2656-.1631-.3516-.1094-.085-.2539-.1279-.4355-.1279-.1787,0-.3213,.043-.4277,.1279Z"/><path class="cls-1" d="M272.041,69.7441c.0986,.0967,.1475,.2227,.1475,.3789,0,.0723-.0088,.1455-.0273,.2178-.0176,.0723-.0576,.1816-.1201,.3271l-.3105,.7842h-.5391l.2402-.8662c-.0908-.0361-.1631-.0957-.2158-.1768-.0527-.082-.0791-.1777-.0791-.2861,0-.1562,.0498-.2822,.1504-.3789,.0996-.0957,.2256-.1445,.3779-.1445,.1533,0,.2783,.0488,.376,.1445Z"/><path class="cls-1" d="M275.1914,68.7256c.1777,.1943,.2666,.4346,.2666,.7217,0,.2217-.0576,.4258-.1738,.6133-.1162,.1865-.2939,.3369-.5312,.4492-.2383,.1123-.5303,.1689-.875,.1689-.2686,0-.5332-.0352-.793-.1064-.2598-.0703-.4805-.1719-.6621-.3027l.3438-.6748c.1455,.1084,.3135,.1934,.5039,.2529s.3857,.0898,.5859,.0898c.2217,0,.3955-.043,.5225-.1279,.1279-.085,.1914-.2061,.1914-.3623,0-.3125-.2383-.4688-.7139-.4688h-.4033v-.583l.7842-.8877h-1.623v-.709h2.6699v.5723l-.8613,.9805c.334,.0547,.5908,.1797,.7686,.374Z"/><path class="cls-1" d="M276.0107,68.5723c-.1758-.1904-.2637-.4453-.2637-.7646,0-.3203,.0879-.5752,.2637-.7656,.1768-.1914,.4043-.2861,.6836-.2861,.2803,0,.5068,.0947,.6816,.2861,.1738,.1904,.2617,.4453,.2617,.7656,0,.3193-.0879,.5742-.2617,.7646-.1748,.1914-.4014,.2861-.6816,.2861-.2793,0-.5068-.0947-.6836-.2861Zm.9756-.3125c.0713-.1016,.1064-.2529,.1064-.4521,0-.2002-.0352-.3506-.1064-.4531-.0713-.1016-.168-.1523-.292-.1523-.1191,0-.2158,.0518-.2881,.1553-.0732,.1035-.1094,.2539-.1094,.4502,0,.1953,.0361,.3457,.1094,.4492,.0723,.1035,.1689,.1553,.2881,.1553,.124,0,.2207-.0508,.292-.1523Zm1.9805-1.4609h.6484l-2.6045,3.8145h-.6484l2.6045-3.8145Zm-.1719,3.7305c-.1436-.0859-.2549-.208-.335-.3682s-.1201-.3447-.1201-.5557,.04-.3965,.1201-.5557c.0801-.1602,.1914-.2822,.335-.3682,.1436-.085,.3066-.1279,.4883-.1279,.2793,0,.5078,.0957,.6836,.2861s.2646,.4463,.2646,.7656-.0889,.5742-.2646,.7656c-.1758,.1904-.4043,.2861-.6836,.2861-.1816,0-.3447-.043-.4883-.1279Zm.7793-.4746c.0713-.1035,.1064-.2529,.1064-.4492s-.0352-.3467-.1064-.4502c-.0703-.1035-.168-.1553-.291-.1553-.1201,0-.2168,.0518-.2891,.1533s-.1094,.252-.1094,.4521c0,.1992,.0371,.3506,.1094,.4521s.1689,.1523,.2891,.1523c.123,0,.2207-.0518,.291-.1553Z"/></g><g><path class="cls-1" d="M102.6084,103.9678v.7188h-2.8828v-.5723l1.4717-1.3896c.1553-.1484,.2607-.2764,.3154-.3838s.082-.2129,.082-.3184c0-.1533-.0518-.2705-.1553-.3516-.1035-.082-.2549-.123-.4551-.123-.167,0-.3184,.0322-.4521,.0957-.1348,.0635-.2471,.1592-.3379,.2861l-.6426-.4141c.1484-.2217,.3535-.3955,.6152-.5205s.5615-.1885,.8994-.1885c.2832,0,.5312,.0469,.7432,.1396,.2129,.0928,.3779,.2227,.4961,.3916s.1768,.3682,.1768,.5967c0,.207-.043,.4014-.1309,.583-.0869,.1816-.2559,.3887-.5059,.6211l-.8779,.8291h1.6406Z"/><path class="cls-1" d="M103.9102,103.8174c.0986,.0967,.1475,.2227,.1475,.3789,0,.0723-.0088,.1455-.0273,.2178-.0176,.0723-.0576,.1816-.1201,.3271l-.3105,.7842h-.5391l.2402-.8662c-.0908-.0361-.1631-.0957-.2158-.1768-.0527-.082-.0791-.1777-.0791-.2861,0-.1562,.0498-.2822,.1504-.3789,.0996-.0957,.2256-.1445,.3779-.1445,.1533,0,.2783,.0488,.376,.1445Z"/><path class="cls-1" d="M107.3594,103.9678v.7188h-2.8828v-.5723l1.4717-1.3896c.1553-.1484,.2607-.2764,.3154-.3838s.082-.2129,.082-.3184c0-.1533-.0518-.2705-.1553-.3516-.1035-.082-.2549-.123-.4551-.123-.167,0-.3184,.0322-.4521,.0957-.1348,.0635-.2471,.1592-.3379,.2861l-.6426-.4141c.1484-.2217,.3535-.3955,.6152-.5205s.5615-.1885,.8994-.1885c.2832,0,.5312,.0469,.7432,.1396,.2129,.0928,.3779,.2227,.4961,.3916s.1768,.3682,.1768,.5967c0,.207-.043,.4014-.1309,.583-.0869,.1816-.2559,.3887-.5059,.6211l-.8779,.8291h1.6406Z"/><path class="cls-1" d="M107.9775,102.6455c-.1758-.1904-.2637-.4453-.2637-.7646,0-.3203,.0879-.5752,.2637-.7656,.1768-.1914,.4043-.2861,.6836-.2861,.2803,0,.5068,.0947,.6816,.2861,.1738,.1904,.2617,.4453,.2617,.7656,0,.3193-.0879,.5742-.2617,.7646-.1748,.1914-.4014,.2861-.6816,.2861-.2793,0-.5068-.0947-.6836-.2861Zm.9756-.3125c.0713-.1016,.1064-.2529,.1064-.4521,0-.2002-.0352-.3506-.1064-.4531-.0713-.1016-.168-.1523-.292-.1523-.1191,0-.2158,.0518-.2881,.1553-.0732,.1035-.1094,.2539-.1094,.4502,0,.1953,.0361,.3457,.1094,.4492,.0723,.1035,.1689,.1553,.2881,.1553,.124,0,.2207-.0508,.292-.1523Zm1.9805-1.4609h.6484l-2.6045,3.8145h-.6484l2.6045-3.8145Zm-.1719,3.7305c-.1436-.0859-.2549-.208-.335-.3682s-.1201-.3447-.1201-.5557,.04-.3965,.1201-.5557c.0801-.1602,.1914-.2822,.335-.3682,.1436-.085,.3066-.1279,.4883-.1279,.2793,0,.5078,.0957,.6836,.2861s.2646,.4463,.2646,.7656-.0889,.5742-.2646,.7656c-.1758,.1904-.4043,.2861-.6836,.2861-.1816,0-.3447-.043-.4883-.1279Zm.7793-.4746c.0713-.1035,.1064-.2529,.1064-.4492s-.0352-.3467-.1064-.4502c-.0703-.1035-.168-.1553-.291-.1553-.1201,0-.2168,.0518-.2891,.1533s-.1094,.252-.1094,.4521c0,.1992,.0371,.3506,.1094,.4521s.1689,.1523,.2891,.1523c.123,0,.2207-.0518,.291-.1553Z"/></g><g><path class="cls-2" d="M268.9795,49.2344v3.8145h-.8828v-3.1055h-.7627v-.709h1.6455Z"/><path class="cls-2" d="M270.4346,52.8799c-.2471-.1562-.4404-.3818-.5811-.6787-.1396-.2959-.209-.6484-.209-1.0596,0-.4102,.0693-.7637,.209-1.0596,.1406-.2959,.334-.5225,.5811-.6787s.5283-.2344,.8438-.2344c.3164,0,.5977,.0781,.8447,.2344s.4404,.3828,.5811,.6787c.1396,.2959,.209,.6494,.209,1.0596,0,.4111-.0693,.7637-.209,1.0596-.1406,.2969-.334,.5225-.5811,.6787s-.5283,.2344-.8447,.2344c-.3154,0-.5967-.0781-.8438-.2344Zm1.3916-.8115c.1328-.2002,.1992-.5088,.1992-.9268s-.0664-.7266-.1992-.9258c-.1328-.2002-.3154-.2998-.5479-.2998-.2285,0-.4092,.0996-.542,.2998-.1328,.1992-.1982,.5078-.1982,.9258s.0654,.7266,.1982,.9268c.1328,.1992,.3135,.2998,.542,.2998,.2324,0,.415-.1006,.5479-.2998Z"/><path class="cls-2" d="M274.1553,52.1797c.0986,.0967,.1475,.2227,.1475,.3789,0,.0723-.0088,.1455-.0273,.2178-.0176,.0723-.0576,.1816-.1201,.3271l-.3105,.7842h-.5391l.2402-.8662c-.0908-.0361-.1631-.0957-.2158-.1768-.0527-.082-.0791-.1777-.0791-.2861,0-.1562,.0498-.2822,.1504-.3789,.0996-.0957,.2256-.1445,.3779-.1445,.1533,0,.2783,.0488,.376,.1445Z"/><path class="cls-2" d="M277.7988,51.4141c.0996,.1523,.1494,.3291,.1494,.5283,0,.2363-.0674,.4424-.2012,.6191-.1348,.1758-.3232,.3125-.5674,.4082-.2432,.0967-.5244,.1445-.8438,.1445-.3203,0-.6006-.0479-.8418-.1445-.2422-.0957-.4287-.2324-.5615-.4082-.1328-.1768-.1992-.3828-.1992-.6191,0-.1992,.0498-.376,.1504-.5283,.0996-.1523,.2422-.2754,.4277-.3701-.1416-.0879-.251-.1973-.3271-.3301s-.1143-.2842-.1143-.4551c0-.2217,.0615-.4141,.1846-.5771,.124-.1641,.2969-.29,.5186-.3789,.2207-.0889,.4756-.1338,.7627-.1338,.29,0,.5469,.0449,.7705,.1338s.3975,.2148,.5205,.3789c.123,.1631,.1855,.3555,.1855,.5771,0,.1709-.0381,.3223-.1143,.4551-.0771,.1328-.1875,.2422-.333,.3301,.1895,.0947,.333,.2178,.4336,.3701Zm-.9375,.9023c.1289-.1006,.1934-.2334,.1934-.4014,0-.167-.0645-.2988-.1934-.3975-.1289-.0977-.3037-.1465-.5254-.1465-.2188,0-.3906,.0488-.5176,.1465-.1279,.0986-.1914,.2305-.1914,.3975,0,.1709,.0635,.3057,.1914,.4033,.127,.0986,.2988,.1475,.5176,.1475,.2217,0,.3965-.0498,.5254-.1494Zm-.9531-2.3711c-.1074,.0859-.1611,.2031-.1611,.3516,0,.1455,.0527,.2598,.1582,.3438,.1055,.083,.249,.125,.4307,.125s.3262-.042,.4355-.125c.1094-.084,.1631-.1982,.1631-.3438,0-.1484-.0537-.2656-.1631-.3516-.1094-.085-.2539-.1279-.4355-.1279-.1787,0-.3213,.043-.4277,.1279Z"/><path class="cls-2" d="M278.4951,51.0078c-.1758-.1904-.2637-.4453-.2637-.7646,0-.3203,.0879-.5752,.2637-.7656,.1768-.1914,.4043-.2861,.6836-.2861,.2803,0,.5068,.0947,.6816,.2861,.1738,.1904,.2617,.4453,.2617,.7656,0,.3193-.0879,.5742-.2617,.7646-.1748,.1914-.4014,.2861-.6816,.2861-.2793,0-.5068-.0947-.6836-.2861Zm.9756-.3125c.0713-.1016,.1064-.2529,.1064-.4521,0-.2002-.0352-.3506-.1064-.4531-.0713-.1016-.168-.1523-.292-.1523-.1191,0-.2158,.0518-.2881,.1553-.0732,.1035-.1094,.2539-.1094,.4502,0,.1953,.0361,.3457,.1094,.4492,.0723,.1035,.1689,.1553,.2881,.1553,.124,0,.2207-.0508,.292-.1523Zm1.9805-1.4609h.6484l-2.6045,3.8145h-.6484l2.6045-3.8145Zm-.1719,3.7305c-.1436-.0859-.2549-.208-.335-.3682s-.1201-.3447-.1201-.5557,.04-.3965,.1201-.5557c.0801-.1602,.1914-.2822,.335-.3682,.1436-.085,.3066-.1279,.4883-.1279,.2793,0,.5078,.0957,.6836,.2861s.2646,.4463,.2646,.7656-.0889,.5742-.2646,.7656c-.1758,.1904-.4043,.2861-.6836,.2861-.1816,0-.3447-.043-.4883-.1279Zm.7793-.4746c.0713-.1035,.1064-.2529,.1064-.4492s-.0352-.3467-.1064-.4502c-.0703-.1035-.168-.1553-.291-.1553-.1201,0-.2168,.0518-.2891,.1533s-.1094,.252-.1094,.4521c0,.1992,.0371,.3506,.1094,.4521s.1689,.1523,.2891,.1523c.123,0,.2207-.0518,.291-.1553Z"/></g><g><path class="cls-2" d="M107.3027,128.709c-.2471-.1562-.4404-.3818-.5811-.6787-.1396-.2959-.209-.6484-.209-1.0596,0-.4102,.0693-.7637,.209-1.0596,.1406-.2959,.334-.5225,.5811-.6787s.5283-.2344,.8438-.2344c.3164,0,.5977,.0781,.8447,.2344s.4404,.3828,.5811,.6787c.1396,.2959,.209,.6494,.209,1.0596,0,.4111-.0693,.7637-.209,1.0596-.1406,.2969-.334,.5225-.5811,.6787s-.5283,.2344-.8447,.2344c-.3154,0-.5967-.0781-.8438-.2344Zm1.3916-.8115c.1328-.2002,.1992-.5088,.1992-.9268s-.0664-.7266-.1992-.9258c-.1328-.2002-.3154-.2998-.5479-.2998-.2285,0-.4092,.0996-.542,.2998-.1328,.1992-.1982,.5078-.1982,.9258s.0654,.7266,.1982,.9268c.1328,.1992,.3135,.2998,.542,.2998,.2324,0,.415-.1006,.5479-.2998Z"/><path class="cls-2" d="M111.0234,128.0088c.0986,.0967,.1475,.2227,.1475,.3789,0,.0723-.0088,.1455-.0273,.2178-.0176,.0723-.0576,.1816-.1201,.3271l-.3105,.7842h-.5391l.2402-.8662c-.0908-.0361-.1631-.0957-.2158-.1768-.0527-.082-.0791-.1777-.0791-.2861,0-.1562,.0498-.2822,.1504-.3789,.0996-.0957,.2256-.1445,.3779-.1445,.1533,0,.2783,.0488,.376,.1445Z"/><path class="cls-2" d="M115.0615,128.0771h-.6211v.8008h-.8613v-.8008h-2.0537v-.5938l1.7979-2.4199h.9268l-1.668,2.2939h1.0244v-.7139h.834v.7139h.6211v.7197Z"/><path class="cls-2" d="M115.3584,126.8369c-.1758-.1904-.2637-.4453-.2637-.7646,0-.3203,.0879-.5752,.2637-.7656,.1768-.1914,.4043-.2861,.6836-.2861,.2803,0,.5068,.0947,.6816,.2861,.1738,.1904,.2617,.4453,.2617,.7656,0,.3193-.0879,.5742-.2617,.7646-.1748,.1914-.4014,.2861-.6816,.2861-.2793,0-.5068-.0947-.6836-.2861Zm.9756-.3125c.0713-.1016,.1064-.2529,.1064-.4521,0-.2002-.0352-.3506-.1064-.4531-.0713-.1016-.168-.1523-.292-.1523-.1191,0-.2158,.0518-.2881,.1553-.0732,.1035-.1094,.2539-.1094,.4502,0,.1953,.0361,.3457,.1094,.4492,.0723,.1035,.1689,.1553,.2881,.1553,.124,0,.2207-.0508,.292-.1523Zm1.9805-1.4609h.6484l-2.6045,3.8145h-.6484l2.6045-3.8145Zm-.1719,3.7305c-.1436-.0859-.2549-.208-.335-.3682s-.1201-.3447-.1201-.5557,.04-.3965,.1201-.5557c.0801-.1602,.1914-.2822,.335-.3682,.1436-.085,.3066-.1279,.4883-.1279,.2793,0,.5078,.0957,.6836,.2861s.2646,.4463,.2646,.7656-.0889,.5742-.2646,.7656c-.1758,.1904-.4043,.2861-.6836,.2861-.1816,0-.3447-.043-.4883-.1279Zm.7793-.4746c.0713-.1035,.1064-.2529,.1064-.4492s-.0352-.3467-.1064-.4502c-.0703-.1035-.168-.1553-.291-.1553-.1201,0-.2168,.0518-.2891,.1533s-.1094,.252-.1094,.4521c0,.1992,.0371,.3506,.1094,.4521s.1689,.1523,.2891,.1523c.123,0,.2207-.0518,.291-.1553Z"/></g><g><path d="M222.7666,.6621h.3223V3.2197l1.9756-2.5576h.2949V3.749h-.3213V1.1953l-1.9766,2.5537h-.2949V.6621Z"/><path d="M226.3252,1.4297h.3135v1.0273h1.46V1.4297h.3125V3.749h-.3125v-1.0234h-1.46v1.0234h-.3135V1.4297Z"/><path d="M231.7451,3.4355c-.2383,.2061-.5752,.3184-1.0098,.3359v.833h-.3047v-.8291c-.4316-.0176-.7666-.1299-1.0029-.3369-.2373-.208-.3555-.4922-.3555-.8535,0-.3584,.1182-.6396,.3555-.8428,.2363-.2021,.5713-.3125,1.0029-.3301V.4766h.3047v.9355c.4346,.0205,.7715,.1318,1.0098,.335,.2383,.2021,.3574,.4824,.3574,.8379,0,.3613-.1191,.6455-.3574,.8506Zm-2.0967-.2021c.1777,.1553,.4385,.2441,.7822,.2646V1.6895c-.3408,.0176-.6016,.1035-.7803,.2578-.1797,.1543-.2695,.3672-.2695,.6377,0,.2764,.0889,.4922,.2676,.6484Zm1.874,.0039c.1807-.1553,.2715-.373,.2715-.6523,0-.2734-.0908-.4863-.2715-.6396s-.4434-.2383-.7871-.2559v1.8086c.3438-.0176,.6064-.1045,.7871-.2607Z"/><path d="M234.6602,1.4297V3.749h-.3135V1.707h-1.1113l-.0303,.5732c-.0234,.4824-.0801,.8525-.168,1.1113s-.2451,.3887-.4717,.3887c-.0615,0-.1367-.0117-.2246-.0361l.0215-.2686c.0527,.0117,.0898,.0176,.1104,.0176,.1201,0,.2119-.0557,.2734-.168,.0615-.1113,.1025-.249,.123-.4141,.0215-.165,.0391-.3818,.0537-.6523l.0391-.8291h1.6982Z"/><path d="M237.333,1.4297V3.749h-.2871v-.7676h-.8154l-.5381,.7676h-.3398l.5771-.8115c-.1787-.0498-.3174-.1348-.4141-.2559-.0967-.1201-.1455-.2734-.1455-.459,0-.2578,.0879-.4551,.2646-.5908,.1768-.1348,.417-.2021,.7236-.2021h.9746Zm-.9883,1.3184h.7012V1.707h-.6787c-.4531,0-.6797,.1748-.6797,.5254,0,.3438,.2188,.5156,.6572,.5156Z"/><path d="M240.6406,3.4756v.8555h-.2959v-.582h-2.1211V1.4297h.3135V3.4756h1.415V1.4297h.3135V3.4756h.375Z"/><path d="M241.2402,1.4297h.3135v1.8428l1.5479-1.8428h.2773V3.749h-.3125V1.9053l-1.5439,1.8438h-.2822V1.4297Z"/><path d="M246.0566,1.4297V3.749h-.2871v-.7676h-.8154l-.5381,.7676h-.3398l.5771-.8115c-.1787-.0498-.3174-.1348-.4141-.2559-.0967-.1201-.1455-.2734-.1455-.459,0-.2578,.0879-.4551,.2646-.5908,.1768-.1348,.417-.2021,.7236-.2021h.9746Zm-.9883,1.3184h.7012V1.707h-.6787c-.4531,0-.6797,.1748-.6797,.5254,0,.3438,.2188,.5156,.6572,.5156Z"/><path d="M248.1025,1.4297h.3135v1.0273h1.46V1.4297h.3125V3.749h-.3125v-1.0234h-1.46v1.0234h-.3135V1.4297Z"/><path d="M252.5742,1.6387c.1621,.1514,.2422,.376,.2422,.6729v1.4375h-.2998v-.3613c-.0703,.1201-.1738,.2139-.3105,.2822-.1367,.0674-.2988,.1016-.4873,.1016-.2588,0-.4648-.0625-.6172-.1855-.1533-.124-.2295-.2871-.2295-.4893,0-.1973,.0713-.3564,.2139-.4766s.3691-.1807,.6816-.1807h.7363v-.1416c0-.1992-.0557-.3516-.168-.4561-.1113-.1045-.2744-.1562-.4893-.1562-.1475,0-.2881,.0234-.4238,.0723-.1348,.0488-.251,.1152-.3477,.2012l-.1416-.2344c.1172-.0996,.2588-.1768,.4238-.2314,.1641-.0547,.3379-.0811,.5195-.0811,.3037,0,.5352,.0752,.6973,.2266Zm-.3525,1.7637c.126-.0801,.2207-.1973,.2822-.3506v-.3789h-.7275c-.3975,0-.5957,.1387-.5957,.415,0,.1348,.0518,.2412,.1543,.3193s.2471,.1172,.4326,.1172c.1758,0,.3271-.041,.4541-.1221Z"/><path d="M256.8877,1.4297V3.749h-.3135V1.707h-1.4551V3.749h-.3135V1.4297h2.082Z"/><path d="M259.5645,1.5596c.1768,.0986,.3145,.2373,.415,.417,.0996,.1787,.1494,.3828,.1494,.6123,0,.2324-.0498,.4385-.1494,.6182-.1006,.1787-.2383,.3174-.4131,.416s-.3721,.1484-.5928,.1484c-.1885,0-.3584-.0391-.5098-.1172s-.2754-.1924-.3721-.3418v1.292h-.3135V1.4297h.2998v.458c.0947-.1523,.2188-.2705,.373-.3525s.3281-.123,.5225-.123c.2178,0,.4141,.0488,.5908,.1475Zm-.1719,1.8213c.1318-.0752,.2363-.1816,.3105-.3193,.0752-.1387,.1123-.2959,.1123-.4727,0-.1758-.0371-.333-.1123-.4697-.0742-.1367-.1787-.2432-.3105-.3193-.1328-.0762-.2793-.1143-.4414-.1143-.1641,0-.3125,.0381-.4424,.1143-.1309,.0762-.2344,.1826-.3096,.3193-.0742,.1367-.1123,.2939-.1123,.4697,0,.1768,.0381,.334,.1123,.4727,.0752,.1377,.1787,.2441,.3096,.3193,.1299,.0752,.2783,.1123,.4424,.1123,.1621,0,.3086-.0371,.4414-.1123Z"/><path d="M261.1562,3.6191c-.1787-.1016-.3203-.2422-.4229-.4209-.1035-.1797-.1543-.3828-.1543-.6094,0-.2256,.0508-.4287,.1543-.6084,.1025-.1797,.2441-.3193,.4229-.4189,.1797-.0996,.3809-.1494,.6045-.1494s.4248,.0498,.6045,.1494c.1787,.0996,.3193,.2393,.4209,.4189s.1523,.3828,.1523,.6084c0,.2266-.0508,.4297-.1523,.6094-.1016,.1787-.2422,.3193-.4209,.4209-.1797,.1016-.3809,.1523-.6045,.1523s-.4248-.0508-.6045-.1523Zm1.0479-.2383c.1309-.0752,.2324-.1816,.3066-.3193,.0732-.1387,.1104-.2959,.1104-.4727,0-.1758-.0371-.333-.1104-.4717-.0742-.1377-.1758-.2451-.3066-.3193-.1309-.0752-.2783-.1123-.4434-.1123s-.3125,.0371-.4434,.1123c-.1309,.0742-.2334,.1816-.3086,.3193-.0752,.1387-.1123,.2959-.1123,.4717,0,.1768,.0371,.334,.1123,.4727,.0752,.1377,.1777,.2441,.3086,.3193s.2783,.1123,.4434,.1123,.3125-.0371,.4434-.1123Z"/><path d="M265.8711,3.4756v.834h-.2959v-.5605h-2.0771v.5605h-.2949v-.834h.1318c.1562-.0088,.2617-.123,.3174-.3438s.0947-.5293,.1152-.9268l.0303-.7754h1.7109V3.4756h.3623Zm-1.9014-.4385c-.041,.2129-.1143,.3594-.2197,.4385h1.4463V1.707h-1.1162l-.0264,.5156c-.0146,.3301-.042,.6006-.084,.8145Z"/><path d="M268.4512,1.4297l-1.1602,2.5977c-.0938,.2168-.2031,.3711-.3262,.4629-.124,.0908-.2725,.1367-.4453,.1367-.1123,0-.2168-.0176-.3135-.0537-.0967-.0352-.1807-.0879-.251-.1582l.1455-.2334c.1172,.1172,.2588,.1758,.4229,.1758,.1064,0,.1963-.0293,.2715-.0879s.1445-.1592,.21-.2998l.1006-.2256-1.0361-2.3145h.3262l.873,1.9707,.874-1.9707h.3086Z"/><path d="M269.7832,2.7168h-.5293v1.0322h-.3135V1.4297h.3135v1.0186h.5332l.8164-1.0186h.3389l-.9121,1.124,.9785,1.1953h-.3701l-.8555-1.0322Z"/><path d="M273.1348,1.707h-.8779V3.749h-.3125V1.707h-.8779v-.2773h2.0684v.2773Z"/><path d="M275.2295,2.4434c.1533,.127,.2295,.3086,.2295,.5469,0,.2471-.082,.4365-.2471,.5693-.165,.1318-.3994,.1963-.7061,.1943l-.917-.0049V1.4297h.3135v.8115l.6611,.0088c.291,.0029,.5127,.0674,.666,.1934Zm-.2539,.9414c.1104-.0889,.166-.2207,.166-.3945,0-.1699-.0547-.2969-.1631-.3789-.1094-.082-.2725-.125-.4902-.1279l-.5859-.0088v1.0322l.5859,.0088c.2148,.0029,.377-.041,.4873-.1309Zm.8711-1.9551h.3135V3.749h-.3135V1.4297Z"/><path d="M224.7734,6.7217v2.3193h-.3135v-2.042h-1.4551v2.042h-.3135v-2.3193h2.082Z"/><path d="M225.6641,6.7217h.3135v1.8428l1.5479-1.8428h.2773v2.3193h-.3125v-1.8438l-1.5439,1.8438h-.2822v-2.3193Z"/><path d="M230.3301,6.999h-.8779v2.042h-.3125v-2.042h-.8779v-.2773h2.0684v.2773Z"/><path d="M232.2793,6.9307c.1621,.1514,.2422,.376,.2422,.6729v1.4375h-.2998v-.3613c-.0703,.1201-.1738,.2139-.3105,.2822-.1367,.0674-.2988,.1016-.4873,.1016-.2588,0-.4648-.0625-.6172-.1855-.1533-.124-.2295-.2871-.2295-.4893,0-.1973,.0713-.3564,.2139-.4766s.3691-.1807,.6816-.1807h.7363v-.1416c0-.1992-.0557-.3516-.168-.4561-.1113-.1045-.2744-.1562-.4893-.1562-.1475,0-.2881,.0234-.4238,.0723-.1348,.0488-.251,.1152-.3477,.2012l-.1416-.2344c.1172-.0996,.2588-.1768,.4238-.2314,.1641-.0547,.3379-.0811,.5195-.0811,.3037,0,.5352,.0752,.6973,.2266Zm-.3525,1.7637c.126-.0801,.2207-.1973,.2822-.3506v-.3789h-.7275c-.3975,0-.5957,.1387-.5957,.415,0,.1348,.0518,.2412,.1543,.3193s.2471,.1172,.4326,.1172c.1758,0,.3271-.041,.4541-.1221Z"/><path d="M233.3555,6.7217h.3135v1.0273h1.46v-1.0273h.3125v2.3193h-.3125v-1.0234h-1.46v1.0234h-.3135v-2.3193Z"/><path d="M236.332,6.7217h.3135v1.8428l1.5479-1.8428h.2773v2.3193h-.3125v-1.8438l-1.5439,1.8438h-.2822v-2.3193Z"/><path d="M241.1484,6.7217v2.3193h-.2871v-.7676h-.8154l-.5381,.7676h-.3398l.5771-.8115c-.1787-.0498-.3174-.1348-.4141-.2559-.0967-.1201-.1455-.2734-.1455-.459,0-.2578,.0879-.4551,.2646-.5908,.1768-.1348,.417-.2021,.7236-.2021h.9746Zm-.9883,1.3184h.7012v-1.041h-.6787c-.4531,0-.6797,.1748-.6797,.5254,0,.3438,.2188,.5156,.6572,.5156Z"/><path d="M242.2334,8.6504c.0439,.0459,.0664,.1025,.0664,.1699,0,.0352-.0059,.0732-.0156,.1152-.0107,.041-.0264,.0879-.0469,.1406l-.1846,.6084h-.2119l.1494-.6387c-.0469-.0156-.085-.042-.1143-.082s-.0439-.0879-.0439-.1436c0-.0674,.0215-.124,.0664-.1699,.0439-.0449,.0996-.0684,.167-.0684s.124,.0234,.168,.0684Z"/><path d="M245.7695,6.999h-1.3271v2.042h-.3135v-2.3193h1.6406v.2773Z"/><path d="M246.5762,8.9111c-.1787-.1016-.3203-.2422-.4229-.4209-.1035-.1797-.1543-.3828-.1543-.6094,0-.2256,.0508-.4287,.1543-.6084,.1025-.1797,.2441-.3193,.4229-.4189,.1797-.0996,.3809-.1494,.6045-.1494s.4248,.0498,.6045,.1494c.1787,.0996,.3193,.2393,.4209,.4189s.1523,.3828,.1523,.6084c0,.2266-.0508,.4297-.1523,.6094-.1016,.1787-.2422,.3193-.4209,.4209-.1797,.1016-.3809,.1523-.6045,.1523s-.4248-.0508-.6045-.1523Zm1.0479-.2383c.1309-.0752,.2324-.1816,.3066-.3193,.0732-.1387,.1104-.2959,.1104-.4727,0-.1758-.0371-.333-.1104-.4717-.0742-.1377-.1758-.2451-.3066-.3193-.1309-.0752-.2783-.1123-.4434-.1123s-.3125,.0371-.4434,.1123c-.1309,.0742-.2334,.1816-.3086,.3193-.0752,.1387-.1123,.2959-.1123,.4717,0,.1768,.0371,.334,.1123,.4727,.0752,.1377,.1777,.2441,.3086,.3193s.2783,.1123,.4434,.1123,.3125-.0371,.4434-.1123Z"/><path d="M251.291,8.7676v.834h-.2959v-.5605h-2.0771v.5605h-.2949v-.834h.1318c.1562-.0088,.2617-.123,.3174-.3438s.0947-.5293,.1152-.9268l.0303-.7754h1.7109v2.0459h.3623Zm-1.9014-.4385c-.041,.2129-.1143,.3594-.2197,.4385h1.4463v-1.7686h-1.1162l-.0264,.5156c-.0146,.3301-.042,.6006-.084,.8145Z"/><path d="M253.8975,8.0088h-.5293v1.0322h-.3135v-2.3193h.3135v1.0186h.5332l.8164-1.0186h.3389l-.9121,1.124,.9785,1.1953h-.3701l-.8555-1.0322Z"/><path d="M258.4131,6.999h-1.3271v2.042h-.3135v-2.3193h1.6406v.2773Z"/><path d="M259.2197,8.9111c-.1787-.1016-.3203-.2422-.4229-.4209-.1035-.1797-.1543-.3828-.1543-.6094,0-.2256,.0508-.4287,.1543-.6084,.1025-.1797,.2441-.3193,.4229-.4189,.1797-.0996,.3809-.1494,.6045-.1494s.4248,.0498,.6045,.1494c.1787,.0996,.3193,.2393,.4209,.4189s.1523,.3828,.1523,.6084c0,.2266-.0508,.4297-.1523,.6094-.1016,.1787-.2422,.3193-.4209,.4209-.1797,.1016-.3809,.1523-.6045,.1523s-.4248-.0508-.6045-.1523Zm1.0479-.2383c.1309-.0752,.2324-.1816,.3066-.3193,.0732-.1387,.1104-.2959,.1104-.4727,0-.1758-.0371-.333-.1104-.4717-.0742-.1377-.1758-.2451-.3066-.3193-.1309-.0752-.2783-.1123-.4434-.1123s-.3125,.0371-.4434,.1123c-.1309,.0742-.2334,.1816-.3086,.3193-.0752,.1387-.1123,.2959-.1123,.4717,0,.1768,.0371,.334,.1123,.4727,.0752,.1377,.1777,.2441,.3086,.3193s.2783,.1123,.4434,.1123,.3125-.0371,.4434-.1123Z"/><path d="M263.9346,8.7676v.834h-.2959v-.5605h-2.0771v.5605h-.2949v-.834h.1318c.1562-.0088,.2617-.123,.3174-.3438s.0947-.5293,.1152-.9268l.0303-.7754h1.7109v2.0459h.3623Zm-1.9014-.4385c-.041,.2129-.1143,.3594-.2197,.4385h1.4463v-1.7686h-1.1162l-.0264,.5156c-.0146,.3301-.042,.6006-.084,.8145Z"/><path d="M266.5146,6.7217l-1.1602,2.5977c-.0938,.2168-.2031,.3711-.3262,.4629-.124,.0908-.2725,.1367-.4453,.1367-.1123,0-.2168-.0176-.3135-.0537-.0967-.0352-.1807-.0879-.251-.1582l.1455-.2334c.1172,.1172,.2588,.1758,.4229,.1758,.1064,0,.1963-.0293,.2715-.0879s.1445-.1592,.21-.2998l.1006-.2256-1.0361-2.3145h.3262l.873,1.9707,.874-1.9707h.3086Z"/></g><g><path d="M222.7666,13.4551h.3223v2.5576l1.9756-2.5576h.2949v3.0869h-.3213v-2.5537l-1.9766,2.5537h-.2949v-3.0869Z"/><path d="M226.3252,14.2227h.3135v1.0273h1.46v-1.0273h.3125v2.3193h-.3125v-1.0234h-1.46v1.0234h-.3135v-2.3193Z"/><path d="M231.7451,16.2285c-.2383,.2061-.5752,.3184-1.0098,.3359v.833h-.3047v-.8291c-.4316-.0176-.7666-.1299-1.0029-.3369-.2373-.208-.3555-.4922-.3555-.8535,0-.3584,.1182-.6396,.3555-.8428,.2363-.2021,.5713-.3125,1.0029-.3301v-.9355h.3047v.9355c.4346,.0205,.7715,.1318,1.0098,.335,.2383,.2021,.3574,.4824,.3574,.8379,0,.3613-.1191,.6455-.3574,.8506Zm-2.0967-.2021c.1777,.1553,.4385,.2441,.7822,.2646v-1.8086c-.3408,.0176-.6016,.1035-.7803,.2578-.1797,.1543-.2695,.3672-.2695,.6377,0,.2764,.0889,.4922,.2676,.6484Zm1.874,.0039c.1807-.1553,.2715-.373,.2715-.6523,0-.2734-.0908-.4863-.2715-.6396s-.4434-.2383-.7871-.2559v1.8086c.3438-.0176,.6064-.1045,.7871-.2607Z"/><path d="M234.6602,14.2227v2.3193h-.3135v-2.042h-1.1113l-.0303,.5732c-.0234,.4824-.0801,.8525-.168,1.1113s-.2451,.3887-.4717,.3887c-.0615,0-.1367-.0117-.2246-.0361l.0215-.2686c.0527,.0117,.0898,.0176,.1104,.0176,.1201,0,.2119-.0557,.2734-.168,.0615-.1113,.1025-.249,.123-.4141,.0215-.165,.0391-.3818,.0537-.6523l.0391-.8291h1.6982Z"/><path d="M237.333,14.2227v2.3193h-.2871v-.7676h-.8154l-.5381,.7676h-.3398l.5771-.8115c-.1787-.0498-.3174-.1348-.4141-.2559-.0967-.1201-.1455-.2734-.1455-.459,0-.2578,.0879-.4551,.2646-.5908,.1768-.1348,.417-.2021,.7236-.2021h.9746Zm-.9883,1.3184h.7012v-1.041h-.6787c-.4531,0-.6797,.1748-.6797,.5254,0,.3438,.2188,.5156,.6572,.5156Z"/><path d="M240.6406,16.2686v.8555h-.2959v-.582h-2.1211v-2.3193h.3135v2.0459h1.415v-2.0459h.3135v2.0459h.375Z"/><path d="M241.2402,14.2227h.3135v1.8428l1.5479-1.8428h.2773v2.3193h-.3125v-1.8438l-1.5439,1.8438h-.2822v-2.3193Z"/><path d="M246.0566,14.2227v2.3193h-.2871v-.7676h-.8154l-.5381,.7676h-.3398l.5771-.8115c-.1787-.0498-.3174-.1348-.4141-.2559-.0967-.1201-.1455-.2734-.1455-.459,0-.2578,.0879-.4551,.2646-.5908,.1768-.1348,.417-.2021,.7236-.2021h.9746Zm-.9883,1.3184h.7012v-1.041h-.6787c-.4531,0-.6797,.1748-.6797,.5254,0,.3438,.2188,.5156,.6572,.5156Z"/><path d="M247.1416,16.1514c.0439,.0459,.0664,.1025,.0664,.1699,0,.0352-.0059,.0732-.0156,.1152-.0107,.041-.0264,.0879-.0469,.1406l-.1846,.6084h-.2119l.1494-.6387c-.0469-.0156-.085-.042-.1143-.082s-.0439-.0879-.0439-.1436c0-.0674,.0215-.124,.0664-.1699,.0439-.0449,.0996-.0684,.167-.0684s.124,.0234,.168,.0684Z"/><path d="M250.6777,14.5h-1.3271v2.042h-.3135v-2.3193h1.6406v.2773Z"/><path d="M251.4844,16.4121c-.1787-.1016-.3203-.2422-.4229-.4209-.1035-.1797-.1543-.3828-.1543-.6094,0-.2256,.0508-.4287,.1543-.6084,.1025-.1797,.2441-.3193,.4229-.4189,.1797-.0996,.3809-.1494,.6045-.1494s.4248,.0498,.6045,.1494c.1787,.0996,.3193,.2393,.4209,.4189s.1523,.3828,.1523,.6084c0,.2266-.0508,.4297-.1523,.6094-.1016,.1787-.2422,.3193-.4209,.4209-.1797,.1016-.3809,.1523-.6045,.1523s-.4248-.0508-.6045-.1523Zm1.0479-.2383c.1309-.0752,.2324-.1816,.3066-.3193,.0732-.1387,.1104-.2959,.1104-.4727,0-.1758-.0371-.333-.1104-.4717-.0742-.1377-.1758-.2451-.3066-.3193-.1309-.0752-.2783-.1123-.4434-.1123s-.3125,.0371-.4434,.1123c-.1309,.0742-.2334,.1816-.3086,.3193-.0752,.1387-.1123,.2959-.1123,.4717,0,.1768,.0371,.334,.1123,.4727,.0752,.1377,.1777,.2441,.3086,.3193s.2783,.1123,.4434,.1123,.3125-.0371,.4434-.1123Z"/><path d="M256.1992,16.2686v.834h-.2959v-.5605h-2.0771v.5605h-.2949v-.834h.1318c.1562-.0088,.2617-.123,.3174-.3438s.0947-.5293,.1152-.9268l.0303-.7754h1.7109v2.0459h.3623Zm-1.9014-.4385c-.041,.2129-.1143,.3594-.2197,.4385h1.4463v-1.7686h-1.1162l-.0264,.5156c-.0146,.3301-.042,.6006-.084,.8145Z"/><path d="M258.8057,15.5098h-.5293v1.0322h-.3135v-2.3193h.3135v1.0186h.5332l.8164-1.0186h.3389l-.9121,1.124,.9785,1.1953h-.3701l-.8555-1.0322Z"/><path d="M263.3213,14.5h-1.3271v2.042h-.3135v-2.3193h1.6406v.2773Z"/><path d="M264.1279,16.4121c-.1787-.1016-.3203-.2422-.4229-.4209-.1035-.1797-.1543-.3828-.1543-.6094,0-.2256,.0508-.4287,.1543-.6084,.1025-.1797,.2441-.3193,.4229-.4189,.1797-.0996,.3809-.1494,.6045-.1494s.4248,.0498,.6045,.1494c.1787,.0996,.3193,.2393,.4209,.4189s.1523,.3828,.1523,.6084c0,.2266-.0508,.4297-.1523,.6094-.1016,.1787-.2422,.3193-.4209,.4209-.1797,.1016-.3809,.1523-.6045,.1523s-.4248-.0508-.6045-.1523Zm1.0479-.2383c.1309-.0752,.2324-.1816,.3066-.3193,.0732-.1387,.1104-.2959,.1104-.4727,0-.1758-.0371-.333-.1104-.4717-.0742-.1377-.1758-.2451-.3066-.3193-.1309-.0752-.2783-.1123-.4434-.1123s-.3125,.0371-.4434,.1123c-.1309,.0742-.2334,.1816-.3086,.3193-.0752,.1387-.1123,.2959-.1123,.4717,0,.1768,.0371,.334,.1123,.4727,.0752,.1377,.1777,.2441,.3086,.3193s.2783,.1123,.4434,.1123,.3125-.0371,.4434-.1123Z"/><path d="M268.8428,16.2686v.834h-.2959v-.5605h-2.0771v.5605h-.2949v-.834h.1318c.1562-.0088,.2617-.123,.3174-.3438s.0947-.5293,.1152-.9268l.0303-.7754h1.7109v2.0459h.3623Zm-1.9014-.4385c-.041,.2129-.1143,.3594-.2197,.4385h1.4463v-1.7686h-1.1162l-.0264,.5156c-.0146,.3301-.042,.6006-.084,.8145Z"/><path d="M271.4229,14.2227l-1.1602,2.5977c-.0938,.2168-.2031,.3711-.3262,.4629-.124,.0908-.2725,.1367-.4453,.1367-.1123,0-.2168-.0176-.3135-.0537-.0967-.0352-.1807-.0879-.251-.1582l.1455-.2334c.1172,.1172,.2588,.1758,.4229,.1758,.1064,0,.1963-.0293,.2715-.0879s.1445-.1592,.21-.2998l.1006-.2256-1.0361-2.3145h.3262l.873,1.9707,.874-1.9707h.3086Z"/></g><circle class="cls-1" cx="215.6589" cy="2.7985" r="1.906"/><circle class="cls-2" cx="215.6589" cy="14.7" r="1.906"/><g><g><path class="cls-3" d="M94.5078,138.5791c-.0869,.0215-.1729,.0371-.2578,.0469s-.1719,.0146-.2607,.0146c-.252,0-.4551-.0693-.6084-.208s-.2363-.3379-.249-.5957c-.0352,.0049-.0693,.0098-.1016,.0117-.0332,.002-.0645,.0029-.0947,.0029-.2285,0-.4355-.0381-.6221-.1133s-.3457-.1846-.4756-.3291c-.1309-.1436-.2314-.3203-.3018-.5293s-.1055-.4473-.1055-.7168c0-.2637,.0342-.501,.1045-.7109,.0693-.21,.1709-.3896,.3047-.5391,.1279-.1426,.2861-.251,.4756-.3262,.1895-.0762,.3965-.1133,.6201-.1133,.2324,0,.4404,.0381,.626,.1143s.3428,.1846,.4717,.3252c.1318,.1455,.2334,.3232,.3037,.5342,.0703,.21,.1055,.4492,.1055,.7158,0,.3965-.0811,.7305-.2422,1.0029-.1621,.2715-.3799,.4609-.6523,.5703,.0059,.165,.0449,.2939,.1172,.3857,.0723,.0908,.2051,.1367,.3965,.1367,.0596,0,.1299-.0088,.2119-.0273,.082-.0176,.1406-.0342,.1758-.0488h.0586v.3965Zm-.5137-2.416c0-.4209-.0947-.7451-.2832-.9746-.1885-.2285-.4463-.3428-.7734-.3428-.3301,0-.5889,.1143-.7764,.3428-.1885,.2295-.2822,.5537-.2822,.9746,0,.4258,.0957,.752,.2871,.9775,.1924,.2256,.4492,.3389,.7715,.3389s.5791-.1133,.7705-.3389c.1904-.2256,.2861-.5518,.2861-.9775Z"/><path class="cls-3" d="M97.0527,137.7842h-1.7559v-.3311h.6758v-2.1738h-.6758v-.2959c.0918,0,.1895-.0078,.2939-.0234s.1836-.0371,.2373-.0664c.0674-.0361,.1201-.082,.1582-.1387,.0381-.0557,.0605-.1309,.0664-.2246h.3379v2.9229h.6621v.3311Z"/></g><g><path class="cls-3" d="M105.4824,138.5791c-.0869,.0215-.1729,.0371-.2578,.0469s-.1719,.0146-.2607,.0146c-.252,0-.4551-.0693-.6084-.208s-.2363-.3379-.249-.5957c-.0352,.0049-.0693,.0098-.1016,.0117-.0332,.002-.0645,.0029-.0947,.0029-.2285,0-.4355-.0381-.6221-.1133s-.3457-.1846-.4756-.3291c-.1309-.1436-.2314-.3203-.3018-.5293s-.1055-.4473-.1055-.7168c0-.2637,.0342-.501,.1045-.7109,.0693-.21,.1709-.3896,.3047-.5391,.1279-.1426,.2861-.251,.4756-.3262,.1895-.0762,.3965-.1133,.6201-.1133,.2324,0,.4404,.0381,.626,.1143s.3428,.1846,.4717,.3252c.1318,.1455,.2334,.3232,.3037,.5342,.0703,.21,.1055,.4492,.1055,.7158,0,.3965-.0811,.7305-.2422,1.0029-.1621,.2715-.3799,.4609-.6523,.5703,.0059,.165,.0449,.2939,.1172,.3857,.0723,.0908,.2051,.1367,.3965,.1367,.0596,0,.1299-.0088,.2119-.0273,.082-.0176,.1406-.0342,.1758-.0488h.0586v.3965Zm-.5137-2.416c0-.4209-.0947-.7451-.2832-.9746-.1885-.2285-.4463-.3428-.7734-.3428-.3301,0-.5889,.1143-.7764,.3428-.1885,.2295-.2822,.5537-.2822,.9746,0,.4258,.0957,.752,.2871,.9775,.1924,.2256,.4492,.3389,.7715,.3389s.5791-.1133,.7705-.3389c.1904-.2256,.2861-.5518,.2861-.9775Z"/><path class="cls-3" d="M108.2119,137.7842h-2.1953v-.4551c.1523-.1309,.3057-.2617,.459-.3926s.2959-.2607,.4277-.3896c.2783-.2705,.4697-.4844,.5732-.6436,.1025-.1592,.1543-.3311,.1543-.5156,0-.168-.0557-.2998-.167-.3945-.1104-.0957-.2656-.1436-.4648-.1436-.1318,0-.2754,.0234-.4287,.0703-.1543,.0459-.3047,.1172-.4512,.2129h-.0215v-.457c.1025-.0508,.2402-.0977,.4121-.1396,.1729-.042,.3389-.0625,.5-.0625,.333,0,.5938,.0801,.7822,.2402s.2832,.3779,.2832,.6523c0,.124-.0156,.2383-.0469,.3457-.0312,.1064-.0771,.208-.1387,.3037-.0566,.0898-.123,.1787-.1992,.2656s-.1689,.1836-.2773,.29c-.1553,.1523-.3164,.2998-.4814,.4434-.166,.1426-.3203,.2754-.4639,.3975h1.7441v.3721Z"/></g><g><path class="cls-3" d="M116.4561,138.5791c-.0869,.0215-.1729,.0371-.2578,.0469s-.1719,.0146-.2607,.0146c-.252,0-.4551-.0693-.6084-.208s-.2363-.3379-.249-.5957c-.0352,.0049-.0693,.0098-.1016,.0117-.0332,.002-.0645,.0029-.0947,.0029-.2285,0-.4355-.0381-.6221-.1133s-.3457-.1846-.4756-.3291c-.1309-.1436-.2314-.3203-.3018-.5293s-.1055-.4473-.1055-.7168c0-.2637,.0342-.501,.1045-.7109,.0693-.21,.1709-.3896,.3047-.5391,.1279-.1426,.2861-.251,.4756-.3262,.1895-.0762,.3965-.1133,.6201-.1133,.2324,0,.4404,.0381,.626,.1143s.3428,.1846,.4717,.3252c.1318,.1455,.2334,.3232,.3037,.5342,.0703,.21,.1055,.4492,.1055,.7158,0,.3965-.0811,.7305-.2422,1.0029-.1621,.2715-.3799,.4609-.6523,.5703,.0059,.165,.0449,.2939,.1172,.3857,.0723,.0908,.2051,.1367,.3965,.1367,.0596,0,.1299-.0088,.2119-.0273,.082-.0176,.1406-.0342,.1758-.0488h.0586v.3965Zm-.5137-2.416c0-.4209-.0947-.7451-.2832-.9746-.1885-.2285-.4463-.3428-.7734-.3428-.3301,0-.5889,.1143-.7764,.3428-.1885,.2295-.2822,.5537-.2822,.9746,0,.4258,.0957,.752,.2871,.9775,.1924,.2256,.4492,.3389,.7715,.3389s.5791-.1133,.7705-.3389c.1904-.2256,.2861-.5518,.2861-.9775Z"/><path class="cls-3" d="M118.9004,136.2227c.0703,.0625,.127,.1406,.1729,.2354,.0449,.0938,.0674,.2158,.0674,.3652,0,.1484-.0273,.2842-.0811,.4072-.0537,.124-.1289,.2314-.2266,.3232-.1084,.1016-.2373,.1768-.3848,.2246-.1465,.0488-.3086,.0732-.4844,.0732-.1797,0-.3574-.0215-.5312-.0645-.1748-.042-.3174-.0889-.4297-.1406v-.4551h.0332c.123,.082,.2686,.1494,.4355,.2031s.3281,.0801,.4834,.0801c.0918,0,.1895-.0146,.292-.0459,.1035-.0303,.1865-.0752,.251-.1348,.0664-.0635,.1162-.1338,.1484-.2109,.0332-.0771,.0498-.1748,.0498-.292,0-.1162-.0186-.2129-.0557-.2891s-.0889-.1357-.1543-.1797c-.0645-.0449-.1436-.0752-.2373-.0918-.0928-.0176-.1924-.0254-.2998-.0254h-.1963v-.3613h.1523c.2207,0,.3965-.0469,.5283-.1387,.1309-.0918,.1973-.2266,.1973-.4043,0-.0781-.0166-.1465-.0508-.2061-.0332-.0586-.0791-.1064-.1387-.1445-.0625-.0381-.1299-.0635-.2012-.0781-.0703-.0146-.1514-.0225-.2412-.0225-.1377,0-.2852,.0254-.4404,.0742-.1553,.0498-.3018,.1191-.4395,.209h-.0225v-.4551c.1035-.0508,.2412-.0977,.4131-.1406,.1719-.042,.3389-.0635,.5-.0635,.1582,0,.2979,.0137,.418,.043,.1211,.0293,.2295,.0762,.3271,.1396,.1045,.0693,.1836,.1543,.2373,.2529s.0811,.2139,.0811,.3457c0,.1807-.0645,.3379-.1914,.4717-.127,.1348-.2764,.2188-.4492,.2539v.0303c.0693,.0117,.1494,.0361,.2393,.0732s.166,.083,.2285,.1387Z"/></g><g><path class="cls-3" d="M127.4326,138.5791c-.0869,.0215-.1729,.0371-.2578,.0469s-.1719,.0146-.2607,.0146c-.252,0-.4551-.0693-.6084-.208s-.2363-.3379-.249-.5957c-.0352,.0049-.0693,.0098-.1016,.0117-.0332,.002-.0645,.0029-.0947,.0029-.2285,0-.4355-.0381-.6221-.1133s-.3457-.1846-.4756-.3291c-.1309-.1436-.2314-.3203-.3018-.5293s-.1055-.4473-.1055-.7168c0-.2637,.0342-.501,.1045-.7109,.0693-.21,.1709-.3896,.3047-.5391,.1279-.1426,.2861-.251,.4756-.3262,.1895-.0762,.3965-.1133,.6201-.1133,.2324,0,.4404,.0381,.626,.1143s.3428,.1846,.4717,.3252c.1318,.1455,.2334,.3232,.3037,.5342,.0703,.21,.1055,.4492,.1055,.7158,0,.3965-.0811,.7305-.2422,1.0029-.1621,.2715-.3799,.4609-.6523,.5703,.0059,.165,.0449,.2939,.1172,.3857,.0723,.0908,.2051,.1367,.3965,.1367,.0596,0,.1299-.0088,.2119-.0273,.082-.0176,.1406-.0342,.1758-.0488h.0586v.3965Zm-.5137-2.416c0-.4209-.0947-.7451-.2832-.9746-.1885-.2285-.4463-.3428-.7734-.3428-.3301,0-.5889,.1143-.7764,.3428-.1885,.2295-.2822,.5537-.2822,.9746,0,.4258,.0957,.752,.2871,.9775,.1924,.2256,.4492,.3389,.7715,.3389s.5791-.1133,.7705-.3389c.1904-.2256,.2861-.5518,.2861-.9775Z"/><path class="cls-3" d="M130.2363,136.8711h-.4814v.9131h-.418v-.9131h-1.5527v-.501l1.5703-1.8291h.4004v1.9824h.4814v.3477Zm-.8994-.3477v-1.4639l-1.2568,1.4639h1.2568Z"/></g><line class="cls-8" x1="89.8895" y1="140.7519" x2="132.9654" y2="140.7519"/><g><path class="cls-3" d="M92.3789,146.8115h-2.1953v-.4551c.1523-.1309,.3057-.2617,.459-.3926s.2959-.2607,.4277-.3896c.2783-.2705,.4697-.4844,.5732-.6436,.1025-.1592,.1543-.3311,.1543-.5156,0-.168-.0557-.2998-.167-.3945-.1104-.0957-.2656-.1436-.4648-.1436-.1318,0-.2754,.0234-.4287,.0703-.1543,.0459-.3047,.1172-.4512,.2129h-.0215v-.457c.1025-.0508,.2402-.0977,.4121-.1396,.1729-.042,.3389-.0625,.5-.0625,.333,0,.5938,.0801,.7822,.2402s.2832,.3779,.2832,.6523c0,.124-.0156,.2383-.0469,.3457-.0312,.1064-.0771,.208-.1387,.3037-.0566,.0898-.123,.1787-.1992,.2656s-.1689,.1836-.2773,.29c-.1553,.1523-.3164,.2998-.4814,.4434-.166,.1426-.3203,.2754-.4639,.3975h1.7441v.3721Z"/><path class="cls-3" d="M95.2109,145.1885c0,.583-.0908,1.0098-.2734,1.2822s-.4648,.4082-.8486,.4082c-.3887,0-.6729-.1377-.8525-.4141-.1797-.2754-.2686-.6992-.2686-1.2715,0-.5771,.0898-1.0029,.2715-1.2783,.1816-.2744,.4648-.4121,.8496-.4121,.3896,0,.6738,.1396,.8535,.4189,.1787,.2793,.2686,.7021,.2686,1.2666Zm-.5732,.9893c.0508-.1182,.0859-.2559,.1035-.415,.0186-.1592,.0273-.3506,.0273-.5742,0-.2207-.0088-.4121-.0273-.5752-.0176-.1621-.0527-.2998-.1055-.4131-.0508-.1123-.1201-.1963-.208-.2529s-.2002-.085-.3389-.085c-.1357,0-.249,.0283-.3389,.085-.0889,.0566-.1592,.1426-.2119,.2568-.0498,.1074-.083,.248-.1016,.4209-.0176,.1729-.0273,.3623-.0273,.5684,0,.2266,.0088,.416,.0244,.5684s.0498,.2891,.1025,.4092c.0479,.1133,.1152,.2002,.2031,.2598s.2051,.0889,.3496,.0889c.1367,0,.25-.0283,.3398-.085s.1602-.1426,.209-.2568Z"/><path class="cls-3" d="M97.8662,146.8115h-1.7559v-.3311h.6758v-2.1738h-.6758v-.2959c.0918,0,.1895-.0078,.2939-.0234s.1836-.0371,.2373-.0664c.0674-.0361,.1201-.082,.1582-.1387,.0381-.0557,.0605-.1309,.0664-.2246h.3379v2.9229h.6621v.3311Z"/><path class="cls-3" d="M100.9111,145.9072c0,.2803-.1094,.5137-.3281,.6992-.2178,.1865-.4932,.2793-.8242,.2793-.3516,0-.6309-.0908-.8398-.2725-.208-.1816-.3125-.4141-.3125-.6973,0-.1797,.0527-.3428,.1572-.4893,.1045-.1455,.252-.2617,.4424-.3467v-.0137c-.1748-.0928-.3037-.1943-.3867-.3047-.084-.1104-.126-.248-.126-.4141,0-.2441,.1006-.4473,.3008-.6094,.2002-.1631,.4551-.2441,.7646-.2441,.3242,0,.582,.0771,.7754,.2334,.1934,.1553,.29,.3525,.29,.5918,0,.1465-.0459,.291-.1377,.4326-.0908,.1416-.2256,.252-.4023,.332v.0137c.2031,.0869,.3584,.1943,.4658,.3223s.1611,.29,.1611,.4873Zm-.4482,.042c0-.1338-.0303-.2412-.0889-.3213-.0586-.0811-.1738-.1621-.3447-.2432-.0684-.0322-.1436-.0615-.2246-.0889-.0811-.0283-.1895-.0664-.3242-.1162-.1309,.0713-.2363,.168-.3154,.29s-.1182,.2598-.1182,.4141c0,.1963,.0674,.3574,.2021,.4854s.3066,.1914,.5146,.1914c.2119,0,.3809-.0537,.5078-.1631,.127-.1084,.1914-.2578,.1914-.4482Zm-.0684-1.625c0-.1553-.0596-.2793-.1797-.3721-.1191-.0918-.2725-.1377-.458-.1377-.1836,0-.333,.043-.4502,.1309-.1162,.0869-.1748,.2041-.1748,.3525,0,.1045,.0293,.1953,.0879,.2715s.1475,.1436,.2666,.2031c.0537,.0264,.1309,.0605,.2324,.1025,.1006,.042,.1992,.0771,.2949,.1045,.1436-.0957,.2432-.1953,.2988-.2979,.0547-.1035,.082-.2227,.082-.3574Z"/></g></g><g><g><path class="cls-3" d="M49.5908,138.5791c-.0869,.0215-.1729,.0371-.2578,.0469s-.1719,.0146-.2607,.0146c-.252,0-.4551-.0693-.6084-.208s-.2363-.3379-.249-.5957c-.0352,.0049-.0693,.0098-.1016,.0117-.0332,.002-.0645,.0029-.0947,.0029-.2285,0-.4355-.0381-.6221-.1133s-.3457-.1846-.4756-.3291c-.1309-.1436-.2314-.3203-.3018-.5293s-.1055-.4473-.1055-.7168c0-.2637,.0342-.501,.1045-.7109,.0693-.21,.1709-.3896,.3047-.5391,.1279-.1426,.2861-.251,.4756-.3262,.1895-.0762,.3965-.1133,.6201-.1133,.2324,0,.4404,.0381,.626,.1143s.3428,.1846,.4717,.3252c.1318,.1455,.2334,.3232,.3037,.5342,.0703,.21,.1055,.4492,.1055,.7158,0,.3965-.0811,.7305-.2422,1.0029-.1621,.2715-.3799,.4609-.6523,.5703,.0059,.165,.0449,.2939,.1172,.3857,.0723,.0908,.2051,.1367,.3965,.1367,.0596,0,.1299-.0088,.2119-.0273,.082-.0176,.1406-.0342,.1758-.0488h.0586v.3965Zm-.5137-2.416c0-.4209-.0947-.7451-.2832-.9746-.1885-.2285-.4463-.3428-.7734-.3428-.3301,0-.5889,.1143-.7764,.3428-.1885,.2295-.2822,.5537-.2822,.9746,0,.4258,.0957,.752,.2871,.9775,.1924,.2256,.4492,.3389,.7715,.3389s.5791-.1133,.7705-.3389c.1904-.2256,.2861-.5518,.2861-.9775Z"/><path class="cls-3" d="M52.1357,137.7842h-1.7559v-.3311h.6758v-2.1738h-.6758v-.2959c.0918,0,.1895-.0078,.2939-.0234s.1836-.0371,.2373-.0664c.0674-.0361,.1201-.082,.1582-.1387,.0381-.0557,.0605-.1309,.0664-.2246h.3379v2.9229h.6621v.3311Z"/></g><g><path class="cls-3" d="M60.5664,138.5791c-.0869,.0215-.1729,.0371-.2578,.0469s-.1719,.0146-.2607,.0146c-.252,0-.4551-.0693-.6084-.208s-.2363-.3379-.249-.5957c-.0352,.0049-.0693,.0098-.1016,.0117-.0332,.002-.0645,.0029-.0947,.0029-.2285,0-.4355-.0381-.6221-.1133s-.3457-.1846-.4756-.3291c-.1309-.1436-.2314-.3203-.3018-.5293s-.1055-.4473-.1055-.7168c0-.2637,.0342-.501,.1045-.7109,.0693-.21,.1709-.3896,.3047-.5391,.1279-.1426,.2861-.251,.4756-.3262,.1895-.0762,.3965-.1133,.6201-.1133,.2324,0,.4404,.0381,.626,.1143s.3428,.1846,.4717,.3252c.1318,.1455,.2334,.3232,.3037,.5342,.0703,.21,.1055,.4492,.1055,.7158,0,.3965-.0811,.7305-.2422,1.0029-.1621,.2715-.3799,.4609-.6523,.5703,.0059,.165,.0449,.2939,.1172,.3857,.0723,.0908,.2051,.1367,.3965,.1367,.0596,0,.1299-.0088,.2119-.0273,.082-.0176,.1406-.0342,.1758-.0488h.0586v.3965Zm-.5137-2.416c0-.4209-.0947-.7451-.2832-.9746-.1885-.2285-.4463-.3428-.7734-.3428-.3301,0-.5889,.1143-.7764,.3428-.1885,.2295-.2822,.5537-.2822,.9746,0,.4258,.0957,.752,.2871,.9775,.1924,.2256,.4492,.3389,.7715,.3389s.5791-.1133,.7705-.3389c.1904-.2256,.2861-.5518,.2861-.9775Z"/><path class="cls-3" d="M63.2959,137.7842h-2.1953v-.4551c.1523-.1309,.3057-.2617,.459-.3926s.2959-.2607,.4277-.3896c.2783-.2705,.4697-.4844,.5732-.6436,.1025-.1592,.1543-.3311,.1543-.5156,0-.168-.0557-.2998-.167-.3945-.1104-.0957-.2656-.1436-.4648-.1436-.1318,0-.2754,.0234-.4287,.0703-.1543,.0459-.3047,.1172-.4512,.2129h-.0215v-.457c.1025-.0508,.2402-.0977,.4121-.1396,.1729-.042,.3389-.0625,.5-.0625,.333,0,.5938,.0801,.7822,.2402s.2832,.3779,.2832,.6523c0,.124-.0156,.2383-.0469,.3457-.0312,.1064-.0771,.208-.1387,.3037-.0566,.0898-.123,.1787-.1992,.2656s-.1689,.1836-.2773,.29c-.1553,.1523-.3164,.2998-.4814,.4434-.166,.1426-.3203,.2754-.4639,.3975h1.7441v.3721Z"/></g><g><path class="cls-3" d="M71.54,138.5791c-.0869,.0215-.1729,.0371-.2578,.0469s-.1719,.0146-.2607,.0146c-.252,0-.4551-.0693-.6084-.208s-.2363-.3379-.249-.5957c-.0352,.0049-.0693,.0098-.1016,.0117-.0332,.002-.0645,.0029-.0947,.0029-.2285,0-.4355-.0381-.6221-.1133s-.3457-.1846-.4756-.3291c-.1309-.1436-.2314-.3203-.3018-.5293s-.1055-.4473-.1055-.7168c0-.2637,.0342-.501,.1045-.7109,.0693-.21,.1709-.3896,.3047-.5391,.1279-.1426,.2861-.251,.4756-.3262,.1895-.0762,.3965-.1133,.6201-.1133,.2324,0,.4404,.0381,.626,.1143s.3428,.1846,.4717,.3252c.1318,.1455,.2334,.3232,.3037,.5342,.0703,.21,.1055,.4492,.1055,.7158,0,.3965-.0811,.7305-.2422,1.0029-.1621,.2715-.3799,.4609-.6523,.5703,.0059,.165,.0449,.2939,.1172,.3857,.0723,.0908,.2051,.1367,.3965,.1367,.0596,0,.1299-.0088,.2119-.0273,.082-.0176,.1406-.0342,.1758-.0488h.0586v.3965Zm-.5137-2.416c0-.4209-.0947-.7451-.2832-.9746-.1885-.2285-.4463-.3428-.7734-.3428-.3301,0-.5889,.1143-.7764,.3428-.1885,.2295-.2822,.5537-.2822,.9746,0,.4258,.0957,.752,.2871,.9775,.1924,.2256,.4492,.3389,.7715,.3389s.5791-.1133,.7705-.3389c.1904-.2256,.2861-.5518,.2861-.9775Z"/><path class="cls-3" d="M73.9844,136.2227c.0703,.0625,.127,.1406,.1729,.2354,.0449,.0938,.0674,.2158,.0674,.3652,0,.1484-.0273,.2842-.0811,.4072-.0537,.124-.1289,.2314-.2266,.3232-.1084,.1016-.2373,.1768-.3848,.2246-.1465,.0488-.3086,.0732-.4844,.0732-.1797,0-.3574-.0215-.5312-.0645-.1748-.042-.3174-.0889-.4297-.1406v-.4551h.0332c.123,.082,.2686,.1494,.4355,.2031s.3281,.0801,.4834,.0801c.0918,0,.1895-.0146,.292-.0459,.1035-.0303,.1865-.0752,.251-.1348,.0664-.0635,.1162-.1338,.1484-.2109,.0332-.0771,.0498-.1748,.0498-.292,0-.1162-.0186-.2129-.0557-.2891s-.0889-.1357-.1543-.1797c-.0645-.0449-.1436-.0752-.2373-.0918-.0928-.0176-.1924-.0254-.2998-.0254h-.1963v-.3613h.1523c.2207,0,.3965-.0469,.5283-.1387,.1309-.0918,.1973-.2266,.1973-.4043,0-.0781-.0166-.1465-.0508-.2061-.0332-.0586-.0791-.1064-.1387-.1445-.0625-.0381-.1299-.0635-.2012-.0781-.0703-.0146-.1514-.0225-.2412-.0225-.1377,0-.2852,.0254-.4404,.0742-.1553,.0498-.3018,.1191-.4395,.209h-.0225v-.4551c.1035-.0508,.2412-.0977,.4131-.1406,.1719-.042,.3389-.0635,.5-.0635,.1582,0,.2979,.0137,.418,.043,.1211,.0293,.2295,.0762,.3271,.1396,.1045,.0693,.1836,.1543,.2373,.2529s.0811,.2139,.0811,.3457c0,.1807-.0645,.3379-.1914,.4717-.127,.1348-.2764,.2188-.4492,.2539v.0303c.0693,.0117,.1494,.0361,.2393,.0732s.166,.083,.2285,.1387Z"/></g><g><path class="cls-3" d="M82.5166,138.5791c-.0869,.0215-.1729,.0371-.2578,.0469s-.1719,.0146-.2607,.0146c-.252,0-.4551-.0693-.6084-.208s-.2363-.3379-.249-.5957c-.0352,.0049-.0693,.0098-.1016,.0117-.0332,.002-.0645,.0029-.0947,.0029-.2285,0-.4355-.0381-.6221-.1133s-.3457-.1846-.4756-.3291c-.1309-.1436-.2314-.3203-.3018-.5293s-.1055-.4473-.1055-.7168c0-.2637,.0342-.501,.1045-.7109,.0693-.21,.1709-.3896,.3047-.5391,.1279-.1426,.2861-.251,.4756-.3262,.1895-.0762,.3965-.1133,.6201-.1133,.2324,0,.4404,.0381,.626,.1143s.3428,.1846,.4717,.3252c.1318,.1455,.2334,.3232,.3037,.5342,.0703,.21,.1055,.4492,.1055,.7158,0,.3965-.0811,.7305-.2422,1.0029-.1621,.2715-.3799,.4609-.6523,.5703,.0059,.165,.0449,.2939,.1172,.3857,.0723,.0908,.2051,.1367,.3965,.1367,.0596,0,.1299-.0088,.2119-.0273,.082-.0176,.1406-.0342,.1758-.0488h.0586v.3965Zm-.5137-2.416c0-.4209-.0947-.7451-.2832-.9746-.1885-.2285-.4463-.3428-.7734-.3428-.3301,0-.5889,.1143-.7764,.3428-.1885,.2295-.2822,.5537-.2822,.9746,0,.4258,.0957,.752,.2871,.9775,.1924,.2256,.4492,.3389,.7715,.3389s.5791-.1133,.7705-.3389c.1904-.2256,.2861-.5518,.2861-.9775Z"/><path class="cls-3" d="M85.3203,136.8711h-.4814v.9131h-.418v-.9131h-1.5527v-.501l1.5703-1.8291h.4004v1.9824h.4814v.3477Zm-.8994-.3477v-1.4639l-1.2568,1.4639h1.2568Z"/></g><line class="cls-8" x1="44.973" y1="140.7519" x2="88.0489" y2="140.7519"/><g><path class="cls-3" d="M47.4629,146.8115h-2.1953v-.4551c.1523-.1309,.3057-.2617,.459-.3926s.2959-.2607,.4277-.3896c.2783-.2705,.4697-.4844,.5732-.6436,.1025-.1592,.1543-.3311,.1543-.5156,0-.168-.0557-.2998-.167-.3945-.1104-.0957-.2656-.1436-.4648-.1436-.1318,0-.2754,.0234-.4287,.0703-.1543,.0459-.3047,.1172-.4512,.2129h-.0215v-.457c.1025-.0508,.2402-.0977,.4121-.1396,.1729-.042,.3389-.0625,.5-.0625,.333,0,.5938,.0801,.7822,.2402s.2832,.3779,.2832,.6523c0,.124-.0156,.2383-.0469,.3457-.0312,.1064-.0771,.208-.1387,.3037-.0566,.0898-.123,.1787-.1992,.2656s-.1689,.1836-.2773,.29c-.1553,.1523-.3164,.2998-.4814,.4434-.166,.1426-.3203,.2754-.4639,.3975h1.7441v.3721Z"/><path class="cls-3" d="M50.2949,145.1885c0,.583-.0908,1.0098-.2734,1.2822s-.4648,.4082-.8486,.4082c-.3887,0-.6729-.1377-.8525-.4141-.1797-.2754-.2686-.6992-.2686-1.2715,0-.5771,.0898-1.0029,.2715-1.2783,.1816-.2744,.4648-.4121,.8496-.4121,.3896,0,.6738,.1396,.8535,.4189,.1787,.2793,.2686,.7021,.2686,1.2666Zm-.5732,.9893c.0508-.1182,.0859-.2559,.1035-.415,.0186-.1592,.0273-.3506,.0273-.5742,0-.2207-.0088-.4121-.0273-.5752-.0176-.1621-.0527-.2998-.1055-.4131-.0508-.1123-.1201-.1963-.208-.2529s-.2002-.085-.3389-.085c-.1357,0-.249,.0283-.3389,.085-.0889,.0566-.1592,.1426-.2119,.2568-.0498,.1074-.083,.248-.1016,.4209-.0176,.1729-.0273,.3623-.0273,.5684,0,.2266,.0088,.416,.0244,.5684s.0498,.2891,.1025,.4092c.0479,.1133,.1152,.2002,.2031,.2598s.2051,.0889,.3496,.0889c.1367,0,.25-.0283,.3398-.085s.1602-.1426,.209-.2568Z"/><path class="cls-3" d="M52.9502,146.8115h-1.7559v-.3311h.6758v-2.1738h-.6758v-.2959c.0918,0,.1895-.0078,.2939-.0234s.1836-.0371,.2373-.0664c.0674-.0361,.1201-.082,.1582-.1387,.0381-.0557,.0605-.1309,.0664-.2246h.3379v2.9229h.6621v.3311Z"/><path class="cls-3" d="M55.9795,144.0537l-1.4678,2.7578h-.4658l1.5615-2.8623h-1.8467v-.3809h2.2188v.4854Z"/></g></g><g><g><path class="cls-3" d="M4.6748,138.5791c-.0869,.0215-.1729,.0371-.2578,.0469s-.1719,.0146-.2607,.0146c-.252,0-.4551-.0693-.6084-.208s-.2363-.3379-.249-.5957c-.0352,.0049-.0693,.0098-.1016,.0117-.0332,.002-.0645,.0029-.0947,.0029-.2285,0-.4355-.0381-.6221-.1133s-.3457-.1846-.4756-.3291c-.1309-.1436-.2314-.3203-.3018-.5293s-.1055-.4473-.1055-.7168c0-.2637,.0342-.501,.1045-.7109,.0693-.21,.1709-.3896,.3047-.5391,.1279-.1426,.2861-.251,.4756-.3262,.1895-.0762,.3965-.1133,.6201-.1133,.2324,0,.4404,.0381,.626,.1143s.3428,.1846,.4717,.3252c.1318,.1455,.2334,.3232,.3037,.5342,.0703,.21,.1055,.4492,.1055,.7158,0,.3965-.0811,.7305-.2422,1.0029-.1621,.2715-.3799,.4609-.6523,.5703,.0059,.165,.0449,.2939,.1172,.3857,.0723,.0908,.2051,.1367,.3965,.1367,.0596,0,.1299-.0088,.2119-.0273,.082-.0176,.1406-.0342,.1758-.0488h.0586v.3965Zm-.5137-2.416c0-.4209-.0947-.7451-.2832-.9746-.1885-.2285-.4463-.3428-.7734-.3428-.3301,0-.5889,.1143-.7764,.3428-.1885,.2295-.2822,.5537-.2822,.9746,0,.4258,.0957,.752,.2871,.9775,.1924,.2256,.4492,.3389,.7715,.3389s.5791-.1133,.7705-.3389c.1904-.2256,.2861-.5518,.2861-.9775Z"/><path class="cls-3" d="M7.2197,137.7842h-1.7559v-.3311h.6758v-2.1738h-.6758v-.2959c.0918,0,.1895-.0078,.2939-.0234s.1836-.0371,.2373-.0664c.0674-.0361,.1201-.082,.1582-.1387,.0381-.0557,.0605-.1309,.0664-.2246h.3379v2.9229h.6621v.3311Z"/></g><g><path class="cls-3" d="M15.6494,138.5791c-.0869,.0215-.1729,.0371-.2578,.0469s-.1719,.0146-.2607,.0146c-.252,0-.4551-.0693-.6084-.208s-.2363-.3379-.249-.5957c-.0352,.0049-.0693,.0098-.1016,.0117-.0332,.002-.0645,.0029-.0947,.0029-.2285,0-.4355-.0381-.6221-.1133s-.3457-.1846-.4756-.3291c-.1309-.1436-.2314-.3203-.3018-.5293s-.1055-.4473-.1055-.7168c0-.2637,.0342-.501,.1045-.7109,.0693-.21,.1709-.3896,.3047-.5391,.1279-.1426,.2861-.251,.4756-.3262,.1895-.0762,.3965-.1133,.6201-.1133,.2324,0,.4404,.0381,.626,.1143s.3428,.1846,.4717,.3252c.1318,.1455,.2334,.3232,.3037,.5342,.0703,.21,.1055,.4492,.1055,.7158,0,.3965-.0811,.7305-.2422,1.0029-.1621,.2715-.3799,.4609-.6523,.5703,.0059,.165,.0449,.2939,.1172,.3857,.0723,.0908,.2051,.1367,.3965,.1367,.0596,0,.1299-.0088,.2119-.0273,.082-.0176,.1406-.0342,.1758-.0488h.0586v.3965Zm-.5137-2.416c0-.4209-.0947-.7451-.2832-.9746-.1885-.2285-.4463-.3428-.7734-.3428-.3301,0-.5889,.1143-.7764,.3428-.1885,.2295-.2822,.5537-.2822,.9746,0,.4258,.0957,.752,.2871,.9775,.1924,.2256,.4492,.3389,.7715,.3389s.5791-.1133,.7705-.3389c.1904-.2256,.2861-.5518,.2861-.9775Z"/><path class="cls-3" d="M18.3789,137.7842h-2.1953v-.4551c.1523-.1309,.3057-.2617,.459-.3926s.2959-.2607,.4277-.3896c.2783-.2705,.4697-.4844,.5732-.6436,.1025-.1592,.1543-.3311,.1543-.5156,0-.168-.0557-.2998-.167-.3945-.1104-.0957-.2656-.1436-.4648-.1436-.1318,0-.2754,.0234-.4287,.0703-.1543,.0459-.3047,.1172-.4512,.2129h-.0215v-.457c.1025-.0508,.2402-.0977,.4121-.1396,.1729-.042,.3389-.0625,.5-.0625,.333,0,.5938,.0801,.7822,.2402s.2832,.3779,.2832,.6523c0,.124-.0156,.2383-.0469,.3457-.0312,.1064-.0771,.208-.1387,.3037-.0566,.0898-.123,.1787-.1992,.2656s-.1689,.1836-.2773,.29c-.1553,.1523-.3164,.2998-.4814,.4434-.166,.1426-.3203,.2754-.4639,.3975h1.7441v.3721Z"/></g><g><path class="cls-3" d="M26.624,138.5791c-.0869,.0215-.1729,.0371-.2578,.0469s-.1719,.0146-.2607,.0146c-.252,0-.4551-.0693-.6084-.208s-.2363-.3379-.249-.5957c-.0352,.0049-.0693,.0098-.1016,.0117-.0332,.002-.0645,.0029-.0947,.0029-.2285,0-.4355-.0381-.6221-.1133s-.3457-.1846-.4756-.3291c-.1309-.1436-.2314-.3203-.3018-.5293s-.1055-.4473-.1055-.7168c0-.2637,.0342-.501,.1045-.7109,.0693-.21,.1709-.3896,.3047-.5391,.1279-.1426,.2861-.251,.4756-.3262,.1895-.0762,.3965-.1133,.6201-.1133,.2324,0,.4404,.0381,.626,.1143s.3428,.1846,.4717,.3252c.1318,.1455,.2334,.3232,.3037,.5342,.0703,.21,.1055,.4492,.1055,.7158,0,.3965-.0811,.7305-.2422,1.0029-.1621,.2715-.3799,.4609-.6523,.5703,.0059,.165,.0449,.2939,.1172,.3857,.0723,.0908,.2051,.1367,.3965,.1367,.0596,0,.1299-.0088,.2119-.0273,.082-.0176,.1406-.0342,.1758-.0488h.0586v.3965Zm-.5137-2.416c0-.4209-.0947-.7451-.2832-.9746-.1885-.2285-.4463-.3428-.7734-.3428-.3301,0-.5889,.1143-.7764,.3428-.1885,.2295-.2822,.5537-.2822,.9746,0,.4258,.0957,.752,.2871,.9775,.1924,.2256,.4492,.3389,.7715,.3389s.5791-.1133,.7705-.3389c.1904-.2256,.2861-.5518,.2861-.9775Z"/><path class="cls-3" d="M29.0684,136.2227c.0703,.0625,.127,.1406,.1729,.2354,.0449,.0938,.0674,.2158,.0674,.3652,0,.1484-.0273,.2842-.0811,.4072-.0537,.124-.1289,.2314-.2266,.3232-.1084,.1016-.2373,.1768-.3848,.2246-.1465,.0488-.3086,.0732-.4844,.0732-.1797,0-.3574-.0215-.5312-.0645-.1748-.042-.3174-.0889-.4297-.1406v-.4551h.0332c.123,.082,.2686,.1494,.4355,.2031s.3281,.0801,.4834,.0801c.0918,0,.1895-.0146,.292-.0459,.1035-.0303,.1865-.0752,.251-.1348,.0664-.0635,.1162-.1338,.1484-.2109,.0332-.0771,.0498-.1748,.0498-.292,0-.1162-.0186-.2129-.0557-.2891s-.0889-.1357-.1543-.1797c-.0645-.0449-.1436-.0752-.2373-.0918-.0928-.0176-.1924-.0254-.2998-.0254h-.1963v-.3613h.1523c.2207,0,.3965-.0469,.5283-.1387,.1309-.0918,.1973-.2266,.1973-.4043,0-.0781-.0166-.1465-.0508-.2061-.0332-.0586-.0791-.1064-.1387-.1445-.0625-.0381-.1299-.0635-.2012-.0781-.0703-.0146-.1514-.0225-.2412-.0225-.1377,0-.2852,.0254-.4404,.0742-.1553,.0498-.3018,.1191-.4395,.209h-.0225v-.4551c.1035-.0508,.2412-.0977,.4131-.1406,.1719-.042,.3389-.0635,.5-.0635,.1582,0,.2979,.0137,.418,.043,.1211,.0293,.2295,.0762,.3271,.1396,.1045,.0693,.1836,.1543,.2373,.2529s.0811,.2139,.0811,.3457c0,.1807-.0645,.3379-.1914,.4717-.127,.1348-.2764,.2188-.4492,.2539v.0303c.0693,.0117,.1494,.0361,.2393,.0732s.166,.083,.2285,.1387Z"/></g><g><path class="cls-3" d="M37.5996,138.5791c-.0869,.0215-.1729,.0371-.2578,.0469s-.1719,.0146-.2607,.0146c-.252,0-.4551-.0693-.6084-.208s-.2363-.3379-.249-.5957c-.0352,.0049-.0693,.0098-.1016,.0117-.0332,.002-.0645,.0029-.0947,.0029-.2285,0-.4355-.0381-.6221-.1133s-.3457-.1846-.4756-.3291c-.1309-.1436-.2314-.3203-.3018-.5293s-.1055-.4473-.1055-.7168c0-.2637,.0342-.501,.1045-.7109,.0693-.21,.1709-.3896,.3047-.5391,.1279-.1426,.2861-.251,.4756-.3262,.1895-.0762,.3965-.1133,.6201-.1133,.2324,0,.4404,.0381,.626,.1143s.3428,.1846,.4717,.3252c.1318,.1455,.2334,.3232,.3037,.5342,.0703,.21,.1055,.4492,.1055,.7158,0,.3965-.0811,.7305-.2422,1.0029-.1621,.2715-.3799,.4609-.6523,.5703,.0059,.165,.0449,.2939,.1172,.3857,.0723,.0908,.2051,.1367,.3965,.1367,.0596,0,.1299-.0088,.2119-.0273,.082-.0176,.1406-.0342,.1758-.0488h.0586v.3965Zm-.5137-2.416c0-.4209-.0947-.7451-.2832-.9746-.1885-.2285-.4463-.3428-.7734-.3428-.3301,0-.5889,.1143-.7764,.3428-.1885,.2295-.2822,.5537-.2822,.9746,0,.4258,.0957,.752,.2871,.9775,.1924,.2256,.4492,.3389,.7715,.3389s.5791-.1133,.7705-.3389c.1904-.2256,.2861-.5518,.2861-.9775Z"/><path class="cls-3" d="M40.4033,136.8711h-.4814v.9131h-.418v-.9131h-1.5527v-.501l1.5703-1.8291h.4004v1.9824h.4814v.3477Zm-.8994-.3477v-1.4639l-1.2568,1.4639h1.2568Z"/></g><line class="cls-8" x1=".0568" y1="140.7519" x2="43.1326" y2="140.7519"/><g><path class="cls-3" d="M2.5459,146.8115H.3506v-.4551c.1523-.1309,.3057-.2617,.459-.3926s.2959-.2607,.4277-.3896c.2783-.2705,.4697-.4844,.5732-.6436,.1025-.1592,.1543-.3311,.1543-.5156,0-.168-.0557-.2998-.167-.3945-.1104-.0957-.2656-.1436-.4648-.1436-.1318,0-.2754,.0234-.4287,.0703-.1543,.0459-.3047,.1172-.4512,.2129h-.0215v-.457c.1025-.0508,.2402-.0977,.4121-.1396,.1729-.042,.3389-.0625,.5-.0625,.333,0,.5938,.0801,.7822,.2402s.2832,.3779,.2832,.6523c0,.124-.0156,.2383-.0469,.3457-.0312,.1064-.0771,.208-.1387,.3037-.0566,.0898-.123,.1787-.1992,.2656s-.1689,.1836-.2773,.29c-.1553,.1523-.3164,.2998-.4814,.4434-.166,.1426-.3203,.2754-.4639,.3975h1.7441v.3721Z"/><path class="cls-3" d="M5.3779,145.1885c0,.583-.0908,1.0098-.2734,1.2822s-.4648,.4082-.8486,.4082c-.3887,0-.6729-.1377-.8525-.4141-.1797-.2754-.2686-.6992-.2686-1.2715,0-.5771,.0898-1.0029,.2715-1.2783,.1816-.2744,.4648-.4121,.8496-.4121,.3896,0,.6738,.1396,.8535,.4189,.1787,.2793,.2686,.7021,.2686,1.2666Zm-.5732,.9893c.0508-.1182,.0859-.2559,.1035-.415,.0186-.1592,.0273-.3506,.0273-.5742,0-.2207-.0088-.4121-.0273-.5752-.0176-.1621-.0527-.2998-.1055-.4131-.0508-.1123-.1201-.1963-.208-.2529s-.2002-.085-.3389-.085c-.1357,0-.249,.0283-.3389,.085-.0889,.0566-.1592,.1426-.2119,.2568-.0498,.1074-.083,.248-.1016,.4209-.0176,.1729-.0273,.3623-.0273,.5684,0,.2266,.0088,.416,.0244,.5684s.0498,.2891,.1025,.4092c.0479,.1133,.1152,.2002,.2031,.2598s.2051,.0889,.3496,.0889c.1367,0,.25-.0283,.3398-.085s.1602-.1426,.209-.2568Z"/><path class="cls-3" d="M8.0332,146.8115h-1.7559v-.3311h.6758v-2.1738h-.6758v-.2959c.0918,0,.1895-.0078,.2939-.0234s.1836-.0371,.2373-.0664c.0674-.0361,.1201-.082,.1582-.1387,.0381-.0557,.0605-.1309,.0664-.2246h.3379v2.9229h.6621v.3311Z"/><path class="cls-3" d="M11.1025,145.7598c0,.3291-.1094,.5986-.3262,.8066s-.4834,.3125-.7979,.3125c-.1602,0-.3057-.0244-.4355-.0742-.1309-.0488-.2471-.1221-.3467-.2197-.125-.1201-.2217-.2803-.2891-.4795-.0674-.1982-.1006-.4385-.1006-.7188,0-.2871,.0303-.542,.0918-.7646,.0625-.2217,.1602-.4189,.2959-.5918,.127-.1641,.292-.293,.4941-.3848,.2021-.0928,.4375-.1387,.7061-.1387,.085,0,.1572,.0039,.2148,.0107,.0586,.0078,.1172,.0205,.1768,.04v.416h-.0215c-.041-.0225-.1025-.043-.1846-.0625s-.166-.0293-.251-.0293c-.3125,0-.5615,.0977-.7471,.293-.1865,.1953-.2939,.459-.3252,.792,.1221-.0742,.2422-.1309,.3604-.1689,.1191-.0391,.2559-.0576,.4111-.0576,.1377,0,.2598,.0127,.3652,.0381,.1045,.0254,.2129,.0762,.3232,.1533,.1279,.0889,.2236,.2002,.2881,.3359,.0645,.1348,.0977,.2988,.0977,.4922Zm-.4424,.0166c0-.1348-.0205-.2461-.0605-.335-.0391-.0889-.1055-.166-.1963-.2305-.0674-.0469-.1416-.0771-.2227-.0918s-.166-.0215-.2549-.0215c-.123,0-.2383,.0137-.3438,.043-.1064,.0293-.2148,.0742-.3271,.1348-.0029,.0322-.0049,.0635-.0068,.0928-.001,.0303-.002,.0674-.002,.1123,0,.2295,.0234,.4111,.0713,.5439,.0469,.1328,.1123,.2373,.1943,.3145,.0674,.0635,.1396,.1104,.2168,.1406,.0781,.0293,.1621,.0449,.2539,.0449,.2109,0,.376-.0645,.4971-.1934,.1201-.1279,.1807-.3135,.1807-.5547Z"/></g></g><g><g><path class="cls-3" d="M139.4238,138.5791c-.0869,.0215-.1729,.0371-.2578,.0469s-.1719,.0146-.2607,.0146c-.252,0-.4551-.0693-.6084-.208s-.2363-.3379-.249-.5957c-.0352,.0049-.0693,.0098-.1016,.0117-.0332,.002-.0645,.0029-.0947,.0029-.2285,0-.4355-.0381-.6221-.1133s-.3457-.1846-.4756-.3291c-.1309-.1436-.2314-.3203-.3018-.5293s-.1055-.4473-.1055-.7168c0-.2637,.0342-.501,.1045-.7109,.0693-.21,.1709-.3896,.3047-.5391,.1279-.1426,.2861-.251,.4756-.3262,.1895-.0762,.3965-.1133,.6201-.1133,.2324,0,.4404,.0381,.626,.1143s.3428,.1846,.4717,.3252c.1318,.1455,.2334,.3232,.3037,.5342,.0703,.21,.1055,.4492,.1055,.7158,0,.3965-.0811,.7305-.2422,1.0029-.1621,.2715-.3799,.4609-.6523,.5703,.0059,.165,.0449,.2939,.1172,.3857,.0723,.0908,.2051,.1367,.3965,.1367,.0596,0,.1299-.0088,.2119-.0273,.082-.0176,.1406-.0342,.1758-.0488h.0586v.3965Zm-.5137-2.416c0-.4209-.0947-.7451-.2832-.9746-.1885-.2285-.4463-.3428-.7734-.3428-.3301,0-.5889,.1143-.7764,.3428-.1885,.2295-.2822,.5537-.2822,.9746,0,.4258,.0957,.752,.2871,.9775,.1924,.2256,.4492,.3389,.7715,.3389s.5791-.1133,.7705-.3389c.1904-.2256,.2861-.5518,.2861-.9775Z"/><path class="cls-3" d="M141.9688,137.7842h-1.7559v-.3311h.6758v-2.1738h-.6758v-.2959c.0918,0,.1895-.0078,.2939-.0234s.1836-.0371,.2373-.0664c.0674-.0361,.1201-.082,.1582-.1387,.0381-.0557,.0605-.1309,.0664-.2246h.3379v2.9229h.6621v.3311Z"/></g><g><path class="cls-3" d="M150.3994,138.5791c-.0869,.0215-.1729,.0371-.2578,.0469s-.1719,.0146-.2607,.0146c-.252,0-.4551-.0693-.6084-.208s-.2363-.3379-.249-.5957c-.0352,.0049-.0693,.0098-.1016,.0117-.0332,.002-.0645,.0029-.0947,.0029-.2285,0-.4355-.0381-.6221-.1133s-.3457-.1846-.4756-.3291c-.1309-.1436-.2314-.3203-.3018-.5293s-.1055-.4473-.1055-.7168c0-.2637,.0342-.501,.1045-.7109,.0693-.21,.1709-.3896,.3047-.5391,.1279-.1426,.2861-.251,.4756-.3262,.1895-.0762,.3965-.1133,.6201-.1133,.2324,0,.4404,.0381,.626,.1143s.3428,.1846,.4717,.3252c.1318,.1455,.2334,.3232,.3037,.5342,.0703,.21,.1055,.4492,.1055,.7158,0,.3965-.0811,.7305-.2422,1.0029-.1621,.2715-.3799,.4609-.6523,.5703,.0059,.165,.0449,.2939,.1172,.3857,.0723,.0908,.2051,.1367,.3965,.1367,.0596,0,.1299-.0088,.2119-.0273,.082-.0176,.1406-.0342,.1758-.0488h.0586v.3965Zm-.5137-2.416c0-.4209-.0947-.7451-.2832-.9746-.1885-.2285-.4463-.3428-.7734-.3428-.3301,0-.5889,.1143-.7764,.3428-.1885,.2295-.2822,.5537-.2822,.9746,0,.4258,.0957,.752,.2871,.9775,.1924,.2256,.4492,.3389,.7715,.3389s.5791-.1133,.7705-.3389c.1904-.2256,.2861-.5518,.2861-.9775Z"/><path class="cls-3" d="M153.1289,137.7842h-2.1953v-.4551c.1523-.1309,.3057-.2617,.459-.3926s.2959-.2607,.4277-.3896c.2783-.2705,.4697-.4844,.5732-.6436,.1025-.1592,.1543-.3311,.1543-.5156,0-.168-.0557-.2998-.167-.3945-.1104-.0957-.2656-.1436-.4648-.1436-.1318,0-.2754,.0234-.4287,.0703-.1543,.0459-.3047,.1172-.4512,.2129h-.0215v-.457c.1025-.0508,.2402-.0977,.4121-.1396,.1729-.042,.3389-.0625,.5-.0625,.333,0,.5938,.0801,.7822,.2402s.2832,.3779,.2832,.6523c0,.124-.0156,.2383-.0469,.3457-.0312,.1064-.0771,.208-.1387,.3037-.0566,.0898-.123,.1787-.1992,.2656s-.1689,.1836-.2773,.29c-.1553,.1523-.3164,.2998-.4814,.4434-.166,.1426-.3203,.2754-.4639,.3975h1.7441v.3721Z"/></g><g><path class="cls-3" d="M161.373,138.5791c-.0869,.0215-.1729,.0371-.2578,.0469s-.1719,.0146-.2607,.0146c-.252,0-.4551-.0693-.6084-.208s-.2363-.3379-.249-.5957c-.0352,.0049-.0693,.0098-.1016,.0117-.0332,.002-.0645,.0029-.0947,.0029-.2285,0-.4355-.0381-.6221-.1133s-.3457-.1846-.4756-.3291c-.1309-.1436-.2314-.3203-.3018-.5293s-.1055-.4473-.1055-.7168c0-.2637,.0342-.501,.1045-.7109,.0693-.21,.1709-.3896,.3047-.5391,.1279-.1426,.2861-.251,.4756-.3262,.1895-.0762,.3965-.1133,.6201-.1133,.2324,0,.4404,.0381,.626,.1143s.3428,.1846,.4717,.3252c.1318,.1455,.2334,.3232,.3037,.5342,.0703,.21,.1055,.4492,.1055,.7158,0,.3965-.0811,.7305-.2422,1.0029-.1621,.2715-.3799,.4609-.6523,.5703,.0059,.165,.0449,.2939,.1172,.3857,.0723,.0908,.2051,.1367,.3965,.1367,.0596,0,.1299-.0088,.2119-.0273,.082-.0176,.1406-.0342,.1758-.0488h.0586v.3965Zm-.5137-2.416c0-.4209-.0947-.7451-.2832-.9746-.1885-.2285-.4463-.3428-.7734-.3428-.3301,0-.5889,.1143-.7764,.3428-.1885,.2295-.2822,.5537-.2822,.9746,0,.4258,.0957,.752,.2871,.9775,.1924,.2256,.4492,.3389,.7715,.3389s.5791-.1133,.7705-.3389c.1904-.2256,.2861-.5518,.2861-.9775Z"/><path class="cls-3" d="M163.8174,136.2227c.0703,.0625,.127,.1406,.1729,.2354,.0449,.0938,.0674,.2158,.0674,.3652,0,.1484-.0273,.2842-.0811,.4072-.0537,.124-.1289,.2314-.2266,.3232-.1084,.1016-.2373,.1768-.3848,.2246-.1465,.0488-.3086,.0732-.4844,.0732-.1797,0-.3574-.0215-.5312-.0645-.1748-.042-.3174-.0889-.4297-.1406v-.4551h.0332c.123,.082,.2686,.1494,.4355,.2031s.3281,.0801,.4834,.0801c.0918,0,.1895-.0146,.292-.0459,.1035-.0303,.1865-.0752,.251-.1348,.0664-.0635,.1162-.1338,.1484-.2109,.0332-.0771,.0498-.1748,.0498-.292,0-.1162-.0186-.2129-.0557-.2891s-.0889-.1357-.1543-.1797c-.0645-.0449-.1436-.0752-.2373-.0918-.0928-.0176-.1924-.0254-.2998-.0254h-.1963v-.3613h.1523c.2207,0,.3965-.0469,.5283-.1387,.1309-.0918,.1973-.2266,.1973-.4043,0-.0781-.0166-.1465-.0508-.2061-.0332-.0586-.0791-.1064-.1387-.1445-.0625-.0381-.1299-.0635-.2012-.0781-.0703-.0146-.1514-.0225-.2412-.0225-.1377,0-.2852,.0254-.4404,.0742-.1553,.0498-.3018,.1191-.4395,.209h-.0225v-.4551c.1035-.0508,.2412-.0977,.4131-.1406,.1719-.042,.3389-.0635,.5-.0635,.1582,0,.2979,.0137,.418,.043,.1211,.0293,.2295,.0762,.3271,.1396,.1045,.0693,.1836,.1543,.2373,.2529s.0811,.2139,.0811,.3457c0,.1807-.0645,.3379-.1914,.4717-.127,.1348-.2764,.2188-.4492,.2539v.0303c.0693,.0117,.1494,.0361,.2393,.0732s.166,.083,.2285,.1387Z"/></g><g><path class="cls-3" d="M172.3496,138.5791c-.0869,.0215-.1729,.0371-.2578,.0469s-.1719,.0146-.2607,.0146c-.252,0-.4551-.0693-.6084-.208s-.2363-.3379-.249-.5957c-.0352,.0049-.0693,.0098-.1016,.0117-.0332,.002-.0645,.0029-.0947,.0029-.2285,0-.4355-.0381-.6221-.1133s-.3457-.1846-.4756-.3291c-.1309-.1436-.2314-.3203-.3018-.5293s-.1055-.4473-.1055-.7168c0-.2637,.0342-.501,.1045-.7109,.0693-.21,.1709-.3896,.3047-.5391,.1279-.1426,.2861-.251,.4756-.3262,.1895-.0762,.3965-.1133,.6201-.1133,.2324,0,.4404,.0381,.626,.1143s.3428,.1846,.4717,.3252c.1318,.1455,.2334,.3232,.3037,.5342,.0703,.21,.1055,.4492,.1055,.7158,0,.3965-.0811,.7305-.2422,1.0029-.1621,.2715-.3799,.4609-.6523,.5703,.0059,.165,.0449,.2939,.1172,.3857,.0723,.0908,.2051,.1367,.3965,.1367,.0596,0,.1299-.0088,.2119-.0273,.082-.0176,.1406-.0342,.1758-.0488h.0586v.3965Zm-.5137-2.416c0-.4209-.0947-.7451-.2832-.9746-.1885-.2285-.4463-.3428-.7734-.3428-.3301,0-.5889,.1143-.7764,.3428-.1885,.2295-.2822,.5537-.2822,.9746,0,.4258,.0957,.752,.2871,.9775,.1924,.2256,.4492,.3389,.7715,.3389s.5791-.1133,.7705-.3389c.1904-.2256,.2861-.5518,.2861-.9775Z"/><path class="cls-3" d="M175.1533,136.8711h-.4814v.9131h-.418v-.9131h-1.5527v-.501l1.5703-1.8291h.4004v1.9824h.4814v.3477Zm-.8994-.3477v-1.4639l-1.2568,1.4639h1.2568Z"/></g><line class="cls-8" x1="134.8059" y1="140.7519" x2="177.8817" y2="140.7519"/><g><path class="cls-3" d="M137.2959,146.8115h-2.1953v-.4551c.1523-.1309,.3057-.2617,.459-.3926s.2959-.2607,.4277-.3896c.2783-.2705,.4697-.4844,.5732-.6436,.1025-.1592,.1543-.3311,.1543-.5156,0-.168-.0557-.2998-.167-.3945-.1104-.0957-.2656-.1436-.4648-.1436-.1318,0-.2754,.0234-.4287,.0703-.1543,.0459-.3047,.1172-.4512,.2129h-.0215v-.457c.1025-.0508,.2402-.0977,.4121-.1396,.1729-.042,.3389-.0625,.5-.0625,.333,0,.5938,.0801,.7822,.2402s.2832,.3779,.2832,.6523c0,.124-.0156,.2383-.0469,.3457-.0312,.1064-.0771,.208-.1387,.3037-.0566,.0898-.123,.1787-.1992,.2656s-.1689,.1836-.2773,.29c-.1553,.1523-.3164,.2998-.4814,.4434-.166,.1426-.3203,.2754-.4639,.3975h1.7441v.3721Z"/><path class="cls-3" d="M140.1279,145.1885c0,.583-.0908,1.0098-.2734,1.2822s-.4648,.4082-.8486,.4082c-.3887,0-.6729-.1377-.8525-.4141-.1797-.2754-.2686-.6992-.2686-1.2715,0-.5771,.0898-1.0029,.2715-1.2783,.1816-.2744,.4648-.4121,.8496-.4121,.3896,0,.6738,.1396,.8535,.4189,.1787,.2793,.2686,.7021,.2686,1.2666Zm-.5732,.9893c.0508-.1182,.0859-.2559,.1035-.415,.0186-.1592,.0273-.3506,.0273-.5742,0-.2207-.0088-.4121-.0273-.5752-.0176-.1621-.0527-.2998-.1055-.4131-.0508-.1123-.1201-.1963-.208-.2529s-.2002-.085-.3389-.085c-.1357,0-.249,.0283-.3389,.085-.0889,.0566-.1592,.1426-.2119,.2568-.0498,.1074-.083,.248-.1016,.4209-.0176,.1729-.0273,.3623-.0273,.5684,0,.2266,.0088,.416,.0244,.5684s.0498,.2891,.1025,.4092c.0479,.1133,.1152,.2002,.2031,.2598s.2051,.0889,.3496,.0889c.1367,0,.25-.0283,.3398-.085s.1602-.1426,.209-.2568Z"/><path class="cls-3" d="M142.7832,146.8115h-1.7559v-.3311h.6758v-2.1738h-.6758v-.2959c.0918,0,.1895-.0078,.2939-.0234s.1836-.0371,.2373-.0664c.0674-.0361,.1201-.082,.1582-.1387,.0381-.0557,.0605-.1309,.0664-.2246h.3379v2.9229h.6621v.3311Z"/><path class="cls-3" d="M145.7998,144.9951c0,.2832-.0322,.54-.0967,.7705-.0645,.2314-.1621,.4277-.293,.5908-.1328,.165-.2979,.293-.4971,.3828-.1992,.0908-.4326,.1357-.7012,.1357-.0752,0-.1465-.0039-.2139-.0127-.0664-.0078-.126-.0205-.1787-.0381v-.416h.0225c.042,.0225,.1016,.043,.1787,.0625,.0762,.0195,.1621,.0293,.2568,.0293,.3213,0,.5723-.0957,.7549-.2891,.1816-.1924,.2881-.457,.3164-.7959-.1348,.082-.2617,.1396-.3809,.1748-.1191,.0342-.249,.0518-.3896,.0518-.1338,0-.2549-.0127-.3633-.0391-.1074-.0264-.2168-.0771-.3252-.1523-.1279-.0889-.2246-.2012-.2891-.3379s-.0967-.2998-.0967-.4902c0-.3311,.1094-.6006,.3271-.8076,.2178-.208,.4834-.3115,.7969-.3115,.1572,0,.3018,.0244,.4355,.0732,.1338,.0479,.251,.1211,.3506,.2188,.124,.1201,.2188,.2754,.2852,.4648,.0674,.1895,.1006,.4346,.1006,.7354Zm-.4404-.0938c0-.2256-.0225-.4062-.0693-.543-.0469-.1357-.1104-.2422-.1914-.3174-.0684-.0654-.1416-.1123-.2197-.1406-.0791-.0283-.1641-.043-.2549-.043-.21,0-.375,.0654-.4961,.1963s-.1816,.3145-.1816,.5508c0,.1387,.0195,.251,.0586,.3379s.1055,.1631,.1982,.2285c.0654,.0459,.1377,.0752,.2158,.0908s.165,.0225,.2617,.0225c.1133,0,.2275-.0146,.3438-.0449,.1162-.0312,.2246-.0752,.3271-.1338,.001-.0303,.0029-.0605,.0049-.0898,.002-.0303,.0029-.0684,.0029-.1143Z"/></g></g><g><g><path class="cls-3" d="M184.3398,138.5791c-.0869,.0215-.1729,.0371-.2578,.0469s-.1719,.0146-.2607,.0146c-.252,0-.4551-.0693-.6084-.208s-.2363-.3379-.249-.5957c-.0352,.0049-.0693,.0098-.1016,.0117-.0332,.002-.0645,.0029-.0947,.0029-.2285,0-.4355-.0381-.6221-.1133s-.3457-.1846-.4756-.3291c-.1309-.1436-.2314-.3203-.3018-.5293s-.1055-.4473-.1055-.7168c0-.2637,.0342-.501,.1045-.7109,.0693-.21,.1709-.3896,.3047-.5391,.1279-.1426,.2861-.251,.4756-.3262,.1895-.0762,.3965-.1133,.6201-.1133,.2324,0,.4404,.0381,.626,.1143s.3428,.1846,.4717,.3252c.1318,.1455,.2334,.3232,.3037,.5342,.0703,.21,.1055,.4492,.1055,.7158,0,.3965-.0811,.7305-.2422,1.0029-.1621,.2715-.3799,.4609-.6523,.5703,.0059,.165,.0449,.2939,.1172,.3857,.0723,.0908,.2051,.1367,.3965,.1367,.0596,0,.1299-.0088,.2119-.0273,.082-.0176,.1406-.0342,.1758-.0488h.0586v.3965Zm-.5137-2.416c0-.4209-.0947-.7451-.2832-.9746-.1885-.2285-.4463-.3428-.7734-.3428-.3301,0-.5889,.1143-.7764,.3428-.1885,.2295-.2822,.5537-.2822,.9746,0,.4258,.0957,.752,.2871,.9775,.1924,.2256,.4492,.3389,.7715,.3389s.5791-.1133,.7705-.3389c.1904-.2256,.2861-.5518,.2861-.9775Z"/><path class="cls-3" d="M186.8848,137.7842h-1.7559v-.3311h.6758v-2.1738h-.6758v-.2959c.0918,0,.1895-.0078,.2939-.0234s.1836-.0371,.2373-.0664c.0674-.0361,.1201-.082,.1582-.1387,.0381-.0557,.0605-.1309,.0664-.2246h.3379v2.9229h.6621v.3311Z"/></g><g><path class="cls-3" d="M195.3154,138.5791c-.0869,.0215-.1729,.0371-.2578,.0469s-.1719,.0146-.2607,.0146c-.252,0-.4551-.0693-.6084-.208s-.2363-.3379-.249-.5957c-.0352,.0049-.0693,.0098-.1016,.0117-.0332,.002-.0645,.0029-.0947,.0029-.2285,0-.4355-.0381-.6221-.1133s-.3457-.1846-.4756-.3291c-.1309-.1436-.2314-.3203-.3018-.5293s-.1055-.4473-.1055-.7168c0-.2637,.0342-.501,.1045-.7109,.0693-.21,.1709-.3896,.3047-.5391,.1279-.1426,.2861-.251,.4756-.3262,.1895-.0762,.3965-.1133,.6201-.1133,.2324,0,.4404,.0381,.626,.1143s.3428,.1846,.4717,.3252c.1318,.1455,.2334,.3232,.3037,.5342,.0703,.21,.1055,.4492,.1055,.7158,0,.3965-.0811,.7305-.2422,1.0029-.1621,.2715-.3799,.4609-.6523,.5703,.0059,.165,.0449,.2939,.1172,.3857,.0723,.0908,.2051,.1367,.3965,.1367,.0596,0,.1299-.0088,.2119-.0273,.082-.0176,.1406-.0342,.1758-.0488h.0586v.3965Zm-.5137-2.416c0-.4209-.0947-.7451-.2832-.9746-.1885-.2285-.4463-.3428-.7734-.3428-.3301,0-.5889,.1143-.7764,.3428-.1885,.2295-.2822,.5537-.2822,.9746,0,.4258,.0957,.752,.2871,.9775,.1924,.2256,.4492,.3389,.7715,.3389s.5791-.1133,.7705-.3389c.1904-.2256,.2861-.5518,.2861-.9775Z"/><path class="cls-3" d="M198.0449,137.7842h-2.1953v-.4551c.1523-.1309,.3057-.2617,.459-.3926s.2959-.2607,.4277-.3896c.2783-.2705,.4697-.4844,.5732-.6436,.1025-.1592,.1543-.3311,.1543-.5156,0-.168-.0557-.2998-.167-.3945-.1104-.0957-.2656-.1436-.4648-.1436-.1318,0-.2754,.0234-.4287,.0703-.1543,.0459-.3047,.1172-.4512,.2129h-.0215v-.457c.1025-.0508,.2402-.0977,.4121-.1396,.1729-.042,.3389-.0625,.5-.0625,.333,0,.5938,.0801,.7822,.2402s.2832,.3779,.2832,.6523c0,.124-.0156,.2383-.0469,.3457-.0312,.1064-.0771,.208-.1387,.3037-.0566,.0898-.123,.1787-.1992,.2656s-.1689,.1836-.2773,.29c-.1553,.1523-.3164,.2998-.4814,.4434-.166,.1426-.3203,.2754-.4639,.3975h1.7441v.3721Z"/></g><g><path class="cls-3" d="M206.2891,138.5791c-.0869,.0215-.1729,.0371-.2578,.0469s-.1719,.0146-.2607,.0146c-.252,0-.4551-.0693-.6084-.208s-.2363-.3379-.249-.5957c-.0352,.0049-.0693,.0098-.1016,.0117-.0332,.002-.0645,.0029-.0947,.0029-.2285,0-.4355-.0381-.6221-.1133s-.3457-.1846-.4756-.3291c-.1309-.1436-.2314-.3203-.3018-.5293s-.1055-.4473-.1055-.7168c0-.2637,.0342-.501,.1045-.7109,.0693-.21,.1709-.3896,.3047-.5391,.1279-.1426,.2861-.251,.4756-.3262,.1895-.0762,.3965-.1133,.6201-.1133,.2324,0,.4404,.0381,.626,.1143s.3428,.1846,.4717,.3252c.1318,.1455,.2334,.3232,.3037,.5342,.0703,.21,.1055,.4492,.1055,.7158,0,.3965-.0811,.7305-.2422,1.0029-.1621,.2715-.3799,.4609-.6523,.5703,.0059,.165,.0449,.2939,.1172,.3857,.0723,.0908,.2051,.1367,.3965,.1367,.0596,0,.1299-.0088,.2119-.0273,.082-.0176,.1406-.0342,.1758-.0488h.0586v.3965Zm-.5137-2.416c0-.4209-.0947-.7451-.2832-.9746-.1885-.2285-.4463-.3428-.7734-.3428-.3301,0-.5889,.1143-.7764,.3428-.1885,.2295-.2822,.5537-.2822,.9746,0,.4258,.0957,.752,.2871,.9775,.1924,.2256,.4492,.3389,.7715,.3389s.5791-.1133,.7705-.3389c.1904-.2256,.2861-.5518,.2861-.9775Z"/><path class="cls-3" d="M208.7334,136.2227c.0703,.0625,.127,.1406,.1729,.2354,.0449,.0938,.0674,.2158,.0674,.3652,0,.1484-.0273,.2842-.0811,.4072-.0537,.124-.1289,.2314-.2266,.3232-.1084,.1016-.2373,.1768-.3848,.2246-.1465,.0488-.3086,.0732-.4844,.0732-.1797,0-.3574-.0215-.5312-.0645-.1748-.042-.3174-.0889-.4297-.1406v-.4551h.0332c.123,.082,.2686,.1494,.4355,.2031s.3281,.0801,.4834,.0801c.0918,0,.1895-.0146,.292-.0459,.1035-.0303,.1865-.0752,.251-.1348,.0664-.0635,.1162-.1338,.1484-.2109,.0332-.0771,.0498-.1748,.0498-.292,0-.1162-.0186-.2129-.0557-.2891s-.0889-.1357-.1543-.1797c-.0645-.0449-.1436-.0752-.2373-.0918-.0928-.0176-.1924-.0254-.2998-.0254h-.1963v-.3613h.1523c.2207,0,.3965-.0469,.5283-.1387,.1309-.0918,.1973-.2266,.1973-.4043,0-.0781-.0166-.1465-.0508-.2061-.0332-.0586-.0791-.1064-.1387-.1445-.0625-.0381-.1299-.0635-.2012-.0781-.0703-.0146-.1514-.0225-.2412-.0225-.1377,0-.2852,.0254-.4404,.0742-.1553,.0498-.3018,.1191-.4395,.209h-.0225v-.4551c.1035-.0508,.2412-.0977,.4131-.1406,.1719-.042,.3389-.0635,.5-.0635,.1582,0,.2979,.0137,.418,.043,.1211,.0293,.2295,.0762,.3271,.1396,.1045,.0693,.1836,.1543,.2373,.2529s.0811,.2139,.0811,.3457c0,.1807-.0645,.3379-.1914,.4717-.127,.1348-.2764,.2188-.4492,.2539v.0303c.0693,.0117,.1494,.0361,.2393,.0732s.166,.083,.2285,.1387Z"/></g><g><path class="cls-3" d="M217.2656,138.5791c-.0869,.0215-.1729,.0371-.2578,.0469s-.1719,.0146-.2607,.0146c-.252,0-.4551-.0693-.6084-.208s-.2363-.3379-.249-.5957c-.0352,.0049-.0693,.0098-.1016,.0117-.0332,.002-.0645,.0029-.0947,.0029-.2285,0-.4355-.0381-.6221-.1133s-.3457-.1846-.4756-.3291c-.1309-.1436-.2314-.3203-.3018-.5293s-.1055-.4473-.1055-.7168c0-.2637,.0342-.501,.1045-.7109,.0693-.21,.1709-.3896,.3047-.5391,.1279-.1426,.2861-.251,.4756-.3262,.1895-.0762,.3965-.1133,.6201-.1133,.2324,0,.4404,.0381,.626,.1143s.3428,.1846,.4717,.3252c.1318,.1455,.2334,.3232,.3037,.5342,.0703,.21,.1055,.4492,.1055,.7158,0,.3965-.0811,.7305-.2422,1.0029-.1621,.2715-.3799,.4609-.6523,.5703,.0059,.165,.0449,.2939,.1172,.3857,.0723,.0908,.2051,.1367,.3965,.1367,.0596,0,.1299-.0088,.2119-.0273,.082-.0176,.1406-.0342,.1758-.0488h.0586v.3965Zm-.5137-2.416c0-.4209-.0947-.7451-.2832-.9746-.1885-.2285-.4463-.3428-.7734-.3428-.3301,0-.5889,.1143-.7764,.3428-.1885,.2295-.2822,.5537-.2822,.9746,0,.4258,.0957,.752,.2871,.9775,.1924,.2256,.4492,.3389,.7715,.3389s.5791-.1133,.7705-.3389c.1904-.2256,.2861-.5518,.2861-.9775Z"/><path class="cls-3" d="M220.0693,136.8711h-.4814v.9131h-.418v-.9131h-1.5527v-.501l1.5703-1.8291h.4004v1.9824h.4814v.3477Zm-.8994-.3477v-1.4639l-1.2568,1.4639h1.2568Z"/></g><line class="cls-8" x1="179.722" y1="140.7519" x2="222.7978" y2="140.7519"/><g><path class="cls-3" d="M182.2119,146.8115h-2.1953v-.4551c.1523-.1309,.3057-.2617,.459-.3926s.2959-.2607,.4277-.3896c.2783-.2705,.4697-.4844,.5732-.6436,.1025-.1592,.1543-.3311,.1543-.5156,0-.168-.0557-.2998-.167-.3945-.1104-.0957-.2656-.1436-.4648-.1436-.1318,0-.2754,.0234-.4287,.0703-.1543,.0459-.3047,.1172-.4512,.2129h-.0215v-.457c.1025-.0508,.2402-.0977,.4121-.1396,.1729-.042,.3389-.0625,.5-.0625,.333,0,.5938,.0801,.7822,.2402s.2832,.3779,.2832,.6523c0,.124-.0156,.2383-.0469,.3457-.0312,.1064-.0771,.208-.1387,.3037-.0566,.0898-.123,.1787-.1992,.2656s-.1689,.1836-.2773,.29c-.1553,.1523-.3164,.2998-.4814,.4434-.166,.1426-.3203,.2754-.4639,.3975h1.7441v.3721Z"/><path class="cls-3" d="M185.0439,145.1885c0,.583-.0908,1.0098-.2734,1.2822s-.4648,.4082-.8486,.4082c-.3887,0-.6729-.1377-.8525-.4141-.1797-.2754-.2686-.6992-.2686-1.2715,0-.5771,.0898-1.0029,.2715-1.2783,.1816-.2744,.4648-.4121,.8496-.4121,.3896,0,.6738,.1396,.8535,.4189,.1787,.2793,.2686,.7021,.2686,1.2666Zm-.5732,.9893c.0508-.1182,.0859-.2559,.1035-.415,.0186-.1592,.0273-.3506,.0273-.5742,0-.2207-.0088-.4121-.0273-.5752-.0176-.1621-.0527-.2998-.1055-.4131-.0508-.1123-.1201-.1963-.208-.2529s-.2002-.085-.3389-.085c-.1357,0-.249,.0283-.3389,.085-.0889,.0566-.1592,.1426-.2119,.2568-.0498,.1074-.083,.248-.1016,.4209-.0176,.1729-.0273,.3623-.0273,.5684,0,.2266,.0088,.416,.0244,.5684s.0498,.2891,.1025,.4092c.0479,.1133,.1152,.2002,.2031,.2598s.2051,.0889,.3496,.0889c.1367,0,.25-.0283,.3398-.085s.1602-.1426,.209-.2568Z"/><path class="cls-3" d="M187.8838,146.8115h-2.1953v-.4551c.1523-.1309,.3057-.2617,.459-.3926s.2959-.2607,.4277-.3896c.2783-.2705,.4697-.4844,.5732-.6436,.1025-.1592,.1543-.3311,.1543-.5156,0-.168-.0557-.2998-.167-.3945-.1104-.0957-.2656-.1436-.4648-.1436-.1318,0-.2754,.0234-.4287,.0703-.1543,.0459-.3047,.1172-.4512,.2129h-.0215v-.457c.1025-.0508,.2402-.0977,.4121-.1396,.1729-.042,.3389-.0625,.5-.0625,.333,0,.5938,.0801,.7822,.2402s.2832,.3779,.2832,.6523c0,.124-.0156,.2383-.0469,.3457-.0312,.1064-.0771,.208-.1387,.3037-.0566,.0898-.123,.1787-.1992,.2656s-.1689,.1836-.2773,.29c-.1553,.1523-.3164,.2998-.4814,.4434-.166,.1426-.3203,.2754-.4639,.3975h1.7441v.3721Z"/><path class="cls-3" d="M190.7158,145.1885c0,.583-.0908,1.0098-.2734,1.2822s-.4648,.4082-.8486,.4082c-.3887,0-.6729-.1377-.8525-.4141-.1797-.2754-.2686-.6992-.2686-1.2715,0-.5771,.0898-1.0029,.2715-1.2783,.1816-.2744,.4648-.4121,.8496-.4121,.3896,0,.6738,.1396,.8535,.4189,.1787,.2793,.2686,.7021,.2686,1.2666Zm-.5732,.9893c.0508-.1182,.0859-.2559,.1035-.415,.0186-.1592,.0273-.3506,.0273-.5742,0-.2207-.0088-.4121-.0273-.5752-.0176-.1621-.0527-.2998-.1055-.4131-.0508-.1123-.1201-.1963-.208-.2529s-.2002-.085-.3389-.085c-.1357,0-.249,.0283-.3389,.085-.0889,.0566-.1592,.1426-.2119,.2568-.0498,.1074-.083,.248-.1016,.4209-.0176,.1729-.0273,.3623-.0273,.5684,0,.2266,.0088,.416,.0244,.5684s.0498,.2891,.1025,.4092c.0479,.1133,.1152,.2002,.2031,.2598s.2051,.0889,.3496,.0889c.1367,0,.25-.0283,.3398-.085s.1602-.1426,.209-.2568Z"/></g></g><g><g><path class="cls-3" d="M229.2559,138.5791c-.0869,.0215-.1729,.0371-.2578,.0469s-.1719,.0146-.2607,.0146c-.252,0-.4551-.0693-.6084-.208s-.2363-.3379-.249-.5957c-.0352,.0049-.0693,.0098-.1016,.0117-.0332,.002-.0645,.0029-.0947,.0029-.2285,0-.4355-.0381-.6221-.1133s-.3457-.1846-.4756-.3291c-.1309-.1436-.2314-.3203-.3018-.5293s-.1055-.4473-.1055-.7168c0-.2637,.0342-.501,.1045-.7109,.0693-.21,.1709-.3896,.3047-.5391,.1279-.1426,.2861-.251,.4756-.3262,.1895-.0762,.3965-.1133,.6201-.1133,.2324,0,.4404,.0381,.626,.1143s.3428,.1846,.4717,.3252c.1318,.1455,.2334,.3232,.3037,.5342,.0703,.21,.1055,.4492,.1055,.7158,0,.3965-.0811,.7305-.2422,1.0029-.1621,.2715-.3799,.4609-.6523,.5703,.0059,.165,.0449,.2939,.1172,.3857,.0723,.0908,.2051,.1367,.3965,.1367,.0596,0,.1299-.0088,.2119-.0273,.082-.0176,.1406-.0342,.1758-.0488h.0586v.3965Zm-.5137-2.416c0-.4209-.0947-.7451-.2832-.9746-.1885-.2285-.4463-.3428-.7734-.3428-.3301,0-.5889,.1143-.7764,.3428-.1885,.2295-.2822,.5537-.2822,.9746,0,.4258,.0957,.752,.2871,.9775,.1924,.2256,.4492,.3389,.7715,.3389s.5791-.1133,.7705-.3389c.1904-.2256,.2861-.5518,.2861-.9775Z"/><path class="cls-3" d="M231.8008,137.7842h-1.7559v-.3311h.6758v-2.1738h-.6758v-.2959c.0918,0,.1895-.0078,.2939-.0234s.1836-.0371,.2373-.0664c.0674-.0361,.1201-.082,.1582-.1387,.0381-.0557,.0605-.1309,.0664-.2246h.3379v2.9229h.6621v.3311Z"/></g><g><path class="cls-3" d="M240.2314,138.5791c-.0869,.0215-.1729,.0371-.2578,.0469s-.1719,.0146-.2607,.0146c-.252,0-.4551-.0693-.6084-.208s-.2363-.3379-.249-.5957c-.0352,.0049-.0693,.0098-.1016,.0117-.0332,.002-.0645,.0029-.0947,.0029-.2285,0-.4355-.0381-.6221-.1133s-.3457-.1846-.4756-.3291c-.1309-.1436-.2314-.3203-.3018-.5293s-.1055-.4473-.1055-.7168c0-.2637,.0342-.501,.1045-.7109,.0693-.21,.1709-.3896,.3047-.5391,.1279-.1426,.2861-.251,.4756-.3262,.1895-.0762,.3965-.1133,.6201-.1133,.2324,0,.4404,.0381,.626,.1143s.3428,.1846,.4717,.3252c.1318,.1455,.2334,.3232,.3037,.5342,.0703,.21,.1055,.4492,.1055,.7158,0,.3965-.0811,.7305-.2422,1.0029-.1621,.2715-.3799,.4609-.6523,.5703,.0059,.165,.0449,.2939,.1172,.3857,.0723,.0908,.2051,.1367,.3965,.1367,.0596,0,.1299-.0088,.2119-.0273,.082-.0176,.1406-.0342,.1758-.0488h.0586v.3965Zm-.5137-2.416c0-.4209-.0947-.7451-.2832-.9746-.1885-.2285-.4463-.3428-.7734-.3428-.3301,0-.5889,.1143-.7764,.3428-.1885,.2295-.2822,.5537-.2822,.9746,0,.4258,.0957,.752,.2871,.9775,.1924,.2256,.4492,.3389,.7715,.3389s.5791-.1133,.7705-.3389c.1904-.2256,.2861-.5518,.2861-.9775Z"/><path class="cls-3" d="M242.9609,137.7842h-2.1953v-.4551c.1523-.1309,.3057-.2617,.459-.3926s.2959-.2607,.4277-.3896c.2783-.2705,.4697-.4844,.5732-.6436,.1025-.1592,.1543-.3311,.1543-.5156,0-.168-.0557-.2998-.167-.3945-.1104-.0957-.2656-.1436-.4648-.1436-.1318,0-.2754,.0234-.4287,.0703-.1543,.0459-.3047,.1172-.4512,.2129h-.0215v-.457c.1025-.0508,.2402-.0977,.4121-.1396,.1729-.042,.3389-.0625,.5-.0625,.333,0,.5938,.0801,.7822,.2402s.2832,.3779,.2832,.6523c0,.124-.0156,.2383-.0469,.3457-.0312,.1064-.0771,.208-.1387,.3037-.0566,.0898-.123,.1787-.1992,.2656s-.1689,.1836-.2773,.29c-.1553,.1523-.3164,.2998-.4814,.4434-.166,.1426-.3203,.2754-.4639,.3975h1.7441v.3721Z"/></g><g><path class="cls-3" d="M251.2051,138.5791c-.0869,.0215-.1729,.0371-.2578,.0469s-.1719,.0146-.2607,.0146c-.252,0-.4551-.0693-.6084-.208s-.2363-.3379-.249-.5957c-.0352,.0049-.0693,.0098-.1016,.0117-.0332,.002-.0645,.0029-.0947,.0029-.2285,0-.4355-.0381-.6221-.1133s-.3457-.1846-.4756-.3291c-.1309-.1436-.2314-.3203-.3018-.5293s-.1055-.4473-.1055-.7168c0-.2637,.0342-.501,.1045-.7109,.0693-.21,.1709-.3896,.3047-.5391,.1279-.1426,.2861-.251,.4756-.3262,.1895-.0762,.3965-.1133,.6201-.1133,.2324,0,.4404,.0381,.626,.1143s.3428,.1846,.4717,.3252c.1318,.1455,.2334,.3232,.3037,.5342,.0703,.21,.1055,.4492,.1055,.7158,0,.3965-.0811,.7305-.2422,1.0029-.1621,.2715-.3799,.4609-.6523,.5703,.0059,.165,.0449,.2939,.1172,.3857,.0723,.0908,.2051,.1367,.3965,.1367,.0596,0,.1299-.0088,.2119-.0273,.082-.0176,.1406-.0342,.1758-.0488h.0586v.3965Zm-.5137-2.416c0-.4209-.0947-.7451-.2832-.9746-.1885-.2285-.4463-.3428-.7734-.3428-.3301,0-.5889,.1143-.7764,.3428-.1885,.2295-.2822,.5537-.2822,.9746,0,.4258,.0957,.752,.2871,.9775,.1924,.2256,.4492,.3389,.7715,.3389s.5791-.1133,.7705-.3389c.1904-.2256,.2861-.5518,.2861-.9775Z"/><path class="cls-3" d="M253.6494,136.2227c.0703,.0625,.127,.1406,.1729,.2354,.0449,.0938,.0674,.2158,.0674,.3652,0,.1484-.0273,.2842-.0811,.4072-.0537,.124-.1289,.2314-.2266,.3232-.1084,.1016-.2373,.1768-.3848,.2246-.1465,.0488-.3086,.0732-.4844,.0732-.1797,0-.3574-.0215-.5312-.0645-.1748-.042-.3174-.0889-.4297-.1406v-.4551h.0332c.123,.082,.2686,.1494,.4355,.2031s.3281,.0801,.4834,.0801c.0918,0,.1895-.0146,.292-.0459,.1035-.0303,.1865-.0752,.251-.1348,.0664-.0635,.1162-.1338,.1484-.2109,.0332-.0771,.0498-.1748,.0498-.292,0-.1162-.0186-.2129-.0557-.2891s-.0889-.1357-.1543-.1797c-.0645-.0449-.1436-.0752-.2373-.0918-.0928-.0176-.1924-.0254-.2998-.0254h-.1963v-.3613h.1523c.2207,0,.3965-.0469,.5283-.1387,.1309-.0918,.1973-.2266,.1973-.4043,0-.0781-.0166-.1465-.0508-.2061-.0332-.0586-.0791-.1064-.1387-.1445-.0625-.0381-.1299-.0635-.2012-.0781-.0703-.0146-.1514-.0225-.2412-.0225-.1377,0-.2852,.0254-.4404,.0742-.1553,.0498-.3018,.1191-.4395,.209h-.0225v-.4551c.1035-.0508,.2412-.0977,.4131-.1406,.1719-.042,.3389-.0635,.5-.0635,.1582,0,.2979,.0137,.418,.043,.1211,.0293,.2295,.0762,.3271,.1396,.1045,.0693,.1836,.1543,.2373,.2529s.0811,.2139,.0811,.3457c0,.1807-.0645,.3379-.1914,.4717-.127,.1348-.2764,.2188-.4492,.2539v.0303c.0693,.0117,.1494,.0361,.2393,.0732s.166,.083,.2285,.1387Z"/></g><g><path class="cls-3" d="M262.1816,138.5791c-.0869,.0215-.1729,.0371-.2578,.0469s-.1719,.0146-.2607,.0146c-.252,0-.4551-.0693-.6084-.208s-.2363-.3379-.249-.5957c-.0352,.0049-.0693,.0098-.1016,.0117-.0332,.002-.0645,.0029-.0947,.0029-.2285,0-.4355-.0381-.6221-.1133s-.3457-.1846-.4756-.3291c-.1309-.1436-.2314-.3203-.3018-.5293s-.1055-.4473-.1055-.7168c0-.2637,.0342-.501,.1045-.7109,.0693-.21,.1709-.3896,.3047-.5391,.1279-.1426,.2861-.251,.4756-.3262,.1895-.0762,.3965-.1133,.6201-.1133,.2324,0,.4404,.0381,.626,.1143s.3428,.1846,.4717,.3252c.1318,.1455,.2334,.3232,.3037,.5342,.0703,.21,.1055,.4492,.1055,.7158,0,.3965-.0811,.7305-.2422,1.0029-.1621,.2715-.3799,.4609-.6523,.5703,.0059,.165,.0449,.2939,.1172,.3857,.0723,.0908,.2051,.1367,.3965,.1367,.0596,0,.1299-.0088,.2119-.0273,.082-.0176,.1406-.0342,.1758-.0488h.0586v.3965Zm-.5137-2.416c0-.4209-.0947-.7451-.2832-.9746-.1885-.2285-.4463-.3428-.7734-.3428-.3301,0-.5889,.1143-.7764,.3428-.1885,.2295-.2822,.5537-.2822,.9746,0,.4258,.0957,.752,.2871,.9775,.1924,.2256,.4492,.3389,.7715,.3389s.5791-.1133,.7705-.3389c.1904-.2256,.2861-.5518,.2861-.9775Z"/><path class="cls-3" d="M264.9854,136.8711h-.4814v.9131h-.418v-.9131h-1.5527v-.501l1.5703-1.8291h.4004v1.9824h.4814v.3477Zm-.8994-.3477v-1.4639l-1.2568,1.4639h1.2568Z"/></g><line class="cls-8" x1="224.6382" y1="140.7519" x2="267.714" y2="140.7519"/><g><path class="cls-3" d="M227.1279,146.8115h-2.1953v-.4551c.1523-.1309,.3057-.2617,.459-.3926s.2959-.2607,.4277-.3896c.2783-.2705,.4697-.4844,.5732-.6436,.1025-.1592,.1543-.3311,.1543-.5156,0-.168-.0557-.2998-.167-.3945-.1104-.0957-.2656-.1436-.4648-.1436-.1318,0-.2754,.0234-.4287,.0703-.1543,.0459-.3047,.1172-.4512,.2129h-.0215v-.457c.1025-.0508,.2402-.0977,.4121-.1396,.1729-.042,.3389-.0625,.5-.0625,.333,0,.5938,.0801,.7822,.2402s.2832,.3779,.2832,.6523c0,.124-.0156,.2383-.0469,.3457-.0312,.1064-.0771,.208-.1387,.3037-.0566,.0898-.123,.1787-.1992,.2656s-.1689,.1836-.2773,.29c-.1553,.1523-.3164,.2998-.4814,.4434-.166,.1426-.3203,.2754-.4639,.3975h1.7441v.3721Z"/><path class="cls-3" d="M229.96,145.1885c0,.583-.0908,1.0098-.2734,1.2822s-.4648,.4082-.8486,.4082c-.3887,0-.6729-.1377-.8525-.4141-.1797-.2754-.2686-.6992-.2686-1.2715,0-.5771,.0898-1.0029,.2715-1.2783,.1816-.2744,.4648-.4121,.8496-.4121,.3896,0,.6738,.1396,.8535,.4189,.1787,.2793,.2686,.7021,.2686,1.2666Zm-.5732,.9893c.0508-.1182,.0859-.2559,.1035-.415,.0186-.1592,.0273-.3506,.0273-.5742,0-.2207-.0088-.4121-.0273-.5752-.0176-.1621-.0527-.2998-.1055-.4131-.0508-.1123-.1201-.1963-.208-.2529s-.2002-.085-.3389-.085c-.1357,0-.249,.0283-.3389,.085-.0889,.0566-.1592,.1426-.2119,.2568-.0498,.1074-.083,.248-.1016,.4209-.0176,.1729-.0273,.3623-.0273,.5684,0,.2266,.0088,.416,.0244,.5684s.0498,.2891,.1025,.4092c.0479,.1133,.1152,.2002,.2031,.2598s.2051,.0889,.3496,.0889c.1367,0,.25-.0283,.3398-.085s.1602-.1426,.209-.2568Z"/><path class="cls-3" d="M232.7998,146.8115h-2.1953v-.4551c.1523-.1309,.3057-.2617,.459-.3926s.2959-.2607,.4277-.3896c.2783-.2705,.4697-.4844,.5732-.6436,.1025-.1592,.1543-.3311,.1543-.5156,0-.168-.0557-.2998-.167-.3945-.1104-.0957-.2656-.1436-.4648-.1436-.1318,0-.2754,.0234-.4287,.0703-.1543,.0459-.3047,.1172-.4512,.2129h-.0215v-.457c.1025-.0508,.2402-.0977,.4121-.1396,.1729-.042,.3389-.0625,.5-.0625,.333,0,.5938,.0801,.7822,.2402s.2832,.3779,.2832,.6523c0,.124-.0156,.2383-.0469,.3457-.0312,.1064-.0771,.208-.1387,.3037-.0566,.0898-.123,.1787-.1992,.2656s-.1689,.1836-.2773,.29c-.1553,.1523-.3164,.2998-.4814,.4434-.166,.1426-.3203,.2754-.4639,.3975h1.7441v.3721Z"/><path class="cls-3" d="M235.4512,146.8115h-1.7559v-.3311h.6758v-2.1738h-.6758v-.2959c.0918,0,.1895-.0078,.2939-.0234s.1836-.0371,.2373-.0664c.0674-.0361,.1201-.082,.1582-.1387,.0381-.0557,.0605-.1309,.0664-.2246h.3379v2.9229h.6621v.3311Z"/></g></g><circle class="cls-4" cx="263.6326" cy="51.621" r="1.4276"/><circle class="cls-4" cx="112.7217" cy="120.9946" r="1.4276"/><circle class="cls-5" cx="263.6326" cy="69.1873" r="1.4276"/><circle class="cls-5" cx="104.5157" cy="109.2061" r="1.4276"/></svg>