<?xml version="1.0" encoding="UTF-8"?><svg id="Layer_1" xmlns="http://www.w3.org/2000/svg" viewBox="0 0 280 205.3148"><defs><style>.cls-1{fill:#a2a2a2;font-family:Verdana, Verdana;}.cls-1,.cls-2{font-size:5px;}.cls-3{stroke:#1256bb;}.cls-3,.cls-4{fill:none;stroke-miterlimit:10;}.cls-2{fill:#222;font-family:Montserrat-SemiBold, Montserrat;letter-spacing:.004em;}.cls-4{stroke:#a2a2a2;stroke-width:.5px;}</style></defs><text class="cls-2" transform="translate(8.1695 5.6503)"><tspan x="0" y="0">ПОТРЕБИТЕЛЬСКИЕ РАСХОДЫ</tspan></text><path class="cls-3" d="M8.6889,154.1436c5.8324,2.8304,6.8068-.9168,11.8695-1.106,6.3455,1.1046,4.7381-2.6791,9.1711-4.4684,4.2328-.8927,8.3065,2.5938,12.4019,1.1846,3.8337-1.9956,8.3543,1.5648,11.5943-2.6437,3.237-3.3112,5.5374,3.9544,8.971,1.9822,3.5006-2.4027,8.5619,2.3015,8.9225-.0664,1.8747-17.2956,2.066-34.8573,3.2138-52.2606,.4952-2.5567,.2292-18.0143,2.3003-16.9367,1.4251,1.1624,2.3473,3.117,3.4838,4.7058,3.3389,2.1622,7.6995,.0533,11.2476-.6798,2.8022,1.0217,3.3856,17.0866,5.1154,21.0885,.9625,1.8296,3.3625-.4632,4.7831-.4973,2.5455-.8982,3.2584,3.6066,4.3886,5.7565,1.3441,3.52,3.2062,6.4997,5.2656,9.2816,1.6858,2.553,3.7806,.0858,5.5665-.8948,1.7407-.9512,2.0197-.5867,2.4847,1.4421,.7681,3.3506,1.3392,6.7813,2.0102,10.1723,1.5175,5.8293,.2958,10.1206,6.0527,6.3658,1.1601-.556,2.2946-.3078,3.3426,.5002,2.4682,2.5864,5.4812,1.8344,8.372,2.035,2.5034,.2712,3.4229,14.3297,5.8935,12.2286,5.9217-15.3126,4.3926-18.7338,18.8886-18.8907,3.9836-.6184,3.5624-8.1794,5.5722-11.7827l.5764-.6689c2.8597-2.093,7.7802,10.2544,11.0312,11.065,5.2598,.9639,5.9644,2.0958,8.1624-5.081,.7833-1.5326,1.0731-4.4253,2.8132-4.3102,2.6183,.2792,5.4309-.2403,7.6534,2.0279,3.0874,2.9666,7.1487,3.0528,10.1119,6.3428,1.3931,1.4998,3.1349,1.7453,4.751,.8705,5.3256-3.0747,11.2233,2.2827,16.5401-.615,.9194-.3415,2.5116-1.5431,2.9611,.2224,1.7504,4.997,2.0097,10.7548,3.9621,15.6433,1.9308,3.051,4.1107-11.4032,5.0462-13.105,4.8146-7.5574,14.3504,1.4661,19.635-5.3183,.7725-.7829,1.6808-1.3391,2.6853-1.1356,7.96,.7702,8.3031,15.3621,15.0992,1.085"/><text class="cls-1" transform="translate(95.0737 173.499)"><tspan x="0" y="0">Май</tspan></text><text class="cls-1" transform="translate(116.1725 173.499)"><tspan x="0" y="0">Июн</tspan></text><text class="cls-1" transform="translate(137.6701 173.499)"><tspan x="0" y="0">Июл</tspan></text><text class="cls-1" transform="translate(160.2777 173.499)"><tspan x="0" y="0">Авг</tspan></text><text class="cls-1" transform="translate(9.6124 173.499)"><tspan x="0" y="0">Янв</tspan></text><text class="cls-1" transform="translate(30.8902 173.499)"><tspan x="0" y="0">Фев</tspan></text><text class="cls-1" transform="translate(52.2039 173.499)"><tspan x="0" y="0">Мар</tspan></text><text class="cls-1" transform="translate(73.9665 173.499)"><tspan x="0" y="0">Апр</tspan></text><text class="cls-1" transform="translate(263.3174 183.7139)"><tspan x="0" y="0">2021</tspan></text><text class="cls-1" transform="translate(181.2796 173.499)"><tspan x="0" y="0">Сен</tspan></text><text class="cls-1" transform="translate(202.8765 173.499)"><tspan x="0" y="0">Окт</tspan></text><text class="cls-1" transform="translate(224.1255 173.499)"><tspan x="0" y="0">Ноя</tspan></text><text class="cls-1" transform="translate(245.6438 173.499)"><tspan x="0" y="0">Дек</tspan></text><text class="cls-1" transform="translate(267.0877 174.0733)"><tspan x="0" y="0">Янв</tspan></text><line class="cls-4" x1="263.3173" y1="176.8492" x2="280.5486" y2="176.8492"/><line class="cls-4" x1="8.6543" y1="176.7728" x2="261.6196" y2="176.7728"/><text class="cls-1" transform="translate(8.2938 183.5654)"><tspan x="0" y="0">2020</tspan></text></svg>