<?xml version="1.0" encoding="UTF-8"?><svg id="Layer_1" xmlns="http://www.w3.org/2000/svg" viewBox="0 0 281.8275 145.4746"><defs><style>.cls-1{font-family:Montserrat-Bold, Montserrat;}.cls-1,.cls-2{font-size:6.107px;}.cls-1,.cls-3{fill:#7ec500;}.cls-4{fill:#a2a2a2;font-family:Verdana, Verdana;font-size:5px;}.cls-5{letter-spacing:-.012em;}.cls-2{fill:#222;font-family:Montserrat-Regular, Montserrat;}.cls-3,.cls-6{stroke:#fff;stroke-miterlimit:10;stroke-width:.5px;}.cls-7{letter-spacing:-.011em;}.cls-6{fill:#1256bb;}.cls-8{letter-spacing:.01em;}.cls-9{letter-spacing:-.011em;}.cls-10{letter-spacing:.02em;}.cls-11{letter-spacing:-.013em;}.cls-12{letter-spacing:-.053em;}.cls-13{letter-spacing:0em;}</style></defs><rect class="cls-6" x="141.1039" y="61.7518" width="28.1708" height="75"/><rect class="cls-6" x="169.2746" y="42.7518" width="28.1708" height="94"/><rect class="cls-6" x="197.4454" y="23.7518" width="28.1708" height="113"/><rect class="cls-6" x="225.6161" y="15.7518" width="28.1708" height="121"/><text class="cls-2" transform="translate(150.3769 57.9083)"><tspan class="cls-12" x="0" y="0">7</tspan><tspan x="3.2734" y="0">,5</tspan></text><text class="cls-2" transform="translate(178.9076 38.4922)"><tspan class="cls-9" x="0" y="0">9</tspan><tspan class="cls-11" x="3.6519" y="0">,</tspan><tspan x="4.8672" y="0">4</tspan></text><text class="cls-2" transform="translate(206.9259 20.0164)"><tspan x="0" y="0">11</tspan><tspan class="cls-8" x="4.4092" y="0">,</tspan><tspan x="5.7646" y="0">3</tspan></text><text class="cls-2" transform="translate(234.121 11.8513)"><tspan x="0" y="0">1</tspan><tspan class="cls-8" x="2.2046" y="0">2</tspan><tspan class="cls-5" x="5.7344" y="0">,</tspan><tspan x="6.9556" y="0">1</tspan></text><text class="cls-1" transform="translate(261.3866 5.1907)"><tspan x="0" y="0">1</tspan><tspan class="cls-8" x="2.394" y="0">2,</tspan><tspan class="cls-13" x="7.7192" y="0">8</tspan></text><rect class="cls-3" x="253.7869" y="8.7518" width="26.9494" height="128"/><text class="cls-4" transform="translate(121.653 143.9592)"><tspan x="0" y="0">2016</tspan></text><text class="cls-4" transform="translate(150.0046 143.9592)"><tspan x="0" y="0">2017</tspan></text><text class="cls-4" transform="translate(178.3554 143.9592)"><tspan x="0" y="0">2018</tspan></text><text class="cls-4" transform="translate(206.7069 143.9592)"><tspan x="0" y="0">2019</tspan></text><text class="cls-4" transform="translate(8.2487 143.9592)"><tspan x="0" y="0">2012</tspan></text><text class="cls-4" transform="translate(36.6 143.9592)"><tspan x="0" y="0">2013</tspan></text><text class="cls-4" transform="translate(64.9511 143.9592)"><tspan x="0" y="0">2014</tspan></text><text class="cls-4" transform="translate(93.3019 143.9592)"><tspan x="0" y="0">2015</tspan></text><text class="cls-4" transform="translate(235.0575 143.9592)"><tspan x="0" y="0">2020</tspan></text><text class="cls-4" transform="translate(263.4089 143.9592)"><tspan x="0" y="0">2021</tspan></text><rect class="cls-6" x="28.4208" y="84.7518" width="28.1708" height="52"/><rect class="cls-6" x=".25" y="90.7518" width="28.1708" height="46"/><rect class="cls-6" x="56.5916" y="81.7518" width="28.1708" height="55"/><rect class="cls-6" x="84.7624" y="77.7518" width="28.1708" height="59"/><rect class="cls-6" x="112.9331" y="74.7518" width="28.1708" height="62"/><text class="cls-2" transform="translate(37.7834 81.7517)"><tspan x="0" y="0">5</tspan><tspan class="cls-8" x="3.4565" y="0">,</tspan><tspan x="4.812" y="0">2</tspan></text><text class="cls-2" transform="translate(10.2338 87.9407)"><tspan class="cls-10" x="0" y="0">4</tspan><tspan class="cls-7" x="4.1587" y="0">,</tspan><tspan x="5.3862" y="0">6</tspan></text><text class="cls-2" transform="translate(65.5727 78.6429)"><tspan x="0" y="0">5,5</tspan></text><text class="cls-2" transform="translate(94.6125 74.7664)"><tspan x="0" y="0">5,9</tspan></text><text class="cls-2" transform="translate(121.716 71.6576)"><tspan class="cls-8" x="0" y="0">6,</tspan><tspan x="5.1357" y="0">2</tspan></text></svg>