<?xml version="1.0" encoding="UTF-8"?><svg id="Layer_1" xmlns="http://www.w3.org/2000/svg" viewBox="0 0 261.7348 120.2935"><defs><style>.cls-1,.cls-2{fill:#7ec500;}.cls-3{fill:#222;}.cls-4{fill:#a2a2a2;}.cls-2,.cls-5{stroke:#fff;stroke-miterlimit:10;stroke-width:.5px;}.cls-5{fill:#1256bb;}</style></defs><rect class="cls-5" x="130.7597" y="52.0019" width="26.3737" height="22.4581"/><rect class="cls-5" x="157.1335" y="35.1584" width="26.3737" height="39.3017"/><rect class="cls-5" x="183.5072" y="43.5802" width="26.3737" height="30.8799"/><rect class="cls-5" x="209.8809" y="74.4601" width="26.3737" height="37.8981"/><g><path class="cls-4" d="M140.3808,81.8867h-2.3037v-.4775c.1602-.1372,.3203-.2744,.4814-.4116,.1602-.1372,.3096-.2734,.4482-.4092,.293-.2832,.4932-.5083,.6016-.6753s.1621-.3472,.1621-.5405c0-.1768-.0586-.3149-.1748-.415-.1162-.0996-.2793-.1494-.4883-.1494-.1387,0-.2881,.0244-.4502,.0728-.1611,.0488-.3193,.1235-.4727,.2241h-.0234v-.48c.1084-.0532,.2529-.1021,.4336-.146,.1807-.0444,.3555-.0664,.5244-.0664,.3486,0,.6221,.084,.8203,.2524s.2979,.3965,.2979,.6846c0,.1294-.0166,.2505-.0498,.3623-.0322,.1118-.0811,.2183-.1445,.3188-.0596,.0947-.1299,.1875-.209,.2788-.0801,.0913-.1777,.1929-.292,.3042-.1631,.1597-.3311,.3149-.5049,.4648-.1738,.1504-.3359,.2891-.4873,.4175h1.8311v.3906Z"/><path class="cls-4" d="M143.3515,80.1841c0,.6108-.0957,1.0591-.2861,1.3447-.1914,.2861-.4883,.4287-.8906,.4287-.4082,0-.707-.1445-.8945-.4341-.1885-.2896-.2822-.7344-.2822-1.335,0-.605,.0947-1.0518,.2852-1.3403,.1904-.2891,.4883-.4336,.8916-.4336,.4082,0,.707,.147,.8945,.4404,.1885,.293,.2822,.7363,.2822,1.3291Zm-.6006,1.0376c.0527-.1235,.0889-.2686,.1084-.4355,.0186-.167,.0283-.3677,.0283-.6021,0-.2319-.0098-.4331-.0283-.6035-.0195-.1709-.0557-.3154-.1113-.4346-.0527-.1172-.126-.2056-.2178-.2651-.0918-.0591-.2109-.0889-.3555-.0889-.1436,0-.2617,.0298-.3555,.0889-.0938,.0596-.168,.1494-.2227,.27-.0518,.1128-.0869,.2598-.1064,.4409-.0186,.1816-.0283,.3804-.0283,.5967,0,.2378,.0078,.4365,.0254,.5967,.0166,.1597,.0518,.3032,.1074,.4297,.0498,.1187,.1211,.2095,.2129,.272,.0928,.0625,.2148,.0938,.3672,.0938,.1436,0,.2617-.0298,.3564-.0894s.168-.1494,.2197-.2695Z"/><path class="cls-4" d="M146.1386,81.8867h-1.8418v-.3477h.708v-2.2808h-.708v-.311c.0957,0,.1982-.0078,.3086-.0239,.1094-.0161,.1924-.0391,.249-.0698,.0703-.0381,.125-.0864,.165-.145,.041-.0586,.0645-.1377,.0703-.2363h.3545v3.0669h.6943v.3477Z"/><path class="cls-4" d="M149.3174,78.9932l-1.54,2.8936h-.4893l1.6387-3.0034h-1.9385v-.3999h2.3291v.5098Z"/></g><g><path class="cls-4" d="M166.6826,81.8867h-2.3037v-.4775c.1602-.1372,.3203-.2744,.4814-.4116,.1602-.1372,.3096-.2734,.4482-.4092,.293-.2832,.4932-.5083,.6016-.6753s.1621-.3472,.1621-.5405c0-.1768-.0586-.3149-.1748-.415-.1162-.0996-.2793-.1494-.4883-.1494-.1387,0-.2881,.0244-.4502,.0728-.1611,.0488-.3193,.1235-.4727,.2241h-.0234v-.48c.1084-.0532,.2529-.1021,.4336-.146,.1807-.0444,.3555-.0664,.5244-.0664,.3486,0,.6221,.084,.8203,.2524s.2979,.3965,.2979,.6846c0,.1294-.0166,.2505-.0498,.3623-.0322,.1118-.0811,.2183-.1445,.3188-.0596,.0947-.1299,.1875-.209,.2788-.0801,.0913-.1777,.1929-.292,.3042-.1631,.1597-.3311,.3149-.5049,.4648-.1738,.1504-.3359,.2891-.4873,.4175h1.8311v.3906Z"/><path class="cls-4" d="M169.6533,80.1841c0,.6108-.0957,1.0591-.2861,1.3447-.1914,.2861-.4883,.4287-.8906,.4287-.4082,0-.707-.1445-.8945-.4341-.1885-.2896-.2822-.7344-.2822-1.335,0-.605,.0947-1.0518,.2852-1.3403,.1904-.2891,.4883-.4336,.8916-.4336,.4082,0,.707,.147,.8945,.4404,.1885,.293,.2822,.7363,.2822,1.3291Zm-.6006,1.0376c.0527-.1235,.0889-.2686,.1084-.4355,.0186-.167,.0283-.3677,.0283-.6021,0-.2319-.0098-.4331-.0283-.6035-.0195-.1709-.0557-.3154-.1113-.4346-.0527-.1172-.126-.2056-.2178-.2651-.0918-.0591-.2109-.0889-.3555-.0889-.1436,0-.2617,.0298-.3555,.0889-.0938,.0596-.168,.1494-.2227,.27-.0518,.1128-.0869,.2598-.1064,.4409-.0186,.1816-.0283,.3804-.0283,.5967,0,.2378,.0078,.4365,.0254,.5967,.0166,.1597,.0518,.3032,.1074,.4297,.0498,.1187,.1211,.2095,.2129,.272,.0928,.0625,.2148,.0938,.3672,.0938,.1436,0,.2617-.0298,.3564-.0894s.168-.1494,.2197-.2695Z"/><path class="cls-4" d="M172.4404,81.8867h-1.8418v-.3477h.708v-2.2808h-.708v-.311c.0957,0,.1982-.0078,.3086-.0239,.1094-.0161,.1924-.0391,.249-.0698,.0703-.0381,.125-.0864,.165-.145,.041-.0586,.0645-.1377,.0703-.2363h.3545v3.0669h.6943v.3477Z"/><path class="cls-4" d="M175.6357,80.938c0,.2944-.1152,.5391-.3438,.7339-.2295,.1948-.5186,.2925-.8652,.2925-.3691,0-.6631-.0952-.8818-.2856s-.3271-.4341-.3271-.7314c0-.189,.0547-.3599,.1641-.5132,.1094-.1528,.2646-.2744,.4639-.3643v-.0142c-.1826-.0972-.3184-.2041-.4053-.3198-.0879-.1157-.1318-.2607-.1318-.4341,0-.2563,.1055-.4692,.3154-.6401,.21-.1704,.4775-.2559,.8027-.2559,.3398,0,.6104,.0815,.8135,.2446,.2021,.1631,.3037,.3701,.3037,.6216,0,.1538-.0479,.3052-.1436,.4536-.0967,.1484-.2373,.2646-.4229,.3486v.0137c.2129,.0913,.376,.2041,.4893,.3384,.1123,.1338,.1689,.3047,.1689,.5117Zm-.4707,.0435c0-.1401-.0312-.2524-.0928-.3369s-.1826-.1694-.3623-.2549c-.0713-.0337-.1504-.0649-.2354-.0938-.0859-.0288-.1992-.0693-.3408-.1211-.1367,.0747-.2471,.1758-.3301,.3037-.083,.1284-.125,.2729-.125,.4346,0,.2056,.0713,.3755,.2129,.5098,.1416,.1338,.3213,.2012,.5391,.2012,.2227,0,.4004-.0571,.5342-.1714,.1328-.1143,.2002-.2715,.2002-.4712Zm-.0713-1.7051c0-.1631-.0625-.293-.1885-.3896s-.2861-.145-.4814-.145c-.1914,0-.3486,.0459-.4717,.1372s-.1836,.2148-.1836,.3701c0,.1099,.0303,.2046,.0918,.2847,.0625,.0801,.1553,.1514,.2803,.2139,.0566,.0273,.1377,.063,.2432,.1074,.1064,.0439,.21,.0806,.3105,.1094,.1504-.1006,.2549-.2046,.3125-.313s.0869-.2334,.0869-.375Z"/></g><g><path class="cls-4" d="M192.9843,81.8867h-2.3037v-.4775c.1602-.1372,.3203-.2744,.4814-.4116,.1602-.1372,.3096-.2734,.4482-.4092,.293-.2832,.4932-.5083,.6016-.6753s.1621-.3472,.1621-.5405c0-.1768-.0586-.3149-.1748-.415-.1162-.0996-.2793-.1494-.4883-.1494-.1387,0-.2881,.0244-.4502,.0728-.1611,.0488-.3193,.1235-.4727,.2241h-.0234v-.48c.1084-.0532,.2529-.1021,.4336-.146,.1807-.0444,.3555-.0664,.5244-.0664,.3486,0,.6221,.084,.8203,.2524s.2979,.3965,.2979,.6846c0,.1294-.0166,.2505-.0498,.3623-.0322,.1118-.0811,.2183-.1445,.3188-.0596,.0947-.1299,.1875-.209,.2788-.0801,.0913-.1777,.1929-.292,.3042-.1631,.1597-.3311,.3149-.5049,.4648-.1738,.1504-.3359,.2891-.4873,.4175h1.8311v.3906Z"/><path class="cls-4" d="M195.9551,80.1841c0,.6108-.0957,1.0591-.2861,1.3447-.1914,.2861-.4883,.4287-.8906,.4287-.4082,0-.707-.1445-.8945-.4341-.1885-.2896-.2822-.7344-.2822-1.335,0-.605,.0947-1.0518,.2852-1.3403,.1904-.2891,.4883-.4336,.8916-.4336,.4082,0,.707,.147,.8945,.4404,.1885,.293,.2822,.7363,.2822,1.3291Zm-.6006,1.0376c.0527-.1235,.0889-.2686,.1084-.4355,.0186-.167,.0283-.3677,.0283-.6021,0-.2319-.0098-.4331-.0283-.6035-.0195-.1709-.0557-.3154-.1113-.4346-.0527-.1172-.126-.2056-.2178-.2651-.0918-.0591-.2109-.0889-.3555-.0889-.1436,0-.2617,.0298-.3555,.0889-.0938,.0596-.168,.1494-.2227,.27-.0518,.1128-.0869,.2598-.1064,.4409-.0186,.1816-.0283,.3804-.0283,.5967,0,.2378,.0078,.4365,.0254,.5967,.0166,.1597,.0518,.3032,.1074,.4297,.0498,.1187,.1211,.2095,.2129,.272,.0928,.0625,.2148,.0938,.3672,.0938,.1436,0,.2617-.0298,.3564-.0894s.168-.1494,.2197-.2695Z"/><path class="cls-4" d="M198.7422,81.8867h-1.8418v-.3477h.708v-2.2808h-.708v-.311c.0957,0,.1982-.0078,.3086-.0239,.1094-.0161,.1924-.0391,.249-.0698,.0703-.0381,.125-.0864,.165-.145,.041-.0586,.0645-.1377,.0703-.2363h.3545v3.0669h.6943v.3477Z"/><path class="cls-4" d="M201.9072,79.9805c0,.2974-.0332,.5669-.1016,.8091-.0674,.2422-.1699,.4487-.3076,.6196-.1387,.1733-.3115,.3076-.5205,.4023-.209,.0942-.4541,.1416-.7363,.1416-.0791,0-.1533-.0044-.2236-.0127s-.1328-.0215-.1875-.04v-.4365h.0225c.0439,.0229,.1064,.0444,.1875,.0649,.0811,.021,.1709,.0312,.2695,.0312,.3369,0,.6016-.1011,.792-.3032,.1914-.2017,.3027-.48,.333-.8354-.1416,.0854-.2754,.1465-.4004,.1831s-.2607,.0547-.4092,.0547c-.1396,0-.2666-.0137-.3799-.041-.1143-.0273-.2275-.0806-.3418-.1602-.1348-.0928-.2354-.2109-.3027-.354-.0684-.1436-.1025-.3149-.1025-.5142,0-.3477,.1152-.6304,.3438-.8481s.5068-.3271,.8359-.3271c.165,0,.3174,.0259,.457,.0767,.1406,.0513,.2627,.1279,.3682,.23,.1299,.1265,.2295,.2891,.2998,.4878,.0693,.1987,.1045,.4561,.1045,.7715Zm-.4609-.0981c0-.2363-.0244-.4258-.0732-.5693-.0488-.1431-.1162-.2544-.2012-.3335-.0723-.0688-.1484-.1177-.2314-.1475-.082-.0298-.1709-.0444-.2666-.0444-.2197,0-.3936,.0684-.5205,.2056s-.1904,.3296-.1904,.5781c0,.145,.0205,.2627,.0615,.3545,.041,.0913,.1104,.1714,.208,.2397,.0684,.0474,.1436,.0791,.2256,.0947,.083,.0161,.1738,.0244,.2744,.0244,.1191,0,.2393-.0161,.3613-.0483,.1221-.0317,.2363-.0781,.3428-.1392,.002-.0322,.0039-.064,.0059-.0952,.002-.0308,.0039-.0708,.0039-.1196Z"/></g><g><path class="cls-4" d="M61.4736,81.8867h-2.3037v-.4775c.1602-.1372,.3203-.2744,.4814-.4116,.1602-.1372,.3096-.2734,.4482-.4092,.293-.2832,.4932-.5083,.6016-.6753s.1621-.3472,.1621-.5405c0-.1768-.0586-.3149-.1748-.415-.1162-.0996-.2793-.1494-.4883-.1494-.1387,0-.2881,.0244-.4502,.0728-.1611,.0488-.3193,.1235-.4727,.2241h-.0234v-.48c.1084-.0532,.2529-.1021,.4336-.146,.1807-.0444,.3555-.0664,.5244-.0664,.3486,0,.6221,.084,.8203,.2524s.2979,.3965,.2979,.6846c0,.1294-.0166,.2505-.0498,.3623-.0322,.1118-.0811,.2183-.1445,.3188-.0596,.0947-.1299,.1875-.209,.2788-.0801,.0913-.1777,.1929-.292,.3042-.1631,.1597-.3311,.3149-.5049,.4648-.1738,.1504-.3359,.2891-.4873,.4175h1.8311v.3906Z"/><path class="cls-4" d="M64.4443,80.1841c0,.6108-.0957,1.0591-.2861,1.3447-.1914,.2861-.4883,.4287-.8906,.4287-.4082,0-.707-.1445-.8945-.4341-.1885-.2896-.2822-.7344-.2822-1.335,0-.605,.0947-1.0518,.2852-1.3403,.1904-.2891,.4883-.4336,.8916-.4336,.4082,0,.707,.147,.8945,.4404,.1885,.293,.2822,.7363,.2822,1.3291Zm-.6006,1.0376c.0527-.1235,.0889-.2686,.1084-.4355,.0186-.167,.0283-.3677,.0283-.6021,0-.2319-.0098-.4331-.0283-.6035-.0195-.1709-.0557-.3154-.1113-.4346-.0527-.1172-.126-.2056-.2178-.2651-.0918-.0591-.2109-.0889-.3555-.0889-.1436,0-.2617,.0298-.3555,.0889-.0938,.0596-.168,.1494-.2227,.27-.0518,.1128-.0869,.2598-.1064,.4409-.0186,.1816-.0283,.3804-.0283,.5967,0,.2378,.0078,.4365,.0254,.5967,.0166,.1597,.0518,.3032,.1074,.4297,.0498,.1187,.1211,.2095,.2129,.272,.0928,.0625,.2148,.0938,.3672,.0938,.1436,0,.2617-.0298,.3564-.0894s.168-.1494,.2197-.2695Z"/><path class="cls-4" d="M67.2314,81.8867h-1.8418v-.3477h.708v-2.2808h-.708v-.311c.0957,0,.1982-.0078,.3086-.0239,.1094-.0161,.1924-.0391,.249-.0698,.0703-.0381,.125-.0864,.165-.145,.041-.0586,.0645-.1377,.0703-.2363h.3545v3.0669h.6943v.3477Z"/><path class="cls-4" d="M70.4795,80.9292h-.5059v.9575h-.4385v-.9575h-1.6299v-.5259l1.6484-1.9199h.4199v2.0801h.5059v.3657Zm-.9443-.3657v-1.5361l-1.3184,1.5361h1.3184Z"/></g><g><path class="cls-4" d="M88.5605,81.5938v.293h-2.2451v-.2334l1.3311-1.3032c.167-.165,.2812-.3076,.3408-.4277,.0586-.1206,.0889-.2417,.0889-.3638,0-.189-.0645-.3364-.1943-.4414s-.3154-.1577-.5557-.1577c-.375,0-.667,.1187-.874,.3569l-.2334-.2017c.125-.146,.2842-.2588,.4785-.3384,.1934-.0791,.4121-.1187,.6562-.1187,.3262,0,.585,.0767,.7754,.231,.1904,.1538,.2852,.3652,.2852,.6333,0,.1646-.0361,.3232-.1094,.4756-.0732,.1528-.2119,.3281-.416,.5264l-1.0889,1.0698h1.7607Z"/><path class="cls-4" d="M89.5703,81.7173c-.1943-.1309-.3447-.3193-.4531-.5645-.1084-.2456-.1621-.5347-.1621-.8672,0-.332,.0537-.6211,.1621-.8667,.1084-.2451,.2588-.4336,.4531-.5649,.1934-.1309,.4131-.1963,.6602-.1963s.4678,.0654,.6611,.1963c.1934,.1313,.3457,.3198,.4551,.5649,.1104,.2456,.165,.5347,.165,.8667,0,.3325-.0547,.6216-.165,.8672-.1094,.2451-.2617,.4336-.4551,.5645-.1934,.1313-.4141,.1968-.6611,.1968s-.4668-.0654-.6602-.1968Zm1.1523-.2607c.1416-.1035,.252-.2544,.3311-.4526,.0801-.1982,.1191-.4375,.1191-.7183,0-.2803-.0391-.5195-.1191-.7178-.0791-.1982-.1895-.3491-.3311-.4531-.1416-.1035-.3057-.1553-.4922-.1553-.1855,0-.3496,.0518-.4912,.1553-.1416,.104-.2529,.2549-.332,.4531s-.1191,.4375-.1191,.7178c0,.2808,.04,.52,.1191,.7183s.1904,.3491,.332,.4526c.1416,.104,.3057,.1558,.4912,.1558,.1865,0,.3506-.0518,.4922-.1558Z"/><path class="cls-4" d="M92.8603,78.6851v3.2017h-.3291v-2.9092h-.7549v-.2925h1.084Z"/><path class="cls-4" d="M95.4795,80.2471c.2119,.166,.3174,.3984,.3174,.6973,0,.186-.043,.3525-.1299,.4985-.0869,.1465-.2178,.2617-.3916,.3457-.1738,.0835-.3867,.1255-.6396,.1255-.2295,0-.4463-.0371-.6523-.1118s-.3711-.1748-.4961-.2998l.1602-.2607c.1064,.1099,.2471,.1992,.4209,.2676,.1738,.0688,.3613,.103,.5625,.103,.2656,0,.4707-.0596,.6152-.1782,.1445-.1191,.2168-.2778,.2168-.4761,0-.2192-.0811-.3857-.2441-.4985s-.4385-.1689-.8262-.1689h-.6807l.1641-1.6055h1.752v.2925h-1.4639l-.1094,1.02h.4111c.4639,0,.8018,.083,1.0137,.2495Z"/></g><g><path class="cls-4" d="M114.0781,81.8867h-2.3037v-.4775c.1602-.1372,.3203-.2744,.4814-.4116,.1602-.1372,.3096-.2734,.4482-.4092,.293-.2832,.4932-.5083,.6016-.6753s.1621-.3472,.1621-.5405c0-.1768-.0586-.3149-.1748-.415-.1162-.0996-.2793-.1494-.4883-.1494-.1387,0-.2881,.0244-.4502,.0728-.1611,.0488-.3193,.1235-.4727,.2241h-.0234v-.48c.1084-.0532,.2529-.1021,.4336-.146,.1807-.0444,.3555-.0664,.5244-.0664,.3486,0,.6221,.084,.8203,.2524s.2979,.3965,.2979,.6846c0,.1294-.0166,.2505-.0498,.3623-.0322,.1118-.0811,.2183-.1445,.3188-.0596,.0947-.1299,.1875-.209,.2788-.0801,.0913-.1777,.1929-.292,.3042-.1631,.1597-.3311,.3149-.5049,.4648-.1738,.1504-.3359,.2891-.4873,.4175h1.8311v.3906Z"/><path class="cls-4" d="M117.0488,80.1841c0,.6108-.0957,1.0591-.2861,1.3447-.1914,.2861-.4883,.4287-.8906,.4287-.4082,0-.707-.1445-.8945-.4341-.1885-.2896-.2822-.7344-.2822-1.335,0-.605,.0947-1.0518,.2852-1.3403,.1904-.2891,.4883-.4336,.8916-.4336,.4082,0,.707,.147,.8945,.4404,.1885,.293,.2822,.7363,.2822,1.3291Zm-.6006,1.0376c.0527-.1235,.0889-.2686,.1084-.4355,.0186-.167,.0283-.3677,.0283-.6021,0-.2319-.0098-.4331-.0283-.6035-.0195-.1709-.0557-.3154-.1113-.4346-.0527-.1172-.126-.2056-.2178-.2651-.0918-.0591-.2109-.0889-.3555-.0889-.1436,0-.2617,.0298-.3555,.0889-.0938,.0596-.168,.1494-.2227,.27-.0518,.1128-.0869,.2598-.1064,.4409-.0186,.1816-.0283,.3804-.0283,.5967,0,.2378,.0078,.4365,.0254,.5967,.0166,.1597,.0518,.3032,.1074,.4297,.0498,.1187,.1211,.2095,.2129,.272,.0928,.0625,.2148,.0938,.3672,.0938,.1436,0,.2617-.0298,.3564-.0894s.168-.1494,.2197-.2695Z"/><path class="cls-4" d="M119.8359,81.8867h-1.8418v-.3477h.708v-2.2808h-.708v-.311c.0957,0,.1982-.0078,.3086-.0239,.1094-.0161,.1924-.0391,.249-.0698,.0703-.0381,.125-.0864,.165-.145,.041-.0586,.0645-.1377,.0703-.2363h.3545v3.0669h.6943v.3477Z"/><path class="cls-4" d="M123.0566,80.7827c0,.3462-.1143,.6284-.3418,.8467-.2285,.2188-.5078,.3281-.8379,.3281-.168,0-.3203-.0259-.457-.0776-.1377-.0518-.2588-.1289-.3633-.231-.1318-.1265-.2324-.2939-.3037-.5029-.0703-.2085-.1055-.46-.1055-.7539,0-.3018,.0322-.5693,.0967-.8022,.0645-.2334,.168-.4404,.3096-.6221,.1348-.1719,.3076-.3066,.5195-.4033,.2109-.0967,.458-.145,.7402-.145,.0898,0,.165,.0039,.2266,.0112,.0605,.0078,.1221,.0215,.1846,.0415v.4365h-.0225c-.043-.0229-.1074-.0449-.1934-.0654s-.1738-.0308-.2637-.0308c-.3281,0-.5889,.1025-.7842,.3076-.1953,.2046-.3086,.4819-.3408,.8306,.1279-.0776,.2539-.1367,.3779-.1772,.125-.04,.2686-.0605,.4316-.0605,.1445,0,.2725,.0137,.3828,.04,.1104,.0269,.2236,.0806,.3389,.1611,.1348,.0933,.2354,.2104,.3027,.3521,.0684,.1416,.1025,.314,.1025,.5166Zm-.4648,.0186c0-.1421-.0205-.2593-.0625-.3521-.042-.0933-.1104-.1738-.207-.2427-.0703-.0483-.1475-.0806-.2324-.0957-.0859-.0151-.1748-.0229-.2676-.0229-.1299,0-.25,.0151-.3613,.0459-.1113,.0303-.2256,.0776-.3428,.1416-.0029,.0337-.0059,.0659-.0068,.0972-.002,.0312-.0029,.0703-.0029,.1177,0,.2407,.0254,.4307,.0752,.5703,.0488,.1392,.1172,.2495,.2041,.3301,.0703,.0674,.1455,.1162,.2275,.1475,.0811,.0312,.1699,.0469,.2666,.0469,.2207,0,.3945-.0674,.5205-.2021,.127-.1348,.1895-.3286,.1895-.5815Z"/></g><g><path class="cls-3" d="M142.1924,44.3906v4.002h-.4111v-3.6362h-.9434v-.3657h1.3545Z"/><path class="cls-3" d="M143.6787,47.8867c.0566,.0591,.0859,.1323,.0859,.2202,0,.0454-.0068,.0952-.0205,.1484-.0127,.0532-.0332,.1143-.0596,.1831l-.2402,.7891h-.2744l.1943-.8291c-.0615-.019-.1104-.0547-.1484-.106s-.0576-.1133-.0576-.1855c0-.0879,.0283-.1611,.0859-.2202s.1299-.0889,.2168-.0889c.0879,0,.1602,.0298,.2178,.0889Z"/><path class="cls-3" d="M146.6543,46.1455c.2041,.0991,.3633,.2393,.4775,.4204s.1719,.3916,.1719,.6318c0,.2437-.0596,.4595-.1777,.646s-.2803,.3306-.4883,.4316-.4414,.1514-.7002,.1514c-.5303,0-.9365-.1743-1.2178-.5229-.2822-.3486-.4238-.8413-.4238-1.478,0-.4458,.0762-.8232,.2295-1.1318,.1523-.3091,.3652-.5425,.6396-.7007s.5947-.2373,.9609-.2373c.3965,0,.7129,.0728,.9492,.2173l-.166,.3315c-.1904-.1255-.4502-.1885-.7773-.1885-.4424,0-.7891,.1401-1.041,.4204-.251,.2798-.377,.687-.377,1.2202,0,.0957,.0059,.2041,.0166,.3262,.0996-.2173,.2578-.3857,.4746-.5059,.2178-.1201,.4668-.1802,.749-.1802,.2637,0,.4971,.0493,.7002,.1484Zm-.0283,1.6953c.1816-.1582,.2715-.3687,.2715-.6318,0-.2627-.0898-.4727-.2715-.6289-.1807-.1562-.4258-.2344-.7344-.2344-.2021,0-.3799,.0381-.5352,.1143-.1543,.0767-.2754,.1812-.3623,.3145-.0879,.1338-.1318,.2822-.1318,.4463,0,.1523,.041,.2935,.123,.4229,.082,.1299,.2031,.2344,.3633,.3145s.3506,.1201,.5713,.1201c.29,0,.5254-.0791,.7061-.2373Z"/></g><g><path class="cls-3" d="M169.2402,31.7222v.3657h-2.8076v-.2915l1.6641-1.6294c.21-.2061,.3516-.3843,.4258-.5347s.1113-.3022,.1113-.4546c0-.2363-.0811-.4204-.2422-.5518-.1621-.1313-.3945-.1973-.6953-.1973-.4688,0-.833,.1489-1.0918,.4458l-.292-.2515c.1562-.1831,.3555-.3237,.5977-.4229s.5156-.1489,.8203-.1489c.4082,0,.7314,.0962,.9697,.2891,.2383,.1924,.3574,.4561,.3574,.7915,0,.2061-.0459,.4043-.1377,.5947-.0918,.1909-.2646,.4097-.5205,.6577l-1.3604,1.3379h2.2012Z"/><path class="cls-3" d="M170.3437,31.582c.0566,.0591,.0859,.1323,.0859,.2202,0,.0454-.0068,.0952-.0205,.1484-.0127,.0532-.0332,.1143-.0596,.1831l-.2402,.7891h-.2744l.1943-.8291c-.0615-.019-.1104-.0547-.1484-.106s-.0576-.1133-.0576-.1855c0-.0879,.0283-.1611,.0859-.2202s.1299-.0889,.2168-.0889c.0879,0,.1602,.0298,.2178,.0889Z"/><path class="cls-3" d="M173.9541,30.3672c.1357,.1675,.2031,.3696,.2031,.606,0,.2324-.0625,.4355-.1885,.6089s-.3057,.3066-.54,.3999c-.2344,.0938-.5098,.1401-.8262,.1401-.4805,0-.8574-.103-1.1318-.3086-.2744-.2061-.4121-.4858-.4121-.8403,0-.2402,.0654-.4434,.1973-.6089,.1318-.166,.3232-.291,.5742-.3745-.2051-.0801-.3613-.1953-.4688-.3462-.1064-.1504-.1602-.3286-.1602-.5347,0-.3237,.127-.5811,.3809-.7715,.2529-.1909,.5938-.2861,1.0205-.2861,.2822,0,.5283,.043,.7402,.1289,.2119,.0854,.376,.2085,.4941,.3687s.1777,.3467,.1777,.5601c0,.2061-.0557,.3843-.166,.5347-.1104,.1509-.2686,.2661-.4746,.3462,.252,.0835,.4453,.2095,.5801,.3774Zm-.5195,1.189c.2002-.145,.2998-.3408,.2998-.5889,0-.2476-.0996-.4429-.2998-.5859s-.4775-.2144-.832-.2144c-.3506,0-.626,.0713-.8262,.2144s-.3008,.3384-.3008,.5859c0,.2515,.0996,.4487,.2979,.5918s.4746,.2144,.8291,.2144,.6318-.0723,.832-.2173Zm-1.5586-1.9097c.1758,.1299,.418,.1943,.7266,.1943s.5518-.0645,.7285-.1943c.1777-.1294,.2656-.3027,.2656-.52,0-.2251-.0898-.4023-.2715-.5317-.1807-.1299-.4219-.1943-.7227-.1943-.3057,0-.5459,.0645-.7236,.1943-.1768,.1294-.2656,.3047-.2656,.5259s.0879,.3965,.2627,.5259Z"/></g><g><path class="cls-3" d="M195.8144,37.8301v.3657h-2.8076v-.2915l1.6641-1.6294c.21-.2061,.3516-.3843,.4258-.5347s.1113-.3022,.1113-.4546c0-.2363-.0811-.4204-.2422-.5518-.1621-.1313-.3945-.1973-.6953-.1973-.4688,0-.833,.1489-1.0918,.4458l-.292-.2515c.1562-.1831,.3555-.3237,.5977-.4229s.5156-.1489,.8203-.1489c.4082,0,.7314,.0962,.9697,.2891,.2383,.1924,.3574,.4561,.3574,.7915,0,.2061-.0459,.4043-.1377,.5947-.0918,.1909-.2646,.4097-.5205,.6577l-1.3604,1.3379h2.2012Z"/><path class="cls-3" d="M196.9179,37.6899c.0566,.0591,.0859,.1323,.0859,.2202,0,.0454-.0068,.0952-.0205,.1484-.0127,.0532-.0332,.1143-.0596,.1831l-.2402,.7891h-.2744l.1943-.8291c-.0615-.019-.1104-.0547-.1484-.106s-.0576-.1133-.0576-.1855c0-.0879,.0283-.1611,.0859-.2202s.1299-.0889,.2168-.0889c.0879,0,.1602,.0298,.2178,.0889Z"/><path class="cls-3" d="M200.3886,37.8301v.3657h-2.8076v-.2915l1.6641-1.6294c.21-.2061,.3516-.3843,.4258-.5347s.1113-.3022,.1113-.4546c0-.2363-.0811-.4204-.2422-.5518-.1621-.1313-.3945-.1973-.6953-.1973-.4688,0-.833,.1489-1.0918,.4458l-.292-.2515c.1562-.1831,.3555-.3237,.5977-.4229s.5156-.1489,.8203-.1489c.4082,0,.7314,.0962,.9697,.2891,.2383,.1924,.3574,.4561,.3574,.7915,0,.2061-.0459,.4043-.1377,.5947-.0918,.1909-.2646,.4097-.5205,.6577l-1.3604,1.3379h2.2012Z"/></g><g><path class="cls-3" d="M217.9502,116.6284h2.4873v.3374h-2.4873v-.3374Z"/><path class="cls-3" d="M223.7988,118.4297v.3657h-2.8076v-.2915l1.6641-1.6294c.21-.2061,.3516-.3843,.4258-.5347s.1113-.3022,.1113-.4546c0-.2363-.0811-.4204-.2422-.5518-.1621-.1313-.3945-.1973-.6953-.1973-.4688,0-.833,.1489-1.0918,.4458l-.292-.2515c.1562-.1831,.3555-.3237,.5977-.4229s.5156-.1489,.8203-.1489c.4082,0,.7314,.0962,.9697,.2891,.2383,.1924,.3574,.4561,.3574,.7915,0,.2061-.0459,.4043-.1377,.5947-.0918,.1909-.2646,.4097-.5205,.6577l-1.3604,1.3379h2.2012Z"/><path class="cls-3" d="M224.9023,118.2896c.0566,.0591,.0859,.1323,.0859,.2202,0,.0454-.0068,.0952-.0205,.1484-.0127,.0532-.0332,.1143-.0596,.1831l-.2402,.7891h-.2744l.1943-.8291c-.0615-.019-.1104-.0547-.1484-.106s-.0576-.1133-.0576-.1855c0-.0879,.0283-.1611,.0859-.2202s.1299-.0889,.2168-.0889c.0879,0,.1602,.0298,.2178,.0889Z"/><path class="cls-3" d="M228.3388,114.7935v.2915l-1.6758,3.7104h-.4453l1.6465-3.6362h-2.0586v.749h-.4062v-1.1147h2.9395Z"/></g><g><path class="cls-4" d="M246.3115,81.5869v.2998h-2.2979v-.2388l1.3623-1.334c.1719-.1685,.2881-.3145,.3486-.438,.0605-.123,.0908-.2471,.0908-.3721,0-.1934-.0664-.3438-.1982-.4517-.1328-.1074-.3223-.1616-.5693-.1616-.3838,0-.6816,.1221-.8936,.3652l-.2393-.2061c.1279-.1494,.291-.2651,.4893-.3462s.4219-.1216,.6719-.1216c.334,0,.5986,.0786,.7939,.2363,.1943,.1577,.292,.3735,.292,.6484,0,.1685-.0371,.3306-.1123,.4868-.0752,.1558-.2168,.3354-.4258,.5381l-1.1143,1.0952h1.8018Z"/><path class="cls-4" d="M247.3437,81.7134c-.1982-.1338-.3525-.3267-.4639-.5781-.1104-.251-.166-.5469-.166-.8867,0-.3403,.0557-.6362,.166-.8872,.1113-.251,.2656-.4438,.4639-.5781s.4238-.2012,.6768-.2012c.252,0,.4775,.0669,.6758,.2012s.3535,.3271,.4658,.5781,.1689,.5469,.1689,.8872c0,.3398-.0566,.6357-.1689,.8867-.1123,.2515-.2676,.4443-.4658,.5781-.1982,.1343-.4238,.2017-.6758,.2017-.2529,0-.4785-.0674-.6768-.2017Zm1.1797-.2666c.1445-.106,.2578-.2607,.3389-.4634,.0811-.2031,.1221-.4478,.1221-.7349s-.041-.5322-.1221-.7349c-.0811-.2031-.1943-.3574-.3389-.4639-.1455-.106-.3135-.1592-.5029-.1592-.1904,0-.3584,.0532-.5039,.1592-.1445,.1064-.2578,.2607-.3389,.4639-.0811,.2026-.1221,.4478-.1221,.7349s.041,.5317,.1221,.7349c.0811,.2026,.1943,.3574,.3389,.4634,.1455,.106,.3135,.1592,.5039,.1592,.1895,0,.3574-.0532,.5029-.1592Z"/><path class="cls-4" d="M252.041,81.5869v.2998h-2.2979v-.2388l1.3623-1.334c.1719-.1685,.2881-.3145,.3486-.438,.0605-.123,.0908-.2471,.0908-.3721,0-.1934-.0664-.3438-.1982-.4517-.1328-.1074-.3223-.1616-.5693-.1616-.3838,0-.6816,.1221-.8936,.3652l-.2393-.2061c.1279-.1494,.291-.2651,.4893-.3462s.4219-.1216,.6719-.1216c.334,0,.5986,.0786,.7939,.2363,.1943,.1577,.292,.3735,.292,.6484,0,.1685-.0371,.3306-.1123,.4868-.0752,.1558-.2168,.3354-.4258,.5381l-1.1143,1.0952h1.8018Z"/><path class="cls-4" d="M253.3711,78.6099v3.2769h-.3369v-2.9771h-.7725v-.2998h1.1094Z"/></g><rect class="cls-2" x="236.2546" y="8.4893" width="25.2302" height="65.9707"/><g><path class="cls-1" d="M248.2558,4.0195h-.6514v.8403h-.9033v-.8403h-2.1562v-.6235l1.8877-2.5381h.9717l-1.75,2.4067h1.0752v-.749h.875v.749h.6514v.7549Z"/><path class="cls-1" d="M249.5713,3.9478c.1025,.1011,.1543,.2339,.1543,.3975,0,.0762-.0098,.1523-.0283,.229-.0195,.0762-.0615,.1904-.126,.3428l-.3262,.8232h-.5664l.252-.9092c-.0957-.0376-.1709-.0996-.2256-.1855-.0557-.0859-.083-.186-.083-.3003,0-.1636,.0527-.2964,.1572-.3975,.1045-.1006,.2373-.1514,.3975-.1514s.291,.0508,.3945,.1514Z"/><path class="cls-1" d="M253.1845,.8579v.6001l-1.4873,3.4019h-1.0059l1.4355-3.2476h-1.3271v.6519h-.8232V.8579h3.208Z"/></g><g><path class="cls-4" d="M35.1718,81.8867h-2.3037v-.4775c.1602-.1372,.3203-.2744,.4814-.4116,.1602-.1372,.3096-.2734,.4482-.4092,.293-.2832,.4932-.5083,.6016-.6753s.1621-.3472,.1621-.5405c0-.1768-.0586-.3149-.1748-.415-.1162-.0996-.2793-.1494-.4883-.1494-.1387,0-.2881,.0244-.4502,.0728-.1611,.0488-.3193,.1235-.4727,.2241h-.0234v-.48c.1084-.0532,.2529-.1021,.4336-.146,.1807-.0444,.3555-.0664,.5244-.0664,.3486,0,.6221,.084,.8203,.2524s.2979,.3965,.2979,.6846c0,.1294-.0166,.2505-.0498,.3623-.0322,.1118-.0811,.2183-.1445,.3188-.0596,.0947-.1299,.1875-.209,.2788-.0801,.0913-.1777,.1929-.292,.3042-.1631,.1597-.3311,.3149-.5049,.4648-.1738,.1504-.3359,.2891-.4873,.4175h1.8311v.3906Z"/><path class="cls-4" d="M38.1426,80.1841c0,.6108-.0957,1.0591-.2861,1.3447-.1914,.2861-.4883,.4287-.8906,.4287-.4082,0-.707-.1445-.8945-.4341-.1885-.2896-.2822-.7344-.2822-1.335,0-.605,.0947-1.0518,.2852-1.3403,.1904-.2891,.4883-.4336,.8916-.4336,.4082,0,.707,.147,.8945,.4404,.1885,.293,.2822,.7363,.2822,1.3291Zm-.6006,1.0376c.0527-.1235,.0889-.2686,.1084-.4355,.0186-.167,.0283-.3677,.0283-.6021,0-.2319-.0098-.4331-.0283-.6035-.0195-.1709-.0557-.3154-.1113-.4346-.0527-.1172-.126-.2056-.2178-.2651-.0918-.0591-.2109-.0889-.3555-.0889-.1436,0-.2617,.0298-.3555,.0889-.0938,.0596-.168,.1494-.2227,.27-.0518,.1128-.0869,.2598-.1064,.4409-.0186,.1816-.0283,.3804-.0283,.5967,0,.2378,.0078,.4365,.0254,.5967,.0166,.1597,.0518,.3032,.1074,.4297,.0498,.1187,.1211,.2095,.2129,.272,.0928,.0625,.2148,.0938,.3672,.0938,.1436,0,.2617-.0298,.3564-.0894s.168-.1494,.2197-.2695Z"/><path class="cls-4" d="M40.9297,81.8867h-1.8418v-.3477h.708v-2.2808h-.708v-.311c.0957,0,.1982-.0078,.3086-.0239,.1094-.0161,.1924-.0391,.249-.0698,.0703-.0381,.125-.0864,.165-.145,.041-.0586,.0645-.1377,.0703-.2363h.3545v3.0669h.6943v.3477Z"/><path class="cls-4" d="M43.7998,80.248c.0732,.0654,.1338,.1475,.1807,.2466,.0479,.0991,.0713,.2271,.0713,.3843,0,.1553-.0283,.2979-.085,.4272-.0557,.1294-.1357,.2422-.2373,.3384-.1143,.1064-.249,.1855-.4033,.2363-.1553,.0513-.3242,.0767-.5088,.0767-.1885,0-.375-.0225-.5576-.0674s-.333-.0942-.4502-.1475v-.4775h.0342c.1299,.0854,.2822,.1562,.457,.2124,.1748,.0566,.3447,.0845,.5078,.0845,.0957,0,.1973-.0156,.3057-.0479s.1963-.0791,.2627-.1416c.0703-.0674,.123-.1411,.1572-.2217,.0342-.0811,.0508-.1831,.0508-.3066,0-.1216-.0186-.2227-.0576-.3027s-.0928-.1426-.1611-.1885c-.0684-.0474-.1523-.0796-.249-.0972-.0977-.0176-.2031-.0264-.3154-.0264h-.2061v-.3794h.1602c.2314,0,.416-.0483,.5537-.145,.1387-.0967,.207-.2383,.207-.4238,0-.0825-.0176-.1543-.0527-.2163-.0352-.0615-.083-.1123-.1455-.1519-.0654-.0396-.1357-.0669-.2109-.0825-.0742-.0151-.1592-.0225-.2539-.0225-.1445,0-.2979,.0259-.4609,.0776s-.3174,.125-.4619,.2192h-.0225v-.4775c.1074-.0532,.252-.1025,.4326-.1475s.3555-.0674,.5244-.0674c.166,0,.3125,.0151,.4395,.0454,.126,.0308,.2402,.0796,.3428,.1465,.1094,.0732,.1924,.1616,.249,.2651,.0557,.1035,.084,.2246,.084,.3633,0,.189-.0664,.354-.1992,.4951-.1338,.1406-.291,.2295-.4727,.2661v.0322c.0732,.0122,.1572,.0376,.252,.0762,.0938,.0391,.1738,.0874,.2393,.1455Z"/></g><g><path class="cls-4" d="M10.1572,81.8867h-2.3037v-.4775c.1602-.1372,.3203-.2744,.4814-.4116,.1602-.1372,.3096-.2734,.4482-.4092,.293-.2832,.4932-.5083,.6016-.6753s.1621-.3472,.1621-.5405c0-.1768-.0586-.3149-.1748-.415-.1162-.0996-.2793-.1494-.4883-.1494-.1387,0-.2881,.0244-.4502,.0728-.1611,.0488-.3193,.1235-.4727,.2241h-.0234v-.48c.1084-.0532,.2529-.1021,.4336-.146,.1807-.0444,.3555-.0664,.5244-.0664,.3486,0,.6221,.084,.8203,.2524s.2979,.3965,.2979,.6846c0,.1294-.0166,.2505-.0498,.3623-.0322,.1118-.0811,.2183-.1445,.3188-.0596,.0947-.1299,.1875-.209,.2788-.0801,.0913-.1777,.1929-.292,.3042-.1631,.1597-.3311,.3149-.5049,.4648-.1738,.1504-.3359,.2891-.4873,.4175h1.8311v.3906Z"/><path class="cls-4" d="M13.1279,80.1841c0,.6108-.0957,1.0591-.2861,1.3447-.1914,.2861-.4883,.4287-.8906,.4287-.4082,0-.707-.1445-.8945-.4341-.1885-.2896-.2822-.7344-.2822-1.335,0-.605,.0947-1.0518,.2852-1.3403,.1904-.2891,.4883-.4336,.8916-.4336,.4082,0,.707,.147,.8945,.4404,.1885,.293,.2822,.7363,.2822,1.3291Zm-.6006,1.0376c.0527-.1235,.0889-.2686,.1084-.4355,.0186-.167,.0283-.3677,.0283-.6021,0-.2319-.0098-.4331-.0283-.6035-.0195-.1709-.0557-.3154-.1113-.4346-.0527-.1172-.126-.2056-.2178-.2651-.0918-.0591-.2109-.0889-.3555-.0889-.1436,0-.2617,.0298-.3555,.0889-.0938,.0596-.168,.1494-.2227,.27-.0518,.1128-.0869,.2598-.1064,.4409-.0186,.1816-.0283,.3804-.0283,.5967,0,.2378,.0078,.4365,.0254,.5967,.0166,.1597,.0518,.3032,.1074,.4297,.0498,.1187,.1211,.2095,.2129,.272,.0928,.0625,.2148,.0938,.3672,.0938,.1436,0,.2617-.0298,.3564-.0894s.168-.1494,.2197-.2695Z"/><path class="cls-4" d="M15.915,81.8867h-1.8418v-.3477h.708v-2.2808h-.708v-.311c.0957,0,.1982-.0078,.3086-.0239,.1094-.0161,.1924-.0391,.249-.0698,.0703-.0381,.125-.0864,.165-.145,.041-.0586,.0645-.1377,.0703-.2363h.3545v3.0669h.6943v.3477Z"/><path class="cls-4" d="M19.0849,81.8867h-2.3037v-.4775c.1602-.1372,.3203-.2744,.4814-.4116,.1602-.1372,.3096-.2734,.4482-.4092,.293-.2832,.4932-.5083,.6016-.6753s.1621-.3472,.1621-.5405c0-.1768-.0586-.3149-.1748-.415-.1162-.0996-.2793-.1494-.4883-.1494-.1387,0-.2881,.0244-.4502,.0728-.1611,.0488-.3193,.1235-.4727,.2241h-.0234v-.48c.1084-.0532,.2529-.1021,.4336-.146,.1807-.0444,.3555-.0664,.5244-.0664,.3486,0,.6221,.084,.8203,.2524s.2979,.3965,.2979,.6846c0,.1294-.0166,.2505-.0498,.3623-.0322,.1118-.0811,.2183-.1445,.3188-.0596,.0947-.1299,.1875-.209,.2788-.0801,.0913-.1777,.1929-.292,.3042-.1631,.1597-.3311,.3149-.5049,.4648-.1738,.1504-.3359,.2891-.4873,.4175h1.8311v.3906Z"/></g><rect class="cls-5" x="25.2649" y="49.1947" width="26.3737" height="25.2654"/><rect class="cls-5" x=".25" y="18.3148" width="26.3738" height="56.1453"/><rect class="cls-5" x="78.0123" y="74.4601" width="26.3737" height="28.0726"/><rect class="cls-5" x="51.6386" y="64.6346" width="26.3737" height="9.8254"/><rect class="cls-5" x="104.386" y="71.6528" width="26.3737" height="2.8073"/><g><path class="cls-3" d="M36.7588,42.9863v4.002h-.4111v-3.6362h-.9434v-.3657h1.3545Z"/><path class="cls-3" d="M38.2451,46.4824c.0566,.0591,.0859,.1323,.0859,.2202,0,.0454-.0068,.0952-.0205,.1484-.0127,.0532-.0332,.1143-.0596,.1831l-.2402,.7891h-.2744l.1943-.8291c-.0615-.019-.1104-.0547-.1484-.106s-.0576-.1133-.0576-.1855c0-.0879,.0283-.1611,.0859-.2202s.1299-.0889,.2168-.0889c.0879,0,.1602,.0298,.2178,.0889Z"/><path class="cls-3" d="M41.8554,45.2676c.1357,.1675,.2031,.3696,.2031,.606,0,.2324-.0625,.4355-.1885,.6089s-.3057,.3066-.54,.3999c-.2344,.0938-.5098,.1401-.8262,.1401-.4805,0-.8574-.103-1.1318-.3086-.2744-.2061-.4121-.4858-.4121-.8403,0-.2402,.0654-.4434,.1973-.6089,.1318-.166,.3232-.291,.5742-.3745-.2051-.0801-.3613-.1953-.4688-.3462-.1064-.1504-.1602-.3286-.1602-.5347,0-.3237,.127-.5811,.3809-.7715,.2529-.1909,.5938-.2861,1.0205-.2861,.2822,0,.5283,.043,.7402,.1289,.2119,.0854,.376,.2085,.4941,.3687s.1777,.3467,.1777,.5601c0,.2061-.0557,.3843-.166,.5347-.1104,.1509-.2686,.2661-.4746,.3462,.252,.0835,.4453,.2095,.5801,.3774Zm-.5195,1.189c.2002-.145,.2998-.3408,.2998-.5889,0-.2476-.0996-.4429-.2998-.5859s-.4775-.2144-.832-.2144c-.3506,0-.626,.0713-.8262,.2144s-.3008,.3384-.3008,.5859c0,.2515,.0996,.4487,.2979,.5918s.4746,.2144,.8291,.2144,.6318-.0723,.832-.2173Zm-1.5586-1.9097c.1758,.1299,.418,.1943,.7266,.1943s.5518-.0645,.7285-.1943c.1777-.1294,.2656-.3027,.2656-.52,0-.2251-.0898-.4023-.2715-.5317-.1807-.1299-.4219-.1943-.7227-.1943-.3057,0-.5459,.0645-.7236,.1943-.1768,.1294-.2656,.3047-.2656,.5259s.0879,.3965,.2627,.5259Z"/></g><g><path class="cls-3" d="M12.7217,14.6035h-.8008v1.0522h-.4111v-1.0522h-2.2588v-.2969l2.1211-2.6528h.458l-2.0469,2.584h1.7373v-.9263h.4004v.9263h.8008v.3657Z"/><path class="cls-3" d="M13.7451,15.1499c.0566,.0591,.0859,.1323,.0859,.2202,0,.0454-.0068,.0952-.0205,.1484-.0127,.0532-.0332,.1143-.0596,.1831l-.2402,.7891h-.2744l.1943-.8291c-.0615-.019-.1104-.0547-.1484-.106s-.0576-.1133-.0576-.1855c0-.0879,.0283-.1611,.0859-.2202s.1299-.0889,.2168-.0889c.0879,0,.1602,.0298,.2178,.0889Z"/><path class="cls-3" d="M15.1318,15.4443c-.2422-.1641-.4307-.3994-.5664-.7061-.1348-.3071-.2031-.668-.2031-1.0835s.0684-.7769,.2031-1.0835c.1357-.3066,.3242-.5425,.5664-.7061,.2422-.1641,.5176-.2461,.8262-.2461s.584,.082,.8262,.2461c.2422,.1636,.4316,.3994,.5684,.7061,.1377,.3066,.2061,.668,.2061,1.0835s-.0684,.7764-.2061,1.0835c-.1367,.3066-.3262,.542-.5684,.7061-.2422,.1636-.5176,.2456-.8262,.2456s-.584-.082-.8262-.2456Zm1.4404-.3262c.1777-.1294,.3154-.3179,.415-.5659,.0986-.2476,.1484-.5469,.1484-.8975s-.0498-.6499-.1484-.8979c-.0996-.2476-.2373-.436-.415-.5659-.1768-.1294-.3818-.1943-.6143-.1943s-.4375,.0649-.6143,.1943c-.1777,.1299-.3154,.3184-.415,.5659-.0986,.248-.1484,.5474-.1484,.8979s.0498,.6499,.1484,.8975c.0996,.248,.2373,.4365,.415,.5659,.1768,.1299,.3818,.1943,.6143,.1943s.4375-.0645,.6143-.1943Z"/></g><g><path class="cls-3" d="M61.7754,62.0303c-.2422-.1641-.4307-.3994-.5664-.7061-.1348-.3071-.2031-.668-.2031-1.0835s.0684-.7769,.2031-1.0835c.1357-.3066,.3242-.5425,.5664-.7061,.2422-.1641,.5176-.2461,.8262-.2461s.584,.082,.8262,.2461c.2422,.1636,.4316,.3994,.5684,.7061,.1377,.3066,.2061,.668,.2061,1.0835s-.0684,.7764-.2061,1.0835c-.1367,.3066-.3262,.542-.5684,.7061-.2422,.1636-.5176,.2456-.8262,.2456s-.584-.082-.8262-.2456Zm1.4404-.3262c.1777-.1294,.3154-.3179,.415-.5659,.0986-.2476,.1484-.5469,.1484-.8975s-.0498-.6499-.1484-.8979c-.0996-.2476-.2373-.436-.415-.5659-.1768-.1294-.3818-.1943-.6143-.1943s-.4375,.0649-.6143,.1943c-.1777,.1299-.3154,.3184-.415,.5659-.0986,.248-.1484,.5474-.1484,.8979s.0498,.6499,.1484,.8975c.0996,.248,.2373,.4365,.415,.5659,.1768,.1299,.3818,.1943,.6143,.1943s.4375-.0645,.6143-.1943Z"/><path class="cls-3" d="M65.2597,61.7358c.0566,.0591,.0859,.1323,.0859,.2202,0,.0454-.0068,.0952-.0205,.1484-.0127,.0532-.0332,.1143-.0596,.1831l-.2402,.7891h-.2744l.1943-.8291c-.0615-.019-.1104-.0547-.1484-.106s-.0576-.1133-.0576-.1855c0-.0879,.0283-.1611,.0859-.2202s.1299-.0889,.2168-.0889c.0879,0,.1602,.0298,.2178,.0889Z"/><path class="cls-3" d="M68.6963,58.2397v.2915l-1.6758,3.7104h-.4453l1.6465-3.6362h-2.0586v.749h-.4062v-1.1147h2.9395Z"/></g><g><path class="cls-3" d="M85.8711,106.8027h2.4873v.3374h-2.4873v-.3374Z"/><path class="cls-3" d="M91.7197,108.604v.3657h-2.8076v-.2915l1.6641-1.6294c.21-.2061,.3516-.3843,.4258-.5347s.1113-.3022,.1113-.4546c0-.2363-.0811-.4204-.2422-.5518-.1621-.1313-.3945-.1973-.6953-.1973-.4688,0-.833,.1489-1.0918,.4458l-.292-.2515c.1562-.1831,.3555-.3237,.5977-.4229s.5156-.1489,.8203-.1489c.4082,0,.7314,.0962,.9697,.2891,.2383,.1924,.3574,.4561,.3574,.7915,0,.2061-.0459,.4043-.1377,.5947-.0918,.1909-.2646,.4097-.5205,.6577l-1.3604,1.3379h2.2012Z"/><path class="cls-3" d="M92.8232,108.4639c.0566,.0591,.0859,.1323,.0859,.2202,0,.0454-.0068,.0952-.0205,.1484-.0127,.0532-.0332,.1143-.0596,.1831l-.2402,.7891h-.2744l.1943-.8291c-.0615-.019-.1104-.0547-.1484-.106s-.0576-.1133-.0576-.1855c0-.0879,.0283-.1611,.0859-.2202s.1299-.0889,.2168-.0889c.0879,0,.1602,.0298,.2178,.0889Z"/><path class="cls-3" d="M94.2099,108.7583c-.2422-.1641-.4307-.3994-.5664-.7061-.1348-.3071-.2031-.668-.2031-1.0835s.0684-.7769,.2031-1.0835c.1357-.3066,.3242-.5425,.5664-.7061,.2422-.1641,.5176-.2461,.8262-.2461s.584,.082,.8262,.2461c.2422,.1636,.4316,.3994,.5684,.7061,.1377,.3066,.2061,.668,.2061,1.0835s-.0684,.7764-.2061,1.0835c-.1367,.3066-.3262,.542-.5684,.7061-.2422,.1636-.5176,.2456-.8262,.2456s-.584-.082-.8262-.2456Zm1.4404-.3262c.1777-.1294,.3154-.3179,.415-.5659,.0986-.2476,.1484-.5469,.1484-.8975s-.0498-.6499-.1484-.8979c-.0996-.2476-.2373-.436-.415-.5659-.1768-.1294-.3818-.1943-.6143-.1943s-.4375,.0649-.6143,.1943c-.1777,.1299-.3154,.3184-.415,.5659-.0986,.248-.1484,.5474-.1484,.8979s.0498,.6499,.1484,.8975c.0996,.248,.2373,.4365,.415,.5659,.1768,.1299,.3818,.1943,.6143,.1943s.4375-.0645,.6143-.1943Z"/></g><g><path class="cls-3" d="M114.5195,69.0811c-.2422-.1641-.4307-.3994-.5664-.7061-.1348-.3071-.2031-.668-.2031-1.0835s.0684-.7769,.2031-1.0835c.1357-.3066,.3242-.5425,.5664-.7061,.2422-.1641,.5176-.2461,.8262-.2461s.584,.082,.8262,.2461c.2422,.1636,.4316,.3994,.5684,.7061,.1377,.3066,.2061,.668,.2061,1.0835s-.0684,.7764-.2061,1.0835c-.1367,.3066-.3262,.542-.5684,.7061-.2422,.1636-.5176,.2456-.8262,.2456s-.584-.082-.8262-.2456Zm1.4404-.3262c.1777-.1294,.3154-.3179,.415-.5659,.0986-.2476,.1484-.5469,.1484-.8975s-.0498-.6499-.1484-.8979c-.0996-.2476-.2373-.436-.415-.5659-.1768-.1294-.3818-.1943-.6143-.1943s-.4375,.0649-.6143,.1943c-.1777,.1299-.3154,.3184-.415,.5659-.0986,.248-.1484,.5474-.1484,.8979s.0498,.6499,.1484,.8975c.0996,.248,.2373,.4365,.415,.5659,.1768,.1299,.3818,.1943,.6143,.1943s.4375-.0645,.6143-.1943Z"/><path class="cls-3" d="M118.0039,68.7866c.0566,.0591,.0859,.1323,.0859,.2202,0,.0454-.0068,.0952-.0205,.1484-.0127,.0532-.0332,.1143-.0596,.1831l-.2402,.7891h-.2744l.1943-.8291c-.0615-.019-.1104-.0547-.1484-.106s-.0576-.1133-.0576-.1855c0-.0879,.0283-.1611,.0859-.2202s.1299-.0889,.2168-.0889c.0879,0,.1602,.0298,.2178,.0889Z"/><path class="cls-3" d="M121.4746,68.9268v.3657h-2.8076v-.2915l1.6641-1.6294c.21-.2061,.3516-.3843,.4258-.5347s.1113-.3022,.1113-.4546c0-.2363-.0811-.4204-.2422-.5518-.1621-.1313-.3945-.1973-.6953-.1973-.4688,0-.833,.1489-1.0918,.4458l-.292-.2515c.1562-.1831,.3555-.3237,.5977-.4229s.5156-.1489,.8203-.1489c.4082,0,.7314,.0962,.9697,.2891,.2383,.1924,.3574,.4561,.3574,.7915,0,.2061-.0459,.4043-.1377,.5947-.0918,.1909-.2646,.4097-.5205,.6577l-1.3604,1.3379h2.2012Z"/></g></svg>