<?xml version="1.0" encoding="UTF-8"?><svg xmlns="http://www.w3.org/2000/svg" viewBox="0 0 339.9832 205.3148"><defs><style>.cls-1{fill:#7ec500;}.cls-2{fill:#1256bb;}.cls-3{fill:#222;}.cls-4{fill:#a2a2a2;}.cls-5,.cls-6{fill:#f8f8f7;}.cls-5,.cls-6,.cls-7,.cls-8,.cls-9{stroke-miterlimit:10;}.cls-5,.cls-7{stroke:#1256bb;}.cls-6,.cls-8{stroke:#7ec500;}.cls-7,.cls-8,.cls-9{fill:none;}.cls-9{stroke:#a2a2a2;stroke-width:.5px;}</style></defs><g id="Layer_1"><g><path class="cls-3" d="M.4965,2.1503h.6396v2.4844l1.8804-2.4844h.605v3.5h-.6401V3.1699l-1.8799,2.4805H.4965V2.1503Z"/><path class="cls-3" d="M7.7313,2.1503v3.5h-.6499v-1.5h-1.8101v1.5h-.6499V2.1503h.6499v1.4453h1.8101v-1.4453h.6499Z"/><path class="cls-3" d="M12.2011,5.1005v1.2949h-.6001v-.7451h-2.6851v.7451h-.605l.0054-1.2949h.1499c.2197-.0107,.374-.1729,.4624-.4873,.0884-.3154,.1426-.7656,.1626-1.3535l.04-1.1094h2.5649v2.9502h.5049Zm-2.6499-.6475c-.0566,.3008-.147,.5176-.27,.6475h1.7749V2.7001h-1.3701l-.0249,.6201c-.0166,.4531-.0532,.8311-.1099,1.1328Z"/><path class="cls-3" d="M15.4564,5.1054v.5449h-2.625V2.1503h2.5547v.5449h-1.9048v.9102h1.6899v.5352h-1.6899v.9648h1.9751Z"/><path class="cls-3" d="M17.4911,4.1757h-.6499v1.4746h-.6396V2.1503h.6396v1.4648h.6699l1.0054-1.4648h.6899l-1.1953,1.6953,1.2402,1.8047h-.7349l-1.0254-1.4746Z"/><path class="cls-3" d="M20.4838,5.4677c-.2852-.1553-.5083-.3691-.6699-.6426-.1621-.2725-.2427-.5811-.2427-.9248s.0815-.6523,.2451-.9248c.1631-.2734,.3872-.4873,.6724-.6426s.604-.2324,.9575-.2324c.2866,0,.5483,.0498,.7852,.1494,.2363,.1006,.4365,.2461,.6001,.4355l-.4204,.3945c-.2534-.2734-.5649-.4102-.9351-.4102-.2397,0-.4546,.0527-.6445,.1582-.1904,.1055-.3384,.25-.4453,.4375-.1064,.1865-.1602,.3984-.1602,.6348s.0537,.4482,.1602,.6348c.1069,.1875,.2549,.332,.4453,.4375,.1899,.1055,.4048,.1582,.6445,.1582,.3701,0,.6816-.1387,.9351-.416l.4204,.4004c-.1636,.1895-.3643,.335-.6025,.4355-.2388,.0996-.501,.1494-.7876,.1494-.3535,0-.6724-.0771-.9575-.2324Z"/><path class="cls-3" d="M27.956,2.1503v3.5h-.6396V2.7001h-1.8154v2.9502h-.6396V2.1503h3.0947Z"/><path class="cls-3" d="M29.6161,5.4677c-.2866-.1553-.5117-.3701-.6748-.6455-.1636-.2744-.2451-.582-.2451-.9219s.0815-.6475,.2451-.9219c.1631-.2754,.3882-.4902,.6748-.6455s.6084-.2324,.9648-.2324c.3569,0,.6782,.0771,.9653,.2324,.2866,.1553,.5112,.3691,.6748,.6426,.1631,.2725,.2451,.5811,.2451,.9248s-.082,.6523-.2451,.9248c-.1636,.2734-.3882,.4873-.6748,.6426-.2871,.1553-.6084,.2324-.9653,.2324-.3564,0-.6782-.0771-.9648-.2324Zm1.5952-.4951c.1865-.1055,.333-.252,.4399-.4395,.1064-.1885,.1597-.3994,.1597-.6328s-.0532-.4443-.1597-.6328c-.1069-.1875-.2534-.334-.4399-.4395-.187-.1055-.397-.1582-.6304-.1582s-.4434,.0527-.6299,.1582-.3335,.252-.4399,.4395c-.1069,.1885-.1602,.3994-.1602,.6328s.0532,.4443,.1602,.6328c.1064,.1875,.2534,.334,.4399,.4395s.3965,.1582,.6299,.1582,.4434-.0527,.6304-.1582Z"/><path class="cls-3" d="M35.7455,2.7001h-1.1597v2.9502h-.645V2.7001h-1.1553v-.5498h2.96v.5498Z"/><path class="cls-3" d="M38.5585,2.3007c.2246,.0996,.3975,.2432,.5176,.4297,.1196,.1865,.1797,.4082,.1797,.665,0,.2529-.0601,.4736-.1797,.6631-.1201,.1875-.293,.332-.5176,.4316-.2251,.0996-.4893,.1504-.7925,.1504h-.79v1.0098h-.6499V2.1503h1.4399c.3032,0,.5674,.0498,.7925,.1504Zm-.1777,1.6094c.1465-.1191,.2202-.291,.2202-.5146s-.0737-.3955-.2202-.5146c-.1465-.1211-.3618-.1807-.645-.1807h-.7598v1.3896h.7598c.2832,0,.4985-.0596,.645-.1797Z"/><path class="cls-3" d="M42.5663,5.1054v.5449h-2.625V2.1503h2.5547v.5449h-1.9048v.9102h1.6899v.5352h-1.6899v.9648h1.9751Z"/><path class="cls-3" d="M43.3158,2.1503h2.7251v.5352h-2.0854v.8594h1.0352c.4199,0,.7393,.0879,.9575,.2637,.2183,.1738,.3276,.4268,.3276,.7568,0,.3467-.1201,.6143-.3599,.8018-.2402,.1895-.582,.2832-1.0254,.2832h-1.5747V2.1503Zm1.54,3c.25,0,.4399-.0488,.5698-.1445,.1299-.0977,.1948-.2373,.1948-.4199,0-.3604-.2549-.541-.7646-.541h-.9004v1.1055h.9004Z"/><path class="cls-3" d="M47.0111,2.1503h.6396v2.4844l1.8804-2.4844h.605v3.5h-.6401V3.1699l-1.8799,2.4805h-.605V2.1503Z"/><path class="cls-3" d="M53.6757,2.7001h-1.1597v2.9502h-.645V2.7001h-1.1553v-.5498h2.96v.5498Z"/><path class="cls-3" d="M56.8808,5.1054v.5449h-2.625V2.1503h2.5547v.5449h-1.9048v.9102h1.6899v.5352h-1.6899v.9648h1.9751Z"/><path class="cls-3" d="M60.6156,2.1503v3.5h-.6401V2.7001h-1.3799l-.0298,.875c-.0171,.4902-.0571,.8877-.1201,1.1924-.0635,.3047-.165,.5371-.3052,.6953-.1396,.1582-.333,.2373-.5801,.2373-.0864,0-.2046-.0166-.355-.0498l.0454-.5645c.043,.0127,.0933,.0195,.1499,.0195,.2031,0,.3472-.1211,.4321-.3633,.0854-.2402,.1377-.6211,.1577-1.1416l.0498-1.4502h2.5752Z"/><path class="cls-3" d="M64.203,3.6171c.2251,.1895,.3379,.4688,.3379,.8379,0,.3867-.1235,.6826-.3701,.8877s-.5933,.3076-1.04,.3076h-1.5049V2.1503h.6396v1.1855h.9702c.4199,0,.7427,.0938,.9673,.2812Zm-.5171,1.3584c.1362-.1162,.2046-.2861,.2046-.5107,0-.4229-.2632-.6348-.7896-.6348h-.8354v1.3203h.8354c.2529,0,.4482-.0586,.585-.1748Z"/><path class="cls-3" d="M65.8783,5.4677c-.2852-.1553-.5083-.3691-.6699-.6426-.1621-.2725-.2427-.5811-.2427-.9248s.0815-.6523,.2451-.9248c.1631-.2734,.3872-.4873,.6724-.6426s.604-.2324,.9575-.2324c.2866,0,.5483,.0498,.7852,.1494,.2363,.1006,.4365,.2461,.6001,.4355l-.4204,.3945c-.2534-.2734-.5649-.4102-.9351-.4102-.2397,0-.4546,.0527-.6445,.1582-.1904,.1055-.3384,.25-.4453,.4375-.1064,.1865-.1602,.3984-.1602,.6348s.0537,.4482,.1602,.6348c.1069,.1875,.2549,.332,.4453,.4375,.1899,.1055,.4048,.1582,.6445,.1582,.3701,0,.6816-.1387,.9351-.416l.4204,.4004c-.1636,.1895-.3643,.335-.6025,.4355-.2388,.0996-.501,.1494-.7876,.1494-.3535,0-.6724-.0771-.9575-.2324Z"/><path class="cls-3" d="M70.1405,4.1757h-.6499v1.4746h-.6396V2.1503h.6396v1.4648h.6699l1.0054-1.4648h.6899l-1.1953,1.6953,1.2402,1.8047h-.7349l-1.0254-1.4746Z"/><path class="cls-3" d="M72.4857,2.1503h.6396v2.4844l1.8804-2.4844h.605v3.5h-.6401V3.1699l-1.8799,2.4805h-.605V2.1503Z"/><path class="cls-3" d="M77.0155,2.1503l.8252,1.1699,.8247-1.1699h.7603l-1.1753,1.6797,1.27,1.8203h-.77l-.9097-1.2754-.9053,1.2754h-.75l1.2651-1.7949-1.1851-1.7051h.75Z"/><path class="cls-3" d="M85.0653,5.1005v1.3193h-.6001v-.7695h-2.9697V2.1503h.6396v2.9502h1.7651V2.1503h.645v2.9502h.52Z"/><path class="cls-3" d="M88.3056,5.1054v.5449h-2.625V2.1503h2.5547v.5449h-1.9048v.9102h1.6899v.5352h-1.6899v.9648h1.9751Z"/><path class="cls-3" d="M92.1605,2.1503v3.5h-.6499v-1.5h-1.8101v1.5h-.6499V2.1503h.6499v1.4453h1.8101v-1.4453h.6499Z"/></g><polyline class="cls-8" points="13.7806 47.4548 25.9194 94.6309 37.8789 101.9717 50.0176 106.082 62.3381 114.1079 74.4769 122.5689 86.6169 126.1474 98.7557 132.3143 110.8945 138.4798 123.0345 141.4161 134.9927 140.1441 147.3132 135.8376 159.452 129.0838 171.592 119.1008 183.7308 120.0787 195.6891 125.2663 208.0096 131.5312 220.1483 139.6551 232.2884 135.0545 244.4271 131.5312 256.5671 124.8754 268.7059 116.2625 280.8459 112.5431 292.9847 106.2782 305.1234 95.414"/><polyline class="cls-7" points="13.7806 37.4709 25.9194 104.9085 38.2399 114.5006 50.1982 110.3889 62.3381 119.0031 74.4769 129.377 86.6169 127.029 98.7557 136.327 110.8945 148.6593 123.0345 151.0086 134.9927 155.1189 147.1327 146.1152 159.452 131.1393 171.592 114.4025 183.7308 112.5421 195.8696 119.4727 208.0096 130.7485 220.1483 142.7272 232.2884 131.2167 244.4271 125.7363 256.5671 115.0876 268.7059 101.776 280.8459 102.7939 292.9847 96.6865 305.1234 76.3821"/><g><path class="cls-1" d="M311.8891,96.33c.1118,.1709,.168,.3691,.168,.5928,0,.2646-.0752,.4951-.2261,.6934-.1504,.1973-.3623,.3496-.6353,.458-.2725,.1074-.5884,.1611-.9463,.1611-.3584,0-.6729-.0537-.9438-.1611-.2705-.1084-.48-.2607-.6289-.458-.1484-.1982-.2227-.4287-.2227-.6934,0-.2236,.0557-.4219,.168-.5928,.1118-.1709,.2715-.3096,.4795-.415-.1592-.0977-.2812-.2207-.3667-.3691-.0854-.1494-.1284-.3193-.1284-.5107,0-.248,.0693-.4639,.208-.6465,.1382-.1836,.3315-.3252,.5801-.4248,.248-.0996,.5332-.1494,.855-.1494,.3257,0,.6138,.0498,.8643,.1494,.25,.0996,.4443,.2412,.583,.4248,.1382,.1826,.2075,.3984,.2075,.6465,0,.1914-.0425,.3613-.1279,.5107-.0854,.1484-.21,.2715-.3726,.3691,.2114,.1055,.3735,.2441,.4854,.415Zm-1.0503,1.0107c.1445-.1113,.2168-.2617,.2168-.4482,0-.1875-.0723-.3359-.2168-.4463s-.3413-.165-.5894-.165c-.2441,0-.438,.0547-.5801,.165-.1426,.1104-.2139,.2588-.2139,.4463,0,.1914,.0713,.3418,.2139,.4512,.1421,.1104,.3359,.165,.5801,.165,.248,0,.4448-.0557,.5894-.168Zm-1.0688-2.6562c-.1201,.0957-.1802,.2266-.1802,.3936,0,.1631,.0591,.291,.1772,.3848s.2788,.1406,.4824,.1406,.3662-.0469,.4883-.1406c.1226-.0938,.1836-.2217,.1836-.3848,0-.167-.061-.2979-.1836-.3936-.1221-.0957-.2847-.1436-.4883-.1436-.1997,0-.3594,.0479-.4795,.1436Z"/><path class="cls-1" d="M313.5595,97.1884c.1099,.1074,.165,.249,.165,.4238,0,.082-.0103,.1631-.0308,.2451-.0205,.0811-.0649,.2031-.1343,.3662l-.3481,.8789h-.6045l.2686-.9707c-.1016-.041-.1821-.1064-.2412-.1982s-.0884-.1982-.0884-.3213c0-.1748,.0557-.3164,.168-.4238,.1118-.1084,.2534-.1621,.4243-.1621s.3115,.0537,.4214,.1621Z"/><path class="cls-1" d="M317.0888,96.0458c.1997,.2178,.2993,.4883,.2993,.8096,0,.248-.0654,.4775-.1953,.6875-.1304,.209-.3291,.377-.5957,.5029-.2666,.127-.5933,.1895-.98,.1895-.3013,0-.5977-.0391-.8887-.1191-.291-.0791-.5386-.1924-.7422-.3389l.3848-.7568c.1631,.1221,.3516,.2168,.5649,.2842,.2139,.0664,.4326,.1006,.6567,.1006,.248,0,.4438-.0479,.5864-.1436,.1421-.0957,.2134-.2314,.2134-.4062,0-.3506-.2666-.5254-.7998-.5254h-.4521v-.6533l.8794-.9951h-1.8198v-.7939h2.9927v.6406l-.9648,1.0996c.3745,.0615,.6611,.2002,.8608,.418Z"/><path class="cls-1" d="M318.0077,95.8749c-.1973-.2139-.2959-.499-.2959-.8574s.0986-.6445,.2959-.8584c.1978-.2139,.4531-.3203,.7666-.3203s.5679,.1064,.7632,.3203c.1958,.2139,.2935,.5,.2935,.8584s-.0977,.6436-.2935,.8574c-.1953,.2139-.4497,.3213-.7632,.3213s-.5688-.1074-.7666-.3213Zm1.0933-.3506c.0796-.1143,.1191-.2832,.1191-.5068,0-.2246-.0396-.3936-.1191-.5068-.0796-.1143-.1885-.1709-.3267-.1709-.1343,0-.2422,.0576-.3237,.1738s-.1221,.2842-.1221,.5039,.0405,.3877,.1221,.5039c.0815,.1152,.1895,.1738,.3237,.1738,.1382,0,.2471-.0576,.3267-.1709Zm2.2197-1.6367h.7271l-2.9194,4.2744h-.7266l2.9189-4.2744Zm-.1924,4.1797c-.1606-.0957-.2856-.2324-.3755-.4121-.0894-.1787-.1343-.3867-.1343-.623,0-.2354,.0449-.4434,.1343-.623,.0898-.1787,.2148-.3164,.3755-.4121,.1611-.0957,.3433-.1436,.5469-.1436,.3135,0,.5688,.1074,.7661,.3213,.1978,.2139,.2964,.5,.2964,.8574,0,.3584-.0986,.6445-.2964,.8584-.1973,.2139-.4526,.3203-.7661,.3203-.2036,0-.3857-.0479-.5469-.1436Zm.8735-.5312c.0796-.1162,.1191-.2842,.1191-.5039s-.0396-.3877-.1191-.5039c-.0796-.1152-.1885-.1738-.3267-.1738-.1343,0-.2422,.0576-.3237,.1709-.0815,.1143-.1221,.2832-.1221,.5068,0,.2246,.0405,.3936,.1221,.5068,.0815,.1143,.1895,.1709,.3237,.1709,.1382,0,.2471-.0576,.3267-.1738Z"/></g><g><path class="cls-1" d="M123.6571,135.5449v.8057h-3.2305v-.6406l1.6489-1.5576c.1748-.167,.293-.3105,.354-.4307s.0918-.2393,.0918-.3574c0-.1709-.0581-.3018-.1743-.3936-.1157-.0918-.2861-.1377-.5098-.1377-.1875,0-.3564,.0361-.5068,.1074-.1509,.0713-.2769,.1777-.3789,.3203l-.7202-.4639c.1665-.249,.3965-.4434,.6899-.584,.293-.1396,.6289-.21,1.0073-.21,.3179,0,.5957,.0518,.834,.1553,.2378,.1035,.4233,.251,.5557,.4395,.1323,.1895,.1982,.4131,.1982,.6689,0,.2324-.0488,.4502-.1465,.6533-.0977,.2041-.2871,.4355-.5679,.6963l-.9834,.9287h1.8384Z"/><path class="cls-1" d="M125.1166,135.3769c.1099,.1074,.165,.249,.165,.4238,0,.082-.0103,.1631-.0308,.2451-.0205,.0811-.0649,.2031-.1343,.3662l-.3481,.8789h-.6045l.2686-.9707c-.1016-.041-.1821-.1064-.2412-.1982s-.0884-.1982-.0884-.3213c0-.1748,.0557-.3164,.168-.4238,.1118-.1084,.2534-.1621,.4243-.1621s.3115,.0537,.4214,.1621Z"/><path class="cls-1" d="M128.9823,135.5449v.8057h-3.2305v-.6406l1.6489-1.5576c.1748-.167,.293-.3105,.354-.4307s.0918-.2393,.0918-.3574c0-.1709-.0581-.3018-.1743-.3936-.1157-.0918-.2861-.1377-.5098-.1377-.1875,0-.3564,.0361-.5068,.1074-.1509,.0713-.2769,.1777-.3789,.3203l-.7202-.4639c.1665-.249,.3965-.4434,.6899-.584,.293-.1396,.6289-.21,1.0073-.21,.3179,0,.5957,.0518,.834,.1553,.2378,.1035,.4233,.251,.5557,.4395,.1323,.1895,.1982,.4131,.1982,.6689,0,.2324-.0488,.4502-.1465,.6533-.0977,.2041-.2871,.4355-.5679,.6963l-.9834,.9287h1.8384Z"/><path class="cls-1" d="M129.6752,134.0634c-.1973-.2139-.2959-.499-.2959-.8574s.0986-.6445,.2959-.8584c.1978-.2139,.4531-.3203,.7666-.3203s.5679,.1064,.7632,.3203c.1958,.2139,.2935,.5,.2935,.8584s-.0977,.6436-.2935,.8574c-.1953,.2139-.4497,.3213-.7632,.3213s-.5688-.1074-.7666-.3213Zm1.0933-.3506c.0796-.1143,.1191-.2832,.1191-.5068,0-.2246-.0396-.3936-.1191-.5068-.0796-.1143-.1885-.1709-.3267-.1709-.1343,0-.2422,.0576-.3237,.1738s-.1221,.2842-.1221,.5039,.0405,.3877,.1221,.5039c.0815,.1152,.1895,.1738,.3237,.1738,.1382,0,.2471-.0576,.3267-.1709Zm2.2197-1.6367h.7271l-2.9194,4.2744h-.7266l2.9189-4.2744Zm-.1924,4.1797c-.1606-.0957-.2856-.2324-.3755-.4121-.0894-.1787-.1343-.3867-.1343-.623,0-.2354,.0449-.4434,.1343-.623,.0898-.1787,.2148-.3164,.3755-.4121,.1611-.0957,.3433-.1436,.5469-.1436,.3135,0,.5688,.1074,.7661,.3213,.1978,.2139,.2964,.5,.2964,.8574,0,.3584-.0986,.6445-.2964,.8584-.1973,.2139-.4526,.3203-.7661,.3203-.2036,0-.3857-.0479-.5469-.1436Zm.8735-.5312c.0796-.1162,.1191-.2842,.1191-.5039s-.0396-.3877-.1191-.5039c-.0796-.1152-.1885-.1738-.3267-.1738-.1343,0-.2422,.0576-.3237,.1709-.0815,.1143-.1221,.2832-.1221,.5068,0,.2246,.0405,.3936,.1221,.5068,.0815,.1143,.1895,.1709,.3237,.1709,.1382,0,.2471-.0576,.3267-.1738Z"/></g><g><path class="cls-2" d="M310.1273,74.2001v4.2744h-.9893v-3.4805h-.855v-.7939h1.8442Z"/><path class="cls-2" d="M311.7577,78.2851c-.2769-.1748-.4937-.4277-.6504-.7598s-.2349-.7275-.2349-1.1875c0-.4609,.0781-.8564,.2349-1.1885s.3735-.585,.6504-.7598c.2769-.1758,.5923-.2627,.9468-.2627,.354,0,.6694,.0869,.9468,.2627,.2764,.1748,.4932,.4277,.6504,.7598,.1562,.332,.2349,.7275,.2349,1.1885,0,.46-.0786,.8555-.2349,1.1875-.1572,.332-.374,.585-.6504,.7598-.2773,.1758-.5928,.2627-.9468,.2627-.3545,0-.6699-.0869-.9468-.2627Zm1.5605-.9092c.1484-.2246,.2227-.5703,.2227-1.0381,0-.4688-.0742-.8145-.2227-1.0391-.1489-.2236-.3535-.3359-.6138-.3359-.2563,0-.459,.1123-.6079,.3359-.1484,.2246-.2227,.5703-.2227,1.0391,0,.4678,.0742,.8135,.2227,1.0381,.1489,.2236,.3516,.3359,.6079,.3359,.2603,0,.4648-.1123,.6138-.3359Z"/><path class="cls-2" d="M315.9286,77.5009c.1099,.1074,.165,.249,.165,.4238,0,.082-.0103,.1631-.0308,.2451-.0205,.0811-.0649,.2031-.1343,.3662l-.3481,.8789h-.6045l.2686-.9707c-.1016-.041-.1821-.1064-.2412-.1982s-.0884-.1982-.0884-.3213c0-.1748,.0557-.3164,.168-.4238,.1118-.1084,.2534-.1621,.4243-.1621s.3115,.0537,.4214,.1621Z"/><path class="cls-2" d="M320.0111,76.6425c.1118,.1709,.168,.3691,.168,.5928,0,.2646-.0752,.4951-.2261,.6934-.1504,.1973-.3623,.3496-.6353,.458-.2725,.1074-.5884,.1611-.9463,.1611-.3584,0-.6729-.0537-.9438-.1611-.2705-.1084-.48-.2607-.6289-.458-.1484-.1982-.2227-.4287-.2227-.6934,0-.2236,.0557-.4219,.168-.5928,.1118-.1709,.2715-.3096,.4795-.415-.1592-.0977-.2812-.2207-.3667-.3691-.0854-.1494-.1284-.3193-.1284-.5107,0-.248,.0693-.4639,.208-.6465,.1382-.1836,.3315-.3252,.5801-.4248,.248-.0996,.5332-.1494,.855-.1494,.3257,0,.6138,.0498,.8643,.1494,.25,.0996,.4443,.2412,.583,.4248,.1382,.1826,.2075,.3984,.2075,.6465,0,.1914-.0425,.3613-.1279,.5107-.0854,.1484-.21,.2715-.3726,.3691,.2114,.1055,.3735,.2441,.4854,.415Zm-1.0503,1.0107c.1445-.1113,.2168-.2617,.2168-.4482,0-.1875-.0723-.3359-.2168-.4463s-.3413-.165-.5894-.165c-.2441,0-.438,.0547-.5801,.165-.1426,.1104-.2139,.2588-.2139,.4463,0,.1914,.0713,.3418,.2139,.4512,.1421,.1104,.3359,.165,.5801,.165,.248,0,.4448-.0557,.5894-.168Zm-1.0688-2.6562c-.1201,.0957-.1802,.2266-.1802,.3936,0,.1631,.0591,.291,.1772,.3848s.2788,.1406,.4824,.1406,.3662-.0469,.4883-.1406c.1226-.0938,.1836-.2217,.1836-.3848,0-.167-.061-.2979-.1836-.3936-.1221-.0957-.2847-.1436-.4883-.1436-.1997,0-.3594,.0479-.4795,.1436Z"/><path class="cls-2" d="M320.7929,76.1874c-.1973-.2139-.2959-.499-.2959-.8574s.0986-.6445,.2959-.8584c.1978-.2139,.4531-.3203,.7666-.3203s.5679,.1064,.7632,.3203c.1958,.2139,.2935,.5,.2935,.8584s-.0977,.6436-.2935,.8574c-.1953,.2139-.4497,.3213-.7632,.3213s-.5688-.1074-.7666-.3213Zm1.0933-.3506c.0796-.1143,.1191-.2832,.1191-.5068,0-.2246-.0396-.3936-.1191-.5068-.0796-.1143-.1885-.1709-.3267-.1709-.1343,0-.2422,.0576-.3237,.1738s-.1221,.2842-.1221,.5039,.0405,.3877,.1221,.5039c.0815,.1152,.1895,.1738,.3237,.1738,.1382,0,.2471-.0576,.3267-.1709Zm2.2197-1.6367h.7271l-2.9194,4.2744h-.7266l2.9189-4.2744Zm-.1924,4.1797c-.1606-.0957-.2856-.2324-.3755-.4121-.0894-.1787-.1343-.3867-.1343-.623,0-.2354,.0449-.4434,.1343-.623,.0898-.1787,.2148-.3164,.3755-.4121,.1611-.0957,.3433-.1436,.5469-.1436,.3135,0,.5688,.1074,.7661,.3213,.1978,.2139,.2964,.5,.2964,.8574,0,.3584-.0986,.6445-.2964,.8584-.1973,.2139-.4526,.3203-.7661,.3203-.2036,0-.3857-.0479-.5469-.1436Zm.8735-.5312c.0796-.1162,.1191-.2842,.1191-.5039s-.0396-.3877-.1191-.5039c-.0796-.1152-.1885-.1738-.3267-.1738-.1343,0-.2422,.0576-.3237,.1709-.0815,.1143-.1221,.2832-.1221,.5068,0,.2246,.0405,.3936,.1221,.5068,.0815,.1143,.1895,.1709,.3237,.1709,.1382,0,.2471-.0576,.3267-.1738Z"/></g><g><path class="cls-2" d="M128.9188,163.2744c-.2764-.1748-.4932-.4277-.6504-.7598-.1562-.332-.2344-.7275-.2344-1.1875,0-.4609,.0781-.8564,.2344-1.1885,.1572-.332,.374-.585,.6504-.7598,.2773-.1758,.5928-.2627,.9473-.2627,.3535,0,.6689,.0869,.9463,.2627,.2764,.1748,.4932,.4277,.6504,.7598,.1562,.332,.2354,.7275,.2354,1.1885,0,.46-.0791,.8555-.2354,1.1875-.1572,.332-.374,.585-.6504,.7598-.2773,.1758-.5928,.2627-.9463,.2627-.3545,0-.6699-.0869-.9473-.2627Zm1.5605-.9092c.1484-.2246,.2227-.5703,.2227-1.0381,0-.4688-.0742-.8145-.2227-1.0391-.1484-.2236-.3535-.3359-.6133-.3359-.2568,0-.459,.1123-.6084,.3359-.1484,.2246-.2227,.5703-.2227,1.0391,0,.4678,.0742,.8135,.2227,1.0381,.1494,.2236,.3516,.3359,.6084,.3359,.2598,0,.4648-.1123,.6133-.3359Z"/><path class="cls-2" d="M133.0907,162.4902c.1094,.1074,.165,.249,.165,.4238,0,.082-.0107,.1631-.0312,.2451-.0205,.0811-.0645,.2031-.1338,.3662l-.3486,.8789h-.6045l.2686-.9707c-.1016-.041-.1816-.1064-.2412-.1982-.0586-.0918-.0879-.1982-.0879-.3213,0-.1748,.0557-.3164,.168-.4238,.1113-.1084,.2529-.1621,.4238-.1621s.3115,.0537,.4219,.1621Z"/><path class="cls-2" d="M137.6161,162.5664h-.6963v.8975h-.9648v-.8975h-2.3027v-.666l2.0156-2.7109h1.0381l-1.8691,2.5713h1.1484v-.8008h.9346v.8008h.6963v.8057Z"/><path class="cls-2" d="M137.9481,161.1767c-.1973-.2139-.2959-.499-.2959-.8574s.0986-.6445,.2959-.8584c.1982-.2139,.4531-.3203,.7666-.3203s.5684,.1064,.7637,.3203,.293,.5,.293,.8584-.0977,.6436-.293,.8574-.4502,.3213-.7637,.3213-.5684-.1074-.7666-.3213Zm1.0938-.3506c.0791-.1143,.1191-.2832,.1191-.5068,0-.2246-.04-.3936-.1191-.5068-.0801-.1143-.1885-.1709-.3271-.1709-.1338,0-.2422,.0576-.3232,.1738-.082,.1162-.1221,.2842-.1221,.5039s.04,.3877,.1221,.5039c.0811,.1152,.1895,.1738,.3232,.1738,.1387,0,.2471-.0576,.3271-.1709Zm2.2197-1.6367h.7266l-2.9189,4.2744h-.7266l2.9189-4.2744Zm-.1924,4.1797c-.1611-.0957-.2861-.2324-.376-.4121-.0889-.1787-.1338-.3867-.1338-.623,0-.2354,.0449-.4434,.1338-.623,.0898-.1787,.2148-.3164,.376-.4121s.3428-.1436,.5469-.1436c.3135,0,.5684,.1074,.7656,.3213,.1982,.2139,.2969,.5,.2969,.8574,0,.3584-.0986,.6445-.2969,.8584-.1973,.2139-.4521,.3203-.7656,.3203-.2041,0-.3857-.0479-.5469-.1436Zm.873-.5312c.0801-.1162,.1191-.2842,.1191-.5039s-.0391-.3877-.1191-.5039c-.0791-.1152-.1885-.1738-.3262-.1738-.1348,0-.2422,.0576-.3242,.1709-.0811,.1143-.1221,.2832-.1221,.5068,0,.2246,.041,.3936,.1221,.5068,.082,.1143,.1895,.1709,.3242,.1709,.1377,0,.2471-.0576,.3262-.1738Z"/></g><g><path d="M258.331,19.7587h.3604v2.8662l2.2148-2.8662h.3311v3.46h-.3608v-2.8613l-2.2144,2.8613h-.3311v-3.46Z"/><path d="M262.3192,20.6191h.3511v1.1514h1.6362v-1.1514h.3511v2.5996h-.3511v-1.1465h-1.6362v1.1465h-.3511v-2.5996Z"/><path d="M268.3944,22.8671c-.2671,.2314-.6445,.3564-1.1323,.377v.9336h-.3408v-.9297c-.4844-.0195-.8594-.1455-1.1245-.3779-.2651-.2314-.3979-.5508-.3979-.9561,0-.4023,.1328-.7168,.3979-.9443s.6401-.3506,1.1245-.3701v-1.0488h.3408v1.0488c.4878,.0225,.8652,.1475,1.1323,.375,.2666,.2275,.4004,.541,.4004,.9395,0,.4053-.1338,.7227-.4004,.9531Zm-2.3506-.2266c.1992,.1738,.4917,.2734,.8774,.2969v-2.0273c-.3823,.0195-.6738,.1162-.875,.2891-.2012,.1738-.3013,.4121-.3013,.7148,0,.3096,.0996,.5518,.2988,.7266Zm2.1006,.0049c.2026-.1748,.3042-.4189,.3042-.7314,0-.3066-.1016-.5449-.3042-.7168s-.4966-.2676-.8823-.2871v2.0273c.3857-.0205,.6797-.1172,.8823-.292Z"/><path d="M271.661,20.6191v2.5996h-.3506v-2.2891h-1.2456l-.0347,.6426c-.0264,.541-.0889,.9561-.188,1.2461-.0986,.29-.2754,.4355-.5288,.4355-.0693,0-.1533-.0137-.252-.04l.0244-.3018c.0596,.0137,.1006,.0195,.1235,.0195,.1353,0,.2373-.0625,.3066-.1875s.1152-.2793,.1382-.4648c.0234-.1836,.043-.4277,.0596-.7314l.0444-.9287h1.9028Z"/><path d="M274.6566,20.6191v2.5996h-.3213v-.8594h-.9146l-.603,.8594h-.3804l.6475-.9102c-.2012-.0547-.356-.1504-.4648-.2861-.1084-.1348-.1631-.3057-.1631-.5146,0-.2891,.0991-.5098,.2969-.6621,.1978-.1504,.4678-.2266,.8105-.2266h1.0923Zm-1.1069,1.4775h.7856v-1.167h-.7612c-.5073,0-.7612,.1973-.7612,.5889,0,.3857,.2456,.5781,.7368,.5781Z"/><path d="M278.3637,22.9121v.959h-.3311v-.6523h-2.3779v-2.5996h.3511v2.293h1.5869v-2.293h.3506v2.293h.4204Z"/><path d="M279.0355,20.6191h.3511v2.0664l1.7349-2.0664h.3115v2.5996h-.3511v-2.0664l-1.73,2.0664h-.3164v-2.5996Z"/><path d="M284.4335,20.6191v2.5996h-.3213v-.8594h-.9146l-.603,.8594h-.3804l.6475-.9102c-.2012-.0547-.356-.1504-.4648-.2861-.1084-.1348-.1631-.3057-.1631-.5146,0-.2891,.0991-.5098,.2969-.6621,.1978-.1504,.4678-.2266,.8105-.2266h1.0923Zm-1.1069,1.4775h.7856v-1.167h-.7612c-.5073,0-.7612,.1973-.7612,.5889,0,.3857,.2456,.5781,.7368,.5781Z"/><path d="M286.7265,20.6191h.3511v1.1514h1.6362v-1.1514h.3511v2.5996h-.3511v-1.1465h-1.6362v1.1465h-.3511v-2.5996Z"/><path d="M291.7387,20.8535c.1812,.1699,.272,.4209,.272,.7539v1.6113h-.3359v-.4053c-.0791,.1357-.1953,.2412-.3486,.3164s-.3354,.1143-.5464,.1143c-.29,0-.5205-.0703-.6919-.209-.1714-.1377-.2568-.3203-.2568-.5479,0-.2207,.0796-.3994,.2397-.5342,.1597-.1348,.4141-.2031,.7637-.2031h.8252v-.1572c0-.2236-.0625-.3955-.188-.5117-.125-.1172-.3081-.1758-.5483-.1758-.165,0-.3232,.0273-.4746,.0811-.1514,.0547-.2817,.1299-.3906,.2256l-.1582-.2617c.1318-.1123,.29-.1982,.4746-.2598s.3789-.0908,.5835-.0908c.3394,0,.5996,.084,.7808,.2539Zm-.3955,1.9766c.1416-.0898,.2471-.2207,.3164-.3926v-.4248h-.8154c-.4448,0-.6675,.1553-.6675,.4648,0,.1514,.0576,.2705,.1733,.3584,.1152,.0869,.2764,.1309,.4844,.1309,.1978,0,.3672-.0449,.5088-.1367Z"/><path d="M296.5727,20.6191v2.5996h-.3506v-2.2891h-1.6313v2.2891h-.3511v-2.5996h2.333Z"/><path d="M299.5731,20.7646c.1978,.1104,.3525,.2666,.4648,.4678,.1118,.2002,.168,.4297,.168,.6865,0,.2607-.0562,.4912-.168,.6924-.1123,.2012-.2661,.3555-.4624,.4668-.1958,.1104-.4175,.166-.6646,.166-.2109,0-.4014-.0449-.5708-.1318-.1699-.0869-.3091-.2148-.418-.3828v1.4482h-.3511v-3.5586h.3364v.5137c.1055-.1719,.2446-.3027,.4175-.3955s.3682-.1377,.5859-.1377c.2437,0,.4644,.0547,.6621,.165Zm-.1929,2.042c.1484-.084,.2646-.2041,.3486-.3594,.084-.1543,.126-.3301,.126-.5283s-.042-.374-.126-.5264c-.084-.1533-.2002-.2734-.3486-.3584-.1479-.0859-.313-.1289-.4941-.1289-.1846,0-.3501,.043-.4966,.1289-.147,.085-.2622,.2051-.3462,.3584-.084,.1523-.126,.3281-.126,.5264s.042,.374,.126,.5283c.084,.1553,.1992,.2754,.3462,.3594,.1465,.084,.312,.125,.4966,.125,.1812,0,.3462-.041,.4941-.125Z"/><path d="M301.3573,23.0722c-.2007-.1133-.3589-.2705-.4746-.4707-.1152-.2012-.1729-.4297-.1729-.6826,0-.2539,.0576-.4814,.1729-.6826,.1157-.2012,.2739-.3574,.4746-.4688,.2012-.1123,.4268-.168,.6772-.168s.4761,.0557,.6772,.168c.2012,.1113,.3584,.2676,.4722,.4688s.1704,.4287,.1704,.6826c0,.2529-.0566,.4814-.1704,.6826-.1138,.2002-.271,.3574-.4722,.4707-.2012,.1143-.4268,.1719-.6772,.1719s-.4761-.0576-.6772-.1719Zm1.1738-.2656c.147-.084,.2612-.2041,.3438-.3594,.0825-.1543,.1235-.3301,.1235-.5283s-.041-.374-.1235-.5293-.1968-.2744-.3438-.3584c-.1465-.084-.312-.126-.4966-.126s-.3501,.042-.4966,.126c-.147,.084-.2622,.2031-.3462,.3584s-.126,.3311-.126,.5293,.042,.374,.126,.5283c.084,.1553,.1992,.2754,.3462,.3594,.1465,.084,.312,.125,.4966,.125s.3501-.041,.4966-.125Z"/><path d="M306.6415,22.9121v.9346h-.3315v-.6279h-2.3281v.6279h-.3311v-.9346h.1484c.1743-.0098,.293-.1387,.356-.3848,.0625-.248,.1055-.5938,.1284-1.0391l.0347-.8691h1.9175v2.293h.4058Zm-2.1304-.4922c-.0464,.2402-.1289,.4033-.2476,.4922h1.6216v-1.9824h-1.2505l-.0298,.5781c-.0166,.3691-.0479,.6738-.0938,.9121Z"/><path d="M309.5326,20.6191l-1.2998,2.9111c-.1055,.2432-.2275,.417-.3657,.5186-.1382,.1025-.3047,.1533-.499,.1533-.1255,0-.2422-.0195-.3511-.0596-.1089-.0391-.2026-.0977-.2817-.1777l.1631-.2617c.1318,.1318,.29,.1973,.4746,.1973,.1187,0,.2197-.0332,.3037-.0977,.084-.0664,.1626-.1787,.2349-.3369l.1138-.252-1.1616-2.5947h.3657l.9785,2.209,.979-2.209h.3457Z"/><path d="M311.0258,22.0624h-.5933v1.1562h-.3511v-2.5996h.3511v1.1416h.5981l.9146-1.1416h.3804l-1.0229,1.2598,1.0972,1.3398h-.415l-.959-1.1562Z"/><path d="M314.7821,20.9296h-.9839v2.2891h-.3506v-2.2891h-.9839v-.3105h2.3184v.3105Z"/><path d="M317.1298,21.7558c.1714,.1416,.2573,.3457,.2573,.6133,0,.2764-.0923,.4883-.2769,.6367s-.4482,.2207-.791,.2178l-1.0283-.0049v-2.5996h.3511v.9092l.7417,.0098c.3262,.0029,.5747,.0752,.7461,.2178Zm-.2842,1.0547c.1235-.0996,.1855-.248,.1855-.4414,0-.1914-.061-.334-.1831-.4258s-.3047-.1406-.5483-.1426l-.6577-.0107v1.1572l.6577,.0098c.2402,.0029,.4224-.0449,.5459-.1465Zm.9761-2.1914h.3511v2.5996h-.3511v-2.5996Z"/><path d="M260.5795,26.5507v2.5996h-.3506v-2.2891h-1.6313v2.2891h-.3511v-2.5996h2.333Z"/><path d="M261.578,26.5507h.3511v2.0664l1.7349-2.0664h.3115v2.5996h-.3511v-2.0664l-1.73,2.0664h-.3164v-2.5996Z"/><path d="M266.8075,26.8613h-.9839v2.2891h-.3506v-2.2891h-.9839v-.3105h2.3184v.3105Z"/><path d="M268.9921,26.7851c.1812,.1699,.272,.4209,.272,.7539v1.6113h-.3359v-.4053c-.0791,.1357-.1953,.2412-.3486,.3164s-.3354,.1143-.5464,.1143c-.29,0-.5205-.0703-.6919-.209-.1714-.1377-.2568-.3203-.2568-.5479,0-.2207,.0796-.3994,.2397-.5342,.1597-.1348,.4141-.2031,.7637-.2031h.8252v-.1572c0-.2236-.0625-.3955-.188-.5117-.125-.1172-.3081-.1758-.5483-.1758-.165,0-.3232,.0273-.4746,.0811-.1514,.0547-.2817,.1299-.3906,.2256l-.1582-.2617c.1318-.1123,.29-.1982,.4746-.2598s.3789-.0908,.5835-.0908c.3394,0,.5996,.084,.7808,.2539Zm-.3955,1.9766c.1416-.0898,.2471-.2207,.3164-.3926v-.4248h-.8154c-.4448,0-.6675,.1553-.6675,.4648,0,.1514,.0576,.2705,.1733,.3584,.1152,.0869,.2764,.1309,.4844,.1309,.1978,0,.3672-.0449,.5088-.1367Z"/><path d="M270.1981,26.5507h.3511v1.1514h1.6362v-1.1514h.3511v2.5996h-.3511v-1.1465h-1.6362v1.1465h-.3511v-2.5996Z"/><path d="M273.5346,26.5507h.3511v2.0664l1.7349-2.0664h.3115v2.5996h-.3511v-2.0664l-1.73,2.0664h-.3164v-2.5996Z"/><path d="M278.9325,26.5507v2.5996h-.3213v-.8594h-.9146l-.603,.8594h-.3804l.6475-.9102c-.2012-.0547-.356-.1504-.4648-.2861-.1084-.1348-.1631-.3057-.1631-.5146,0-.2891,.0991-.5098,.2969-.6621,.1978-.1504,.4678-.2266,.8105-.2266h1.0923Zm-1.1069,1.4775h.7856v-1.167h-.7612c-.5073,0-.7612,.1973-.7612,.5889,0,.3857,.2456,.5781,.7368,.5781Z"/><path d="M280.1483,28.7128c.0493,.0508,.0742,.1152,.0742,.1904,0,.04-.0059,.083-.0176,.1279-.0112,.0469-.0288,.0996-.0518,.1582l-.2075,.6826h-.2373l.168-.7168c-.0527-.0166-.0957-.0469-.1284-.0908-.0332-.0449-.0493-.0986-.0493-.1611,0-.0752,.0244-.1396,.0737-.1904,.0498-.0508,.1123-.0762,.188-.0762s.1387,.0254,.188,.0762Z"/><path d="M284.1122,26.8613h-1.4878v2.2891h-.3511v-2.5996h1.8389v.3105Z"/><path d="M285.0165,29.0039c-.2007-.1133-.3589-.2705-.4746-.4707-.1152-.2012-.1729-.4297-.1729-.6826,0-.2539,.0576-.4814,.1729-.6826,.1157-.2012,.2739-.3574,.4746-.4688,.2012-.1123,.4268-.168,.6772-.168s.4761,.0557,.6772,.168c.2012,.1113,.3584,.2676,.4722,.4688s.1704,.4287,.1704,.6826c0,.2529-.0566,.4814-.1704,.6826-.1138,.2002-.271,.3574-.4722,.4707-.2012,.1143-.4268,.1719-.6772,.1719s-.4761-.0576-.6772-.1719Zm1.1738-.2656c.147-.084,.2612-.2041,.3438-.3594,.0825-.1543,.1235-.3301,.1235-.5283s-.041-.374-.1235-.5293-.1968-.2744-.3438-.3584c-.1465-.084-.312-.126-.4966-.126s-.3501,.042-.4966,.126c-.147,.084-.2622,.2031-.3462,.3584s-.126,.3311-.126,.5293,.042,.374,.126,.5283c.084,.1553,.1992,.2754,.3462,.3594,.1465,.084,.312,.125,.4966,.125s.3501-.041,.4966-.125Z"/><path d="M290.3007,28.8437v.9346h-.3315v-.6279h-2.3281v.6279h-.3311v-.9346h.1484c.1743-.0098,.293-.1387,.356-.3848,.0625-.248,.1055-.5938,.1284-1.0391l.0347-.8691h1.9175v2.293h.4058Zm-2.1304-.4922c-.0464,.2402-.1289,.4033-.2476,.4922h1.6216v-1.9824h-1.2505l-.0298,.5781c-.0166,.3691-.0479,.6738-.0938,.9121Z"/><path d="M293.2216,27.9941h-.5933v1.1562h-.3511v-2.5996h.3511v1.1416h.5981l.9146-1.1416h.3804l-1.0229,1.2598,1.0972,1.3398h-.415l-.959-1.1562Z"/><path d="M298.2826,26.8613h-1.4878v2.2891h-.3511v-2.5996h1.8389v.3105Z"/><path d="M299.1869,29.0039c-.2007-.1133-.3589-.2705-.4746-.4707-.1152-.2012-.1729-.4297-.1729-.6826,0-.2539,.0576-.4814,.1729-.6826,.1157-.2012,.2739-.3574,.4746-.4688,.2012-.1123,.4268-.168,.6772-.168s.4761,.0557,.6772,.168c.2012,.1113,.3584,.2676,.4722,.4688s.1704,.4287,.1704,.6826c0,.2529-.0566,.4814-.1704,.6826-.1138,.2002-.271,.3574-.4722,.4707-.2012,.1143-.4268,.1719-.6772,.1719s-.4761-.0576-.6772-.1719Zm1.1738-.2656c.147-.084,.2612-.2041,.3438-.3594,.0825-.1543,.1235-.3301,.1235-.5283s-.041-.374-.1235-.5293-.1968-.2744-.3438-.3584c-.1465-.084-.312-.126-.4966-.126s-.3501,.042-.4966,.126c-.147,.084-.2622,.2031-.3462,.3584s-.126,.3311-.126,.5293,.042,.374,.126,.5283c.084,.1553,.1992,.2754,.3462,.3594,.1465,.084,.312,.125,.4966,.125s.3501-.041,.4966-.125Z"/><path d="M304.4711,28.8437v.9346h-.3315v-.6279h-2.3281v.6279h-.3311v-.9346h.1484c.1743-.0098,.293-.1387,.356-.3848,.0625-.248,.1055-.5938,.1284-1.0391l.0347-.8691h1.9175v2.293h.4058Zm-2.1304-.4922c-.0464,.2402-.1289,.4033-.2476,.4922h1.6216v-1.9824h-1.2505l-.0298,.5781c-.0166,.3691-.0479,.6738-.0938,.9121Z"/><path d="M307.3622,26.5507l-1.2998,2.9111c-.1055,.2432-.2275,.417-.3657,.5186-.1382,.1025-.3047,.1533-.499,.1533-.1255,0-.2422-.0195-.3511-.0596-.1089-.0391-.2026-.0977-.2817-.1777l.1631-.2617c.1318,.1318,.29,.1973,.4746,.1973,.1187,0,.2197-.0332,.3037-.0977,.084-.0664,.1626-.1787,.2349-.3369l.1138-.252-1.1616-2.5947h.3657l.9785,2.209,.979-2.209h.3457Z"/></g><g><path d="M258.331,34.0976h.3604v2.8662l2.2148-2.8662h.3311v3.46h-.3608v-2.8623l-2.2144,2.8623h-.3311v-3.46Z"/><path d="M262.3192,34.957h.3511v1.1523h1.6362v-1.1523h.3511v2.6006h-.3511v-1.1475h-1.6362v1.1475h-.3511v-2.6006Z"/><path d="M268.3944,37.206c-.2671,.2314-.6445,.3564-1.1323,.376v.9346h-.3408v-.9297c-.4844-.0195-.8594-.1455-1.1245-.3779s-.3979-.5508-.3979-.9561c0-.4023,.1328-.7168,.3979-.9443s.6401-.3516,1.1245-.3711v-1.0479h.3408v1.0479c.4878,.0234,.8652,.1484,1.1323,.376,.2666,.2275,.4004,.54,.4004,.9395,0,.4053-.1338,.7227-.4004,.9531Zm-2.3506-.2266c.1992,.1738,.4917,.2734,.8774,.2959v-2.0264c-.3823,.0195-.6738,.1162-.875,.2891s-.3013,.4111-.3013,.7148c0,.3096,.0996,.5518,.2988,.7266Zm2.1006,.0049c.2026-.1748,.3042-.4189,.3042-.7314,0-.3066-.1016-.5459-.3042-.7168-.2026-.1719-.4966-.2676-.8823-.2871v2.0264c.3857-.0195,.6797-.1162,.8823-.291Z"/><path d="M271.661,34.957v2.6006h-.3506v-2.2891h-1.2456l-.0347,.6426c-.0264,.541-.0889,.9561-.188,1.2461-.0986,.29-.2754,.4346-.5288,.4346-.0693,0-.1533-.0127-.252-.0391l.0244-.3018c.0596,.0127,.1006,.0195,.1235,.0195,.1353,0,.2373-.0625,.3066-.1875s.1152-.2803,.1382-.4648c.0234-.1846,.043-.4287,.0596-.7314l.0444-.9297h1.9028Z"/><path d="M274.6566,34.957v2.6006h-.3213v-.8604h-.9146l-.603,.8604h-.3804l.6475-.9102c-.2012-.0557-.356-.1514-.4648-.2861-.1084-.1348-.1631-.3066-.1631-.5146,0-.2891,.0991-.5107,.2969-.6621s.4678-.2275,.8105-.2275h1.0923Zm-1.1069,1.4785h.7856v-1.167h-.7612c-.5073,0-.7612,.1963-.7612,.5889,0,.3848,.2456,.5781,.7368,.5781Z"/><path d="M278.3637,37.2509v.959h-.3311v-.6523h-2.3779v-2.6006h.3511v2.2939h1.5869v-2.2939h.3506v2.2939h.4204Z"/><path d="M279.0355,34.957h.3511v2.0664l1.7349-2.0664h.3115v2.6006h-.3511v-2.0664l-1.73,2.0664h-.3164v-2.6006Z"/><path d="M284.4335,34.957v2.6006h-.3213v-.8604h-.9146l-.603,.8604h-.3804l.6475-.9102c-.2012-.0557-.356-.1514-.4648-.2861-.1084-.1348-.1631-.3066-.1631-.5146,0-.2891,.0991-.5107,.2969-.6621s.4678-.2275,.8105-.2275h1.0923Zm-1.1069,1.4785h.7856v-1.167h-.7612c-.5073,0-.7612,.1963-.7612,.5889,0,.3848,.2456,.5781,.7368,.5781Z"/><path d="M285.6493,37.1201c.0493,.0508,.0742,.1143,.0742,.1904,0,.0391-.0059,.082-.0176,.1279-.0112,.0469-.0288,.0996-.0518,.1582l-.2075,.6826h-.2373l.168-.7168c-.0527-.0166-.0957-.0469-.1284-.0918-.0332-.0439-.0493-.0977-.0493-.1602,0-.0762,.0244-.1396,.0737-.1904,.0498-.0508,.1123-.0771,.188-.0771s.1387,.0264,.188,.0771Z"/><path d="M289.6132,35.2685h-1.4878v2.2891h-.3511v-2.6006h1.8389v.3115Z"/><path d="M290.5175,37.4111c-.2007-.1133-.3589-.2705-.4746-.4717-.1152-.2012-.1729-.4287-.1729-.6816,0-.2539,.0576-.4814,.1729-.6826,.1157-.2012,.2739-.3574,.4746-.4697,.2012-.1113,.4268-.168,.6772-.168s.4761,.0566,.6772,.168c.2012,.1123,.3584,.2686,.4722,.4697s.1704,.4287,.1704,.6826c0,.2529-.0566,.4805-.1704,.6816s-.271,.3584-.4722,.4717c-.2012,.1143-.4268,.1709-.6772,.1709s-.4761-.0566-.6772-.1709Zm1.1738-.2666c.147-.084,.2612-.2031,.3438-.3584,.0825-.1543,.1235-.3311,.1235-.5283,0-.1982-.041-.374-.1235-.5293s-.1968-.2744-.3438-.3584c-.1465-.084-.312-.126-.4966-.126s-.3501,.042-.4966,.126c-.147,.084-.2622,.2031-.3462,.3584s-.126,.3311-.126,.5293c0,.1973,.042,.374,.126,.5283,.084,.1553,.1992,.2744,.3462,.3584,.1465,.084,.312,.126,.4966,.126s.3501-.042,.4966-.126Z"/><path d="M295.8017,37.2509v.9346h-.3315v-.6279h-2.3281v.6279h-.3311v-.9346h.1484c.1743-.0098,.293-.1387,.356-.3857,.0625-.2471,.1055-.5928,.1284-1.0381l.0347-.8701h1.9175v2.2939h.4058Zm-2.1304-.4922c-.0464,.2393-.1289,.4033-.2476,.4922h1.6216v-1.9824h-1.2505l-.0298,.5781c-.0166,.3691-.0479,.6738-.0938,.9121Z"/><path d="M298.7226,36.4003h-.5933v1.1572h-.3511v-2.6006h.3511v1.1426h.5981l.9146-1.1426h.3804l-1.0229,1.2607,1.0972,1.3398h-.415l-.959-1.1572Z"/><path d="M303.7836,35.2685h-1.4878v2.2891h-.3511v-2.6006h1.8389v.3115Z"/><path d="M304.6879,37.4111c-.2007-.1133-.3589-.2705-.4746-.4717-.1152-.2012-.1729-.4287-.1729-.6816,0-.2539,.0576-.4814,.1729-.6826,.1157-.2012,.2739-.3574,.4746-.4697,.2012-.1113,.4268-.168,.6772-.168s.4761,.0566,.6772,.168c.2012,.1123,.3584,.2686,.4722,.4697s.1704,.4287,.1704,.6826c0,.2529-.0566,.4805-.1704,.6816s-.271,.3584-.4722,.4717c-.2012,.1143-.4268,.1709-.6772,.1709s-.4761-.0566-.6772-.1709Zm1.1738-.2666c.147-.084,.2612-.2031,.3438-.3584,.0825-.1543,.1235-.3311,.1235-.5283,0-.1982-.041-.374-.1235-.5293s-.1968-.2744-.3438-.3584c-.1465-.084-.312-.126-.4966-.126s-.3501,.042-.4966,.126c-.147,.084-.2622,.2031-.3462,.3584s-.126,.3311-.126,.5293c0,.1973,.042,.374,.126,.5283,.084,.1553,.1992,.2744,.3462,.3584,.1465,.084,.312,.126,.4966,.126s.3501-.042,.4966-.126Z"/><path d="M309.9721,37.2509v.9346h-.3315v-.6279h-2.3281v.6279h-.3311v-.9346h.1484c.1743-.0098,.293-.1387,.356-.3857,.0625-.2471,.1055-.5928,.1284-1.0381l.0347-.8701h1.9175v2.2939h.4058Zm-2.1304-.4922c-.0464,.2393-.1289,.4033-.2476,.4922h1.6216v-1.9824h-1.2505l-.0298,.5781c-.0166,.3691-.0479,.6738-.0938,.9121Z"/><path d="M312.8632,34.957l-1.2998,2.9121c-.1055,.2432-.2275,.416-.3657,.5186s-.3047,.1533-.499,.1533c-.1255,0-.2422-.0195-.3511-.0596-.1089-.0391-.2026-.0986-.2817-.1777l.1631-.2617c.1318,.1318,.29,.1973,.4746,.1973,.1187,0,.2197-.0332,.3037-.0986,.084-.0664,.1626-.1777,.2349-.3359l.1138-.252-1.1616-2.5957h.3657l.9785,2.21,.979-2.21h.3457Z"/></g><circle class="cls-1" cx="250.3654" cy="22.1538" r="2.1363"/><circle class="cls-2" cx="250.3654" cy="35.4931" r="2.1363"/><g><g><path class="cls-4" d="M114.5785,174.3369c-.0977,.0254-.1943,.042-.2891,.0527-.0957,.0107-.1929,.0156-.292,.0156-.2832,0-.5107-.0771-.6826-.2324-.1714-.1553-.2646-.3779-.2793-.668-.0391,.0068-.0771,.0107-.1133,.0137-.0371,.002-.0723,.0039-.1064,.0039-.2554,0-.4878-.043-.6973-.127-.209-.085-.3867-.208-.5332-.3691s-.2593-.3594-.3379-.5938c-.0791-.2344-.1187-.502-.1187-.8027,0-.2959,.0391-.5615,.1172-.7969s.1919-.4365,.3418-.6045c.1431-.1592,.3208-.2812,.5337-.3662,.2119-.085,.4438-.127,.6943-.127,.2603,0,.4941,.043,.7021,.1279,.207,.0859,.3833,.207,.5283,.3652,.1479,.1631,.2617,.3623,.3408,.5986,.0786,.2354,.1182,.5029,.1182,.8027,0,.4443-.0908,.8184-.2725,1.123-.1812,.3047-.4248,.5176-.731,.6396,.0063,.1855,.0503,.3291,.1318,.4326,.0815,.1016,.2295,.1533,.4443,.1533,.0669,0,.146-.0098,.2378-.0303,.0923-.0205,.1577-.0391,.1968-.0547h.0659v.4434Zm-.5762-2.707c0-.4717-.106-.8359-.3174-1.0928-.2114-.2559-.5005-.3838-.8667-.3838-.3696,0-.6597,.1279-.8706,.3838-.2104,.2568-.3159,.6211-.3159,1.0928,0,.4766,.1074,.8418,.3223,1.0947s.5029,.3799,.8643,.3799,.6489-.127,.8628-.3799c.2144-.2529,.3213-.6182,.3213-1.0947Z"/><path class="cls-4" d="M117.4301,173.4462h-1.9678v-.3711h.7568v-2.4365h-.7568v-.332c.1025,0,.2124-.0088,.3296-.0254,.1172-.0176,.2061-.042,.2661-.0752,.0747-.04,.1338-.0918,.1768-.1543,.0435-.0625,.0684-.1475,.0747-.2529h.3784v3.2764h.7422v.3711Z"/></g><g><path class="cls-4" d="M126.8793,174.3369c-.0977,.0254-.1943,.042-.2891,.0527-.0957,.0107-.1929,.0156-.292,.0156-.2832,0-.5107-.0771-.6826-.2324-.1714-.1553-.2646-.3779-.2793-.668-.0391,.0068-.0771,.0107-.1133,.0137-.0371,.002-.0723,.0039-.1064,.0039-.2554,0-.4878-.043-.6973-.127-.209-.085-.3867-.208-.5332-.3691s-.2593-.3594-.3379-.5938c-.0791-.2344-.1187-.502-.1187-.8027,0-.2959,.0391-.5615,.1172-.7969s.1919-.4365,.3418-.6045c.1431-.1592,.3208-.2812,.5337-.3662,.2119-.085,.4438-.127,.6943-.127,.2603,0,.4941,.043,.7021,.1279,.207,.0859,.3833,.207,.5283,.3652,.1479,.1631,.2617,.3623,.3408,.5986,.0786,.2354,.1182,.5029,.1182,.8027,0,.4443-.0908,.8184-.2725,1.123-.1812,.3047-.4248,.5176-.731,.6396,.0063,.1855,.0503,.3291,.1318,.4326,.0815,.1016,.2295,.1533,.4443,.1533,.0669,0,.146-.0098,.2378-.0303,.0923-.0205,.1577-.0391,.1968-.0547h.0659v.4434Zm-.5762-2.707c0-.4717-.106-.8359-.3174-1.0928-.2114-.2559-.5005-.3838-.8667-.3838-.3696,0-.6597,.1279-.8706,.3838-.2104,.2568-.3159,.6211-.3159,1.0928,0,.4766,.1074,.8418,.3223,1.0947s.5029,.3799,.8643,.3799,.6489-.127,.8628-.3799c.2144-.2529,.3213-.6182,.3213-1.0947Z"/><path class="cls-4" d="M129.9384,173.4462h-2.4609v-.5098c.1709-.1465,.3423-.293,.5142-.4395,.1714-.1465,.3315-.293,.4795-.4375,.3125-.3027,.5264-.543,.6421-.7217,.1157-.1777,.1733-.3701,.1733-.5771,0-.1885-.0625-.3369-.1865-.4434-.125-.1064-.2983-.1602-.5215-.1602-.1479,0-.3086,.0264-.481,.0781-.1724,.0527-.3408,.1328-.5054,.2402h-.0244v-.5137c.1157-.0566,.2695-.1084,.4629-.1562,.1924-.0469,.3794-.0703,.5601-.0703,.3726,0,.665,.0898,.8765,.2695s.3174,.4238,.3174,.7314c0,.1387-.0176,.2676-.0527,.3867-.0347,.1201-.0864,.2334-.1548,.3408-.0635,.1006-.1382,.2002-.2231,.2979-.0859,.0977-.1895,.2061-.3115,.3252-.1743,.1699-.354,.3359-.5396,.4961s-.3589,.3086-.52,.4453h1.9556v.418Z"/></g><g><path class="cls-4" d="M139.1801,174.3369c-.0977,.0254-.1943,.042-.2891,.0527-.0957,.0107-.1929,.0156-.292,.0156-.2832,0-.5107-.0771-.6826-.2324-.1714-.1553-.2646-.3779-.2793-.668-.0391,.0068-.0771,.0107-.1133,.0137-.0371,.002-.0723,.0039-.1064,.0039-.2554,0-.4878-.043-.6973-.127-.209-.085-.3867-.208-.5332-.3691s-.2593-.3594-.3379-.5938c-.0791-.2344-.1187-.502-.1187-.8027,0-.2959,.0391-.5615,.1172-.7969s.1919-.4365,.3418-.6045c.1431-.1592,.3208-.2812,.5337-.3662,.2119-.085,.4438-.127,.6943-.127,.2603,0,.4941,.043,.7021,.1279,.207,.0859,.3833,.207,.5283,.3652,.1479,.1631,.2617,.3623,.3408,.5986,.0786,.2354,.1182,.5029,.1182,.8027,0,.4443-.0908,.8184-.2725,1.123-.1812,.3047-.4248,.5176-.731,.6396,.0063,.1855,.0503,.3291,.1318,.4326,.0815,.1016,.2295,.1533,.4443,.1533,.0669,0,.146-.0098,.2378-.0303,.0923-.0205,.1577-.0391,.1968-.0547h.0659v.4434Zm-.5762-2.707c0-.4717-.106-.8359-.3174-1.0928-.2114-.2559-.5005-.3838-.8667-.3838-.3696,0-.6597,.1279-.8706,.3838-.2104,.2568-.3159,.6211-.3159,1.0928,0,.4766,.1074,.8418,.3223,1.0947s.5029,.3799,.8643,.3799,.6489-.127,.8628-.3799c.2144-.2529,.3213-.6182,.3213-1.0947Z"/><path class="cls-4" d="M141.9193,171.6962c.0781,.0693,.1426,.1572,.1929,.2637,.0503,.1055,.0757,.2422,.0757,.4102,0,.166-.0303,.3174-.0903,.4561s-.145,.2588-.2539,.3613c-.1221,.1143-.2656,.1982-.4312,.2529-.165,.0547-.3462,.082-.543,.082-.2017,0-.4004-.0244-.5957-.0723s-.3555-.1006-.481-.1582v-.5098h.0366c.1382,.0908,.3013,.167,.4883,.2266,.187,.0605,.3677,.0908,.542,.0908,.1025,0,.2114-.0166,.3271-.0518,.1157-.0332,.209-.084,.2808-.1504,.0747-.0723,.1304-.1514,.1675-.2373,.0361-.0859,.0547-.1953,.0547-.3271,0-.1299-.0205-.2383-.0625-.3232-.041-.0859-.0986-.1533-.1719-.2021-.0732-.0498-.1621-.085-.2661-.1035s-.2163-.0273-.3369-.0273h-.2197v-.4062h.1709c.2476,0,.4448-.0508,.5923-.1543,.147-.1035,.2207-.2549,.2207-.4531,0-.0879-.0186-.165-.0562-.2305-.0376-.0664-.0894-.1201-.1562-.1621-.0698-.043-.145-.0723-.2246-.0879-.0796-.0166-.1699-.0254-.271-.0254-.1548,0-.3188,.0283-.4932,.084-.1743,.0547-.3384,.1328-.4932,.2344h-.0244v-.5107c.1157-.0566,.2695-.1094,.4629-.1572,.1924-.0479,.3794-.0723,.5601-.0723,.1772,0,.3335,.0166,.4688,.0488s.2573,.085,.3662,.1562c.1172,.0781,.2061,.1729,.2661,.2832s.0903,.2402,.0903,.3887c0,.2012-.0713,.3779-.2134,.5283-.1426,.1504-.3105,.2451-.5044,.2842v.0342c.0781,.0127,.1675,.04,.2686,.082,.1011,.041,.1865,.0928,.2563,.1553Z"/></g><g><path class="cls-4" d="M151.4818,174.3369c-.0977,.0254-.1943,.042-.2891,.0527-.0957,.0107-.1929,.0156-.292,.0156-.2832,0-.5107-.0771-.6826-.2324-.1714-.1553-.2646-.3779-.2793-.668-.0391,.0068-.0771,.0107-.1133,.0137-.0371,.002-.0723,.0039-.1064,.0039-.2554,0-.4878-.043-.6973-.127-.209-.085-.3867-.208-.5332-.3691s-.2593-.3594-.3379-.5938c-.0791-.2344-.1187-.502-.1187-.8027,0-.2959,.0391-.5615,.1172-.7969s.1919-.4365,.3418-.6045c.1431-.1592,.3208-.2812,.5337-.3662,.2119-.085,.4438-.127,.6943-.127,.2603,0,.4941,.043,.7021,.1279,.207,.0859,.3833,.207,.5283,.3652,.1479,.1631,.2617,.3623,.3408,.5986,.0786,.2354,.1182,.5029,.1182,.8027,0,.4443-.0908,.8184-.2725,1.123-.1812,.3047-.4248,.5176-.731,.6396,.0063,.1855,.0503,.3291,.1318,.4326,.0815,.1016,.2295,.1533,.4443,.1533,.0669,0,.146-.0098,.2378-.0303,.0923-.0205,.1577-.0391,.1968-.0547h.0659v.4434Zm-.5762-2.707c0-.4717-.106-.8359-.3174-1.0928-.2114-.2559-.5005-.3838-.8667-.3838-.3696,0-.6597,.1279-.8706,.3838-.2104,.2568-.3159,.6211-.3159,1.0928,0,.4766,.1074,.8418,.3223,1.0947s.5029,.3799,.8643,.3799,.6489-.127,.8628-.3799c.2144-.2529,.3213-.6182,.3213-1.0947Z"/><path class="cls-4" d="M154.6239,172.4228h-.5396v1.0234h-.4688v-1.0234h-1.7407v-.5605l1.7603-2.0508h.4492v2.2207h.5396v.3906Zm-1.0083-.3906v-1.6406l-1.4087,1.6406h1.4087Z"/></g><line class="cls-9" x1="109.4023" y1="176.7728" x2="157.682" y2="176.7728"/><g><path class="cls-4" d="M112.1938,183.5654h-2.4609v-.5098c.1709-.1465,.3423-.293,.5142-.4395,.1714-.1465,.3315-.293,.4795-.4375,.3125-.3027,.5264-.543,.6421-.7217,.1157-.1777,.1733-.3701,.1733-.5771,0-.1885-.0625-.3369-.1865-.4434-.125-.1064-.2983-.1602-.5215-.1602-.1479,0-.3086,.0264-.481,.0781-.1724,.0527-.3408,.1328-.5054,.2402h-.0244v-.5137c.1157-.0566,.2695-.1084,.4629-.1562,.1924-.0469,.3794-.0703,.5601-.0703,.3726,0,.665,.0898,.8765,.2695s.3174,.4238,.3174,.7314c0,.1387-.0176,.2676-.0527,.3867-.0347,.1201-.0864,.2334-.1548,.3408-.0635,.1006-.1382,.2002-.2231,.2979-.0859,.0977-.1895,.2061-.3115,.3252-.1743,.1699-.354,.3359-.5396,.4961s-.3589,.3086-.52,.4453h1.9556v.418Z"/><path class="cls-4" d="M115.3676,181.747c0,.6523-.1021,1.1309-.3062,1.4365-.2046,.3047-.5215,.458-.9512,.458-.436,0-.7549-.1553-.9561-.4648-.2007-.3086-.3013-.7842-.3013-1.4258,0-.6455,.1016-1.123,.3052-1.4316s.521-.4629,.9521-.4629c.436,0,.7549,.1572,.9561,.4707,.2007,.3135,.3013,.7861,.3013,1.4199Zm-.6421,1.1074c.0571-.1309,.0957-.2861,.1162-.4648,.02-.1777,.0303-.3926,.0303-.6426,0-.248-.0103-.4629-.0303-.6445-.0205-.1826-.0601-.3379-.1187-.4648-.0571-.125-.1348-.2188-.2329-.2832-.0986-.0625-.2251-.0947-.3799-.0947-.1528,0-.2793,.0322-.3799,.0947-.0996,.0645-.1792,.1602-.2378,.2891-.0552,.1201-.0933,.2773-.1138,.4707-.02,.1934-.0303,.4062-.0303,.6367,0,.2539,.0088,.4668,.0269,.6377s.0562,.3242,.1147,.459c.0537,.127,.1299,.2236,.2285,.29,.0981,.0674,.229,.1006,.3916,.1006,.1528,0,.2798-.0322,.3809-.0947,.1011-.0645,.1792-.1602,.2344-.2891Z"/><path class="cls-4" d="M118.3437,183.5654h-1.9678v-.3711h.7568v-2.4365h-.7568v-.332c.1025,0,.2124-.0088,.3296-.0254,.1172-.0176,.2061-.042,.2661-.0752,.0747-.04,.1338-.0918,.1768-.1543,.0435-.0625,.0684-.1475,.0747-.2529h.3784v3.2764h.7422v.3711Z"/><path class="cls-4" d="M121.7567,182.5517c0,.3145-.1226,.5762-.3672,.7842-.2451,.208-.5532,.3125-.9243,.3125-.394,0-.7075-.1016-.9409-.3057-.2339-.2031-.3506-.4629-.3506-.7812,0-.2012,.0586-.3838,.1758-.5479,.1172-.1631,.2822-.293,.4956-.3896v-.0137c-.1953-.1045-.3398-.2188-.4331-.3418-.0938-.124-.1406-.2793-.1406-.4648,0-.2734,.1123-.501,.3369-.6836,.2246-.1816,.5103-.2734,.8569-.2734,.3628,0,.6528,.0879,.8691,.2617s.3247,.3955,.3247,.6641c0,.1641-.0513,.3262-.1538,.4844-.1025,.1592-.2529,.2832-.4517,.373v.0137c.228,.0977,.4019,.2188,.5225,.3613,.1206,.1436,.1807,.3262,.1807,.5469Zm-.5029,.0469c0-.1494-.0332-.2695-.0986-.3604-.0664-.0898-.1953-.1807-.3872-.2725-.0767-.0352-.1602-.0684-.2515-.0996s-.2124-.0742-.3638-.1289c-.1465,.0791-.2642,.1875-.353,.3242-.0884,.1367-.1328,.291-.1328,.4639,0,.2197,.0757,.4014,.2271,.5439,.1514,.1436,.3433,.2148,.5762,.2148,.2378,0,.4277-.0605,.5698-.1826,.1426-.1221,.2139-.29,.2139-.5029Zm-.0757-1.8213c0-.1738-.0669-.3125-.2017-.416-.1338-.1035-.3052-.1553-.5137-.1553-.2051,0-.373,.0488-.5039,.1465-.1313,.0977-.1968,.2295-.1968,.3955,0,.1172,.0327,.2188,.0991,.3037,.0654,.0859,.1655,.1621,.2988,.2285,.0601,.0293,.147,.0674,.2598,.1152,.1133,.0469,.2236,.0859,.3311,.1172,.1611-.1074,.2725-.2197,.3345-.335s.0928-.249,.0928-.4004Z"/></g></g><g><g><path class="cls-4" d="M64.2357,174.3369c-.0977,.0254-.1943,.042-.2891,.0527-.0957,.0107-.1929,.0156-.292,.0156-.2832,0-.5107-.0771-.6826-.2324-.1714-.1553-.2646-.3779-.2793-.668-.0391,.0068-.0771,.0107-.1133,.0137-.0371,.002-.0723,.0039-.1064,.0039-.2554,0-.4878-.043-.6973-.127-.209-.085-.3867-.208-.5332-.3691s-.2593-.3594-.3379-.5938c-.0791-.2344-.1187-.502-.1187-.8027,0-.2959,.0391-.5615,.1172-.7969s.1919-.4365,.3418-.6045c.1431-.1592,.3208-.2812,.5337-.3662,.2119-.085,.4438-.127,.6943-.127,.2603,0,.4941,.043,.7021,.1279,.207,.0859,.3833,.207,.5283,.3652,.1479,.1631,.2617,.3623,.3408,.5986,.0786,.2354,.1182,.5029,.1182,.8027,0,.4443-.0908,.8184-.2725,1.123-.1812,.3047-.4248,.5176-.731,.6396,.0063,.1855,.0503,.3291,.1318,.4326,.0815,.1016,.2295,.1533,.4443,.1533,.0669,0,.146-.0098,.2378-.0303,.0923-.0205,.1577-.0391,.1968-.0547h.0659v.4434Zm-.5762-2.707c0-.4717-.106-.8359-.3174-1.0928-.2114-.2559-.5005-.3838-.8667-.3838-.3696,0-.6597,.1279-.8706,.3838-.2104,.2568-.3159,.6211-.3159,1.0928,0,.4766,.1074,.8418,.3223,1.0947s.5029,.3799,.8643,.3799,.6489-.127,.8628-.3799c.2144-.2529,.3213-.6182,.3213-1.0947Z"/><path class="cls-4" d="M67.0873,173.4462h-1.9678v-.3711h.7568v-2.4365h-.7568v-.332c.1025,0,.2124-.0088,.3296-.0254,.1172-.0176,.2061-.042,.2661-.0752,.0747-.04,.1338-.0918,.1768-.1543,.0435-.0625,.0684-.1475,.0747-.2529h.3784v3.2764h.7422v.3711Z"/></g><g><path class="cls-4" d="M76.5365,174.3369c-.0977,.0254-.1943,.042-.2891,.0527-.0957,.0107-.1929,.0156-.292,.0156-.2832,0-.5107-.0771-.6826-.2324-.1714-.1553-.2646-.3779-.2793-.668-.0391,.0068-.0771,.0107-.1133,.0137-.0371,.002-.0723,.0039-.1064,.0039-.2554,0-.4878-.043-.6973-.127-.209-.085-.3867-.208-.5332-.3691s-.2593-.3594-.3379-.5938c-.0791-.2344-.1187-.502-.1187-.8027,0-.2959,.0391-.5615,.1172-.7969s.1919-.4365,.3418-.6045c.1431-.1592,.3208-.2812,.5337-.3662,.2119-.085,.4438-.127,.6943-.127,.2603,0,.4941,.043,.7021,.1279,.207,.0859,.3833,.207,.5283,.3652,.1479,.1631,.2617,.3623,.3408,.5986,.0786,.2354,.1182,.5029,.1182,.8027,0,.4443-.0908,.8184-.2725,1.123-.1812,.3047-.4248,.5176-.731,.6396,.0063,.1855,.0503,.3291,.1318,.4326,.0815,.1016,.2295,.1533,.4443,.1533,.0669,0,.146-.0098,.2378-.0303,.0923-.0205,.1577-.0391,.1968-.0547h.0659v.4434Zm-.5762-2.707c0-.4717-.106-.8359-.3174-1.0928-.2114-.2559-.5005-.3838-.8667-.3838-.3696,0-.6597,.1279-.8706,.3838-.2104,.2568-.3159,.6211-.3159,1.0928,0,.4766,.1074,.8418,.3223,1.0947s.5029,.3799,.8643,.3799,.6489-.127,.8628-.3799c.2144-.2529,.3213-.6182,.3213-1.0947Z"/><path class="cls-4" d="M79.5956,173.4462h-2.4609v-.5098c.1709-.1465,.3423-.293,.5142-.4395,.1714-.1465,.3315-.293,.4795-.4375,.3125-.3027,.5264-.543,.6421-.7217,.1157-.1777,.1733-.3701,.1733-.5771,0-.1885-.0625-.3369-.1865-.4434-.125-.1064-.2983-.1602-.5215-.1602-.1479,0-.3086,.0264-.481,.0781-.1724,.0527-.3408,.1328-.5054,.2402h-.0244v-.5137c.1157-.0566,.2695-.1084,.4629-.1562,.1924-.0469,.3794-.0703,.5601-.0703,.3726,0,.665,.0898,.8765,.2695s.3174,.4238,.3174,.7314c0,.1387-.0176,.2676-.0527,.3867-.0347,.1201-.0864,.2334-.1548,.3408-.0635,.1006-.1382,.2002-.2231,.2979-.0859,.0977-.1895,.2061-.3115,.3252-.1743,.1699-.354,.3359-.5396,.4961s-.3589,.3086-.52,.4453h1.9556v.418Z"/></g><g><path class="cls-4" d="M88.8373,174.3369c-.0977,.0254-.1943,.042-.2891,.0527-.0957,.0107-.1929,.0156-.292,.0156-.2832,0-.5107-.0771-.6826-.2324-.1714-.1553-.2646-.3779-.2793-.668-.0391,.0068-.0771,.0107-.1133,.0137-.0371,.002-.0723,.0039-.1064,.0039-.2554,0-.4878-.043-.6973-.127-.209-.085-.3867-.208-.5332-.3691s-.2593-.3594-.3379-.5938c-.0791-.2344-.1187-.502-.1187-.8027,0-.2959,.0391-.5615,.1172-.7969s.1919-.4365,.3418-.6045c.1431-.1592,.3208-.2812,.5337-.3662,.2119-.085,.4438-.127,.6943-.127,.2603,0,.4941,.043,.7021,.1279,.207,.0859,.3833,.207,.5283,.3652,.1479,.1631,.2617,.3623,.3408,.5986,.0786,.2354,.1182,.5029,.1182,.8027,0,.4443-.0908,.8184-.2725,1.123-.1812,.3047-.4248,.5176-.731,.6396,.0063,.1855,.0503,.3291,.1318,.4326,.0815,.1016,.2295,.1533,.4443,.1533,.0669,0,.146-.0098,.2378-.0303,.0923-.0205,.1577-.0391,.1968-.0547h.0659v.4434Zm-.5762-2.707c0-.4717-.106-.8359-.3174-1.0928-.2114-.2559-.5005-.3838-.8667-.3838-.3696,0-.6597,.1279-.8706,.3838-.2104,.2568-.3159,.6211-.3159,1.0928,0,.4766,.1074,.8418,.3223,1.0947s.5029,.3799,.8643,.3799,.6489-.127,.8628-.3799c.2144-.2529,.3213-.6182,.3213-1.0947Z"/><path class="cls-4" d="M91.5766,171.6962c.0781,.0693,.1426,.1572,.1929,.2637,.0503,.1055,.0757,.2422,.0757,.4102,0,.166-.0303,.3174-.0903,.4561s-.145,.2588-.2539,.3613c-.1221,.1143-.2656,.1982-.4312,.2529-.165,.0547-.3462,.082-.543,.082-.2017,0-.4004-.0244-.5957-.0723s-.3555-.1006-.481-.1582v-.5098h.0366c.1382,.0908,.3013,.167,.4883,.2266,.187,.0605,.3677,.0908,.542,.0908,.1025,0,.2114-.0166,.3271-.0518,.1157-.0332,.209-.084,.2808-.1504,.0747-.0723,.1304-.1514,.1675-.2373,.0361-.0859,.0547-.1953,.0547-.3271,0-.1299-.0205-.2383-.0625-.3232-.041-.0859-.0986-.1533-.1719-.2021-.0732-.0498-.1621-.085-.2661-.1035s-.2163-.0273-.3369-.0273h-.2197v-.4062h.1709c.2476,0,.4448-.0508,.5923-.1543,.147-.1035,.2207-.2549,.2207-.4531,0-.0879-.0186-.165-.0562-.2305-.0376-.0664-.0894-.1201-.1562-.1621-.0698-.043-.145-.0723-.2246-.0879-.0796-.0166-.1699-.0254-.271-.0254-.1548,0-.3188,.0283-.4932,.084-.1743,.0547-.3384,.1328-.4932,.2344h-.0244v-.5107c.1157-.0566,.2695-.1094,.4629-.1572,.1924-.0479,.3794-.0723,.5601-.0723,.1772,0,.3335,.0166,.4688,.0488s.2573,.085,.3662,.1562c.1172,.0781,.2061,.1729,.2661,.2832s.0903,.2402,.0903,.3887c0,.2012-.0713,.3779-.2134,.5283-.1426,.1504-.3105,.2451-.5044,.2842v.0342c.0781,.0127,.1675,.04,.2686,.082,.1011,.041,.1865,.0928,.2563,.1553Z"/></g><g><path class="cls-4" d="M101.1391,174.3369c-.0977,.0254-.1943,.042-.2891,.0527-.0957,.0107-.1929,.0156-.292,.0156-.2832,0-.5107-.0771-.6826-.2324-.1714-.1553-.2646-.3779-.2793-.668-.0391,.0068-.0771,.0107-.1133,.0137-.0371,.002-.0723,.0039-.1064,.0039-.2554,0-.4878-.043-.6973-.127-.209-.085-.3867-.208-.5332-.3691s-.2593-.3594-.3379-.5938c-.0791-.2344-.1187-.502-.1187-.8027,0-.2959,.0391-.5615,.1172-.7969s.1919-.4365,.3418-.6045c.1431-.1592,.3208-.2812,.5337-.3662,.2119-.085,.4438-.127,.6943-.127,.2603,0,.4941,.043,.7021,.1279,.207,.0859,.3833,.207,.5283,.3652,.1479,.1631,.2617,.3623,.3408,.5986,.0786,.2354,.1182,.5029,.1182,.8027,0,.4443-.0908,.8184-.2725,1.123-.1812,.3047-.4248,.5176-.731,.6396,.0063,.1855,.0503,.3291,.1318,.4326,.0815,.1016,.2295,.1533,.4443,.1533,.0669,0,.146-.0098,.2378-.0303,.0923-.0205,.1577-.0391,.1968-.0547h.0659v.4434Zm-.5762-2.707c0-.4717-.106-.8359-.3174-1.0928-.2114-.2559-.5005-.3838-.8667-.3838-.3696,0-.6597,.1279-.8706,.3838-.2104,.2568-.3159,.6211-.3159,1.0928,0,.4766,.1074,.8418,.3223,1.0947s.5029,.3799,.8643,.3799,.6489-.127,.8628-.3799c.2144-.2529,.3213-.6182,.3213-1.0947Z"/><path class="cls-4" d="M104.2812,172.4228h-.5396v1.0234h-.4688v-1.0234h-1.7407v-.5605l1.7603-2.0508h.4492v2.2207h.5396v.3906Zm-1.0083-.3906v-1.6406l-1.4087,1.6406h1.4087Z"/></g><line class="cls-9" x1="59.0597" y1="176.7728" x2="107.3393" y2="176.7728"/><g><path class="cls-4" d="M61.851,183.5654h-2.4609v-.5098c.1709-.1465,.3423-.293,.5142-.4395,.1714-.1465,.3315-.293,.4795-.4375,.3125-.3027,.5264-.543,.6421-.7217,.1157-.1777,.1733-.3701,.1733-.5771,0-.1885-.0625-.3369-.1865-.4434-.125-.1064-.2983-.1602-.5215-.1602-.1479,0-.3086,.0264-.481,.0781-.1724,.0527-.3408,.1328-.5054,.2402h-.0244v-.5137c.1157-.0566,.2695-.1084,.4629-.1562,.1924-.0469,.3794-.0703,.5601-.0703,.3726,0,.665,.0898,.8765,.2695s.3174,.4238,.3174,.7314c0,.1387-.0176,.2676-.0527,.3867-.0347,.1201-.0864,.2334-.1548,.3408-.0635,.1006-.1382,.2002-.2231,.2979-.0859,.0977-.1895,.2061-.3115,.3252-.1743,.1699-.354,.3359-.5396,.4961s-.3589,.3086-.52,.4453h1.9556v.418Z"/><path class="cls-4" d="M65.0248,181.747c0,.6523-.1021,1.1309-.3062,1.4365-.2046,.3047-.5215,.458-.9512,.458-.436,0-.7549-.1553-.9561-.4648-.2007-.3086-.3013-.7842-.3013-1.4258,0-.6455,.1016-1.123,.3052-1.4316s.521-.4629,.9521-.4629c.436,0,.7549,.1572,.9561,.4707,.2007,.3135,.3013,.7861,.3013,1.4199Zm-.6421,1.1074c.0571-.1309,.0957-.2861,.1162-.4648,.02-.1777,.0303-.3926,.0303-.6426,0-.248-.0103-.4629-.0303-.6445-.0205-.1826-.0601-.3379-.1187-.4648-.0571-.125-.1348-.2188-.2329-.2832-.0986-.0625-.2251-.0947-.3799-.0947-.1528,0-.2793,.0322-.3799,.0947-.0996,.0645-.1792,.1602-.2378,.2891-.0552,.1201-.0933,.2773-.1138,.4707-.02,.1934-.0303,.4062-.0303,.6367,0,.2539,.0088,.4668,.0269,.6377s.0562,.3242,.1147,.459c.0537,.127,.1299,.2236,.2285,.29,.0981,.0674,.229,.1006,.3916,.1006,.1528,0,.2798-.0322,.3809-.0947,.1011-.0645,.1792-.1602,.2344-.2891Z"/><path class="cls-4" d="M68.0009,183.5654h-1.9678v-.3711h.7568v-2.4365h-.7568v-.332c.1025,0,.2124-.0088,.3296-.0254,.1172-.0176,.2061-.042,.2661-.0752,.0747-.04,.1338-.0918,.1768-.1543,.0435-.0625,.0684-.1475,.0747-.2529h.3784v3.2764h.7422v.3711Z"/><path class="cls-4" d="M71.3969,180.4746l-1.6455,3.0908h-.5225l1.7505-3.208h-2.0703v-.4268h2.4878v.5439Z"/></g></g><g><g><path class="cls-4" d="M13.8935,174.3369c-.0977,.0254-.1943,.042-.2891,.0527-.0957,.0107-.1929,.0156-.292,.0156-.2832,0-.5107-.0771-.6826-.2324-.1714-.1553-.2646-.3779-.2793-.668-.0391,.0068-.0771,.0107-.1133,.0137-.0371,.002-.0723,.0039-.1064,.0039-.2554,0-.4878-.043-.6973-.127-.209-.085-.3867-.208-.5332-.3691s-.2593-.3594-.3379-.5938c-.0791-.2344-.1187-.502-.1187-.8027,0-.2959,.0391-.5615,.1172-.7969s.1919-.4365,.3418-.6045c.1431-.1592,.3208-.2812,.5337-.3662,.2119-.085,.4438-.127,.6943-.127,.2603,0,.4941,.043,.7021,.1279,.207,.0859,.3833,.207,.5283,.3652,.1479,.1631,.2617,.3623,.3408,.5986,.0786,.2354,.1182,.5029,.1182,.8027,0,.4443-.0908,.8184-.2725,1.123-.1812,.3047-.4248,.5176-.731,.6396,.0063,.1855,.0503,.3291,.1318,.4326,.0815,.1016,.2295,.1533,.4443,.1533,.0669,0,.146-.0098,.2378-.0303,.0923-.0205,.1577-.0391,.1968-.0547h.0659v.4434Zm-.5762-2.707c0-.4717-.106-.8359-.3174-1.0928-.2114-.2559-.5005-.3838-.8667-.3838-.3696,0-.6597,.1279-.8706,.3838-.2104,.2568-.3159,.6211-.3159,1.0928,0,.4766,.1074,.8418,.3223,1.0947s.5029,.3799,.8643,.3799,.6489-.127,.8628-.3799c.2144-.2529,.3213-.6182,.3213-1.0947Z"/><path class="cls-4" d="M16.745,173.4462h-1.9678v-.3711h.7568v-2.4365h-.7568v-.332c.1025,0,.2124-.0088,.3296-.0254,.1172-.0176,.2061-.042,.2661-.0752,.0747-.04,.1338-.0918,.1768-.1543,.0435-.0625,.0684-.1475,.0747-.2529h.3784v3.2764h.7422v.3711Z"/></g><g><path class="cls-4" d="M26.1942,174.3369c-.0977,.0254-.1943,.042-.2891,.0527-.0957,.0107-.1929,.0156-.292,.0156-.2832,0-.5107-.0771-.6826-.2324-.1714-.1553-.2646-.3779-.2793-.668-.0391,.0068-.0771,.0107-.1133,.0137-.0371,.002-.0723,.0039-.1064,.0039-.2554,0-.4878-.043-.6973-.127-.209-.085-.3867-.208-.5332-.3691s-.2593-.3594-.3379-.5938c-.0791-.2344-.1187-.502-.1187-.8027,0-.2959,.0391-.5615,.1172-.7969s.1919-.4365,.3418-.6045c.1431-.1592,.3208-.2812,.5337-.3662,.2119-.085,.4438-.127,.6943-.127,.2603,0,.4941,.043,.7021,.1279,.207,.0859,.3833,.207,.5283,.3652,.1479,.1631,.2617,.3623,.3408,.5986,.0786,.2354,.1182,.5029,.1182,.8027,0,.4443-.0908,.8184-.2725,1.123-.1812,.3047-.4248,.5176-.731,.6396,.0063,.1855,.0503,.3291,.1318,.4326,.0815,.1016,.2295,.1533,.4443,.1533,.0669,0,.146-.0098,.2378-.0303,.0923-.0205,.1577-.0391,.1968-.0547h.0659v.4434Zm-.5762-2.707c0-.4717-.106-.8359-.3174-1.0928-.2114-.2559-.5005-.3838-.8667-.3838-.3696,0-.6597,.1279-.8706,.3838-.2104,.2568-.3159,.6211-.3159,1.0928,0,.4766,.1074,.8418,.3223,1.0947s.5029,.3799,.8643,.3799,.6489-.127,.8628-.3799c.2144-.2529,.3213-.6182,.3213-1.0947Z"/><path class="cls-4" d="M29.2533,173.4462h-2.4609v-.5098c.1709-.1465,.3423-.293,.5142-.4395,.1714-.1465,.3315-.293,.4795-.4375,.3125-.3027,.5264-.543,.6421-.7217,.1157-.1777,.1733-.3701,.1733-.5771,0-.1885-.0625-.3369-.1865-.4434-.125-.1064-.2983-.1602-.5215-.1602-.1479,0-.3086,.0264-.481,.0781-.1724,.0527-.3408,.1328-.5054,.2402h-.0244v-.5137c.1157-.0566,.2695-.1084,.4629-.1562,.1924-.0469,.3794-.0703,.5601-.0703,.3726,0,.665,.0898,.8765,.2695s.3174,.4238,.3174,.7314c0,.1387-.0176,.2676-.0527,.3867-.0347,.1201-.0864,.2334-.1548,.3408-.0635,.1006-.1382,.2002-.2231,.2979-.0859,.0977-.1895,.2061-.3115,.3252-.1743,.1699-.354,.3359-.5396,.4961s-.3589,.3086-.52,.4453h1.9556v.418Z"/></g><g><path class="cls-4" d="M38.495,174.3369c-.0977,.0254-.1943,.042-.2891,.0527-.0957,.0107-.1929,.0156-.292,.0156-.2832,0-.5107-.0771-.6826-.2324-.1714-.1553-.2646-.3779-.2793-.668-.0391,.0068-.0771,.0107-.1133,.0137-.0371,.002-.0723,.0039-.1064,.0039-.2554,0-.4878-.043-.6973-.127-.209-.085-.3867-.208-.5332-.3691s-.2593-.3594-.3379-.5938c-.0791-.2344-.1187-.502-.1187-.8027,0-.2959,.0391-.5615,.1172-.7969s.1919-.4365,.3418-.6045c.1431-.1592,.3208-.2812,.5337-.3662,.2119-.085,.4438-.127,.6943-.127,.2603,0,.4941,.043,.7021,.1279,.207,.0859,.3833,.207,.5283,.3652,.1479,.1631,.2617,.3623,.3408,.5986,.0786,.2354,.1182,.5029,.1182,.8027,0,.4443-.0908,.8184-.2725,1.123-.1812,.3047-.4248,.5176-.731,.6396,.0063,.1855,.0503,.3291,.1318,.4326,.0815,.1016,.2295,.1533,.4443,.1533,.0669,0,.146-.0098,.2378-.0303,.0923-.0205,.1577-.0391,.1968-.0547h.0659v.4434Zm-.5762-2.707c0-.4717-.106-.8359-.3174-1.0928-.2114-.2559-.5005-.3838-.8667-.3838-.3696,0-.6597,.1279-.8706,.3838-.2104,.2568-.3159,.6211-.3159,1.0928,0,.4766,.1074,.8418,.3223,1.0947s.5029,.3799,.8643,.3799,.6489-.127,.8628-.3799c.2144-.2529,.3213-.6182,.3213-1.0947Z"/><path class="cls-4" d="M41.2343,171.6962c.0781,.0693,.1426,.1572,.1929,.2637,.0503,.1055,.0757,.2422,.0757,.4102,0,.166-.0303,.3174-.0903,.4561s-.145,.2588-.2539,.3613c-.1221,.1143-.2656,.1982-.4312,.2529-.165,.0547-.3462,.082-.543,.082-.2017,0-.4004-.0244-.5957-.0723s-.3555-.1006-.481-.1582v-.5098h.0366c.1382,.0908,.3013,.167,.4883,.2266,.187,.0605,.3677,.0908,.542,.0908,.1025,0,.2114-.0166,.3271-.0518,.1157-.0332,.209-.084,.2808-.1504,.0747-.0723,.1304-.1514,.1675-.2373,.0361-.0859,.0547-.1953,.0547-.3271,0-.1299-.0205-.2383-.0625-.3232-.041-.0859-.0986-.1533-.1719-.2021-.0732-.0498-.1621-.085-.2661-.1035s-.2163-.0273-.3369-.0273h-.2197v-.4062h.1709c.2476,0,.4448-.0508,.5923-.1543,.147-.1035,.2207-.2549,.2207-.4531,0-.0879-.0186-.165-.0562-.2305-.0376-.0664-.0894-.1201-.1562-.1621-.0698-.043-.145-.0723-.2246-.0879-.0796-.0166-.1699-.0254-.271-.0254-.1548,0-.3188,.0283-.4932,.084-.1743,.0547-.3384,.1328-.4932,.2344h-.0244v-.5107c.1157-.0566,.2695-.1094,.4629-.1572,.1924-.0479,.3794-.0723,.5601-.0723,.1772,0,.3335,.0166,.4688,.0488s.2573,.085,.3662,.1562c.1172,.0781,.2061,.1729,.2661,.2832s.0903,.2402,.0903,.3887c0,.2012-.0713,.3779-.2134,.5283-.1426,.1504-.3105,.2451-.5044,.2842v.0342c.0781,.0127,.1675,.04,.2686,.082,.1011,.041,.1865,.0928,.2563,.1553Z"/></g><g><path class="cls-4" d="M50.7968,174.3369c-.0977,.0254-.1943,.042-.2891,.0527-.0957,.0107-.1929,.0156-.292,.0156-.2832,0-.5107-.0771-.6826-.2324-.1714-.1553-.2646-.3779-.2793-.668-.0391,.0068-.0771,.0107-.1133,.0137-.0371,.002-.0723,.0039-.1064,.0039-.2554,0-.4878-.043-.6973-.127-.209-.085-.3867-.208-.5332-.3691s-.2593-.3594-.3379-.5938c-.0791-.2344-.1187-.502-.1187-.8027,0-.2959,.0391-.5615,.1172-.7969s.1919-.4365,.3418-.6045c.1431-.1592,.3208-.2812,.5337-.3662,.2119-.085,.4438-.127,.6943-.127,.2603,0,.4941,.043,.7021,.1279,.207,.0859,.3833,.207,.5283,.3652,.1479,.1631,.2617,.3623,.3408,.5986,.0786,.2354,.1182,.5029,.1182,.8027,0,.4443-.0908,.8184-.2725,1.123-.1812,.3047-.4248,.5176-.731,.6396,.0063,.1855,.0503,.3291,.1318,.4326,.0815,.1016,.2295,.1533,.4443,.1533,.0669,0,.146-.0098,.2378-.0303,.0923-.0205,.1577-.0391,.1968-.0547h.0659v.4434Zm-.5762-2.707c0-.4717-.106-.8359-.3174-1.0928-.2114-.2559-.5005-.3838-.8667-.3838-.3696,0-.6597,.1279-.8706,.3838-.2104,.2568-.3159,.6211-.3159,1.0928,0,.4766,.1074,.8418,.3223,1.0947s.5029,.3799,.8643,.3799,.6489-.127,.8628-.3799c.2144-.2529,.3213-.6182,.3213-1.0947Z"/><path class="cls-4" d="M53.9389,172.4228h-.5396v1.0234h-.4688v-1.0234h-1.7407v-.5605l1.7603-2.0508h.4492v2.2207h.5396v.3906Zm-1.0083-.3906v-1.6406l-1.4087,1.6406h1.4087Z"/></g><line class="cls-9" x1="8.7173" y1="176.7728" x2="56.9969" y2="176.7728"/><g><path class="cls-4" d="M11.5087,183.5654h-2.4609v-.5098c.1709-.1465,.3423-.293,.5142-.4395,.1714-.1465,.3315-.293,.4795-.4375,.3125-.3027,.5264-.543,.6421-.7217,.1157-.1777,.1733-.3701,.1733-.5771,0-.1885-.0625-.3369-.1865-.4434-.125-.1064-.2983-.1602-.5215-.1602-.1479,0-.3086,.0264-.481,.0781-.1724,.0527-.3408,.1328-.5054,.2402h-.0244v-.5137c.1157-.0566,.2695-.1084,.4629-.1562,.1924-.0469,.3794-.0703,.5601-.0703,.3726,0,.665,.0898,.8765,.2695s.3174,.4238,.3174,.7314c0,.1387-.0176,.2676-.0527,.3867-.0347,.1201-.0864,.2334-.1548,.3408-.0635,.1006-.1382,.2002-.2231,.2979-.0859,.0977-.1895,.2061-.3115,.3252-.1743,.1699-.354,.3359-.5396,.4961s-.3589,.3086-.52,.4453h1.9556v.418Z"/><path class="cls-4" d="M14.6825,181.747c0,.6523-.1021,1.1309-.3062,1.4365-.2046,.3047-.5215,.458-.9512,.458-.436,0-.7549-.1553-.9561-.4648-.2007-.3086-.3013-.7842-.3013-1.4258,0-.6455,.1016-1.123,.3052-1.4316s.521-.4629,.9521-.4629c.436,0,.7549,.1572,.9561,.4707,.2007,.3135,.3013,.7861,.3013,1.4199Zm-.6421,1.1074c.0571-.1309,.0957-.2861,.1162-.4648,.02-.1777,.0303-.3926,.0303-.6426,0-.248-.0103-.4629-.0303-.6445-.0205-.1826-.0601-.3379-.1187-.4648-.0571-.125-.1348-.2188-.2329-.2832-.0986-.0625-.2251-.0947-.3799-.0947-.1528,0-.2793,.0322-.3799,.0947-.0996,.0645-.1792,.1602-.2378,.2891-.0552,.1201-.0933,.2773-.1138,.4707-.02,.1934-.0303,.4062-.0303,.6367,0,.2539,.0088,.4668,.0269,.6377s.0562,.3242,.1147,.459c.0537,.127,.1299,.2236,.2285,.29,.0981,.0674,.229,.1006,.3916,.1006,.1528,0,.2798-.0322,.3809-.0947,.1011-.0645,.1792-.1602,.2344-.2891Z"/><path class="cls-4" d="M17.6586,183.5654h-1.9678v-.3711h.7568v-2.4365h-.7568v-.332c.1025,0,.2124-.0088,.3296-.0254,.1172-.0176,.2061-.042,.2661-.0752,.0747-.04,.1338-.0918,.1768-.1543,.0435-.0625,.0684-.1475,.0747-.2529h.3784v3.2764h.7422v.3711Z"/><path class="cls-4" d="M21.0985,182.3857c0,.3701-.1216,.6719-.3647,.9053-.2437,.2334-.542,.3506-.895,.3506-.1792,0-.3418-.0283-.4883-.084-.1465-.0547-.2759-.1367-.3882-.2461-.1401-.1348-.248-.3145-.3232-.5371-.0762-.2227-.1138-.4912-.1138-.8057,0-.3223,.0347-.6084,.104-.8564,.0688-.25,.1792-.4707,.3306-.6641,.1431-.1846,.3281-.3281,.5542-.4316s.4897-.1543,.791-.1543c.0962,0,.1768,.0039,.2417,.0117s.1309,.0225,.1978,.0439v.4658h-.0244c-.0454-.0234-.1143-.0469-.2061-.0693-.0923-.0215-.186-.0322-.2822-.0322-.3501,0-.6289,.1094-.8374,.3281s-.3296,.5146-.3638,.8867c.1367-.082,.2715-.1455,.4043-.1885,.1323-.043,.2856-.0654,.46-.0654,.1548,0,.291,.0146,.4092,.043,.1177,.0283,.2388,.0859,.3623,.1719,.1431,.0996,.251,.2246,.3232,.377,.0728,.1504,.1089,.335,.1089,.5508Zm-.4956,.0195c0-.1504-.0225-.2764-.0674-.375-.0444-.0996-.1182-.1855-.2207-.2598-.0747-.0518-.1577-.0859-.249-.1016-.0913-.0166-.1865-.0254-.2856-.0254-.1382,0-.2671,.0166-.3857,.0488-.1187,.0332-.2407,.084-.3662,.1523-.0034,.0352-.0059,.0703-.0073,.1035s-.0024,.0752-.0024,.125c0,.2578,.0264,.4609,.0796,.6094,.0527,.1494,.1255,.2666,.2183,.3535,.0747,.0713,.1558,.124,.2427,.1572,.0874,.0332,.1821,.0498,.2847,.0498,.2358,0,.4214-.0723,.5566-.2158,.1353-.1445,.2026-.3516,.2026-.6221Z"/></g></g><g><g><path class="cls-4" d="M164.9208,174.3369c-.0977,.0254-.1943,.042-.2891,.0527-.0957,.0107-.1929,.0156-.292,.0156-.2832,0-.5107-.0771-.6826-.2324-.1714-.1553-.2646-.3779-.2793-.668-.0391,.0068-.0771,.0107-.1133,.0137-.0371,.002-.0723,.0039-.1064,.0039-.2554,0-.4878-.043-.6973-.127-.209-.085-.3867-.208-.5332-.3691s-.2593-.3594-.3379-.5938c-.0791-.2344-.1187-.502-.1187-.8027,0-.2959,.0391-.5615,.1172-.7969s.1919-.4365,.3418-.6045c.1431-.1592,.3208-.2812,.5337-.3662,.2119-.085,.4438-.127,.6943-.127,.2603,0,.4941,.043,.7021,.1279,.207,.0859,.3833,.207,.5283,.3652,.1479,.1631,.2617,.3623,.3408,.5986,.0786,.2354,.1182,.5029,.1182,.8027,0,.4443-.0908,.8184-.2725,1.123-.1812,.3047-.4248,.5176-.731,.6396,.0063,.1855,.0503,.3291,.1318,.4326,.0815,.1016,.2295,.1533,.4443,.1533,.0669,0,.146-.0098,.2378-.0303,.0923-.0205,.1577-.0391,.1968-.0547h.0659v.4434Zm-.5762-2.707c0-.4717-.106-.8359-.3174-1.0928-.2114-.2559-.5005-.3838-.8667-.3838-.3696,0-.6597,.1279-.8706,.3838-.2104,.2568-.3159,.6211-.3159,1.0928,0,.4766,.1074,.8418,.3223,1.0947s.5029,.3799,.8643,.3799,.6489-.127,.8628-.3799c.2144-.2529,.3213-.6182,.3213-1.0947Z"/><path class="cls-4" d="M167.7724,173.4462h-1.9678v-.3711h.7568v-2.4365h-.7568v-.332c.1025,0,.2124-.0088,.3296-.0254,.1172-.0176,.2061-.042,.2661-.0752,.0747-.04,.1338-.0918,.1768-.1543,.0435-.0625,.0684-.1475,.0747-.2529h.3784v3.2764h.7422v.3711Z"/></g><g><path class="cls-4" d="M177.2216,174.3369c-.0977,.0254-.1943,.042-.2891,.0527-.0957,.0107-.1929,.0156-.292,.0156-.2832,0-.5107-.0771-.6826-.2324-.1714-.1553-.2646-.3779-.2793-.668-.0391,.0068-.0771,.0107-.1133,.0137-.0371,.002-.0723,.0039-.1064,.0039-.2554,0-.4878-.043-.6973-.127-.209-.085-.3867-.208-.5332-.3691s-.2593-.3594-.3379-.5938c-.0791-.2344-.1187-.502-.1187-.8027,0-.2959,.0391-.5615,.1172-.7969s.1919-.4365,.3418-.6045c.1431-.1592,.3208-.2812,.5337-.3662,.2119-.085,.4438-.127,.6943-.127,.2603,0,.4941,.043,.7021,.1279,.207,.0859,.3833,.207,.5283,.3652,.1479,.1631,.2617,.3623,.3408,.5986,.0786,.2354,.1182,.5029,.1182,.8027,0,.4443-.0908,.8184-.2725,1.123-.1812,.3047-.4248,.5176-.731,.6396,.0063,.1855,.0503,.3291,.1318,.4326,.0815,.1016,.2295,.1533,.4443,.1533,.0669,0,.146-.0098,.2378-.0303,.0923-.0205,.1577-.0391,.1968-.0547h.0659v.4434Zm-.5762-2.707c0-.4717-.106-.8359-.3174-1.0928-.2114-.2559-.5005-.3838-.8667-.3838-.3696,0-.6597,.1279-.8706,.3838-.2104,.2568-.3159,.6211-.3159,1.0928,0,.4766,.1074,.8418,.3223,1.0947s.5029,.3799,.8643,.3799,.6489-.127,.8628-.3799c.2144-.2529,.3213-.6182,.3213-1.0947Z"/><path class="cls-4" d="M180.2807,173.4462h-2.4609v-.5098c.1709-.1465,.3423-.293,.5142-.4395,.1714-.1465,.3315-.293,.4795-.4375,.3125-.3027,.5264-.543,.6421-.7217,.1157-.1777,.1733-.3701,.1733-.5771,0-.1885-.0625-.3369-.1865-.4434-.125-.1064-.2983-.1602-.5215-.1602-.1479,0-.3086,.0264-.481,.0781-.1724,.0527-.3408,.1328-.5054,.2402h-.0244v-.5137c.1157-.0566,.2695-.1084,.4629-.1562,.1924-.0469,.3794-.0703,.5601-.0703,.3726,0,.665,.0898,.8765,.2695s.3174,.4238,.3174,.7314c0,.1387-.0176,.2676-.0527,.3867-.0347,.1201-.0864,.2334-.1548,.3408-.0635,.1006-.1382,.2002-.2231,.2979-.0859,.0977-.1895,.2061-.3115,.3252-.1743,.1699-.354,.3359-.5396,.4961s-.3589,.3086-.52,.4453h1.9556v.418Z"/></g><g><path class="cls-4" d="M189.5224,174.3369c-.0977,.0254-.1943,.042-.2891,.0527-.0957,.0107-.1929,.0156-.292,.0156-.2832,0-.5107-.0771-.6826-.2324-.1714-.1553-.2646-.3779-.2793-.668-.0391,.0068-.0771,.0107-.1133,.0137-.0371,.002-.0723,.0039-.1064,.0039-.2554,0-.4878-.043-.6973-.127-.209-.085-.3867-.208-.5332-.3691s-.2593-.3594-.3379-.5938c-.0791-.2344-.1187-.502-.1187-.8027,0-.2959,.0391-.5615,.1172-.7969s.1919-.4365,.3418-.6045c.1431-.1592,.3208-.2812,.5337-.3662,.2119-.085,.4438-.127,.6943-.127,.2603,0,.4941,.043,.7021,.1279,.207,.0859,.3833,.207,.5283,.3652,.1479,.1631,.2617,.3623,.3408,.5986,.0786,.2354,.1182,.5029,.1182,.8027,0,.4443-.0908,.8184-.2725,1.123-.1812,.3047-.4248,.5176-.731,.6396,.0063,.1855,.0503,.3291,.1318,.4326,.0815,.1016,.2295,.1533,.4443,.1533,.0669,0,.146-.0098,.2378-.0303,.0923-.0205,.1577-.0391,.1968-.0547h.0659v.4434Zm-.5762-2.707c0-.4717-.106-.8359-.3174-1.0928-.2114-.2559-.5005-.3838-.8667-.3838-.3696,0-.6597,.1279-.8706,.3838-.2104,.2568-.3159,.6211-.3159,1.0928,0,.4766,.1074,.8418,.3223,1.0947s.5029,.3799,.8643,.3799,.6489-.127,.8628-.3799c.2144-.2529,.3213-.6182,.3213-1.0947Z"/><path class="cls-4" d="M192.2616,171.6962c.0781,.0693,.1426,.1572,.1929,.2637,.0503,.1055,.0757,.2422,.0757,.4102,0,.166-.0303,.3174-.0903,.4561s-.145,.2588-.2539,.3613c-.1221,.1143-.2656,.1982-.4312,.2529-.165,.0547-.3462,.082-.543,.082-.2017,0-.4004-.0244-.5957-.0723s-.3555-.1006-.481-.1582v-.5098h.0366c.1382,.0908,.3013,.167,.4883,.2266,.187,.0605,.3677,.0908,.542,.0908,.1025,0,.2114-.0166,.3271-.0518,.1157-.0332,.209-.084,.2808-.1504,.0747-.0723,.1304-.1514,.1675-.2373,.0361-.0859,.0547-.1953,.0547-.3271,0-.1299-.0205-.2383-.0625-.3232-.041-.0859-.0986-.1533-.1719-.2021-.0732-.0498-.1621-.085-.2661-.1035s-.2163-.0273-.3369-.0273h-.2197v-.4062h.1709c.2476,0,.4448-.0508,.5923-.1543,.147-.1035,.2207-.2549,.2207-.4531,0-.0879-.0186-.165-.0562-.2305-.0376-.0664-.0894-.1201-.1562-.1621-.0698-.043-.145-.0723-.2246-.0879-.0796-.0166-.1699-.0254-.271-.0254-.1548,0-.3188,.0283-.4932,.084-.1743,.0547-.3384,.1328-.4932,.2344h-.0244v-.5107c.1157-.0566,.2695-.1094,.4629-.1572,.1924-.0479,.3794-.0723,.5601-.0723,.1772,0,.3335,.0166,.4688,.0488s.2573,.085,.3662,.1562c.1172,.0781,.2061,.1729,.2661,.2832s.0903,.2402,.0903,.3887c0,.2012-.0713,.3779-.2134,.5283-.1426,.1504-.3105,.2451-.5044,.2842v.0342c.0781,.0127,.1675,.04,.2686,.082,.1011,.041,.1865,.0928,.2563,.1553Z"/></g><g><path class="cls-4" d="M201.8241,174.3369c-.0977,.0254-.1943,.042-.2891,.0527-.0957,.0107-.1929,.0156-.292,.0156-.2832,0-.5107-.0771-.6826-.2324-.1714-.1553-.2646-.3779-.2793-.668-.0391,.0068-.0771,.0107-.1133,.0137-.0371,.002-.0723,.0039-.1064,.0039-.2554,0-.4878-.043-.6973-.127-.209-.085-.3867-.208-.5332-.3691s-.2593-.3594-.3379-.5938c-.0791-.2344-.1187-.502-.1187-.8027,0-.2959,.0391-.5615,.1172-.7969s.1919-.4365,.3418-.6045c.1431-.1592,.3208-.2812,.5337-.3662,.2119-.085,.4438-.127,.6943-.127,.2603,0,.4941,.043,.7021,.1279,.207,.0859,.3833,.207,.5283,.3652,.1479,.1631,.2617,.3623,.3408,.5986,.0786,.2354,.1182,.5029,.1182,.8027,0,.4443-.0908,.8184-.2725,1.123-.1812,.3047-.4248,.5176-.731,.6396,.0063,.1855,.0503,.3291,.1318,.4326,.0815,.1016,.2295,.1533,.4443,.1533,.0669,0,.146-.0098,.2378-.0303,.0923-.0205,.1577-.0391,.1968-.0547h.0659v.4434Zm-.5762-2.707c0-.4717-.106-.8359-.3174-1.0928-.2114-.2559-.5005-.3838-.8667-.3838-.3696,0-.6597,.1279-.8706,.3838-.2104,.2568-.3159,.6211-.3159,1.0928,0,.4766,.1074,.8418,.3223,1.0947s.5029,.3799,.8643,.3799,.6489-.127,.8628-.3799c.2144-.2529,.3213-.6182,.3213-1.0947Z"/><path class="cls-4" d="M204.9662,172.4228h-.5396v1.0234h-.4688v-1.0234h-1.7407v-.5605l1.7603-2.0508h.4492v2.2207h.5396v.3906Zm-1.0083-.3906v-1.6406l-1.4087,1.6406h1.4087Z"/></g><line class="cls-9" x1="159.7448" y1="176.7728" x2="208.0245" y2="176.7728"/><g><path class="cls-4" d="M162.536,183.5654h-2.4609v-.5098c.1709-.1465,.3423-.293,.5142-.4395,.1714-.1465,.3315-.293,.4795-.4375,.3125-.3027,.5264-.543,.6421-.7217,.1157-.1777,.1733-.3701,.1733-.5771,0-.1885-.0625-.3369-.1865-.4434-.125-.1064-.2983-.1602-.5215-.1602-.1479,0-.3086,.0264-.481,.0781-.1724,.0527-.3408,.1328-.5054,.2402h-.0244v-.5137c.1157-.0566,.2695-.1084,.4629-.1562,.1924-.0469,.3794-.0703,.5601-.0703,.3726,0,.665,.0898,.8765,.2695s.3174,.4238,.3174,.7314c0,.1387-.0176,.2676-.0527,.3867-.0347,.1201-.0864,.2334-.1548,.3408-.0635,.1006-.1382,.2002-.2231,.2979-.0859,.0977-.1895,.2061-.3115,.3252-.1743,.1699-.354,.3359-.5396,.4961s-.3589,.3086-.52,.4453h1.9556v.418Z"/><path class="cls-4" d="M165.7099,181.747c0,.6523-.1021,1.1309-.3062,1.4365-.2046,.3047-.5215,.458-.9512,.458-.436,0-.7549-.1553-.9561-.4648-.2007-.3086-.3013-.7842-.3013-1.4258,0-.6455,.1016-1.123,.3052-1.4316s.521-.4629,.9521-.4629c.436,0,.7549,.1572,.9561,.4707,.2007,.3135,.3013,.7861,.3013,1.4199Zm-.6421,1.1074c.0571-.1309,.0957-.2861,.1162-.4648,.02-.1777,.0303-.3926,.0303-.6426,0-.248-.0103-.4629-.0303-.6445-.0205-.1826-.0601-.3379-.1187-.4648-.0571-.125-.1348-.2188-.2329-.2832-.0986-.0625-.2251-.0947-.3799-.0947-.1528,0-.2793,.0322-.3799,.0947-.0996,.0645-.1792,.1602-.2378,.2891-.0552,.1201-.0933,.2773-.1138,.4707-.02,.1934-.0303,.4062-.0303,.6367,0,.2539,.0088,.4668,.0269,.6377s.0562,.3242,.1147,.459c.0537,.127,.1299,.2236,.2285,.29,.0981,.0674,.229,.1006,.3916,.1006,.1528,0,.2798-.0322,.3809-.0947,.1011-.0645,.1792-.1602,.2344-.2891Z"/><path class="cls-4" d="M168.6859,183.5654h-1.9678v-.3711h.7568v-2.4365h-.7568v-.332c.1025,0,.2124-.0088,.3296-.0254,.1172-.0176,.2061-.042,.2661-.0752,.0747-.04,.1338-.0918,.1768-.1543,.0435-.0625,.0684-.1475,.0747-.2529h.3784v3.2764h.7422v.3711Z"/><path class="cls-4" d="M172.0673,181.5292c0,.3174-.0361,.6055-.1089,.8643-.0723,.2588-.1816,.4795-.3281,.6621-.1479,.1855-.3335,.3281-.5566,.4297-.2231,.1006-.4849,.1504-.7861,.1504-.0845,0-.1646-.0039-.2393-.0127s-.1416-.0234-.2002-.043v-.4658h.0244c.0474,.0234,.1138,.0469,.2002,.0693,.0864,.0215,.1821,.0322,.2881,.0322,.3599,0,.6416-.1074,.8457-.3232,.2046-.2158,.3228-.5127,.3555-.8916-.1514,.0908-.2939,.1562-.4272,.1953s-.2793,.0586-.437,.0586c-.1499,0-.2852-.0156-.4062-.0449-.1216-.0293-.2432-.0859-.3652-.1699-.1431-.0996-.251-.2256-.3232-.3789-.0728-.1533-.1089-.3359-.1089-.5488,0-.3711,.1221-.6738,.3662-.9062s.542-.3496,.8936-.3496c.1758,0,.3384,.0273,.4883,.082s.2808,.1367,.3931,.2461c.1382,.1348,.2451,.3086,.3198,.5205,.0747,.2129,.1123,.4873,.1123,.8242Zm-.4932-.1045c0-.2529-.0259-.4551-.0781-.6084s-.1235-.2715-.2148-.3564c-.0767-.0732-.1587-.126-.2466-.1572-.0879-.0322-.1831-.0479-.2856-.0479-.2344,0-.4194,.0732-.5552,.2197-.1362,.1465-.2041,.3525-.2041,.6182,0,.1543,.022,.2803,.0659,.3779s.1182,.1826,.2222,.2568c.0732,.0498,.1538,.084,.2417,.1006,.0879,.0176,.1855,.0264,.293,.0264,.127,0,.2554-.0176,.3857-.0518s.2524-.084,.3662-.1494c.0015-.0332,.0034-.0674,.0063-.1006,.002-.0332,.0034-.0762,.0034-.1279Z"/></g></g><g><g><path class="cls-4" d="M215.2631,174.3369c-.0977,.0254-.1943,.042-.2891,.0527-.0957,.0107-.1929,.0156-.292,.0156-.2832,0-.5107-.0771-.6826-.2324-.1714-.1553-.2646-.3779-.2793-.668-.0391,.0068-.0771,.0107-.1133,.0137-.0371,.002-.0723,.0039-.1064,.0039-.2554,0-.4878-.043-.6973-.127-.209-.085-.3867-.208-.5332-.3691s-.2593-.3594-.3379-.5938c-.0791-.2344-.1187-.502-.1187-.8027,0-.2959,.0391-.5615,.1172-.7969s.1919-.4365,.3418-.6045c.1431-.1592,.3208-.2812,.5337-.3662,.2119-.085,.4438-.127,.6943-.127,.2603,0,.4941,.043,.7021,.1279,.207,.0859,.3833,.207,.5283,.3652,.1479,.1631,.2617,.3623,.3408,.5986,.0786,.2354,.1182,.5029,.1182,.8027,0,.4443-.0908,.8184-.2725,1.123-.1812,.3047-.4248,.5176-.731,.6396,.0063,.1855,.0503,.3291,.1318,.4326,.0815,.1016,.2295,.1533,.4443,.1533,.0669,0,.146-.0098,.2378-.0303,.0923-.0205,.1577-.0391,.1968-.0547h.0659v.4434Zm-.5762-2.707c0-.4717-.106-.8359-.3174-1.0928-.2114-.2559-.5005-.3838-.8667-.3838-.3696,0-.6597,.1279-.8706,.3838-.2104,.2568-.3159,.6211-.3159,1.0928,0,.4766,.1074,.8418,.3223,1.0947s.5029,.3799,.8643,.3799,.6489-.127,.8628-.3799c.2144-.2529,.3213-.6182,.3213-1.0947Z"/><path class="cls-4" d="M218.1147,173.4462h-1.9678v-.3711h.7568v-2.4365h-.7568v-.332c.1025,0,.2124-.0088,.3296-.0254,.1172-.0176,.2061-.042,.2661-.0752,.0747-.04,.1338-.0918,.1768-.1543,.0435-.0625,.0684-.1475,.0747-.2529h.3784v3.2764h.7422v.3711Z"/></g><g><path class="cls-4" d="M227.5639,174.3369c-.0977,.0254-.1943,.042-.2891,.0527-.0957,.0107-.1929,.0156-.292,.0156-.2832,0-.5107-.0771-.6826-.2324-.1714-.1553-.2646-.3779-.2793-.668-.0391,.0068-.0771,.0107-.1133,.0137-.0371,.002-.0723,.0039-.1064,.0039-.2554,0-.4878-.043-.6973-.127-.209-.085-.3867-.208-.5332-.3691s-.2593-.3594-.3379-.5938c-.0791-.2344-.1187-.502-.1187-.8027,0-.2959,.0391-.5615,.1172-.7969s.1919-.4365,.3418-.6045c.1431-.1592,.3208-.2812,.5337-.3662,.2119-.085,.4438-.127,.6943-.127,.2603,0,.4941,.043,.7021,.1279,.207,.0859,.3833,.207,.5283,.3652,.1479,.1631,.2617,.3623,.3408,.5986,.0786,.2354,.1182,.5029,.1182,.8027,0,.4443-.0908,.8184-.2725,1.123-.1812,.3047-.4248,.5176-.731,.6396,.0063,.1855,.0503,.3291,.1318,.4326,.0815,.1016,.2295,.1533,.4443,.1533,.0669,0,.146-.0098,.2378-.0303,.0923-.0205,.1577-.0391,.1968-.0547h.0659v.4434Zm-.5762-2.707c0-.4717-.106-.8359-.3174-1.0928-.2114-.2559-.5005-.3838-.8667-.3838-.3696,0-.6597,.1279-.8706,.3838-.2104,.2568-.3159,.6211-.3159,1.0928,0,.4766,.1074,.8418,.3223,1.0947s.5029,.3799,.8643,.3799,.6489-.127,.8628-.3799c.2144-.2529,.3213-.6182,.3213-1.0947Z"/><path class="cls-4" d="M230.623,173.4462h-2.4609v-.5098c.1709-.1465,.3423-.293,.5142-.4395,.1714-.1465,.3315-.293,.4795-.4375,.3125-.3027,.5264-.543,.6421-.7217,.1157-.1777,.1733-.3701,.1733-.5771,0-.1885-.0625-.3369-.1865-.4434-.125-.1064-.2983-.1602-.5215-.1602-.1479,0-.3086,.0264-.481,.0781-.1724,.0527-.3408,.1328-.5054,.2402h-.0244v-.5137c.1157-.0566,.2695-.1084,.4629-.1562,.1924-.0469,.3794-.0703,.5601-.0703,.3726,0,.665,.0898,.8765,.2695s.3174,.4238,.3174,.7314c0,.1387-.0176,.2676-.0527,.3867-.0347,.1201-.0864,.2334-.1548,.3408-.0635,.1006-.1382,.2002-.2231,.2979-.0859,.0977-.1895,.2061-.3115,.3252-.1743,.1699-.354,.3359-.5396,.4961s-.3589,.3086-.52,.4453h1.9556v.418Z"/></g><g><path class="cls-4" d="M239.8647,174.3369c-.0977,.0254-.1943,.042-.2891,.0527-.0957,.0107-.1929,.0156-.292,.0156-.2832,0-.5107-.0771-.6826-.2324-.1714-.1553-.2646-.3779-.2793-.668-.0391,.0068-.0771,.0107-.1133,.0137-.0371,.002-.0723,.0039-.1064,.0039-.2554,0-.4878-.043-.6973-.127-.209-.085-.3867-.208-.5332-.3691s-.2593-.3594-.3379-.5938c-.0791-.2344-.1187-.502-.1187-.8027,0-.2959,.0391-.5615,.1172-.7969s.1919-.4365,.3418-.6045c.1431-.1592,.3208-.2812,.5337-.3662,.2119-.085,.4438-.127,.6943-.127,.2603,0,.4941,.043,.7021,.1279,.207,.0859,.3833,.207,.5283,.3652,.1479,.1631,.2617,.3623,.3408,.5986,.0786,.2354,.1182,.5029,.1182,.8027,0,.4443-.0908,.8184-.2725,1.123-.1812,.3047-.4248,.5176-.731,.6396,.0063,.1855,.0503,.3291,.1318,.4326,.0815,.1016,.2295,.1533,.4443,.1533,.0669,0,.146-.0098,.2378-.0303,.0923-.0205,.1577-.0391,.1968-.0547h.0659v.4434Zm-.5762-2.707c0-.4717-.106-.8359-.3174-1.0928-.2114-.2559-.5005-.3838-.8667-.3838-.3696,0-.6597,.1279-.8706,.3838-.2104,.2568-.3159,.6211-.3159,1.0928,0,.4766,.1074,.8418,.3223,1.0947s.5029,.3799,.8643,.3799,.6489-.127,.8628-.3799c.2144-.2529,.3213-.6182,.3213-1.0947Z"/><path class="cls-4" d="M242.6039,171.6962c.0781,.0693,.1426,.1572,.1929,.2637,.0503,.1055,.0757,.2422,.0757,.4102,0,.166-.0303,.3174-.0903,.4561s-.145,.2588-.2539,.3613c-.1221,.1143-.2656,.1982-.4312,.2529-.165,.0547-.3462,.082-.543,.082-.2017,0-.4004-.0244-.5957-.0723s-.3555-.1006-.481-.1582v-.5098h.0366c.1382,.0908,.3013,.167,.4883,.2266,.187,.0605,.3677,.0908,.542,.0908,.1025,0,.2114-.0166,.3271-.0518,.1157-.0332,.209-.084,.2808-.1504,.0747-.0723,.1304-.1514,.1675-.2373,.0361-.0859,.0547-.1953,.0547-.3271,0-.1299-.0205-.2383-.0625-.3232-.041-.0859-.0986-.1533-.1719-.2021-.0732-.0498-.1621-.085-.2661-.1035s-.2163-.0273-.3369-.0273h-.2197v-.4062h.1709c.2476,0,.4448-.0508,.5923-.1543,.147-.1035,.2207-.2549,.2207-.4531,0-.0879-.0186-.165-.0562-.2305-.0376-.0664-.0894-.1201-.1562-.1621-.0698-.043-.145-.0723-.2246-.0879-.0796-.0166-.1699-.0254-.271-.0254-.1548,0-.3188,.0283-.4932,.084-.1743,.0547-.3384,.1328-.4932,.2344h-.0244v-.5107c.1157-.0566,.2695-.1094,.4629-.1572,.1924-.0479,.3794-.0723,.5601-.0723,.1772,0,.3335,.0166,.4688,.0488s.2573,.085,.3662,.1562c.1172,.0781,.2061,.1729,.2661,.2832s.0903,.2402,.0903,.3887c0,.2012-.0713,.3779-.2134,.5283-.1426,.1504-.3105,.2451-.5044,.2842v.0342c.0781,.0127,.1675,.04,.2686,.082,.1011,.041,.1865,.0928,.2563,.1553Z"/></g><g><path class="cls-4" d="M252.1664,174.3369c-.0977,.0254-.1943,.042-.2891,.0527-.0957,.0107-.1929,.0156-.292,.0156-.2832,0-.5107-.0771-.6826-.2324-.1714-.1553-.2646-.3779-.2793-.668-.0391,.0068-.0771,.0107-.1133,.0137-.0371,.002-.0723,.0039-.1064,.0039-.2554,0-.4878-.043-.6973-.127-.209-.085-.3867-.208-.5332-.3691s-.2593-.3594-.3379-.5938c-.0791-.2344-.1187-.502-.1187-.8027,0-.2959,.0391-.5615,.1172-.7969s.1919-.4365,.3418-.6045c.1431-.1592,.3208-.2812,.5337-.3662,.2119-.085,.4438-.127,.6943-.127,.2603,0,.4941,.043,.7021,.1279,.207,.0859,.3833,.207,.5283,.3652,.1479,.1631,.2617,.3623,.3408,.5986,.0786,.2354,.1182,.5029,.1182,.8027,0,.4443-.0908,.8184-.2725,1.123-.1812,.3047-.4248,.5176-.731,.6396,.0063,.1855,.0503,.3291,.1318,.4326,.0815,.1016,.2295,.1533,.4443,.1533,.0669,0,.146-.0098,.2378-.0303,.0923-.0205,.1577-.0391,.1968-.0547h.0659v.4434Zm-.5762-2.707c0-.4717-.106-.8359-.3174-1.0928-.2114-.2559-.5005-.3838-.8667-.3838-.3696,0-.6597,.1279-.8706,.3838-.2104,.2568-.3159,.6211-.3159,1.0928,0,.4766,.1074,.8418,.3223,1.0947s.5029,.3799,.8643,.3799,.6489-.127,.8628-.3799c.2144-.2529,.3213-.6182,.3213-1.0947Z"/><path class="cls-4" d="M255.3085,172.4228h-.5396v1.0234h-.4688v-1.0234h-1.7407v-.5605l1.7603-2.0508h.4492v2.2207h.5396v.3906Zm-1.0083-.3906v-1.6406l-1.4087,1.6406h1.4087Z"/></g><line class="cls-9" x1="210.0871" y1="176.7728" x2="258.3667" y2="176.7728"/><g><path class="cls-4" d="M212.8783,183.5654h-2.4609v-.5098c.1709-.1465,.3423-.293,.5142-.4395,.1714-.1465,.3315-.293,.4795-.4375,.3125-.3027,.5264-.543,.6421-.7217,.1157-.1777,.1733-.3701,.1733-.5771,0-.1885-.0625-.3369-.1865-.4434-.125-.1064-.2983-.1602-.5215-.1602-.1479,0-.3086,.0264-.481,.0781-.1724,.0527-.3408,.1328-.5054,.2402h-.0244v-.5137c.1157-.0566,.2695-.1084,.4629-.1562,.1924-.0469,.3794-.0703,.5601-.0703,.3726,0,.665,.0898,.8765,.2695s.3174,.4238,.3174,.7314c0,.1387-.0176,.2676-.0527,.3867-.0347,.1201-.0864,.2334-.1548,.3408-.0635,.1006-.1382,.2002-.2231,.2979-.0859,.0977-.1895,.2061-.3115,.3252-.1743,.1699-.354,.3359-.5396,.4961s-.3589,.3086-.52,.4453h1.9556v.418Z"/><path class="cls-4" d="M216.0522,181.747c0,.6523-.1021,1.1309-.3062,1.4365-.2046,.3047-.5215,.458-.9512,.458-.436,0-.7549-.1553-.9561-.4648-.2007-.3086-.3013-.7842-.3013-1.4258,0-.6455,.1016-1.123,.3052-1.4316s.521-.4629,.9521-.4629c.436,0,.7549,.1572,.9561,.4707,.2007,.3135,.3013,.7861,.3013,1.4199Zm-.6421,1.1074c.0571-.1309,.0957-.2861,.1162-.4648,.02-.1777,.0303-.3926,.0303-.6426,0-.248-.0103-.4629-.0303-.6445-.0205-.1826-.0601-.3379-.1187-.4648-.0571-.125-.1348-.2188-.2329-.2832-.0986-.0625-.2251-.0947-.3799-.0947-.1528,0-.2793,.0322-.3799,.0947-.0996,.0645-.1792,.1602-.2378,.2891-.0552,.1201-.0933,.2773-.1138,.4707-.02,.1934-.0303,.4062-.0303,.6367,0,.2539,.0088,.4668,.0269,.6377s.0562,.3242,.1147,.459c.0537,.127,.1299,.2236,.2285,.29,.0981,.0674,.229,.1006,.3916,.1006,.1528,0,.2798-.0322,.3809-.0947,.1011-.0645,.1792-.1602,.2344-.2891Z"/><path class="cls-4" d="M219.2357,183.5654h-2.4609v-.5098c.1709-.1465,.3423-.293,.5142-.4395,.1714-.1465,.3315-.293,.4795-.4375,.3125-.3027,.5264-.543,.6421-.7217,.1157-.1777,.1733-.3701,.1733-.5771,0-.1885-.0625-.3369-.1865-.4434-.125-.1064-.2983-.1602-.5215-.1602-.1479,0-.3086,.0264-.481,.0781-.1724,.0527-.3408,.1328-.5054,.2402h-.0244v-.5137c.1157-.0566,.2695-.1084,.4629-.1562,.1924-.0469,.3794-.0703,.5601-.0703,.3726,0,.665,.0898,.8765,.2695s.3174,.4238,.3174,.7314c0,.1387-.0176,.2676-.0527,.3867-.0347,.1201-.0864,.2334-.1548,.3408-.0635,.1006-.1382,.2002-.2231,.2979-.0859,.0977-.1895,.2061-.3115,.3252-.1743,.1699-.354,.3359-.5396,.4961s-.3589,.3086-.52,.4453h1.9556v.418Z"/><path class="cls-4" d="M222.4096,181.747c0,.6523-.1021,1.1309-.3062,1.4365-.2046,.3047-.5215,.458-.9512,.458-.436,0-.7549-.1553-.9561-.4648-.2007-.3086-.3013-.7842-.3013-1.4258,0-.6455,.1016-1.123,.3052-1.4316s.521-.4629,.9521-.4629c.436,0,.7549,.1572,.9561,.4707,.2007,.3135,.3013,.7861,.3013,1.4199Zm-.6421,1.1074c.0571-.1309,.0957-.2861,.1162-.4648,.02-.1777,.0303-.3926,.0303-.6426,0-.248-.0103-.4629-.0303-.6445-.0205-.1826-.0601-.3379-.1187-.4648-.0571-.125-.1348-.2188-.2329-.2832-.0986-.0625-.2251-.0947-.3799-.0947-.1528,0-.2793,.0322-.3799,.0947-.0996,.0645-.1792,.1602-.2378,.2891-.0552,.1201-.0933,.2773-.1138,.4707-.02,.1934-.0303,.4062-.0303,.6367,0,.2539,.0088,.4668,.0269,.6377s.0562,.3242,.1147,.459c.0537,.127,.1299,.2236,.2285,.29,.0981,.0674,.229,.1006,.3916,.1006,.1528,0,.2798-.0322,.3809-.0947,.1011-.0645,.1792-.1602,.2344-.2891Z"/></g></g><g><g><path class="cls-4" d="M265.6054,174.3369c-.0977,.0254-.1943,.042-.2891,.0527-.0957,.0107-.1929,.0156-.292,.0156-.2832,0-.5107-.0771-.6826-.2324-.1714-.1553-.2646-.3779-.2793-.668-.0391,.0068-.0771,.0107-.1133,.0137-.0371,.002-.0723,.0039-.1064,.0039-.2554,0-.4878-.043-.6973-.127-.209-.085-.3867-.208-.5332-.3691s-.2593-.3594-.3379-.5938c-.0791-.2344-.1187-.502-.1187-.8027,0-.2959,.0391-.5615,.1172-.7969s.1919-.4365,.3418-.6045c.1431-.1592,.3208-.2812,.5337-.3662,.2119-.085,.4438-.127,.6943-.127,.2603,0,.4941,.043,.7021,.1279,.207,.0859,.3833,.207,.5283,.3652,.1479,.1631,.2617,.3623,.3408,.5986,.0786,.2354,.1182,.5029,.1182,.8027,0,.4443-.0908,.8184-.2725,1.123-.1812,.3047-.4248,.5176-.731,.6396,.0063,.1855,.0503,.3291,.1318,.4326,.0815,.1016,.2295,.1533,.4443,.1533,.0669,0,.146-.0098,.2378-.0303,.0923-.0205,.1577-.0391,.1968-.0547h.0659v.4434Zm-.5762-2.707c0-.4717-.106-.8359-.3174-1.0928-.2114-.2559-.5005-.3838-.8667-.3838-.3696,0-.6597,.1279-.8706,.3838-.2104,.2568-.3159,.6211-.3159,1.0928,0,.4766,.1074,.8418,.3223,1.0947s.5029,.3799,.8643,.3799,.6489-.127,.8628-.3799c.2144-.2529,.3213-.6182,.3213-1.0947Z"/><path class="cls-4" d="M268.4569,173.4462h-1.9678v-.3711h.7568v-2.4365h-.7568v-.332c.1025,0,.2124-.0088,.3296-.0254,.1172-.0176,.2061-.042,.2661-.0752,.0747-.04,.1338-.0918,.1768-.1543,.0435-.0625,.0684-.1475,.0747-.2529h.3784v3.2764h.7422v.3711Z"/></g><g><path class="cls-4" d="M277.9062,174.3369c-.0977,.0254-.1943,.042-.2891,.0527-.0957,.0107-.1929,.0156-.292,.0156-.2832,0-.5107-.0771-.6826-.2324-.1714-.1553-.2646-.3779-.2793-.668-.0391,.0068-.0771,.0107-.1133,.0137-.0371,.002-.0723,.0039-.1064,.0039-.2554,0-.4878-.043-.6973-.127-.209-.085-.3867-.208-.5332-.3691s-.2593-.3594-.3379-.5938c-.0791-.2344-.1187-.502-.1187-.8027,0-.2959,.0391-.5615,.1172-.7969s.1919-.4365,.3418-.6045c.1431-.1592,.3208-.2812,.5337-.3662,.2119-.085,.4438-.127,.6943-.127,.2603,0,.4941,.043,.7021,.1279,.207,.0859,.3833,.207,.5283,.3652,.1479,.1631,.2617,.3623,.3408,.5986,.0786,.2354,.1182,.5029,.1182,.8027,0,.4443-.0908,.8184-.2725,1.123-.1812,.3047-.4248,.5176-.731,.6396,.0063,.1855,.0503,.3291,.1318,.4326,.0815,.1016,.2295,.1533,.4443,.1533,.0669,0,.146-.0098,.2378-.0303,.0923-.0205,.1577-.0391,.1968-.0547h.0659v.4434Zm-.5762-2.707c0-.4717-.106-.8359-.3174-1.0928-.2114-.2559-.5005-.3838-.8667-.3838-.3696,0-.6597,.1279-.8706,.3838-.2104,.2568-.3159,.6211-.3159,1.0928,0,.4766,.1074,.8418,.3223,1.0947s.5029,.3799,.8643,.3799,.6489-.127,.8628-.3799c.2144-.2529,.3213-.6182,.3213-1.0947Z"/><path class="cls-4" d="M280.9652,173.4462h-2.4609v-.5098c.1709-.1465,.3423-.293,.5142-.4395,.1714-.1465,.3315-.293,.4795-.4375,.3125-.3027,.5264-.543,.6421-.7217,.1157-.1777,.1733-.3701,.1733-.5771,0-.1885-.0625-.3369-.1865-.4434-.125-.1064-.2983-.1602-.5215-.1602-.1479,0-.3086,.0264-.481,.0781-.1724,.0527-.3408,.1328-.5054,.2402h-.0244v-.5137c.1157-.0566,.2695-.1084,.4629-.1562,.1924-.0469,.3794-.0703,.5601-.0703,.3726,0,.665,.0898,.8765,.2695s.3174,.4238,.3174,.7314c0,.1387-.0176,.2676-.0527,.3867-.0347,.1201-.0864,.2334-.1548,.3408-.0635,.1006-.1382,.2002-.2231,.2979-.0859,.0977-.1895,.2061-.3115,.3252-.1743,.1699-.354,.3359-.5396,.4961s-.3589,.3086-.52,.4453h1.9556v.418Z"/></g><g><path class="cls-4" d="M290.2069,174.3369c-.0977,.0254-.1943,.042-.2891,.0527-.0957,.0107-.1929,.0156-.292,.0156-.2832,0-.5107-.0771-.6826-.2324-.1714-.1553-.2646-.3779-.2793-.668-.0391,.0068-.0771,.0107-.1133,.0137-.0371,.002-.0723,.0039-.1064,.0039-.2554,0-.4878-.043-.6973-.127-.209-.085-.3867-.208-.5332-.3691s-.2593-.3594-.3379-.5938c-.0791-.2344-.1187-.502-.1187-.8027,0-.2959,.0391-.5615,.1172-.7969s.1919-.4365,.3418-.6045c.1431-.1592,.3208-.2812,.5337-.3662,.2119-.085,.4438-.127,.6943-.127,.2603,0,.4941,.043,.7021,.1279,.207,.0859,.3833,.207,.5283,.3652,.1479,.1631,.2617,.3623,.3408,.5986,.0786,.2354,.1182,.5029,.1182,.8027,0,.4443-.0908,.8184-.2725,1.123-.1812,.3047-.4248,.5176-.731,.6396,.0063,.1855,.0503,.3291,.1318,.4326,.0815,.1016,.2295,.1533,.4443,.1533,.0669,0,.146-.0098,.2378-.0303,.0923-.0205,.1577-.0391,.1968-.0547h.0659v.4434Zm-.5762-2.707c0-.4717-.106-.8359-.3174-1.0928-.2114-.2559-.5005-.3838-.8667-.3838-.3696,0-.6597,.1279-.8706,.3838-.2104,.2568-.3159,.6211-.3159,1.0928,0,.4766,.1074,.8418,.3223,1.0947s.5029,.3799,.8643,.3799,.6489-.127,.8628-.3799c.2144-.2529,.3213-.6182,.3213-1.0947Z"/><path class="cls-4" d="M292.9462,171.6962c.0781,.0693,.1426,.1572,.1929,.2637,.0503,.1055,.0757,.2422,.0757,.4102,0,.166-.0303,.3174-.0903,.4561s-.145,.2588-.2539,.3613c-.1221,.1143-.2656,.1982-.4312,.2529-.165,.0547-.3462,.082-.543,.082-.2017,0-.4004-.0244-.5957-.0723s-.3555-.1006-.481-.1582v-.5098h.0366c.1382,.0908,.3013,.167,.4883,.2266,.187,.0605,.3677,.0908,.542,.0908,.1025,0,.2114-.0166,.3271-.0518,.1157-.0332,.209-.084,.2808-.1504,.0747-.0723,.1304-.1514,.1675-.2373,.0361-.0859,.0547-.1953,.0547-.3271,0-.1299-.0205-.2383-.0625-.3232-.041-.0859-.0986-.1533-.1719-.2021-.0732-.0498-.1621-.085-.2661-.1035s-.2163-.0273-.3369-.0273h-.2197v-.4062h.1709c.2476,0,.4448-.0508,.5923-.1543,.147-.1035,.2207-.2549,.2207-.4531,0-.0879-.0186-.165-.0562-.2305-.0376-.0664-.0894-.1201-.1562-.1621-.0698-.043-.145-.0723-.2246-.0879-.0796-.0166-.1699-.0254-.271-.0254-.1548,0-.3188,.0283-.4932,.084-.1743,.0547-.3384,.1328-.4932,.2344h-.0244v-.5107c.1157-.0566,.2695-.1094,.4629-.1572,.1924-.0479,.3794-.0723,.5601-.0723,.1772,0,.3335,.0166,.4688,.0488s.2573,.085,.3662,.1562c.1172,.0781,.2061,.1729,.2661,.2832s.0903,.2402,.0903,.3887c0,.2012-.0713,.3779-.2134,.5283-.1426,.1504-.3105,.2451-.5044,.2842v.0342c.0781,.0127,.1675,.04,.2686,.082,.1011,.041,.1865,.0928,.2563,.1553Z"/></g><g><path class="cls-4" d="M302.5087,174.3369c-.0977,.0254-.1943,.042-.2891,.0527-.0957,.0107-.1929,.0156-.292,.0156-.2832,0-.5107-.0771-.6826-.2324-.1714-.1553-.2646-.3779-.2793-.668-.0391,.0068-.0771,.0107-.1133,.0137-.0371,.002-.0723,.0039-.1064,.0039-.2554,0-.4878-.043-.6973-.127-.209-.085-.3867-.208-.5332-.3691s-.2593-.3594-.3379-.5938c-.0791-.2344-.1187-.502-.1187-.8027,0-.2959,.0391-.5615,.1172-.7969s.1919-.4365,.3418-.6045c.1431-.1592,.3208-.2812,.5337-.3662,.2119-.085,.4438-.127,.6943-.127,.2603,0,.4941,.043,.7021,.1279,.207,.0859,.3833,.207,.5283,.3652,.1479,.1631,.2617,.3623,.3408,.5986,.0786,.2354,.1182,.5029,.1182,.8027,0,.4443-.0908,.8184-.2725,1.123-.1812,.3047-.4248,.5176-.731,.6396,.0063,.1855,.0503,.3291,.1318,.4326,.0815,.1016,.2295,.1533,.4443,.1533,.0669,0,.146-.0098,.2378-.0303,.0923-.0205,.1577-.0391,.1968-.0547h.0659v.4434Zm-.5762-2.707c0-.4717-.106-.8359-.3174-1.0928-.2114-.2559-.5005-.3838-.8667-.3838-.3696,0-.6597,.1279-.8706,.3838-.2104,.2568-.3159,.6211-.3159,1.0928,0,.4766,.1074,.8418,.3223,1.0947s.5029,.3799,.8643,.3799,.6489-.127,.8628-.3799c.2144-.2529,.3213-.6182,.3213-1.0947Z"/><path class="cls-4" d="M305.6508,172.4228h-.5396v1.0234h-.4688v-1.0234h-1.7407v-.5605l1.7603-2.0508h.4492v2.2207h.5396v.3906Zm-1.0083-.3906v-1.6406l-1.4087,1.6406h1.4087Z"/></g><line class="cls-9" x1="260.4294" y1="176.7728" x2="308.709" y2="176.7728"/><g><path class="cls-4" d="M263.2206,183.5654h-2.4609v-.5098c.1709-.1465,.3423-.293,.5142-.4395,.1714-.1465,.3315-.293,.4795-.4375,.3125-.3027,.5264-.543,.6421-.7217,.1157-.1777,.1733-.3701,.1733-.5771,0-.1885-.0625-.3369-.1865-.4434-.125-.1064-.2983-.1602-.5215-.1602-.1479,0-.3086,.0264-.481,.0781-.1724,.0527-.3408,.1328-.5054,.2402h-.0244v-.5137c.1157-.0566,.2695-.1084,.4629-.1562,.1924-.0469,.3794-.0703,.5601-.0703,.3726,0,.665,.0898,.8765,.2695s.3174,.4238,.3174,.7314c0,.1387-.0176,.2676-.0527,.3867-.0347,.1201-.0864,.2334-.1548,.3408-.0635,.1006-.1382,.2002-.2231,.2979-.0859,.0977-.1895,.2061-.3115,.3252-.1743,.1699-.354,.3359-.5396,.4961s-.3589,.3086-.52,.4453h1.9556v.418Z"/><path class="cls-4" d="M266.3944,181.747c0,.6523-.1021,1.1309-.3062,1.4365-.2046,.3047-.5215,.458-.9512,.458-.436,0-.7549-.1553-.9561-.4648-.2007-.3086-.3013-.7842-.3013-1.4258,0-.6455,.1016-1.123,.3052-1.4316s.521-.4629,.9521-.4629c.436,0,.7549,.1572,.9561,.4707,.2007,.3135,.3013,.7861,.3013,1.4199Zm-.6421,1.1074c.0571-.1309,.0957-.2861,.1162-.4648,.02-.1777,.0303-.3926,.0303-.6426,0-.248-.0103-.4629-.0303-.6445-.0205-.1826-.0601-.3379-.1187-.4648-.0571-.125-.1348-.2188-.2329-.2832-.0986-.0625-.2251-.0947-.3799-.0947-.1528,0-.2793,.0322-.3799,.0947-.0996,.0645-.1792,.1602-.2378,.2891-.0552,.1201-.0933,.2773-.1138,.4707-.02,.1934-.0303,.4062-.0303,.6367,0,.2539,.0088,.4668,.0269,.6377s.0562,.3242,.1147,.459c.0537,.127,.1299,.2236,.2285,.29,.0981,.0674,.229,.1006,.3916,.1006,.1528,0,.2798-.0322,.3809-.0947,.1011-.0645,.1792-.1602,.2344-.2891Z"/><path class="cls-4" d="M269.578,183.5654h-2.4609v-.5098c.1709-.1465,.3423-.293,.5142-.4395,.1714-.1465,.3315-.293,.4795-.4375,.3125-.3027,.5264-.543,.6421-.7217,.1157-.1777,.1733-.3701,.1733-.5771,0-.1885-.0625-.3369-.1865-.4434-.125-.1064-.2983-.1602-.5215-.1602-.1479,0-.3086,.0264-.481,.0781-.1724,.0527-.3408,.1328-.5054,.2402h-.0244v-.5137c.1157-.0566,.2695-.1084,.4629-.1562,.1924-.0469,.3794-.0703,.5601-.0703,.3726,0,.665,.0898,.8765,.2695s.3174,.4238,.3174,.7314c0,.1387-.0176,.2676-.0527,.3867-.0347,.1201-.0864,.2334-.1548,.3408-.0635,.1006-.1382,.2002-.2231,.2979-.0859,.0977-.1895,.2061-.3115,.3252-.1743,.1699-.354,.3359-.5396,.4961s-.3589,.3086-.52,.4453h1.9556v.418Z"/><path class="cls-4" d="M272.5492,183.5654h-1.9678v-.3711h.7568v-2.4365h-.7568v-.332c.1025,0,.2124-.0088,.3296-.0254,.1172-.0176,.2061-.042,.2661-.0752,.0747-.04,.1338-.0918,.1768-.1543,.0435-.0625,.0684-.1475,.0747-.2529h.3784v3.2764h.7422v.3711Z"/></g></g></g><g id="Layer_2"><circle class="cls-5" cx="304.1346" cy="76.8744" r="1.6001"/><circle class="cls-5" cx="134.9927" cy="154.6287" r="1.6001"/><circle class="cls-6" cx="304.1346" cy="96.5628" r="1.6001"/><circle class="cls-6" cx="125.7954" cy="141.4161" r="1.6001"/></g></svg>