<?xml version="1.0" encoding="UTF-8"?><svg id="Layer_1" xmlns="http://www.w3.org/2000/svg" viewBox="0 0 261.7348 120.2935"><defs><style>.cls-1{font-family:Montserrat-Bold, Montserrat;}.cls-1,.cls-2{fill:#7ec500;}.cls-1,.cls-3{font-size:5.7174px;}.cls-4{letter-spacing:.0101em;}.cls-5{letter-spacing:-.0111em;}.cls-6{letter-spacing:-.012em;}.cls-7{letter-spacing:.0002em;}.cls-2,.cls-8{stroke:#fff;stroke-miterlimit:10;stroke-width:.5px;}.cls-3{fill:#222;}.cls-3,.cls-9,.cls-10{font-family:Montserrat-Regular, Montserrat;}.cls-11{letter-spacing:-.0109em;}.cls-8{fill:#1256bb;}.cls-12{letter-spacing:-.0019em;}.cls-13{letter-spacing:-.0038em;}.cls-14{letter-spacing:-.0002em;}.cls-9,.cls-10,.cls-15{fill:#a2a2a2;}.cls-9,.cls-15{font-size:4.681px;}.cls-16{letter-spacing:.02em;}.cls-10{font-size:4.5739px;}.cls-15{font-family:Verdana, Verdana;}.cls-17{letter-spacing:-.0161em;}.cls-18{letter-spacing:-.0042em;}.cls-19{letter-spacing:-.0021em;}</style></defs><rect class="cls-8" x="130.7597" y="52.0019" width="26.3737" height="22.4581"/><rect class="cls-8" x="157.1335" y="35.1584" width="26.3737" height="39.3017"/><rect class="cls-8" x="183.5072" y="43.5802" width="26.3737" height="30.8799"/><rect class="cls-8" x="209.8809" y="74.4601" width="26.3737" height="37.8981"/><text class="cls-15" transform="translate(137.709 81.8867)"><tspan x="0" y="0">2017</tspan></text><text class="cls-15" transform="translate(164.0107 81.8867)"><tspan x="0" y="0">2018</tspan></text><text class="cls-15" transform="translate(190.3125 81.8867)"><tspan x="0" y="0">2019</tspan></text><text class="cls-15" transform="translate(58.8017 81.8867)"><tspan x="0" y="0">2014</tspan></text><text class="cls-10" transform="translate(86.1367 81.8867)"><tspan class="cls-13" x="0" y="0">2</tspan><tspan class="cls-19" x="2.5801" y="0">0</tspan><tspan x="5.5986" y="0">15</tspan></text><text class="cls-15" transform="translate(111.4062 81.8867)"><tspan x="0" y="0">2016</tspan></text><text class="cls-3" transform="translate(140.7861 48.3926)"><tspan x="0" y="0">1</tspan><tspan class="cls-11" x="2.0635" y="0">,</tspan><tspan class="cls-7" x="3.2129" y="0">6</tspan></text><text class="cls-3" transform="translate(166.2099 32.0879)"><tspan class="cls-4" x="0" y="0">2,</tspan><tspan x="4.5742" y="0">8</tspan></text><text class="cls-3" transform="translate(192.7842 38.1958)"><tspan class="cls-4" x="0" y="0">2,</tspan><tspan x="4.5742" y="0">2</tspan></text><text class="cls-3" transform="translate(217.5498 118.7954)"><tspan class="cls-6" x="0" y="0">−</tspan><tspan class="cls-4" x="3.2188" y="0">2</tspan><tspan class="cls-6" x="6.5234" y="0">,</tspan><tspan x="7.667" y="0">7</tspan></text><text class="cls-9" transform="translate(243.831 81.8867)"><tspan class="cls-18" x="0" y="0">2</tspan><tspan class="cls-12" x="2.6396" y="0">0</tspan><tspan x="5.7295" y="0">21</tspan></text><rect class="cls-2" x="236.2546" y="8.4893" width="25.2302" height="65.9707"/><text class="cls-1" transform="translate(244.3681 4.8599)"><tspan class="cls-16" x="0" y="0">4</tspan><tspan class="cls-17" x="4.0537" y="0">,</tspan><tspan x="5.46" y="0">7</tspan></text><text class="cls-15" transform="translate(32.5 81.8867)"><tspan x="0" y="0">2013</tspan></text><text class="cls-15" transform="translate(7.4853 81.8867)"><tspan x="0" y="0">2012</tspan></text><rect class="cls-8" x="25.2649" y="49.1947" width="26.3737" height="25.2654"/><rect class="cls-8" x=".25" y="18.3148" width="26.3738" height="56.1453"/><rect class="cls-8" x="78.0123" y="74.4601" width="26.3737" height="28.0726"/><rect class="cls-8" x="51.6386" y="64.6346" width="26.3737" height="9.8254"/><rect class="cls-8" x="104.386" y="71.6528" width="26.3737" height="2.8073"/><text class="cls-3" transform="translate(35.3525 46.9883)"><tspan x="0" y="0">1</tspan><tspan class="cls-4" x="2.0635" y="0">,</tspan><tspan x="3.333" y="0">8</tspan></text><text class="cls-3" transform="translate(9.0224 15.6558)"><tspan class="cls-16" x="0" y="0">4</tspan><tspan class="cls-11" x="3.8936" y="0">,</tspan><tspan class="cls-14" x="5.043" y="0">0</tspan></text><text class="cls-3" transform="translate(60.709 62.2417)"><tspan class="cls-5" x="0" y="0">0,</tspan><tspan class="cls-7" x="4.8652" y="0">7</tspan></text><text class="cls-3" transform="translate(85.4707 108.9697)"><tspan class="cls-6" x="0" y="0">−</tspan><tspan class="cls-4" x="3.2188" y="0">2</tspan><tspan class="cls-11" x="6.5234" y="0">,</tspan><tspan x="7.6729" y="0">0</tspan></text><text class="cls-3" transform="translate(113.4531 69.2925)"><tspan class="cls-5" x="0" y="0">0</tspan><tspan class="cls-4" x="3.7217" y="0">,</tspan><tspan x="4.9912" y="0">2</tspan></text></svg>