<?xml version="1.0" encoding="UTF-8"?><svg id="Layer_1" xmlns="http://www.w3.org/2000/svg" viewBox="0 0 280 205.3148"><defs><style>.cls-1{font-family:Montserrat-Bold, Montserrat;}.cls-1,.cls-2{font-size:6.107px;}.cls-1,.cls-3{fill:#7ec500;}.cls-4{letter-spacing:-.0119em;}.cls-5{font-family:Verdana, Verdana;}.cls-5,.cls-6,.cls-7{fill:#a2a2a2;}.cls-5,.cls-6,.cls-8{font-size:5px;}.cls-9{letter-spacing:-.012em;}.cls-2,.cls-6,.cls-7{font-family:Montserrat-Regular, Montserrat;}.cls-2,.cls-8{fill:#222;}.cls-10{letter-spacing:0em;}.cls-3,.cls-11{stroke:#fff;stroke-miterlimit:10;stroke-width:.5px;}.cls-12{letter-spacing:-.011em;}.cls-11{fill:#1256bb;}.cls-13{letter-spacing:-.002em;}.cls-14{letter-spacing:.01em;}.cls-15{letter-spacing:.0099em;}.cls-16{letter-spacing:-.002em;}.cls-17{letter-spacing:-.016em;}.cls-7{font-size:4.8856px;}.cls-18{letter-spacing:-.004em;}.cls-19{letter-spacing:-.004em;}.cls-20{letter-spacing:-.011em;}.cls-21{letter-spacing:.02em;}.cls-8{font-family:Montserrat-SemiBold, Montserrat;letter-spacing:.004em;}.cls-22{letter-spacing:0em;}</style></defs><text class="cls-8" transform="translate(8.1695 5.6504)"><tspan x="0" y="0">ДИНАМИКА РЕАЛЬНОГО ВВП РОССИИ</tspan></text><g><rect class="cls-11" x="143.8495" y="112.3034" width="27.4185" height="23.9884"/><rect class="cls-11" x="171.268" y="94.3121" width="27.4185" height="41.9796"/><rect class="cls-11" x="198.6866" y="103.3077" width="27.4185" height="32.984"/><rect class="cls-11" x="226.1051" y="136.2917" width="27.4185" height="40.4804"/><text class="cls-5" transform="translate(151.2013 144.2243)"><tspan x="0" y="0">2017</tspan></text><text class="cls-5" transform="translate(178.62 144.3393)"><tspan x="0" y="0">2018</tspan></text><text class="cls-5" transform="translate(206.0383 144.2243)"><tspan x="0" y="0">2019</tspan></text><text class="cls-5" transform="translate(67.471 144.2243)"><tspan x="0" y="0">2014</tspan></text><text class="cls-7" transform="translate(92.4574 144.2243)"><tspan class="cls-19" x="0" y="0">2</tspan><tspan class="cls-16" x="2.7554" y="0">0</tspan><tspan x="5.98" y="0">15</tspan></text><text class="cls-5" transform="translate(123.783 144.4244)"><tspan x="0" y="0">2016</tspan></text><text class="cls-2" transform="translate(152.8031 109.5705)"><tspan x="0" y="0">1</tspan><tspan class="cls-12" x="2.2046" y="0">,</tspan><tspan x="3.4321" y="0">6</tspan></text><text class="cls-2" transform="translate(180.3395 91.9236)"><tspan class="cls-14" x="0" y="0">2,</tspan><tspan class="cls-10" x="4.8853" y="0">8</tspan></text><text class="cls-2" transform="translate(208.9042 100.1913)"><tspan class="cls-14" x="0" y="0">2,</tspan><tspan x="4.8853" y="0">2</tspan></text><text class="cls-2" transform="translate(232.8253 183.6477)"><tspan class="cls-9" x="0" y="0">−</tspan><tspan class="cls-15" x="3.4385" y="0">2</tspan><tspan class="cls-4" x="6.9678" y="0">,</tspan><tspan class="cls-22" x="8.1895" y="0">7</tspan></text><text class="cls-6" transform="translate(261.8965 144.3094)"><tspan class="cls-18" x="0" y="0">2</tspan><tspan class="cls-13" x="2.8198" y="0">0</tspan><tspan x="6.1201" y="0">21</tspan></text><rect class="cls-3" x="253.5236" y="65.8259" width="26.2297" height="70.4658"/><text class="cls-1" transform="translate(261.4694 61.9493)"><tspan class="cls-21" x="0" y="0">4</tspan><tspan class="cls-17" x="4.3296" y="0">,</tspan><tspan x="5.832" y="0">7</tspan></text><text class="cls-5" transform="translate(41.527 144.2243)"><tspan x="0" y="0">2013</tspan></text><text class="cls-5" transform="translate(15.5213 144.2996)"><tspan x="0" y="0">2012</tspan></text><rect class="cls-11" x="34.1754" y="109.3048" width="27.4185" height="26.9869"/><rect class="cls-11" x="8.1695" y="76.3208" width="27.4186" height="59.9709"/><rect class="cls-11" x="89.0125" y="136.2917" width="27.4185" height="29.9854"/><rect class="cls-11" x="61.5939" y="125.7968" width="27.4185" height="10.4949"/><rect class="cls-11" x="116.431" y="133.2932" width="27.4185" height="2.9985"/><text class="cls-2" transform="translate(44.1565 106.9482)"><tspan x="0" y="0">1</tspan><tspan class="cls-14" x="2.2046" y="0">,</tspan><tspan class="cls-10" x="3.5601" y="0">8</tspan></text><text class="cls-2" transform="translate(17.1646 73.4806)"><tspan class="cls-21" x="0" y="0">4</tspan><tspan class="cls-12" x="4.1587" y="0">,</tspan><tspan x="5.3862" y="0">0</tspan></text><text class="cls-2" transform="translate(70.9063 123.2408)"><tspan class="cls-20" x="0" y="0">0</tspan><tspan class="cls-9" x="3.9756" y="0">,</tspan><tspan x="5.1968" y="0">7</tspan></text><text class="cls-2" transform="translate(96.6026 173.1527)"><tspan class="cls-9" x="0" y="0">−</tspan><tspan class="cls-15" x="3.4385" y="0">2</tspan><tspan class="cls-12" x="6.9678" y="0">,</tspan><tspan x="8.1953" y="0">0</tspan></text><text class="cls-2" transform="translate(125.7402 130.7721)"><tspan class="cls-20" x="0" y="0">0</tspan><tspan class="cls-14" x="3.9756" y="0">,</tspan><tspan x="5.3311" y="0">2</tspan></text></g></svg>