<?xml version="1.0" encoding="UTF-8"?><svg id="Layer_1" xmlns="http://www.w3.org/2000/svg" viewBox="0 0 280 205.3148"><defs><style>.cls-1{letter-spacing:-.0101em;}.cls-2,.cls-3{font-family:Montserrat-Bold, Montserrat;font-size:6.107px;}.cls-2,.cls-4{fill:#1256bb;}.cls-3,.cls-5{fill:#7ec500;}.cls-6{letter-spacing:.004em;}.cls-7{fill:#a2a2a2;font-family:Verdana, Verdana;}.cls-7,.cls-8{font-size:5px;}.cls-9,.cls-10{fill:#f8f8f7;}.cls-9,.cls-10,.cls-11,.cls-12,.cls-13{stroke-miterlimit:10;}.cls-9,.cls-11{stroke:#1256bb;}.cls-10,.cls-12{stroke:#7ec500;}.cls-14{letter-spacing:.01em;}.cls-11,.cls-12,.cls-13{fill:none;}.cls-15{font-family:Montserrat-Regular, Montserrat;font-size:4.9429px;}.cls-16{letter-spacing:-.0161em;}.cls-17{letter-spacing:-.013em;}.cls-18{letter-spacing:-.013em;}.cls-8{fill:#222;font-family:Montserrat-SemiBold, Montserrat;letter-spacing:.004em;}.cls-13{stroke:#a2a2a2;stroke-width:.5px;}</style></defs><text class="cls-8" transform="translate(8.3739 5.6504)"><tspan x="0" y="0">ИЗМЕНЕНИЕ РЕАЛЬНОЙ ЗАРАБОТНОЙ ПЛАТЫ, </tspan><tspan x="0" y="6.25">РЕАЛЬНЫХ РАСПОЛАГАЕМЫХ ДОХОДОВ НАСЕЛЕНИЯ</tspan></text><g><text class="cls-7" transform="translate(223.6203 173.5217)"><tspan x="0" y="0">Q4 </tspan></text><text class="cls-7" transform="translate(192.717 173.5217)"><tspan x="0" y="0">Q1 </tspan></text><text class="cls-7" transform="translate(203.0178 173.5217)"><tspan x="0" y="0">Q2 </tspan></text><text class="cls-7" transform="translate(213.3186 173.5217)"><tspan x="0" y="0">Q3 </tspan></text><line class="cls-13" x1="191.5914" y1="176.8483" x2="233.0669" y2="176.8483"/><text class="cls-7" transform="translate(191.2087 183.6409)"><tspan x="0" y="0">2020</tspan></text></g><g><text class="cls-7" transform="translate(177.8861 173.5217)"><tspan x="0" y="0">Q4 </tspan></text><text class="cls-7" transform="translate(146.9827 173.5217)"><tspan x="0" y="0">Q1 </tspan></text><text class="cls-7" transform="translate(157.2835 173.5217)"><tspan x="0" y="0">Q2 </tspan></text><text class="cls-7" transform="translate(167.5843 173.5217)"><tspan x="0" y="0">Q3 </tspan></text><line class="cls-13" x1="145.8571" y1="176.8483" x2="187.3327" y2="176.8483"/><text class="cls-7" transform="translate(145.4744 183.6409)"><tspan x="0" y="0">2019</tspan></text></g><g><text class="cls-7" transform="translate(132.1518 173.5217)"><tspan x="0" y="0">Q4 </tspan></text><text class="cls-7" transform="translate(101.2485 173.5217)"><tspan x="0" y="0">Q1 </tspan></text><text class="cls-7" transform="translate(111.5493 173.5217)"><tspan x="0" y="0">Q2 </tspan></text><text class="cls-7" transform="translate(121.85 173.5217)"><tspan x="0" y="0">Q3 </tspan></text><line class="cls-13" x1="100.1229" y1="176.8483" x2="141.5984" y2="176.8483"/><text class="cls-7" transform="translate(99.7402 183.6409)"><tspan x="0" y="0">2018</tspan></text></g><g><text class="cls-7" transform="translate(86.4175 173.5217)"><tspan x="0" y="0">Q4 </tspan></text><text class="cls-7" transform="translate(55.5142 173.5217)"><tspan x="0" y="0">Q1 </tspan></text><text class="cls-7" transform="translate(65.815 173.5217)"><tspan x="0" y="0">Q2 </tspan></text><text class="cls-7" transform="translate(76.1158 173.5217)"><tspan x="0" y="0">Q3 </tspan></text><line class="cls-13" x1="54.3886" y1="176.8483" x2="95.8641" y2="176.8483"/><text class="cls-7" transform="translate(54.0059 183.6409)"><tspan x="0" y="0">2017</tspan></text></g><g><text class="cls-7" transform="translate(40.6832 173.5217)"><tspan x="0" y="0">Q4 </tspan></text><text class="cls-7" transform="translate(9.7799 173.5217)"><tspan x="0" y="0">Q1 </tspan></text><text class="cls-7" transform="translate(20.0807 173.5217)"><tspan x="0" y="0">Q2 </tspan></text><text class="cls-7" transform="translate(30.3815 173.5217)"><tspan x="0" y="0">Q3 </tspan></text><line class="cls-13" x1="8.6543" y1="176.8483" x2="50.1299" y2="176.8483"/><text class="cls-7" transform="translate(8.2716 183.6409)"><tspan x="0" y="0">2016</tspan></text></g><g><text class="cls-7" transform="translate(269.3545 173.5217)"><tspan x="0" y="0">Q4 </tspan></text><text class="cls-7" transform="translate(238.4512 173.5217)"><tspan x="0" y="0">Q1 </tspan></text><text class="cls-7" transform="translate(248.752 173.5217)"><tspan x="0" y="0">Q2 </tspan></text><text class="cls-7" transform="translate(259.0528 173.5217)"><tspan x="0" y="0">Q3 </tspan></text><line class="cls-13" x1="237.3256" y1="176.8483" x2="278.8012" y2="176.8483"/><text class="cls-7" transform="translate(236.9429 183.6409)"><tspan x="0" y="0">2021</tspan></text></g><text class="cls-3" transform="translate(259.6923 125.6852)"><tspan class="cls-18" x="0" y="0">0</tspan><tspan x="4.0674" y="0">,</tspan><tspan class="cls-1" x="5.6675" y="0">5</tspan><tspan x="9.2397" y="0">%</tspan></text><text class="cls-3" transform="translate(187.7413 155.8053)"><tspan class="cls-6" x="0" y="0">−</tspan><tspan class="cls-14" x="3.6826" y="0">6</tspan><tspan class="cls-16" x="7.6338" y="0">,</tspan><tspan x="9.1357" y="0">1%</tspan></text><text class="cls-2" transform="translate(260.3664 118.7695)"><tspan class="cls-14" x="0" y="0">2,</tspan><tspan class="cls-1" x="5.3252" y="0">8</tspan><tspan x="9.2944" y="0">%</tspan></text><text class="cls-2" transform="translate(98.3478 57.4662)"><tspan x="0" y="0">1</tspan><tspan class="cls-17" x="2.394" y="0">0</tspan><tspan class="cls-14" x="6.4609" y="0">,2</tspan><tspan x="11.7861" y="0">%</tspan></text><text class="cls-15" transform="translate(16.7128 26.5411)"><tspan x="0" y="0">Рост реальных распола-</tspan><tspan x="0" y="5.9316">гаемых доходов, год к году</tspan></text><text class="cls-15" transform="translate(16.7128 40.8799)"><tspan x="0" y="0">Рост реальной заработной</tspan><tspan x="0" y="5.9316">платы, год к году</tspan></text><circle class="cls-5" cx="10.3308" cy="25.4762" r="2.1363"/><circle class="cls-4" cx="10.3308" cy="38.8156" r="2.1363"/><polyline class="cls-11" points="8.8951 122.7349 20.6209 117.6786 32.3478 112.7592 44.0746 109.3498 55.8016 109.2084 67.5285 100.1842 79.2553 101.8987 90.9823 85.9676 102.7092 61.7183 114.436 76.3893 126.163 83.8751 137.8898 96.1514 149.6168 112.0825 161.3437 104.7221 173.0705 102.4536 184.7975 93.3787 196.5244 84.2531 208.2501 119.9284 219.977 109.2591 231.7039 106.9906 243.4307 110.3689 255.1577 88.2868 266.8846 108.0114 278.6115 103.663"/><polyline class="cls-12" points="8.8942 134.2897 20.6211 149.0363 32.348 141.033 44.0749 151.2043 55.8018 118.8797 67.5287 123.4505 79.2556 125.0538 90.9825 120.6022 102.7094 112.1329 114.4363 116.6201 126.1632 117.6783 137.8901 122.8209 149.617 131.2404 161.3427 115.5112 173.2579 105.226 184.7965 105.3016 196.5234 106.9903 208.2503 153.9521 219.9772 141.6252 231.7041 120.1611 243.431 141.2722 255.1579 80.9261 266.8848 69.5827 278.6117 115.6615"/><circle class="cls-10" cx="278.0851" cy="115.5553" r="1.6001"/><circle class="cls-9" cx="277.8314" cy="103.663" r="1.6001"/><circle class="cls-9" cx="102.901" cy="61.7183" r="1.6001"/><circle class="cls-10" cx="208.8866" cy="152.9521" r="1.6001"/><g><text class="cls-7" transform="translate(223.6203 173.5217)"><tspan x="0" y="0">Q4 </tspan></text><text class="cls-7" transform="translate(192.717 173.5217)"><tspan x="0" y="0">Q1 </tspan></text><text class="cls-7" transform="translate(203.0178 173.5217)"><tspan x="0" y="0">Q2 </tspan></text><text class="cls-7" transform="translate(213.3186 173.5217)"><tspan x="0" y="0">Q3 </tspan></text><line class="cls-13" x1="191.5914" y1="176.8483" x2="233.0669" y2="176.8483"/><text class="cls-7" transform="translate(191.2087 183.6409)"><tspan x="0" y="0">2020</tspan></text></g><g><text class="cls-7" transform="translate(177.8861 173.5217)"><tspan x="0" y="0">Q4 </tspan></text><text class="cls-7" transform="translate(146.9827 173.5217)"><tspan x="0" y="0">Q1 </tspan></text><text class="cls-7" transform="translate(157.2835 173.5217)"><tspan x="0" y="0">Q2 </tspan></text><text class="cls-7" transform="translate(167.5843 173.5217)"><tspan x="0" y="0">Q3 </tspan></text><line class="cls-13" x1="145.8571" y1="176.8483" x2="187.3327" y2="176.8483"/><text class="cls-7" transform="translate(145.4744 183.6409)"><tspan x="0" y="0">2019</tspan></text></g><g><text class="cls-7" transform="translate(132.1518 173.5217)"><tspan x="0" y="0">Q4 </tspan></text><text class="cls-7" transform="translate(101.2485 173.5217)"><tspan x="0" y="0">Q1 </tspan></text><text class="cls-7" transform="translate(111.5493 173.5217)"><tspan x="0" y="0">Q2 </tspan></text><text class="cls-7" transform="translate(121.85 173.5217)"><tspan x="0" y="0">Q3 </tspan></text><line class="cls-13" x1="100.1229" y1="176.8483" x2="141.5984" y2="176.8483"/><text class="cls-7" transform="translate(99.7402 183.6409)"><tspan x="0" y="0">2018</tspan></text></g><g><text class="cls-7" transform="translate(86.4175 173.5217)"><tspan x="0" y="0">Q4 </tspan></text><text class="cls-7" transform="translate(55.5142 173.5217)"><tspan x="0" y="0">Q1 </tspan></text><text class="cls-7" transform="translate(65.815 173.5217)"><tspan x="0" y="0">Q2 </tspan></text><text class="cls-7" transform="translate(76.1158 173.5217)"><tspan x="0" y="0">Q3 </tspan></text><line class="cls-13" x1="54.3886" y1="176.8483" x2="95.8641" y2="176.8483"/><text class="cls-7" transform="translate(54.0059 183.6409)"><tspan x="0" y="0">2017</tspan></text></g><g><text class="cls-7" transform="translate(40.6832 173.5217)"><tspan x="0" y="0">Q4 </tspan></text><text class="cls-7" transform="translate(9.7799 173.5217)"><tspan x="0" y="0">Q1 </tspan></text><text class="cls-7" transform="translate(20.0807 173.5217)"><tspan x="0" y="0">Q2 </tspan></text><text class="cls-7" transform="translate(30.3815 173.5217)"><tspan x="0" y="0">Q3 </tspan></text><line class="cls-13" x1="8.6543" y1="176.8483" x2="50.1299" y2="176.8483"/><text class="cls-7" transform="translate(8.2716 183.6409)"><tspan x="0" y="0">2016</tspan></text></g><g><text class="cls-7" transform="translate(269.3545 173.5217)"><tspan x="0" y="0">Q4 </tspan></text><text class="cls-7" transform="translate(238.4512 173.5217)"><tspan x="0" y="0">Q1 </tspan></text><text class="cls-7" transform="translate(248.752 173.5217)"><tspan x="0" y="0">Q2 </tspan></text><text class="cls-7" transform="translate(259.0528 173.5217)"><tspan x="0" y="0">Q3 </tspan></text><line class="cls-13" x1="237.3256" y1="176.8483" x2="278.8012" y2="176.8483"/><text class="cls-7" transform="translate(236.9429 183.6409)"><tspan x="0" y="0">2021</tspan></text></g></svg>