<?xml version="1.0" encoding="UTF-8"?><svg id="Layer_1" xmlns="http://www.w3.org/2000/svg" viewBox="0 0 339.9832 205.3148"><defs><style>.cls-1{font-family:Montserrat-Bold, Montserrat;}.cls-1,.cls-2{font-size:6.107px;}.cls-1,.cls-3{fill:#7ec500;}.cls-4{letter-spacing:-.0119em;}.cls-5{letter-spacing:-.012em;}.cls-2,.cls-6{font-family:Montserrat-Regular, Montserrat;}.cls-2,.cls-7{fill:#222;}.cls-8{letter-spacing:0em;}.cls-3,.cls-9{stroke:#fff;stroke-miterlimit:10;stroke-width:.5px;}.cls-10{letter-spacing:-.011em;}.cls-9{fill:#1256bb;}.cls-11{letter-spacing:.01em;}.cls-12{letter-spacing:.0099em;}.cls-13{letter-spacing:-.002em;}.cls-14{letter-spacing:-.016em;}.cls-6{fill:#a2a2a2;font-size:4.8856px;}.cls-15{letter-spacing:-.004em;}.cls-16{letter-spacing:-.011em;}.cls-17{letter-spacing:.02em;}.cls-7{font-family:Montserrat-SemiBold, Montserrat;font-size:5px;letter-spacing:.004em;}.cls-18{letter-spacing:0em;}</style></defs><text class="cls-7" transform="translate(.0013 5.6504)"><tspan x="0" y="0">ДИНАМИКА РЕАЛЬНОГО ВВП РОССИИ</tspan></text><g><rect class="cls-9" x="140.121" y="111.8178" width="28.1708" height="23.9884"/><rect class="cls-9" x="168.2918" y="93.8265" width="28.1708" height="41.9796"/><rect class="cls-9" x="196.4625" y="102.8221" width="28.1708" height="32.984"/><rect class="cls-9" x="224.6333" y="136.2917" width="28.1708" height="40.4804"/><text class="cls-6" transform="translate(148.5901 144.2243)"><tspan class="cls-15" x="0" y="0">2</tspan><tspan class="cls-13" x="2.7554" y="0">0</tspan><tspan x="5.98" y="0">17</tspan></text><text class="cls-6" transform="translate(176.565 144.2243)"><tspan class="cls-15" x="0" y="0">2</tspan><tspan class="cls-13" x="2.7554" y="0">0</tspan><tspan x="5.98" y="0">18</tspan></text><text class="cls-6" transform="translate(204.7302 144.2243)"><tspan class="cls-15" x="0" y="0">2</tspan><tspan class="cls-13" x="2.7554" y="0">0</tspan><tspan x="5.98" y="0">19</tspan></text><text class="cls-6" transform="translate(64.131 144.2243)"><tspan class="cls-15" x="0" y="0">2</tspan><tspan class="cls-13" x="2.7554" y="0">0</tspan><tspan x="5.98" y="0">14</tspan></text><text class="cls-6" transform="translate(92.4574 144.2243)"><tspan class="cls-15" x="0" y="0">2</tspan><tspan class="cls-13" x="2.7554" y="0">0</tspan><tspan x="5.98" y="0">15</tspan></text><text class="cls-6" transform="translate(120.4469 144.2243)"><tspan class="cls-15" x="0" y="0">2</tspan><tspan class="cls-13" x="2.7554" y="0">0</tspan><tspan x="5.98" y="0">16</tspan></text><text class="cls-2" transform="translate(150.8304 108.4482)"><tspan x="0" y="0">1</tspan><tspan class="cls-10" x="2.2046" y="0">,</tspan><tspan x="3.4321" y="0">6</tspan></text><text class="cls-2" transform="translate(177.9863 91.0321)"><tspan class="cls-11" x="0" y="0">2,</tspan><tspan class="cls-8" x="4.8853" y="0">8</tspan></text><text class="cls-2" transform="translate(206.3704 97.5563)"><tspan class="cls-11" x="0" y="0">2,</tspan><tspan x="4.8853" y="0">2</tspan></text><text class="cls-2" transform="translate(232.8253 183.6477)"><tspan class="cls-5" x="0" y="0">−</tspan><tspan class="cls-12" x="3.4385" y="0">2</tspan><tspan class="cls-4" x="6.9678" y="0">,</tspan><tspan class="cls-18" x="8.1895" y="0">7</tspan></text><text class="cls-6" transform="translate(261.0194 144.2243)"><tspan class="cls-15" x="0" y="0">2</tspan><tspan class="cls-13" x="2.7554" y="0">0</tspan><tspan x="5.98" y="0">21</tspan></text><rect class="cls-3" x="252.804" y="65.3403" width="26.9494" height="70.4658"/><text class="cls-1" transform="translate(261.4694 61.9493)"><tspan class="cls-17" x="0" y="0">4</tspan><tspan class="cls-14" x="4.3296" y="0">,</tspan><tspan x="5.832" y="0">7</tspan></text><text class="cls-6" transform="translate(36.2736 144.2243)"><tspan class="cls-15" x="0" y="0">2</tspan><tspan class="cls-13" x="2.7554" y="0">0</tspan><tspan x="5.98" y="0">13</tspan></text><text class="cls-6" transform="translate(9.5447 144.2243)"><tspan class="cls-15" x="0" y="0">2</tspan><tspan class="cls-13" x="2.7554" y="0">0</tspan><tspan x="5.98" y="0">12</tspan></text><rect class="cls-9" x="27.438" y="109.3048" width="28.1708" height="26.9869"/><rect class="cls-9" x=".7186" y="76.3208" width="28.1708" height="59.9709"/><rect class="cls-9" x="83.7795" y="136.2917" width="28.1708" height="29.9854"/><rect class="cls-9" x="55.6087" y="125.7968" width="28.1708" height="10.4949"/><rect class="cls-9" x="111.9502" y="133.2932" width="28.1708" height="2.9985"/><text class="cls-2" transform="translate(38.2132 106.9482)"><tspan x="0" y="0">1</tspan><tspan class="cls-11" x="2.2046" y="0">,</tspan><tspan class="cls-8" x="3.5601" y="0">8</tspan></text><text class="cls-2" transform="translate(10.0894 73.4806)"><tspan class="cls-17" x="0" y="0">4</tspan><tspan class="cls-10" x="4.1587" y="0">,</tspan><tspan x="5.3862" y="0">0</tspan></text><text class="cls-2" transform="translate(65.2969 123.2408)"><tspan class="cls-16" x="0" y="0">0</tspan><tspan class="cls-5" x="3.9756" y="0">,</tspan><tspan x="5.1968" y="0">7</tspan></text><text class="cls-2" transform="translate(91.7455 173.1527)"><tspan class="cls-5" x="0" y="0">−</tspan><tspan class="cls-12" x="3.4385" y="0">2</tspan><tspan class="cls-10" x="6.9678" y="0">,</tspan><tspan x="8.1953" y="0">0</tspan></text><text class="cls-2" transform="translate(121.6355 130.7721)"><tspan class="cls-16" x="0" y="0">0</tspan><tspan class="cls-11" x="3.9756" y="0">,</tspan><tspan x="5.3311" y="0">2</tspan></text></g></svg>