<?xml version="1.0" encoding="UTF-8"?><svg id="Layer_1" xmlns="http://www.w3.org/2000/svg" viewBox="0 0 285.9232 148.1641"><defs><style>.cls-1{letter-spacing:-.01em;}.cls-2,.cls-3{font-family:Montserrat-Bold, Montserrat;font-size:5.4487px;}.cls-2,.cls-4{fill:#1256bb;}.cls-3,.cls-5{fill:#7ec500;}.cls-6{letter-spacing:-.0299em;}.cls-7{fill:#a2a2a2;font-family:Verdana, Verdana;font-size:4.4611px;}.cls-8{letter-spacing:.01em;}.cls-9{font-family:Montserrat-Regular, Montserrat;font-size:4.4101px;}.cls-10{letter-spacing:.0002em;}.cls-11,.cls-12{fill:#f8f8f7;}.cls-11,.cls-12,.cls-13,.cls-14,.cls-15{stroke-miterlimit:10;}.cls-11,.cls-13{stroke:#1256bb;}.cls-12,.cls-14{stroke:#7ec500;}.cls-13,.cls-14,.cls-15{fill:none;}.cls-16{letter-spacing:-.0129em;}.cls-15{stroke:#a2a2a2;stroke-width:.5px;}</style></defs><polyline class="cls-14" points="4.5743 25.3724 15.4048 67.4636 26.0752 74.0133 36.9056 77.6805 47.8981 84.8414 58.7285 92.3903 69.56 95.5832 80.3904 101.0853 91.2208 106.5863 102.0523 109.2061 112.7217 108.0712 123.7142 104.2289 134.5446 98.203 145.3761 89.2961 156.2065 90.1685 166.8759 94.797 177.8684 100.3866 188.6988 107.6349 199.5303 103.5302 210.3607 100.3866 221.1922 94.4482 232.0226 86.7637 242.8541 83.4452 253.6845 77.8555 264.5149 68.1624"/><polyline class="cls-13" points="4.5743 16.4646 15.4048 76.6335 26.3973 85.1917 37.0667 81.5232 47.8981 89.2089 58.7285 98.4646 69.56 96.3698 80.3904 104.6655 91.2208 115.6686 102.0523 117.7647 112.7217 121.432 123.5531 113.3987 134.5446 100.037 145.3761 85.1042 156.2065 83.4443 167.0369 89.6279 177.8684 99.6883 188.6988 110.3759 199.5303 100.1061 210.3607 95.2163 221.1922 85.7154 232.0226 73.8386 242.8541 74.7468 253.6845 69.2977 264.5149 51.1818"/><text class="cls-3" transform="translate(267.2959 70.6133)"><tspan class="cls-8" x="0" y="0">8,</tspan><tspan class="cls-1" x="5.1328" y="0">3</tspan><tspan x="8.3037" y="0">%</tspan></text><text class="cls-3" transform="translate(99.5459 104.6865)"><tspan class="cls-8" x="0" y="0">2,2</tspan><tspan x="8.0205" y="0">%</tspan></text><text class="cls-2" transform="translate(267.2959 53.0488)"><tspan x="0" y="0">1</tspan><tspan class="cls-16" x="2.1357" y="0">0</tspan><tspan class="cls-8" x="5.7646" y="0">,</tspan><tspan class="cls-1" x="7.2471" y="0">8</tspan><tspan class="cls-10" x="10.7881" y="0">%</tspan></text><text class="cls-2" transform="translate(106.2998 128.8779)"><tspan class="cls-16" x="0" y="0">0</tspan><tspan x="3.6289" y="0">,</tspan><tspan class="cls-6" x="5.0566" y="0">4</tspan><tspan x="8.6475" y="0">%</tspan></text><text class="cls-9" transform="translate(222.2461 3.749)"><tspan x="0" y="0">Инфляция на продукты</tspan><tspan x="0" y="5.292">питания, год к году</tspan></text><text class="cls-9" transform="translate(222.2461 16.542)"><tspan x="0" y="0">Инфляция, год к году</tspan></text><circle class="cls-5" cx="215.6589" cy="2.7985" r="1.906"/><circle class="cls-4" cx="215.6589" cy="14.7" r="1.906"/><g><text class="cls-7" transform="translate(91.1797 137.7842)"><tspan x="0" y="0">Q1 </tspan></text><text class="cls-7" transform="translate(102.1543 137.7842)"><tspan x="0" y="0">Q2 </tspan></text><text class="cls-7" transform="translate(113.1279 137.7842)"><tspan x="0" y="0">Q3 </tspan></text><text class="cls-7" transform="translate(124.1045 137.7842)"><tspan x="0" y="0">Q4 </tspan></text><line class="cls-15" x1="89.8895" y1="140.7519" x2="132.9654" y2="140.7519"/><text class="cls-7" transform="translate(89.833 146.8115)"><tspan x="0" y="0">2018</tspan></text></g><g><text class="cls-7" transform="translate(46.2627 137.7842)"><tspan x="0" y="0">Q1 </tspan></text><text class="cls-7" transform="translate(57.2383 137.7842)"><tspan x="0" y="0">Q2 </tspan></text><text class="cls-7" transform="translate(68.2119 137.7842)"><tspan x="0" y="0">Q3 </tspan></text><text class="cls-7" transform="translate(79.1885 137.7842)"><tspan x="0" y="0">Q4 </tspan></text><line class="cls-15" x1="44.973" y1="140.7519" x2="88.0489" y2="140.7519"/><text class="cls-7" transform="translate(44.917 146.8115)"><tspan x="0" y="0">2017</tspan></text></g><g><text class="cls-7" transform="translate(1.3467 137.7842)"><tspan x="0" y="0">Q1 </tspan></text><text class="cls-7" transform="translate(12.3213 137.7842)"><tspan x="0" y="0">Q2 </tspan></text><text class="cls-7" transform="translate(23.2959 137.7842)"><tspan x="0" y="0">Q3 </tspan></text><text class="cls-7" transform="translate(34.2715 137.7842)"><tspan x="0" y="0">Q4 </tspan></text><line class="cls-15" x1=".0568" y1="140.7519" x2="43.1326" y2="140.7519"/><text class="cls-7" transform="translate(0 146.8115)"><tspan x="0" y="0">2016</tspan></text></g><g><text class="cls-7" transform="translate(136.0957 137.7842)"><tspan x="0" y="0">Q1 </tspan></text><text class="cls-7" transform="translate(147.0713 137.7842)"><tspan x="0" y="0">Q2 </tspan></text><text class="cls-7" transform="translate(158.0449 137.7842)"><tspan x="0" y="0">Q3 </tspan></text><text class="cls-7" transform="translate(169.0215 137.7842)"><tspan x="0" y="0">Q4 </tspan></text><line class="cls-15" x1="134.8059" y1="140.7519" x2="177.8817" y2="140.7519"/><text class="cls-7" transform="translate(134.75 146.8115)"><tspan x="0" y="0">2019</tspan></text></g><g><text class="cls-7" transform="translate(181.0117 137.7842)"><tspan x="0" y="0">Q1 </tspan></text><text class="cls-7" transform="translate(191.9873 137.7842)"><tspan x="0" y="0">Q2 </tspan></text><text class="cls-7" transform="translate(202.9609 137.7842)"><tspan x="0" y="0">Q3 </tspan></text><text class="cls-7" transform="translate(213.9375 137.7842)"><tspan x="0" y="0">Q4 </tspan></text><line class="cls-15" x1="179.722" y1="140.7519" x2="222.7978" y2="140.7519"/><text class="cls-7" transform="translate(179.666 146.8115)"><tspan x="0" y="0">2020</tspan></text></g><g><text class="cls-7" transform="translate(225.9277 137.7842)"><tspan x="0" y="0">Q1 </tspan></text><text class="cls-7" transform="translate(236.9033 137.7842)"><tspan x="0" y="0">Q2 </tspan></text><text class="cls-7" transform="translate(247.877 137.7842)"><tspan x="0" y="0">Q3 </tspan></text><text class="cls-7" transform="translate(258.8535 137.7842)"><tspan x="0" y="0">Q4 </tspan></text><line class="cls-15" x1="224.6382" y1="140.7519" x2="267.714" y2="140.7519"/><text class="cls-7" transform="translate(224.582 146.8115)"><tspan x="0" y="0">2021</tspan></text></g><circle class="cls-11" cx="263.6326" cy="51.621" r="1.4276"/><circle class="cls-11" cx="112.7217" cy="120.9946" r="1.4276"/><circle class="cls-12" cx="263.6326" cy="69.1873" r="1.4276"/><circle class="cls-12" cx="104.5157" cy="109.2061" r="1.4276"/></svg>