<?xml version="1.0" encoding="UTF-8"?><svg xmlns="http://www.w3.org/2000/svg" viewBox="0 0 280 205.3148"><defs><style>.cls-1,.cls-2{font-family:Montserrat-Bold, Montserrat;font-size:6.107px;}.cls-1,.cls-3{fill:#1256bb;}.cls-2,.cls-4{fill:#7ec500;}.cls-5{fill:#a2a2a2;font-family:Verdana, Verdana;}.cls-5,.cls-6{font-size:5px;}.cls-7{letter-spacing:-.03em;}.cls-8,.cls-9{fill:#f8f8f7;}.cls-8,.cls-9,.cls-10,.cls-11,.cls-12{stroke-miterlimit:10;}.cls-8,.cls-10{stroke:#1256bb;}.cls-9,.cls-11{stroke:#7ec500;}.cls-13{letter-spacing:.01em;}.cls-10,.cls-11,.cls-12{fill:none;}.cls-14{font-family:Montserrat-Regular, Montserrat;font-size:4.9429px;}.cls-15{letter-spacing:-.01em;}.cls-16{letter-spacing:-.013em;}.cls-17{letter-spacing:-.013em;}.cls-6{fill:#222;font-family:Montserrat-SemiBold, Montserrat;letter-spacing:.004em;}.cls-18{letter-spacing:0em;}.cls-12{stroke:#a2a2a2;stroke-width:.5px;}</style></defs><g id="Layer_1"><text class="cls-6" transform="translate(8.1696 5.6503)"><tspan x="0" y="0">ИНДЕКС ПОТРЕБИТЕЛЬСКИХ ЦЕН</tspan></text><polyline class="cls-11" points="8.7806 55.5407 20.0185 94.3538 31.0904 100.3933 42.3282 103.7749 53.7343 110.378 64.9721 117.3391 76.2111 120.2833 87.449 125.3569 98.6868 130.4294 109.9258 132.8452 120.9966 131.7987 132.4026 128.2556 143.6405 122.6991 154.8795 114.4858 166.1173 115.2903 177.1881 119.5583 188.5942 124.7126 199.832 131.3964 211.071 127.6114 222.3089 124.7126 233.5478 119.2367 244.7857 112.1507 256.0247 109.0906 267.2626 103.9363 278.5004 94.998"/><polyline class="cls-10" points="8.7806 47.3266 20.0185 102.8094 31.4246 110.7011 42.4953 107.3183 53.7343 114.4055 64.9721 122.9403 76.2111 121.0086 87.449 128.6583 98.6868 138.8044 109.9258 140.7373 120.9966 144.1189 132.2355 136.7113 143.6405 124.3903 154.8795 110.6204 166.1173 109.0898 177.3552 114.7918 188.5942 124.0687 199.832 133.9239 211.071 124.4539 222.3089 119.945 233.5478 111.184 244.7857 100.2322 256.0247 101.0697 267.2626 96.0449 278.5004 79.34"/><text class="cls-2" transform="translate(265.7935 112.1906)"><tspan class="cls-13" x="0" y="0">8,</tspan><tspan class="cls-15" x="5.7524" y="0">3</tspan><tspan x="9.3066" y="0">%</tspan></text><text class="cls-2" transform="translate(105.2252 127.3506)"><tspan class="cls-13" x="0" y="0">2,2</tspan><tspan x="8.9893" y="0">%</tspan></text><text class="cls-1" transform="translate(256.7068 81.8836)"><tspan x="0" y="0">1</tspan><tspan class="cls-16" x="2.394" y="0">0</tspan><tspan class="cls-13" x="6.4609" y="0">,</tspan><tspan class="cls-15" x="8.1221" y="0">8</tspan><tspan x="12.0918" y="0">%</tspan></text><text class="cls-1" transform="translate(113.7956 152.4639)"><tspan class="cls-17" x="0" y="0">0</tspan><tspan x="4.0674" y="0">,</tspan><tspan class="cls-7" x="5.6675" y="0">4</tspan><tspan class="cls-18" x="9.6919" y="0">%</tspan></text><text class="cls-14" transform="translate(15.7128 19.5411)"><tspan x="0" y="0">Инфляция на продукты</tspan><tspan x="0" y="5.9316">питания, год к году</tspan></text><text class="cls-14" transform="translate(15.7128 33.88)"><tspan x="0" y="0">Инфляция, год к году</tspan></text><circle class="cls-4" cx="10.3308" cy="18.4762" r="2.1363"/><circle class="cls-3" cx="10.3308" cy="31.8156" r="2.1363"/><g><text class="cls-5" transform="translate(223.6203 173.5217)"><tspan x="0" y="0">Q4 </tspan></text><text class="cls-5" transform="translate(192.717 173.5217)"><tspan x="0" y="0">Q1 </tspan></text><text class="cls-5" transform="translate(203.0178 173.5217)"><tspan x="0" y="0">Q2 </tspan></text><text class="cls-5" transform="translate(213.3186 173.5217)"><tspan x="0" y="0">Q3 </tspan></text><line class="cls-12" x1="191.5914" y1="176.8483" x2="233.0669" y2="176.8483"/><text class="cls-5" transform="translate(191.2087 183.6409)"><tspan x="0" y="0">2020</tspan></text></g><g><text class="cls-5" transform="translate(177.8861 173.5217)"><tspan x="0" y="0">Q4 </tspan></text><text class="cls-5" transform="translate(146.9827 173.5217)"><tspan x="0" y="0">Q1 </tspan></text><text class="cls-5" transform="translate(157.2835 173.5217)"><tspan x="0" y="0">Q2 </tspan></text><text class="cls-5" transform="translate(167.5843 173.5217)"><tspan x="0" y="0">Q3 </tspan></text><line class="cls-12" x1="145.8571" y1="176.8483" x2="187.3327" y2="176.8483"/><text class="cls-5" transform="translate(145.4744 183.6409)"><tspan x="0" y="0">2019</tspan></text></g><g><text class="cls-5" transform="translate(132.1518 173.5217)"><tspan x="0" y="0">Q4 </tspan></text><text class="cls-5" transform="translate(101.2485 173.5217)"><tspan x="0" y="0">Q1 </tspan></text><text class="cls-5" transform="translate(111.5493 173.5217)"><tspan x="0" y="0">Q2 </tspan></text><text class="cls-5" transform="translate(121.85 173.5217)"><tspan x="0" y="0">Q3 </tspan></text><line class="cls-12" x1="100.1229" y1="176.8483" x2="141.5984" y2="176.8483"/><text class="cls-5" transform="translate(99.7402 183.6409)"><tspan x="0" y="0">2018</tspan></text></g><g><text class="cls-5" transform="translate(86.4175 173.5217)"><tspan x="0" y="0">Q4 </tspan></text><text class="cls-5" transform="translate(55.5142 173.5217)"><tspan x="0" y="0">Q1 </tspan></text><text class="cls-5" transform="translate(65.815 173.5217)"><tspan x="0" y="0">Q2 </tspan></text><text class="cls-5" transform="translate(76.1158 173.5217)"><tspan x="0" y="0">Q3 </tspan></text><line class="cls-12" x1="54.3886" y1="176.8483" x2="95.8641" y2="176.8483"/><text class="cls-5" transform="translate(54.0059 183.6409)"><tspan x="0" y="0">2017</tspan></text></g><g><text class="cls-5" transform="translate(40.6832 173.5217)"><tspan x="0" y="0">Q4 </tspan></text><text class="cls-5" transform="translate(9.7799 173.5217)"><tspan x="0" y="0">Q1 </tspan></text><text class="cls-5" transform="translate(20.0807 173.5217)"><tspan x="0" y="0">Q2 </tspan></text><text class="cls-5" transform="translate(30.3815 173.5217)"><tspan x="0" y="0">Q3 </tspan></text><line class="cls-12" x1="8.6543" y1="176.8483" x2="50.1299" y2="176.8483"/><text class="cls-5" transform="translate(8.2716 183.6409)"><tspan x="0" y="0">2016</tspan></text></g><g><text class="cls-5" transform="translate(269.3545 173.5217)"><tspan x="0" y="0">Q4 </tspan></text><text class="cls-5" transform="translate(238.4512 173.5217)"><tspan x="0" y="0">Q1 </tspan></text><text class="cls-5" transform="translate(248.752 173.5217)"><tspan x="0" y="0">Q2 </tspan></text><text class="cls-5" transform="translate(259.0528 173.5217)"><tspan x="0" y="0">Q3 </tspan></text><line class="cls-12" x1="237.3256" y1="176.8483" x2="278.8012" y2="176.8483"/><text class="cls-5" transform="translate(236.9429 183.6409)"><tspan x="0" y="0">2021</tspan></text></g></g><g id="Layer_2"><circle class="cls-8" cx="278.0027" cy="79.8744" r="1.6001"/><circle class="cls-8" cx="120.9927" cy="143.6287" r="1.6001"/><circle class="cls-9" cx="278.0027" cy="95.5628" r="1.6001"/><circle class="cls-9" cx="110.7954" cy="132.4161" r="1.6001"/></g></svg>