<?xml version="1.0" encoding="UTF-8"?><svg id="Layer_1" xmlns="http://www.w3.org/2000/svg" viewBox="0 0 339.9832 205.3148"><defs><style>.cls-1{fill:#222;}.cls-2{fill:#a2a2a2;}.cls-3{stroke:#1256bb;}.cls-3,.cls-4{fill:none;stroke-miterlimit:10;}.cls-4{stroke:#a2a2a2;stroke-width:.5px;}</style></defs><g><path class="cls-1" d="M3.5912,2.1505v3.5h-.6396V2.7003H1.1361v2.9502H.4965V2.1505H3.5912Z"/><path class="cls-1" d="M5.2514,5.4678c-.2866-.1553-.5117-.3701-.6748-.6455-.1636-.2744-.2451-.582-.2451-.9219s.0815-.6475,.2451-.9229c.1631-.2744,.3882-.4902,.6748-.6445,.2866-.1553,.6084-.2324,.9648-.2324,.3569,0,.6782,.0771,.9653,.2324,.2866,.1543,.5112,.3691,.6748,.6426,.1631,.2725,.2451,.5811,.2451,.9248,0,.3428-.082,.6514-.2451,.9248-.1636,.2734-.3882,.4873-.6748,.6426-.2871,.1553-.6084,.2324-.9653,.2324-.3564,0-.6782-.0771-.9648-.2324Zm1.5952-.4951c.1865-.1055,.333-.252,.4399-.4404,.1064-.1875,.1597-.3984,.1597-.6318s-.0532-.4443-.1597-.6328c-.1069-.1885-.2534-.335-.4399-.4395-.187-.1055-.397-.1582-.6304-.1582s-.4434,.0527-.6299,.1582c-.1865,.1045-.3335,.251-.4399,.4395-.1069,.1885-.1602,.3994-.1602,.6328s.0532,.4443,.1602,.6318c.1064,.1885,.2534,.335,.4399,.4404s.3965,.1572,.6299,.1572,.4434-.0518,.6304-.1572Z"/><path class="cls-1" d="M11.3813,2.7003h-1.1597v2.9502h-.645V2.7003h-1.1553v-.5498h2.96v.5498Z"/><path class="cls-1" d="M14.1938,2.2999c.2246,.1006,.3975,.2441,.5176,.4307,.1196,.1865,.1797,.4082,.1797,.665,0,.2529-.0601,.4736-.1797,.6621-.1201,.1885-.293,.333-.5176,.4326-.2251,.0996-.4893,.1504-.7925,.1504h-.79v1.0098h-.6499V2.1505h1.4399c.3032,0,.5674,.0498,.7925,.1494Zm-.1777,1.6104c.1465-.1201,.2202-.292,.2202-.5146,0-.2236-.0737-.3955-.2202-.5156s-.3618-.1797-.645-.1797h-.7598v1.3896h.7598c.2832,0,.4985-.0596,.645-.1797Z"/><path class="cls-1" d="M18.2016,5.1055v.5449h-2.625V2.1505h2.5547v.5449h-1.9048v.9102h1.6899v.5352h-1.6899v.9648h1.9751Z"/><path class="cls-1" d="M18.9511,2.1505h2.7251v.5352h-2.0854v.8594h1.0352c.4199,0,.7393,.0879,.9575,.2627s.3276,.4277,.3276,.7578c0,.3467-.1201,.6143-.3599,.8018-.2402,.1885-.582,.2832-1.0254,.2832h-1.5747V2.1505Zm1.54,3c.25,0,.4399-.0488,.5698-.1455s.1948-.2363,.1948-.4199c0-.3594-.2549-.54-.7646-.54h-.9004v1.1055h.9004Z"/><path class="cls-1" d="M22.6464,2.1505h.6396v2.4844l1.8804-2.4844h.605v3.5h-.6401V3.17l-1.8799,2.4805h-.605V2.1505Z"/><path class="cls-1" d="M29.3109,2.7003h-1.1597v2.9502h-.645V2.7003h-1.1553v-.5498h2.96v.5498Z"/><path class="cls-1" d="M32.516,5.1055v.5449h-2.625V2.1505h2.5547v.5449h-1.9048v.9102h1.6899v.5352h-1.6899v.9648h1.9751Z"/><path class="cls-1" d="M36.2509,2.1505v3.5h-.6401V2.7003h-1.3799l-.0298,.875c-.0171,.4902-.0571,.8877-.1201,1.1924-.0635,.3047-.165,.5371-.3052,.6953-.1396,.1582-.333,.2373-.5801,.2373-.0864,0-.2046-.0166-.355-.0498l.0454-.5654c.043,.0137,.0933,.0205,.1499,.0205,.2031,0,.3472-.1211,.4321-.3633,.0854-.2412,.1377-.6221,.1577-1.1416l.0498-1.4502h2.5752Z"/><path class="cls-1" d="M39.8383,3.6173c.2251,.1885,.3379,.4678,.3379,.8379,0,.3867-.1235,.6826-.3701,.8877s-.5933,.3076-1.04,.3076h-1.5049V2.1505h.6396v1.1846h.9702c.4199,0,.7427,.0947,.9673,.2822Zm-.5171,1.3584c.1362-.1172,.2046-.2871,.2046-.5107,0-.4229-.2632-.6348-.7896-.6348h-.8354v1.3203h.8354c.2529,0,.4482-.0586,.585-.1748Z"/><path class="cls-1" d="M41.5136,5.4678c-.2852-.1553-.5083-.3691-.6699-.6426-.1621-.2734-.2427-.582-.2427-.9248,0-.3438,.0815-.6523,.2451-.9248,.1631-.2734,.3872-.4883,.6724-.6426,.2852-.1553,.604-.2324,.9575-.2324,.2866,0,.5483,.0498,.7852,.1494,.2363,.1006,.4365,.2451,.6001,.4355l-.4204,.3945c-.2534-.2734-.5649-.4102-.9351-.4102-.2397,0-.4546,.0527-.6445,.1582-.1904,.1045-.3384,.25-.4453,.4375-.1064,.1865-.1602,.3975-.1602,.6348,0,.2363,.0537,.4482,.1602,.6348,.1069,.1865,.2549,.332,.4453,.4375,.1899,.1055,.4048,.1572,.6445,.1572,.3701,0,.6816-.1377,.9351-.415l.4204,.4004c-.1636,.1895-.3643,.335-.6025,.4346-.2388,.1006-.501,.1504-.7876,.1504-.3535,0-.6724-.0771-.9575-.2324Z"/><path class="cls-1" d="M45.7758,4.1749h-.6499v1.4756h-.6396V2.1505h.6396v1.4648h.6699l1.0054-1.4648h.6899l-1.1953,1.6943,1.2402,1.8057h-.7349l-1.0254-1.4756Z"/><path class="cls-1" d="M48.121,2.1505h.6396v2.4844l1.8804-2.4844h.605v3.5h-.6401V3.17l-1.8799,2.4805h-.605V2.1505Z"/><path class="cls-1" d="M54.871,5.1055v.5449h-2.625V2.1505h2.5547v.5449h-1.9048v.9102h1.6899v.5352h-1.6899v.9648h1.9751Z"/><path class="cls-1" d="M59.2484,2.2999c.2246,.1006,.3975,.2441,.5176,.4307,.1196,.1865,.1797,.4082,.1797,.665,0,.2529-.0601,.4736-.1797,.6621-.1201,.1885-.293,.333-.5176,.4326-.2251,.0996-.4893,.1504-.7925,.1504h-.79v1.0098h-.6499V2.1505h1.4399c.3032,0,.5674,.0498,.7925,.1494Zm-.1777,1.6104c.1465-.1201,.2202-.292,.2202-.5146,0-.2236-.0737-.3955-.2202-.5156s-.3618-.1797-.645-.1797h-.7598v1.3896h.7598c.2832,0,.4985-.0596,.645-.1797Z"/><path class="cls-1" d="M62.9506,4.8399h-1.75l-.3452,.8105h-.6699l1.5752-3.5h.6396l1.5801,3.5h-.6797l-.3501-.8105Zm-.2148-.5098l-.6602-1.5303-.6553,1.5303h1.3154Z"/><path class="cls-1" d="M65.1884,5.4678c-.2852-.1553-.5083-.3691-.6699-.6426-.1621-.2734-.2427-.582-.2427-.9248,0-.3438,.0815-.6523,.2451-.9248,.1631-.2734,.3872-.4883,.6724-.6426,.2852-.1553,.604-.2324,.9575-.2324,.2866,0,.5483,.0498,.7852,.1494,.2363,.1006,.4365,.2451,.6001,.4355l-.4204,.3945c-.2534-.2734-.5649-.4102-.9351-.4102-.2397,0-.4546,.0527-.6445,.1582-.1904,.1045-.3384,.25-.4453,.4375-.1064,.1865-.1602,.3975-.1602,.6348,0,.2363,.0537,.4482,.1602,.6348,.1069,.1865,.2549,.332,.4453,.4375,.1899,.1055,.4048,.1572,.6445,.1572,.3701,0,.6816-.1377,.9351-.415l.4204,.4004c-.1636,.1895-.3643,.335-.6025,.4346-.2388,.1006-.501,.1504-.7876,.1504-.3535,0-.6724-.0771-.9575-.2324Z"/><path class="cls-1" d="M68.5658,2.1505l.8252,1.1699,.8247-1.1699h.7603l-1.1753,1.6797,1.27,1.8203h-.77l-.9097-1.2754-.9053,1.2754h-.75l1.2651-1.7949-1.1851-1.7051h.75Z"/><path class="cls-1" d="M72.2958,5.4678c-.2866-.1553-.5117-.3701-.6748-.6455-.1636-.2744-.2451-.582-.2451-.9219s.0815-.6475,.2451-.9229c.1631-.2744,.3882-.4902,.6748-.6445,.2866-.1553,.6084-.2324,.9648-.2324,.3569,0,.6782,.0771,.9653,.2324,.2866,.1543,.5112,.3691,.6748,.6426,.1631,.2725,.2451,.5811,.2451,.9248,0,.3428-.082,.6514-.2451,.9248-.1636,.2734-.3882,.4873-.6748,.6426-.2871,.1553-.6084,.2324-.9653,.2324-.3564,0-.6782-.0771-.9648-.2324Zm1.5952-.4951c.1865-.1055,.333-.252,.4399-.4404,.1064-.1875,.1597-.3984,.1597-.6318s-.0532-.4443-.1597-.6328c-.1069-.1885-.2534-.335-.4399-.4395-.187-.1055-.397-.1582-.6304-.1582s-.4434,.0527-.6299,.1582c-.1865,.1045-.3335,.251-.4399,.4395-.1069,.1885-.1602,.3994-.1602,.6328s.0532,.4443,.1602,.6318c.1064,.1885,.2534,.335,.4399,.4404s.3965,.1572,.6299,.1572,.4434-.0518,.6304-.1572Z"/><path class="cls-1" d="M79.3554,5.1007v1.2949h-.6001v-.7451h-2.6851v.7451h-.605l.0054-1.2949h.1499c.2197-.0107,.374-.1729,.4624-.4883,.0884-.3145,.1426-.7656,.1626-1.3525l.04-1.1094h2.5649v2.9502h.5049Zm-2.6499-.6475c-.0566,.3008-.147,.5166-.27,.6475h1.7749V2.7003h-1.3701l-.0249,.6201c-.0166,.4531-.0532,.8311-.1099,1.1328Z"/><path class="cls-1" d="M82.5678,3.6173c.2251,.1885,.3379,.4678,.3379,.8379,0,.3867-.1235,.6826-.3701,.8877s-.5933,.3076-1.04,.3076h-1.5049V2.1505h.6396v1.1846h.9702c.4199,0,.7427,.0947,.9673,.2822Zm-.5171,1.3584c.1362-.1172,.2046-.2871,.2046-.5107,0-.4229-.2632-.6348-.7896-.6348h-.8354v1.3203h.8354c.2529,0,.4482-.0586,.585-.1748Zm1.3599-2.8252h.6401v3.5h-.6401V2.1505Z"/></g><path class="cls-3" d="M8.6889,154.1436c6.3999,2.8304,7.4692-.9168,13.0246-1.106,6.9631,1.1046,5.1992-2.6791,10.0636-4.4684,4.6447-.8927,9.1148,2.5938,13.6088,1.1846,4.2067-1.9956,9.1674,1.5648,12.7226-2.6437,3.552-3.3112,6.0763,3.9544,9.8441,1.9822,3.8412-2.4027,9.3952,2.3015,9.7909-.0664,2.0571-17.2956,2.267-34.8573,3.5265-52.2606,.5434-2.5567,.2515-18.0143,2.5241-16.9367,1.5638,1.1624,2.5757,3.117,3.8228,4.7058,3.6638,2.1622,8.4489,.0533,12.3421-.6798,3.0749,1.0217,3.7151,17.0866,5.6132,21.0885,1.0562,1.8296,3.6898-.4632,5.2486-.4973,2.7932-.8982,3.5756,3.6066,4.8156,5.7565,1.4749,3.52,3.5182,6.4997,5.778,9.2816,1.8498,2.553,4.1485,.0858,6.1082-.8948,1.9101-.9512,2.2162-.5867,2.7265,1.4421,.8428,3.3506,1.4695,6.7813,2.2058,10.1723,1.6651,5.8293,.3246,10.1206,6.6418,6.3658,1.273-.556,2.518-.3078,3.6679,.5002,2.7084,2.5864,6.0146,1.8344,9.1867,2.035,2.7471,.2712,3.756,14.3297,6.467,12.2286,6.498-15.3126,4.8201-18.7338,20.7268-18.8907,4.3713-.6184,3.9091-8.1794,6.1145-11.7827l.6325-.6689c3.138-2.093,8.5373,10.2544,12.1047,11.065,5.7717,.9639,6.5448,2.0958,8.9568-5.081,.8595-1.5326,1.1775-4.4253,3.087-4.3102,2.8731,.2792,5.9595-.2403,8.3982,2.0279,3.3879,2.9666,7.8444,3.0528,11.096,6.3428,1.5287,1.4998,3.4399,1.7453,5.2133,.8705,5.8438-3.0747,12.3156,2.2827,18.1497-.615,1.0089-.3415,2.756-1.5431,3.2493,.2224,1.9207,4.997,2.2052,10.7548,4.3477,15.6433,2.1187,3.051,4.5107-11.4032,5.5372-13.105,5.2831-7.5574,15.7469,1.4661,21.5459-5.3183,.8477-.7829,1.8444-1.3391,2.9467-1.1356,8.7346,.7702,9.1111,15.3621,16.5686,1.085"/><g><path class="cls-2" d="M109.8061,173.4991h-.4834v-3.1328l-1.0107,2.1318h-.2881l-1.0034-2.1318v3.1328h-.4517v-3.6348h.6592l.9692,2.0234,.9375-2.0234h.6714v3.6348Z"/><path class="cls-2" d="M112.8651,173.4991h-.4565v-.291c-.0405,.0283-.0957,.0664-.165,.1162-.0688,.0498-.1362,.0889-.2012,.1182-.0767,.0381-.1646,.0693-.2637,.0947s-.2158,.0381-.3491,.0381c-.2456,0-.4541-.082-.625-.2441-.1709-.1631-.2563-.3711-.2563-.623,0-.207,.0444-.374,.1328-.502,.0889-.1279,.2153-.2285,.3799-.3008,.166-.0742,.3652-.123,.5981-.1494s.4824-.0459,.7495-.0586v-.0713c0-.1035-.0186-.1895-.0547-.2578-.0371-.0684-.0894-.123-.1577-.1621-.0649-.0371-.1431-.0625-.2344-.0752s-.1865-.0195-.2856-.0195c-.1206,0-.2549,.0156-.4028,.0479-.1479,.0312-.3013,.0771-.459,.1377h-.0244v-.4658c.0894-.0254,.2188-.0518,.3882-.0811s.3359-.0439,.5005-.0439c.1919,0,.3594,.0156,.5015,.0479,.1426,.0312,.2661,.0859,.3701,.1621,.1025,.0752,.1807,.1719,.2344,.29,.0537,.1191,.0806,.2666,.0806,.4424v1.8506Zm-.4565-.6719v-.7588c-.1401,.0078-.3047,.0205-.4941,.0361-.1899,.0166-.3398,.04-.4507,.0713-.1318,.0371-.2383,.0957-.3198,.1748s-.1221,.1875-.1221,.3262c0,.1562,.0474,.2734,.1416,.3525s.2383,.1182,.4321,.1182c.1611,0,.3086-.0312,.4419-.0938s.2573-.1387,.3711-.2266Z"/><path class="cls-2" d="M116.0463,173.4991h-.4541v-2.0488l-1.4282,2.0488h-.415v-2.7266h.4541v2.0186l1.4136-2.0186h.4297v2.7266Zm-.2612-3.8008c-.0083,.2402-.0845,.4287-.228,.5635-.1445,.1348-.354,.2021-.6289,.2021s-.4844-.0674-.6289-.2021c-.1436-.1348-.2197-.3232-.228-.5635h.4175c.0015,.1699,.0396,.2939,.1133,.3711,.0742,.0762,.1831,.1143,.3262,.1143,.145,0,.2539-.0371,.3271-.1123s.1108-.1992,.1123-.373h.4175Z"/></g><g><path class="cls-2" d="M133.1947,173.4991h-.481v-2.9121l-1.8066,2.9121h-.4883v-3.6348h.481v2.8682l1.7847-2.8682h.5103v3.6348Z"/><path class="cls-2" d="M135.1601,172.2637h-.5664v1.2354h-.459v-2.7266h.459v1.1055h.5786c.0405-.376,.1719-.667,.3945-.873,.2217-.2061,.4951-.3086,.8188-.3086,.376,0,.6753,.1289,.8984,.3857s.3345,.6084,.3345,1.0547c0,.4414-.1099,.791-.3296,1.0498s-.521,.3887-.9033,.3887c-.3613,0-.6509-.1172-.8677-.3516-.2178-.2344-.3369-.5547-.3579-.96Zm1.9849-.127c0-.3496-.0674-.6113-.2026-.7852-.1353-.1729-.3223-.2598-.5615-.2598-.249,0-.439,.0908-.5698,.2725-.1313,.1816-.1968,.4385-.1968,.7725,0,.3447,.0684,.6055,.2051,.7803s.3237,.2617,.5615,.2617,.4243-.0859,.5601-.2598c.1362-.1729,.2041-.4336,.2041-.7822Z"/><path class="cls-2" d="M140.6117,173.4991h-.459v-1.2285h-1.3647v1.2285h-.459v-2.7266h.459v1.1035h1.3647v-1.1035h.459v2.7266Z"/></g><g><path class="cls-2" d="M157.4442,173.4991h-.481v-2.9121l-1.8066,2.9121h-.4883v-3.6348h.481v2.8682l1.7847-2.8682h.5103v3.6348Z"/><path class="cls-2" d="M159.4096,172.2637h-.5664v1.2354h-.459v-2.7266h.459v1.1055h.5786c.0405-.376,.1719-.667,.3945-.873,.2217-.2061,.4951-.3086,.8188-.3086,.376,0,.6753,.1289,.8984,.3857s.3345,.6084,.3345,1.0547c0,.4414-.1099,.791-.3296,1.0498s-.521,.3887-.9033,.3887c-.3613,0-.6509-.1172-.8677-.3516-.2178-.2344-.3369-.5547-.3579-.96Zm1.9849-.127c0-.3496-.0674-.6113-.2026-.7852-.1353-.1729-.3223-.2598-.5615-.2598-.249,0-.439,.0908-.5698,.2725-.1313,.1816-.1968,.4385-.1968,.7725,0,.3447,.0684,.6055,.2051,.7803s.3237,.2617,.5615,.2617,.4243-.0859,.5601-.2598c.1362-.1729,.2041-.4336,.2041-.7822Z"/><path class="cls-2" d="M164.7782,173.4991h-.459v-2.3418h-1.0181c-.0049,.1357-.0098,.2656-.0146,.3906-.0049,.126-.0098,.2393-.0146,.3398-.0112,.2715-.0303,.4883-.0562,.6504s-.0601,.2969-.1025,.4043c-.0391,.1006-.0825,.1826-.1309,.2451-.0479,.0625-.0996,.1191-.1548,.1699-.0552,.0488-.1167,.085-.1841,.1104-.0679,.0234-.1416,.0361-.2212,.0361-.0278,0-.0679-.001-.1206-.0029-.0532-.001-.0879-.002-.104-.002v-.4004h.0244c.0132,0,.0317,.001,.0562,.002,.0244,.002,.0449,.0029,.061,.0029,.0391,0,.0796-.0059,.1206-.0166,.042-.0117,.0771-.0332,.1064-.0645,.083-.0811,.1499-.2188,.2002-.4121s.084-.4736,.1001-.8398c.0063-.1338,.0127-.292,.0181-.4746,.0059-.1836,.0112-.3574,.0161-.5234h1.8774v2.7266Z"/></g><g><path class="cls-2" d="M182.8935,173.4991h-.5151l-.3564-1.0137h-1.5723l-.3564,1.0137h-.4907l1.3232-3.6348h.6445l1.3232,3.6348Zm-1.0205-1.4277l-.6372-1.7852-.6396,1.7852h1.2769Z"/><path class="cls-2" d="M185.6596,172.6739c0,.1318-.0264,.249-.0796,.3516-.0527,.1025-.1255,.1885-.2183,.2568-.104,.0762-.2178,.1309-.3403,.166-.123,.0332-.2847,.0508-.4849,.0508h-1.1279v-2.7266h1.0547c.2036,0,.3569,.0068,.4604,.0205,.103,.0137,.2002,.0439,.2915,.0908,.1025,.0547,.1777,.124,.2261,.2109,.0479,.0859,.0718,.1875,.0718,.3047,0,.1348-.0381,.252-.1147,.3516s-.1748,.1768-.2954,.2324v.0234c.1611,.0391,.2944,.1152,.3989,.2266,.1055,.1113,.1577,.2578,.1577,.4404Zm-.6177-1.2041c0-.0586-.0127-.1113-.0381-.1582-.0249-.0469-.0635-.084-.1157-.1094-.0684-.0352-.145-.0537-.231-.0576-.085-.0039-.1904-.0068-.3159-.0068h-.4785v.748h.5737c.1206,0,.2095-.0049,.2676-.0137,.0576-.0088,.1157-.0312,.1743-.0674,.062-.0391,.1045-.085,.1284-.1377,.0234-.0527,.0352-.1191,.0352-.1973Zm.144,1.207c0-.0898-.0146-.1631-.0439-.2188-.0293-.0566-.0938-.1084-.1929-.1553-.062-.0293-.1284-.0469-.2002-.0527s-.1709-.0088-.2979-.0088h-.5884v.8916h.4346c.1821,0,.3228-.0059,.4214-.0186,.0981-.0117,.1831-.0381,.2549-.0791s.125-.0908,.1602-.1494c.0347-.0586,.0522-.1279,.0522-.209Z"/><path class="cls-2" d="M188.2621,171.1749h-1.4209v2.3242h-.459v-2.7266h1.8799v.4023Z"/></g><g><path class="cls-2" d="M12.6542,173.4991h-.4834v-1.4453h-.7837l-1.0864,1.4453h-.5811l1.167-1.5186c-.2441-.083-.4336-.2109-.5674-.3848-.1348-.1729-.2017-.4053-.2017-.6963,0-.1855,.0386-.3457,.1157-.4805,.0776-.1338,.1797-.2461,.3066-.3359,.1157-.0811,.2505-.1377,.4053-.1699,.1548-.0332,.3257-.0488,.5127-.0488h1.1963v3.6348Zm-.4834-1.8477v-1.373h-.7373c-.1401,0-.2524,.0098-.3369,.0273s-.1621,.0508-.2319,.0977c-.0747,.0508-.1333,.1211-.1758,.2129-.0425,.0908-.0635,.1904-.0635,.2998,0,.1299,.0151,.2383,.0454,.3252,.0298,.0859,.0781,.1621,.145,.2285,.0732,.0723,.1626,.1201,.2686,.1445s.2285,.0371,.3687,.0371h.7178Z"/><path class="cls-2" d="M15.8769,173.4991h-.459v-1.2285h-1.3647v1.2285h-.459v-2.7266h.459v1.1035h1.3647v-1.1035h.459v2.7266Z"/><path class="cls-2" d="M19.0312,172.6739c0,.1318-.0264,.249-.0796,.3516-.0527,.1025-.1255,.1885-.2183,.2568-.104,.0762-.2178,.1309-.3403,.166-.123,.0332-.2847,.0508-.4849,.0508h-1.1279v-2.7266h1.0547c.2036,0,.3569,.0068,.4604,.0205,.103,.0137,.2002,.0439,.2915,.0908,.1025,.0547,.1777,.124,.2261,.2109,.0479,.0859,.0718,.1875,.0718,.3047,0,.1348-.0381,.252-.1147,.3516s-.1748,.1768-.2954,.2324v.0234c.1611,.0391,.2944,.1152,.3989,.2266,.1055,.1113,.1577,.2578,.1577,.4404Zm-.6177-1.2041c0-.0586-.0127-.1113-.0381-.1582-.0249-.0469-.0635-.084-.1157-.1094-.0684-.0352-.145-.0537-.231-.0576-.085-.0039-.1904-.0068-.3159-.0068h-.4785v.748h.5737c.1206,0,.2095-.0049,.2676-.0137,.0576-.0088,.1157-.0312,.1743-.0674,.062-.0391,.1045-.085,.1284-.1377,.0234-.0527,.0352-.1191,.0352-.1973Zm.144,1.207c0-.0898-.0146-.1631-.0439-.2188-.0293-.0566-.0938-.1084-.1929-.1553-.062-.0293-.1284-.0469-.2002-.0527s-.1709-.0088-.2979-.0088h-.5884v.8916h.4346c.1821,0,.3228-.0059,.4214-.0186,.0981-.0117,.1831-.0381,.2549-.0791s.125-.0908,.1602-.1494c.0347-.0586,.0522-.1279,.0522-.209Z"/></g><g><path class="cls-2" d="M37.4799,171.6553c0,.2285-.0361,.4307-.1084,.6074-.0728,.1768-.1733,.3242-.3018,.4434-.1382,.1279-.3066,.2305-.5054,.3057-.1987,.0762-.4102,.1162-.6348,.1211v.4053h-.481v-.4053c-.2183-.0049-.4272-.0439-.6274-.1172s-.3711-.1768-.5127-.3096c-.1284-.1211-.229-.2695-.3013-.4453-.0728-.1758-.1089-.377-.1089-.6055,0-.2207,.0352-.4141,.105-.5801s.167-.3115,.2905-.4355c.1318-.1309,.2964-.2354,.4946-.3125,.1973-.0762,.4175-.1172,.6602-.124v-.3779h.481v.3779c.2407,.0049,.4614,.0469,.6616,.127s.3647,.1826,.4932,.3096c.1221,.1191,.2188,.2637,.2891,.4326,.0713,.1689,.1064,.3643,.1064,.583Zm-2.0312,1.0996v-2.1738c-.1724,.002-.3164,.0254-.4321,.0684-.1157,.0449-.2207,.1113-.3149,.2012-.0942,.0889-.168,.2031-.2207,.3418-.0532,.1377-.0796,.2861-.0796,.4434,0,.1826,.0273,.3477,.0815,.4961,.0547,.1484,.1343,.2695,.2383,.3633,.0796,.0742,.1826,.1348,.3086,.1836,.1265,.0488,.2661,.0742,.4189,.0762Zm1.5283-1.1191c0-.1602-.0259-.3086-.0781-.4434-.0522-.1357-.126-.25-.2222-.3418-.0942-.0918-.1992-.1582-.3149-.2012-.1157-.042-.2598-.0645-.4321-.0684v2.1738c.1528-.0039,.292-.0283,.4175-.0752,.1255-.0459,.2285-.1074,.3101-.1846,.106-.0977,.1855-.2168,.2393-.3584s.0806-.3086,.0806-.501Z"/><path class="cls-2" d="M40.4706,172.1827h-2.0093c0,.168,.0254,.3145,.0757,.4385,.0503,.125,.1196,.2266,.2075,.3066,.0845,.0781,.1851,.1367,.3013,.1758,.1167,.0391,.2446,.0586,.3848,.0586,.1855,0,.3721-.0371,.5605-.1113,.1875-.0742,.3218-.1465,.4014-.2178h.0244v.5c-.1548,.0654-.3125,.1191-.4736,.1641-.1611,.043-.3306,.0654-.5078,.0654-.4526,0-.8057-.1221-1.0596-.3672s-.3809-.5928-.3809-1.0439c0-.4463,.1216-.7998,.3652-1.0625,.2432-.2617,.5635-.3926,.9604-.3926,.3677,0,.6514,.1074,.8511,.3223,.1992,.2148,.2988,.5195,.2988,.916v.248Zm-.4468-.3516c-.0015-.2402-.062-.4268-.1821-.5586-.1191-.1318-.3013-.1973-.5454-.1973-.2456,0-.4414,.0723-.5874,.2168-.1455,.1445-.228,.3242-.2476,.5391h1.5625Z"/><path class="cls-2" d="M43.4174,172.6739c0,.1318-.0264,.249-.0796,.3516-.0527,.1025-.1255,.1885-.2183,.2568-.104,.0762-.2178,.1309-.3403,.166-.123,.0332-.2847,.0508-.4849,.0508h-1.1279v-2.7266h1.0547c.2036,0,.3569,.0068,.4604,.0205,.103,.0137,.2002,.0439,.2915,.0908,.1025,.0547,.1777,.124,.2261,.2109,.0479,.0859,.0718,.1875,.0718,.3047,0,.1348-.0381,.252-.1147,.3516s-.1748,.1768-.2954,.2324v.0234c.1611,.0391,.2944,.1152,.3989,.2266,.1055,.1113,.1577,.2578,.1577,.4404Zm-.6177-1.2041c0-.0586-.0127-.1113-.0381-.1582-.0249-.0469-.0635-.084-.1157-.1094-.0684-.0352-.145-.0537-.231-.0576-.085-.0039-.1904-.0068-.3159-.0068h-.4785v.748h.5737c.1206,0,.2095-.0049,.2676-.0137,.0576-.0088,.1157-.0312,.1743-.0674,.062-.0391,.1045-.085,.1284-.1377,.0234-.0527,.0352-.1191,.0352-.1973Zm.144,1.207c0-.0898-.0146-.1631-.0439-.2188-.0293-.0566-.0938-.1084-.1929-.1553-.062-.0293-.1284-.0469-.2002-.0527s-.1709-.0088-.2979-.0088h-.5884v.8916h.4346c.1821,0,.3228-.0059,.4214-.0186,.0981-.0117,.1831-.0381,.2549-.0791s.125-.0908,.1602-.1494c.0347-.0586,.0522-.1279,.0522-.209Z"/></g><g><path class="cls-2" d="M61.4325,173.4991h-.4834v-3.1328l-1.0107,2.1318h-.2881l-1.0029-2.1318v3.1328h-.4521v-3.6348h.6592l.9697,2.0234,.9375-2.0234h.6709v3.6348Z"/><path class="cls-2" d="M64.4921,173.4991h-.457v-.291c-.04,.0283-.0957,.0664-.165,.1162-.0684,.0498-.1357,.0889-.2012,.1182-.0762,.0381-.1641,.0693-.2637,.0947-.0986,.0254-.2158,.0381-.3486,.0381-.2461,0-.4541-.082-.625-.2441-.1709-.1631-.2568-.3711-.2568-.623,0-.207,.0449-.374,.1328-.502,.0889-.1279,.2158-.2285,.3799-.3008,.166-.0742,.3652-.123,.5986-.1494,.2324-.0264,.4824-.0459,.749-.0586v-.0713c0-.1035-.0186-.1895-.0547-.2578-.0371-.0684-.0889-.123-.1572-.1621-.0654-.0371-.1436-.0625-.2344-.0752-.0918-.0127-.1865-.0195-.2861-.0195-.1201,0-.2549,.0156-.4023,.0479-.1484,.0312-.3018,.0771-.459,.1377h-.0244v-.4658c.0889-.0254,.2188-.0518,.3877-.0811,.1699-.0293,.3359-.0439,.501-.0439,.1914,0,.3594,.0156,.501,.0479,.1426,.0312,.2666,.0859,.3701,.1621,.1025,.0752,.1807,.1719,.2344,.29,.0537,.1191,.0811,.2666,.0811,.4424v1.8506Zm-.457-.6719v-.7588c-.1396,.0078-.3047,.0205-.4941,.0361-.1895,.0166-.3398,.04-.4502,.0713-.1318,.0371-.2383,.0957-.3203,.1748-.0811,.0791-.1221,.1875-.1221,.3262,0,.1562,.0479,.2734,.1416,.3525,.0947,.0791,.2383,.1182,.4326,.1182,.1611,0,.3086-.0312,.4414-.0938,.1338-.0625,.2578-.1387,.3711-.2266Z"/><path class="cls-2" d="M67.7753,172.1026c0,.2217-.0312,.4238-.0947,.6064-.0635,.1836-.1533,.3389-.2686,.4658-.1074,.1201-.2344,.2129-.3799,.2793-.1455,.0654-.2998,.0986-.4629,.0986-.1416,0-.2695-.0156-.3848-.0459-.1143-.0312-.2314-.0791-.3496-.1445v1.1426h-.459v-3.7324h.459v.2852c.1221-.1025,.2588-.1885,.4111-.2578s.3145-.1035,.4873-.1035c.3281,0,.584,.124,.7676,.3721,.1826,.248,.2744,.5928,.2744,1.0342Zm-.4736,.0117c0-.3281-.0557-.5742-.168-.7363-.1123-.1631-.2852-.2441-.5176-.2441-.1318,0-.2646,.0283-.3984,.085-.1328,.0566-.2607,.1318-.3828,.2246v1.5459c.1299,.0586,.2422,.0977,.335,.1191,.0938,.0215,.2002,.0312,.3193,.0312,.2549,0,.4551-.0859,.5977-.2578,.1436-.1729,.2148-.4287,.2148-.7676Z"/></g><g><path class="cls-2" d="M85.5761,173.4991h-.5151l-.3564-1.0137h-1.5723l-.3564,1.0137h-.4907l1.3232-3.6348h.6445l1.3232,3.6348Zm-1.0205-1.4277l-.6372-1.7852-.6396,1.7852h1.2769Z"/><path class="cls-2" d="M88.3739,173.4991h-.459v-2.332h-1.3647v2.332h-.459v-2.7266h2.2827v2.7266Z"/><path class="cls-2" d="M91.6772,172.1026c0,.2217-.0317,.4238-.0952,.6064-.0635,.1836-.1528,.3389-.2686,.4658-.1074,.1201-.2339,.2129-.3794,.2793-.146,.0654-.3003,.0986-.4629,.0986-.1416,0-.2695-.0156-.3848-.0459-.1143-.0312-.2314-.0791-.3501-.1445v1.1426h-.459v-3.7324h.459v.2852c.1221-.1025,.2593-.1885,.4116-.2578,.1519-.0693,.3145-.1035,.4868-.1035,.3286,0,.5845,.124,.7681,.3721,.1826,.248,.2744,.5928,.2744,1.0342Zm-.4736,.0117c0-.3281-.0562-.5742-.1685-.7363-.1123-.1631-.2847-.2441-.5176-.2441-.1318,0-.2646,.0283-.3979,.085s-.2612,.1318-.3833,.2246v1.5459c.1304,.0586,.2422,.0977,.3354,.1191,.0938,.0215,.2002,.0312,.3188,.0312,.2554,0,.4551-.0859,.5981-.2578,.1431-.1729,.2148-.4287,.2148-.7676Z"/></g><g><path class="cls-2" d="M296.372,183.7139h-2.4609v-.5098c.1709-.1465,.3423-.293,.5142-.4395,.1714-.1465,.3315-.293,.4795-.4375,.3125-.3027,.5264-.543,.6421-.7217,.1157-.1777,.1733-.3701,.1733-.5771,0-.1885-.0625-.3369-.1865-.4434-.125-.1064-.2983-.1602-.5215-.1602-.1479,0-.3086,.0264-.481,.0781-.1724,.0527-.3408,.1328-.5054,.2402h-.0244v-.5137c.1157-.0566,.2695-.1084,.4629-.1562,.1924-.0469,.3794-.0703,.5601-.0703,.3726,0,.665,.0898,.8765,.2695s.3174,.4238,.3174,.7314c0,.1387-.0176,.2676-.0527,.3867-.0347,.1201-.0864,.2334-.1548,.3408-.0635,.1006-.1382,.2002-.2231,.2979-.0859,.0977-.1895,.2061-.3115,.3252-.1743,.1699-.354,.3359-.5396,.4961s-.3589,.3086-.52,.4453h1.9556v.418Z"/><path class="cls-2" d="M299.5458,181.8956c0,.6523-.1021,1.1309-.3062,1.4365-.2046,.3047-.5215,.458-.9512,.458-.436,0-.7549-.1553-.9561-.4648-.2007-.3086-.3013-.7842-.3013-1.4258,0-.6455,.1016-1.123,.3052-1.4316s.521-.4629,.9521-.4629c.436,0,.7549,.1572,.9561,.4707,.2007,.3135,.3013,.7861,.3013,1.4199Zm-.6421,1.1074c.0571-.1309,.0957-.2861,.1162-.4648,.02-.1777,.0303-.3926,.0303-.6426,0-.248-.0103-.4629-.0303-.6445-.0205-.1826-.0601-.3379-.1187-.4648-.0571-.125-.1348-.2188-.2329-.2832-.0986-.0625-.2251-.0947-.3799-.0947-.1528,0-.2793,.0322-.3799,.0947-.0996,.0645-.1792,.1602-.2378,.2891-.0552,.1201-.0933,.2773-.1138,.4707-.02,.1934-.0303,.4062-.0303,.6367,0,.2539,.0088,.4668,.0269,.6377s.0562,.3242,.1147,.459c.0537,.127,.1299,.2236,.2285,.29,.0981,.0674,.229,.1006,.3916,.1006,.1528,0,.2798-.0322,.3809-.0947,.1011-.0645,.1792-.1602,.2344-.2891Z"/><path class="cls-2" d="M302.7294,183.7139h-2.4609v-.5098c.1709-.1465,.3423-.293,.5142-.4395,.1714-.1465,.3315-.293,.4795-.4375,.3125-.3027,.5264-.543,.6421-.7217,.1157-.1777,.1733-.3701,.1733-.5771,0-.1885-.0625-.3369-.1865-.4434-.125-.1064-.2983-.1602-.5215-.1602-.1479,0-.3086,.0264-.481,.0781-.1724,.0527-.3408,.1328-.5054,.2402h-.0244v-.5137c.1157-.0566,.2695-.1084,.4629-.1562,.1924-.0469,.3794-.0703,.5601-.0703,.3726,0,.665,.0898,.8765,.2695s.3174,.4238,.3174,.7314c0,.1387-.0176,.2676-.0527,.3867-.0347,.1201-.0864,.2334-.1548,.3408-.0635,.1006-.1382,.2002-.2231,.2979-.0859,.0977-.1895,.2061-.3115,.3252-.1743,.1699-.354,.3359-.5396,.4961s-.3589,.3086-.52,.4453h1.9556v.418Z"/><path class="cls-2" d="M305.7006,183.7139h-1.9678v-.3711h.7568v-2.4365h-.7568v-.332c.1025,0,.2124-.0088,.3296-.0254,.1172-.0176,.2061-.042,.2661-.0752,.0747-.04,.1338-.0918,.1768-.1543,.0435-.0625,.0684-.1475,.0747-.2529h.3784v3.2764h.7422v.3711Z"/></g><g><path class="cls-2" d="M206.5888,173.2354c-.0894,.0391-.1704,.0762-.2432,.1094-.0723,.0352-.167,.0703-.2842,.1074-.0991,.0312-.207,.0576-.3232,.0801-.1167,.0215-.2446,.0332-.3848,.0332-.2637,0-.5034-.0371-.7188-.1113-.2158-.0742-.4033-.1904-.563-.3477-.1562-.1553-.2783-.3516-.3662-.5898s-.1318-.5156-.1318-.832c0-.2988,.0425-.5664,.127-.8027s.2065-.4355,.3662-.5977c.1548-.1582,.3413-.2793,.5601-.3613,.2192-.084,.4619-.125,.729-.125,.1953,0,.3901,.0234,.5845,.0703,.1948,.0479,.4106,.1309,.6484,.25v.5732h-.0366c-.2002-.168-.3989-.29-.5957-.3662s-.4077-.1152-.6323-.1152c-.1841,0-.3496,.0303-.4971,.0898-.147,.0596-.2783,.1514-.394,.2773-.1123,.1211-.1997,.2754-.2622,.4619-.063,.1865-.0942,.4014-.0942,.6455,0,.2559,.0347,.4756,.104,.6602,.0688,.1836,.1582,.333,.2671,.4492,.1138,.1201,.2471,.209,.3989,.2666,.1523,.0576,.313,.0869,.4824,.0869,.2329,0,.4507-.04,.6543-.1191,.2036-.0801,.394-.2002,.5713-.3594h.0342v.5664Z"/><path class="cls-2" d="M209.5185,172.1827h-2.0093c0,.168,.0254,.3145,.0757,.4385,.0503,.125,.1196,.2266,.2075,.3066,.0845,.0781,.1851,.1367,.3013,.1758,.1167,.0391,.2446,.0586,.3848,.0586,.1855,0,.3721-.0371,.5605-.1113,.1875-.0742,.3218-.1465,.4014-.2178h.0244v.5c-.1548,.0654-.3125,.1191-.4736,.1641-.1611,.043-.3306,.0654-.5078,.0654-.4526,0-.8057-.1221-1.0596-.3672s-.3809-.5928-.3809-1.0439c0-.4463,.1216-.7998,.3652-1.0625,.2432-.2617,.5635-.3926,.9604-.3926,.3677,0,.6514,.1074,.8511,.3223,.1992,.2148,.2988,.5195,.2988,.916v.248Zm-.4468-.3516c-.0015-.2402-.062-.4268-.1821-.5586-.1191-.1318-.3013-.1973-.5454-.1973-.2456,0-.4414,.0723-.5874,.2168-.1455,.1445-.228,.3242-.2476,.5391h1.5625Z"/><path class="cls-2" d="M212.497,173.4991h-.459v-1.2285h-1.3647v1.2285h-.459v-2.7266h.459v1.1035h1.3647v-1.1035h.459v2.7266Z"/></g><g><path class="cls-2" d="M230.8393,170.2813c.1479,.1631,.2617,.3623,.3408,.5986,.0786,.2354,.1182,.5029,.1182,.8027s-.04,.5674-.1211,.8047c-.0801,.2363-.1929,.4336-.3379,.5918-.1499,.1641-.3267,.2881-.5312,.3711-.2041,.083-.437,.125-.6992,.125-.2554,0-.4878-.043-.6973-.127-.209-.085-.3867-.208-.5332-.3691s-.2593-.3594-.3379-.5938c-.0791-.2344-.1187-.502-.1187-.8027,0-.2959,.0391-.5615,.1172-.7969s.1919-.4365,.3418-.6045c.1431-.1592,.3208-.2812,.5337-.3662,.2119-.085,.4438-.127,.6943-.127,.2603,0,.4941,.043,.7021,.1279,.207,.0859,.3833,.207,.5283,.3652Zm-.0439,1.4014c0-.4717-.106-.8359-.3174-1.0928-.2114-.2559-.5005-.3838-.8667-.3838-.3696,0-.6597,.1279-.8706,.3838-.2104,.2568-.3159,.6211-.3159,1.0928,0,.4766,.1074,.8418,.3223,1.0947s.5029,.3799,.8643,.3799,.6489-.127,.8628-.3799c.2144-.2529,.3213-.6182,.3213-1.0947Z"/><path class="cls-2" d="M234.4892,173.4991h-.6006l-1.1328-1.25h-.249v1.25h-.459v-2.7266h.459v1.1758c.1514,0,.2734-.0264,.3662-.0811s.1719-.1426,.2368-.2627c.0229-.0439,.0449-.0908,.0674-.1406,.0215-.0498,.0435-.0967,.0645-.1426,.0845-.1836,.1904-.3213,.3174-.4121,.127-.0918,.3091-.1367,.5469-.1367h.21v.3945h-.2026c-.1284,0-.229,.0273-.3013,.082-.0728,.0547-.1382,.1504-.1968,.2871-.0649,.1533-.1338,.2676-.2065,.3428-.0723,.0762-.1489,.1338-.2305,.1729l1.311,1.4473Z"/><path class="cls-2" d="M236.9916,171.1749h-.9863v2.3242h-.459v-2.3242h-.9863v-.4023h2.4316v.4023Z"/></g><g><path class="cls-2" d="M254.9105,173.4991h-.4834v-1.7793h-1.814v1.7793h-.4834v-3.6348h.4834v1.4258h1.814v-1.4258h.4834v3.6348Z"/><path class="cls-2" d="M258.1747,172.1368c0,.4443-.1138,.7949-.3418,1.0518-.228,.2578-.5332,.3867-.9155,.3867-.3857,0-.6924-.1289-.9189-.3867-.2275-.2568-.3408-.6074-.3408-1.0518s.1133-.7959,.3408-1.0537c.2266-.2578,.5332-.3867,.9189-.3867,.3823,0,.6875,.1289,.9155,.3867s.3418,.6094,.3418,1.0537Zm-.4736,0c0-.3535-.0693-.6152-.2075-.7871s-.3306-.2578-.5762-.2578c-.249,0-.4424,.0859-.5801,.2578-.1372,.1719-.2061,.4336-.2061,.7871,0,.3418,.0693,.6006,.2075,.7773s.3311,.2646,.5786,.2646c.2441,0,.4355-.0869,.5752-.2617,.1387-.1748,.2085-.4355,.2085-.7803Z"/><path class="cls-2" d="M260.9799,173.4991h-.459v-1.082h-.5396l-.8447,1.082h-.5396l.918-1.125c-.2358-.0654-.4087-.165-.5176-.2998-.1089-.1338-.1636-.3105-.1636-.5283,0-.1445,.0327-.2676,.0977-.3691,.0649-.1006,.1475-.1826,.2466-.2461,.0977-.0615,.21-.1035,.3369-.126,.127-.0215,.2651-.0322,.415-.0322h1.0498v2.7266Zm-.459-1.4434v-.918h-.5786c-.1255,0-.2158,.0049-.271,.0127s-.1157,.0303-.1807,.0654c-.0635,.0361-.1104,.085-.1401,.1455-.0303,.0615-.0454,.1279-.0454,.1992,0,.0898,.0093,.1621,.0278,.2178,.019,.0547,.0576,.1074,.1162,.1562,.0601,.0469,.1333,.0791,.2197,.0957,.0864,.0176,.1821,.0254,.2881,.0254h.564Z"/></g><g><path class="cls-2" d="M279.4228,174.3214h-.459v-.832h-2.5684v.832h-.459v-1.252h.293c.2114-.3486,.3804-.8027,.5068-1.3633,.126-.5605,.189-1.1748,.189-1.8418h2.1533v3.2051h.3442v1.252Zm-.8276-1.252v-2.7852h-1.2158c-.0229,.5801-.0942,1.1123-.2148,1.5947s-.2769,.8799-.4688,1.1904h1.8994Z"/><path class="cls-2" d="M282.3744,172.1827h-2.0093c0,.168,.0254,.3145,.0757,.4385,.0503,.125,.1196,.2266,.2075,.3066,.0845,.0781,.1851,.1367,.3013,.1758,.1167,.0391,.2446,.0586,.3848,.0586,.1855,0,.3721-.0371,.5605-.1113,.1875-.0742,.3218-.1465,.4014-.2178h.0244v.5c-.1548,.0654-.3125,.1191-.4736,.1641-.1611,.043-.3306,.0654-.5078,.0654-.4526,0-.8057-.1221-1.0596-.3672s-.3809-.5928-.3809-1.0439c0-.4463,.1216-.7998,.3652-1.0625,.2432-.2617,.5635-.3926,.9604-.3926,.3677,0,.6514,.1074,.8511,.3223,.1992,.2148,.2988,.5195,.2988,.916v.248Zm-.4468-.3516c-.0015-.2402-.062-.4268-.1821-.5586-.1191-.1318-.3013-.1973-.5454-.1973-.2456,0-.4414,.0723-.5874,.2168-.1455,.1445-.228,.3242-.2476,.5391h1.5625Z"/><path class="cls-2" d="M285.5312,173.4991h-.6006l-1.1328-1.25h-.249v1.25h-.459v-2.7266h.459v1.1758c.1514,0,.2734-.0264,.3662-.0811s.1719-.1426,.2368-.2627c.0229-.0439,.0449-.0908,.0674-.1406,.0215-.0498,.0435-.0967,.0645-.1426,.0845-.1836,.1904-.3213,.3174-.4121,.127-.0918,.3091-.1367,.5469-.1367h.21v.3945h-.2026c-.1284,0-.229,.0273-.3013,.082-.0728,.0547-.1382,.1504-.1968,.2871-.0649,.1533-.1338,.2676-.2065,.3428-.0723,.0762-.1489,.1338-.2305,.1729l1.311,1.4473Z"/></g><g><path class="cls-2" d="M303.1493,174.0733h-.4834v-1.4453h-.7837l-1.0864,1.4453h-.5811l1.167-1.5186c-.2441-.083-.4336-.2109-.5674-.3848-.1348-.1729-.2017-.4053-.2017-.6963,0-.1855,.0386-.3457,.1157-.4805,.0776-.1338,.1797-.2461,.3066-.3359,.1157-.0811,.2505-.1377,.4053-.1699,.1548-.0332,.3257-.0488,.5127-.0488h1.1963v3.6348Zm-.4834-1.8477v-1.373h-.7373c-.1401,0-.2524,.0098-.3369,.0273s-.1621,.0508-.2319,.0977c-.0747,.0508-.1333,.1211-.1758,.2129-.0425,.0908-.0635,.1904-.0635,.2998,0,.1299,.0151,.2383,.0454,.3252,.0298,.0859,.0781,.1621,.145,.2285,.0732,.0723,.1626,.1201,.2686,.1445s.2285,.0371,.3687,.0371h.7178Z"/><path class="cls-2" d="M306.372,174.0733h-.459v-1.2285h-1.3647v1.2285h-.459v-2.7266h.459v1.1035h1.3647v-1.1035h.459v2.7266Z"/><path class="cls-2" d="M309.5263,173.2481c0,.1318-.0264,.249-.0796,.3516-.0527,.1025-.1255,.1885-.2183,.2568-.104,.0762-.2178,.1309-.3403,.166-.123,.0332-.2847,.0508-.4849,.0508h-1.1279v-2.7266h1.0547c.2036,0,.3569,.0068,.4604,.0205,.103,.0137,.2002,.0439,.2915,.0908,.1025,.0547,.1777,.124,.2261,.2109,.0479,.0859,.0718,.1875,.0718,.3047,0,.1348-.0381,.252-.1147,.3516s-.1748,.1768-.2954,.2324v.0234c.1611,.0391,.2944,.1152,.3989,.2266,.1055,.1113,.1577,.2578,.1577,.4404Zm-.6177-1.2041c0-.0586-.0127-.1113-.0381-.1582-.0249-.0469-.0635-.084-.1157-.1094-.0684-.0352-.145-.0537-.231-.0576-.085-.0039-.1904-.0068-.3159-.0068h-.4785v.748h.5737c.1206,0,.2095-.0049,.2676-.0137,.0576-.0088,.1157-.0312,.1743-.0674,.062-.0391,.1045-.085,.1284-.1377,.0234-.0527,.0352-.1191,.0352-.1973Zm.144,1.207c0-.0898-.0146-.1631-.0439-.2188-.0293-.0566-.0938-.1084-.1929-.1553-.062-.0293-.1284-.0469-.2002-.0527s-.1709-.0088-.2979-.0088h-.5884v.8916h.4346c.1821,0,.3228-.0059,.4214-.0186,.0981-.0117,.1831-.0381,.2549-.0791s.125-.0908,.1602-.1494c.0347-.0586,.0522-.1279,.0522-.209Z"/></g><line class="cls-4" x1="293.2976" y1="176.8492" x2="317.392" y2="176.8492"/><line class="cls-4" x1="8.6543" y1="176.7728" x2="291.9911" y2="176.7728"/><g><path class="cls-2" d="M11.1479,183.5655h-2.4609v-.5098c.1709-.1465,.3423-.293,.5142-.4395,.1714-.1465,.3315-.293,.4795-.4375,.3125-.3027,.5264-.543,.6421-.7217,.1157-.1777,.1733-.3701,.1733-.5771,0-.1885-.0625-.3369-.1865-.4434-.125-.1064-.2983-.1602-.5215-.1602-.1479,0-.3086,.0264-.481,.0781-.1724,.0527-.3408,.1328-.5054,.2402h-.0244v-.5137c.1157-.0566,.2695-.1084,.4629-.1562,.1924-.0469,.3794-.0703,.5601-.0703,.3726,0,.665,.0898,.8765,.2695s.3174,.4238,.3174,.7314c0,.1387-.0176,.2676-.0527,.3867-.0347,.1201-.0864,.2334-.1548,.3408-.0635,.1006-.1382,.2002-.2231,.2979-.0859,.0977-.1895,.2061-.3115,.3252-.1743,.1699-.354,.3359-.5396,.4961s-.3589,.3086-.52,.4453h1.9556v.418Z"/><path class="cls-2" d="M14.3217,181.7471c0,.6523-.1021,1.1309-.3062,1.4365-.2046,.3047-.5215,.458-.9512,.458-.436,0-.7549-.1553-.9561-.4648-.2007-.3086-.3013-.7842-.3013-1.4258,0-.6455,.1016-1.123,.3052-1.4316s.521-.4629,.9521-.4629c.436,0,.7549,.1572,.9561,.4707,.2007,.3135,.3013,.7861,.3013,1.4199Zm-.6421,1.1074c.0571-.1309,.0957-.2861,.1162-.4648,.02-.1777,.0303-.3926,.0303-.6426,0-.248-.0103-.4629-.0303-.6445-.0205-.1826-.0601-.3379-.1187-.4648-.0571-.125-.1348-.2188-.2329-.2832-.0986-.0625-.2251-.0947-.3799-.0947-.1528,0-.2793,.0322-.3799,.0947-.0996,.0645-.1792,.1602-.2378,.2891-.0552,.1201-.0933,.2773-.1138,.4707-.02,.1934-.0303,.4062-.0303,.6367,0,.2539,.0088,.4668,.0269,.6377s.0562,.3242,.1147,.459c.0537,.127,.1299,.2236,.2285,.29,.0981,.0674,.229,.1006,.3916,.1006,.1528,0,.2798-.0322,.3809-.0947,.1011-.0645,.1792-.1602,.2344-.2891Z"/><path class="cls-2" d="M17.5053,183.5655h-2.4609v-.5098c.1709-.1465,.3423-.293,.5142-.4395,.1714-.1465,.3315-.293,.4795-.4375,.3125-.3027,.5264-.543,.6421-.7217,.1157-.1777,.1733-.3701,.1733-.5771,0-.1885-.0625-.3369-.1865-.4434-.125-.1064-.2983-.1602-.5215-.1602-.1479,0-.3086,.0264-.481,.0781-.1724,.0527-.3408,.1328-.5054,.2402h-.0244v-.5137c.1157-.0566,.2695-.1084,.4629-.1562,.1924-.0469,.3794-.0703,.5601-.0703,.3726,0,.665,.0898,.8765,.2695s.3174,.4238,.3174,.7314c0,.1387-.0176,.2676-.0527,.3867-.0347,.1201-.0864,.2334-.1548,.3408-.0635,.1006-.1382,.2002-.2231,.2979-.0859,.0977-.1895,.2061-.3115,.3252-.1743,.1699-.354,.3359-.5396,.4961s-.3589,.3086-.52,.4453h1.9556v.418Z"/><path class="cls-2" d="M20.6791,181.7471c0,.6523-.1021,1.1309-.3062,1.4365-.2046,.3047-.5215,.458-.9512,.458-.436,0-.7549-.1553-.9561-.4648-.2007-.3086-.3013-.7842-.3013-1.4258,0-.6455,.1016-1.123,.3052-1.4316s.521-.4629,.9521-.4629c.436,0,.7549,.1572,.9561,.4707,.2007,.3135,.3013,.7861,.3013,1.4199Zm-.6421,1.1074c.0571-.1309,.0957-.2861,.1162-.4648,.02-.1777,.0303-.3926,.0303-.6426,0-.248-.0103-.4629-.0303-.6445-.0205-.1826-.0601-.3379-.1187-.4648-.0571-.125-.1348-.2188-.2329-.2832-.0986-.0625-.2251-.0947-.3799-.0947-.1528,0-.2793,.0322-.3799,.0947-.0996,.0645-.1792,.1602-.2378,.2891-.0552,.1201-.0933,.2773-.1138,.4707-.02,.1934-.0303,.4062-.0303,.6367,0,.2539,.0088,.4668,.0269,.6377s.0562,.3242,.1147,.459c.0537,.127,.1299,.2236,.2285,.29,.0981,.0674,.229,.1006,.3916,.1006,.1528,0,.2798-.0322,.3809-.0947,.1011-.0645,.1792-.1602,.2344-.2891Z"/></g></svg>