<?xml version="1.0" encoding="UTF-8"?><svg id="Layer_1" xmlns="http://www.w3.org/2000/svg" viewBox="0 0 280 205.3148"><defs><style>.cls-1{font-family:Montserrat-Bold, Montserrat;}.cls-1,.cls-2{font-size:6.107px;}.cls-1,.cls-3{fill:#7ec500;}.cls-4{fill:#a2a2a2;font-family:Verdana, Verdana;}.cls-4,.cls-5{font-size:5px;}.cls-6{letter-spacing:-.012em;}.cls-2{font-family:Montserrat-Regular, Montserrat;}.cls-2,.cls-5{fill:#222;}.cls-3,.cls-7{stroke:#fff;stroke-miterlimit:10;stroke-width:.5px;}.cls-8{letter-spacing:-.011em;}.cls-7{fill:#1256bb;}.cls-9{letter-spacing:.01em;}.cls-10{letter-spacing:-.011em;}.cls-11{letter-spacing:.02em;}.cls-12{letter-spacing:-.013em;}.cls-5{font-family:Montserrat-SemiBold, Montserrat;letter-spacing:.004em;}.cls-13{letter-spacing:-.053em;}.cls-14{letter-spacing:0em;}</style></defs><text class="cls-5" transform="translate(8.1695 5.6503)"><tspan x="0" y="0">МИНИМАЛЬНАЯ МЕСЯЧНАЯ ЗАРАБОТНАЯ ПЛАТА В РОССИИ, ТЫС. РУБ</tspan></text><rect class="cls-7" x="145.2963" y="101.2917" width="27.3284" height="75"/><rect class="cls-7" x="172.6247" y="82.2917" width="27.3284" height="94"/><rect class="cls-7" x="199.9531" y="63.2917" width="27.3284" height="113"/><rect class="cls-7" x="227.2815" y="55.2917" width="27.3284" height="121"/><text class="cls-2" transform="translate(154.4395 97.4482)"><tspan class="cls-13" x="0" y="0">7</tspan><tspan x="3.2734" y="0">,5</tspan></text><text class="cls-2" transform="translate(181.3073 78.0321)"><tspan class="cls-10" x="0" y="0">9</tspan><tspan class="cls-12" x="3.6519" y="0">,</tspan><tspan x="4.8672" y="0">4</tspan></text><text class="cls-2" transform="translate(208.462 59.5563)"><tspan x="0" y="0">11</tspan><tspan class="cls-9" x="4.4092" y="0">,</tspan><tspan x="5.7646" y="0">3</tspan></text><text class="cls-2" transform="translate(235.794 51.3912)"><tspan x="0" y="0">1</tspan><tspan class="cls-9" x="2.2046" y="0">2</tspan><tspan class="cls-6" x="5.7344" y="0">,</tspan><tspan x="6.9556" y="0">1</tspan></text><text class="cls-1" transform="translate(261.8064 44.7305)"><tspan x="0" y="0">1</tspan><tspan class="cls-9" x="2.394" y="0">2,</tspan><tspan class="cls-14" x="7.7192" y="0">8</tspan></text><rect class="cls-3" x="254.6099" y="48.2917" width="26.1435" height="128"/><text class="cls-4" transform="translate(125.7215 183.499)"><tspan x="0" y="0">2016</tspan></text><text class="cls-4" transform="translate(153.2627 183.499)"><tspan x="0" y="0">2017</tspan></text><text class="cls-4" transform="translate(180.8035 183.499)"><tspan x="0" y="0">2018</tspan></text><text class="cls-4" transform="translate(208.3442 183.499)"><tspan x="0" y="0">2019</tspan></text><text class="cls-4" transform="translate(15.5578 183.499)"><tspan x="0" y="0">2012</tspan></text><text class="cls-4" transform="translate(43.0989 183.499)"><tspan x="0" y="0">2013</tspan></text><text class="cls-4" transform="translate(70.6397 183.499)"><tspan x="0" y="0">2014</tspan></text><text class="cls-4" transform="translate(98.1807 183.499)"><tspan x="0" y="0">2015</tspan></text><text class="cls-4" transform="translate(235.8854 183.499)"><tspan x="0" y="0">2020</tspan></text><text class="cls-4" transform="translate(263.426 183.499)"><tspan x="0" y="0">2021</tspan></text><rect class="cls-7" x="35.9828" y="124.2917" width="27.3284" height="52"/><rect class="cls-7" x="8.2508" y="130.2917" width="27.3284" height="46"/><rect class="cls-7" x="63.3112" y="121.2917" width="27.3284" height="55"/><rect class="cls-7" x="90.6396" y="117.2917" width="27.3284" height="59"/><rect class="cls-7" x="117.968" y="114.2917" width="27.3284" height="62"/><text class="cls-2" transform="translate(45.0818 121.2916)"><tspan x="0" y="0">5</tspan><tspan class="cls-9" x="3.4565" y="0">,</tspan><tspan x="4.812" y="0">2</tspan></text><text class="cls-2" transform="translate(17.3625 127.4806)"><tspan class="cls-11" x="0" y="0">4</tspan><tspan class="cls-8" x="4.1587" y="0">,</tspan><tspan x="5.3862" y="0">6</tspan></text><text class="cls-2" transform="translate(72.4261 118.1828)"><tspan x="0" y="0">5,5</tspan></text><text class="cls-2" transform="translate(99.6018 114.3063)"><tspan x="0" y="0">5,9</tspan></text><text class="cls-2" transform="translate(126.842 111.1974)"><tspan class="cls-9" x="0" y="0">6,</tspan><tspan x="5.1357" y="0">2</tspan></text></svg>