<?xml version="1.0" encoding="UTF-8"?><svg id="Layer_1" xmlns="http://www.w3.org/2000/svg" viewBox="0 0 281.5456 96.5544"><defs><style>.cls-1{fill:#a2a2a2;}.cls-2{stroke:#1256bb;}.cls-2,.cls-3{fill:none;stroke-miterlimit:10;}.cls-3{stroke:#a2a2a2;stroke-width:.5px;}</style></defs><path class="cls-2" d="M.3597,68.2396c5.8295,2.5781,6.8034-.8351,11.8636-1.0074,6.3424,1.0061,4.7357-2.4403,9.1666-4.0701,4.2307-.8131,8.3024,2.3626,12.3958,1.079,3.8318-1.8178,8.3502,1.4253,11.5886-2.408,3.2354-3.016,5.5347,3.6019,8.9666,1.8055,3.4988-2.1885,8.5577,2.0963,8.9181-.0605,1.8737-15.7539,2.0649-31.7502,3.2122-47.6022,.495-2.3288,.2291-16.4085,2.2991-15.427,1.4244,1.0588,2.3461,2.8392,3.482,4.2863,3.3372,1.9695,7.6957,.0486,11.242-.6192,2.8008,.9306,3.3839,15.5636,5.1129,19.2087,.9621,1.6665,3.3609-.4219,4.7808-.4529,2.5442-.8181,3.2568,3.2851,4.3864,5.2434,1.3434,3.2062,3.2046,5.9204,5.2629,8.4542,1.6849,2.3254,3.7787,.0782,5.5637-.815,1.7398-.8664,2.0187-.5344,2.4835,1.3136,.7677,3.0519,1.3385,6.1769,2.0092,9.2656,1.5167,5.3097,.2957,9.2184,6.0497,5.7983,1.1595-.5064,2.2935-.2803,3.3409,.4556,2.467,2.3559,5.4784,1.6709,8.3678,1.8536,2.5022,.247,3.4212,13.0524,5.8906,11.1385,5.9188-13.9477,4.3904-17.0639,18.8792-17.2068,3.9816-.5633,3.5607-7.4503,5.5695-10.7324l.5761-.6092c2.8583-1.9065,7.7763,9.3403,11.0258,10.0787,5.2572,.8779,5.9614,1.909,8.1584-4.6281,.7829-1.396,1.0725-4.0308,2.8118-3.926,2.617,.2543,5.4283-.2189,7.6496,1.8471,3.0859,2.7022,7.1452,2.7807,10.1069,5.7775,1.3925,1.3661,3.1333,1.5897,4.7486,.7929,5.3229-2.8006,11.2178,2.0792,16.5319-.5602,.919-.3111,2.5103-1.4055,2.9596,.2026,1.7495,4.5516,2.0087,9.7961,3.9601,14.2489,1.9298,2.7791,4.1087-10.3867,5.0437-11.9369,4.8122-6.8838,14.3433,1.3354,19.6253-4.8443,.7721-.7131,1.68-1.2197,2.684-1.0343,7.956,.7015,8.299,13.9927,15.0917,.9883"/><g><path class="cls-1" d="M92.4639,85.8698h-.4404v-2.8535l-.9209,1.9414h-.2617l-.9141-1.9414v2.8535h-.4121v-3.3115h.6006l.8828,1.8438,.8545-1.8438h.6113v3.3115Z"/><path class="cls-1" d="M95.25,85.8698h-.416v-.2646c-.0371,.0254-.0869,.0605-.1504,.1055-.0625,.0459-.124,.0811-.1836,.1084-.0693,.0342-.1494,.0625-.2393,.085-.0908,.0234-.1973,.0352-.3184,.0352-.2236,0-.4141-.0742-.5693-.2227s-.2334-.3369-.2334-.5674c0-.1885,.04-.3408,.1211-.457s.1963-.208,.3457-.2744c.1514-.0664,.333-.1123,.5449-.1357s.4395-.041,.6826-.0537v-.0645c0-.0947-.0166-.1729-.0498-.2354s-.0811-.1113-.1436-.1465c-.0596-.0342-.1309-.0576-.2139-.0693s-.1699-.0176-.2598-.0176c-.1094,0-.2324,.0146-.3672,.043-.1348,.0293-.2744,.0713-.418,.126h-.0225v-.4248c.082-.0225,.1992-.0469,.3535-.0732s.3066-.04,.4561-.04c.1748,0,.3271,.0146,.457,.043,.1299,.0293,.2422,.0781,.3369,.1484,.0938,.0684,.165,.1562,.2139,.2646s.0732,.2422,.0732,.4023v1.6855Zm-.416-.6113v-.6914c-.1279,.0068-.2773,.0186-.4502,.0332s-.3096,.0361-.4102,.0645c-.1201,.0342-.2178,.0869-.292,.1592-.0732,.0713-.1104,.1709-.1104,.2969,0,.1416,.043,.249,.1289,.3213,.0859,.0713,.2168,.1074,.3936,.1074,.1465,0,.2803-.0283,.4023-.0859,.1211-.0566,.2344-.125,.3379-.2051Z"/><path class="cls-1" d="M98.1475,85.8698h-.4131v-1.8662l-1.3018,1.8662h-.3779v-2.4844h.4141v1.8398l1.2871-1.8398h.3916v2.4844Zm-.2383-3.4629c-.0068,.2197-.0762,.3916-.207,.5137-.1318,.124-.3223,.1846-.5732,.1846-.25,0-.4414-.0605-.5723-.1846-.1318-.1221-.2012-.2939-.208-.5137h.3799c.002,.1562,.0361,.2686,.1035,.3389,.0674,.0693,.167,.1045,.2969,.1045,.1318,0,.2314-.0342,.2979-.1025,.0674-.0684,.1006-.1816,.1025-.3408h.3799Z"/></g><g><path class="cls-1" d="M113.7676,85.8698h-.4385v-2.6533l-1.6455,2.6533h-.4453v-3.3115h.4385v2.6133l1.626-2.6133h.4648v3.3115Z"/><path class="cls-1" d="M115.5576,84.7448h-.5166v1.125h-.418v-2.4844h.418v1.0078h.5273c.0371-.3428,.1572-.6074,.3594-.7949s.4512-.2812,.7461-.2812c.3418,0,.6152,.1172,.8184,.3516s.3047,.5537,.3047,.96c0,.4023-.1006,.7207-.3008,.957-.2002,.2354-.4736,.3535-.8223,.3535-.3291,0-.5928-.1074-.791-.3203-.1973-.2139-.3066-.5049-.3252-.874Zm1.8076-.1162c0-.3184-.0615-.5566-.1846-.7148-.123-.1572-.2939-.2363-.5117-.2363-.2266,0-.3994,.082-.5186,.248-.1201,.165-.1797,.3994-.1797,.7031,0,.3145,.0625,.5518,.1875,.7109,.124,.1592,.2949,.2393,.5107,.2393,.2168,0,.3867-.0791,.5107-.2373s.1855-.3955,.1855-.7129Z"/><path class="cls-1" d="M120.5225,85.8698h-.418v-1.1182h-1.2432v1.1182h-.418v-2.4844h.418v1.0059h1.2432v-1.0059h.418v2.4844Z"/></g><g><path class="cls-1" d="M135.8555,85.8698h-.4385v-2.6533l-1.6455,2.6533h-.4453v-3.3115h.4385v2.6133l1.626-2.6133h.4648v3.3115Z"/><path class="cls-1" d="M137.6455,84.7448h-.5166v1.125h-.418v-2.4844h.418v1.0078h.5273c.0371-.3428,.1572-.6074,.3594-.7949s.4512-.2812,.7461-.2812c.3418,0,.6152,.1172,.8184,.3516s.3047,.5537,.3047,.96c0,.4023-.1006,.7207-.3008,.957-.2002,.2354-.4736,.3535-.8223,.3535-.3291,0-.5928-.1074-.791-.3203-.1973-.2139-.3066-.5049-.3252-.874Zm1.8076-.1162c0-.3184-.0615-.5566-.1846-.7148-.123-.1572-.2939-.2363-.5117-.2363-.2266,0-.3994,.082-.5186,.248-.1201,.165-.1797,.3994-.1797,.7031,0,.3145,.0625,.5518,.1875,.7109,.124,.1592,.2949,.2393,.5107,.2393,.2168,0,.3867-.0791,.5107-.2373s.1855-.3955,.1855-.7129Z"/><path class="cls-1" d="M142.5352,85.8698h-.418v-2.1328h-.9277c-.0039,.123-.0088,.2422-.0127,.3564-.0049,.1133-.0088,.2168-.0137,.3086-.0107,.248-.0273,.4453-.0508,.5928-.0244,.1475-.0557,.2705-.0938,.3682-.0352,.0918-.0752,.166-.1191,.2236-.0439,.0566-.0908,.1084-.1406,.1543-.0508,.0439-.1064,.0781-.168,.0996-.0615,.0225-.1289,.0342-.2012,.0342-.0254,0-.0625-.001-.1104-.0029-.0488-.001-.0801-.002-.0947-.002v-.3643h.0225c.0117,0,.0283,0,.0508,.002,.0225,.001,.041,.002,.0557,.002,.0361,0,.0723-.0049,.1104-.0156,.0381-.0098,.0703-.0293,.0967-.0576,.0752-.0742,.1367-.1992,.1826-.376s.0762-.4316,.0908-.7646c.0059-.1221,.0117-.2656,.0166-.4326s.0098-.3262,.0146-.4775h1.71v2.4844Z"/></g><g><path class="cls-1" d="M159.0361,85.8698h-.4697l-.3242-.9229h-1.4326l-.3242,.9229h-.4473l1.2051-3.3115h.5879l1.2051,3.3115Zm-.9297-1.3008l-.5801-1.626-.583,1.626h1.1631Z"/><path class="cls-1" d="M161.5557,85.1178c0,.1201-.0244,.2275-.0723,.3203-.0488,.0938-.1143,.1719-.1992,.2334-.0947,.0703-.1982,.1201-.3105,.1514-.1113,.0312-.2588,.0469-.4414,.0469h-1.0273v-2.4844h.9609c.1855,0,.3252,.0068,.4189,.0195,.0947,.0127,.1826,.04,.2656,.083,.0938,.0488,.1621,.1133,.2061,.1914s.0654,.1709,.0654,.2783c0,.123-.0352,.2295-.1045,.3203-.0693,.0898-.1592,.1602-.2686,.2109v.0225c.1465,.0352,.2676,.1035,.3633,.2051s.1436,.2354,.1436,.4014Zm-.5625-1.0957c0-.0537-.0117-.1016-.0352-.1445-.0225-.043-.0576-.0771-.1055-.1006-.0625-.0312-.1318-.0488-.21-.0518-.0781-.0039-.1738-.0059-.2881-.0059h-.4355v.6807h.5225c.1094,0,.1904-.0039,.2432-.0127,.0527-.0078,.1055-.0283,.1592-.0605,.0566-.0361,.0957-.0781,.1172-.126s.0322-.1074,.0322-.1787Zm.1309,1.0986c0-.082-.0137-.1484-.04-.1992-.0264-.0518-.085-.0986-.1758-.1416-.0566-.0264-.1172-.042-.1826-.0479-.0645-.0049-.1553-.0078-.2705-.0078h-.5361v.8115h.3955c.166,0,.2939-.0049,.3838-.0166,.0898-.0107,.167-.0352,.2324-.0723s.1133-.082,.1455-.1357c.0322-.0527,.0479-.1162,.0479-.1904Z"/><path class="cls-1" d="M163.9268,83.7526h-1.2949v2.1172h-.418v-2.4844h1.7129v.3672Z"/></g><g><path class="cls-1" d="M3.9717,85.8698h-.4404v-1.3164h-.7139l-.9893,1.3164h-.5293l1.0635-1.3828c-.2227-.0762-.3955-.1924-.5176-.3506s-.1836-.3691-.1836-.6348c0-.1689,.0352-.3145,.1064-.4375,.0703-.1221,.1631-.2236,.2783-.3057,.1055-.0742,.2285-.126,.3691-.1553,.1416-.0293,.2969-.0449,.4678-.0449h1.0889v3.3115Zm-.4404-1.6836v-1.25h-.6709c-.1279,0-.2305,.0088-.3066,.0244-.0771,.0166-.1484,.0469-.2119,.0898-.0684,.0459-.1211,.1104-.1602,.1934-.0381,.083-.0576,.1738-.0576,.2734,0,.1182,.0137,.2168,.041,.2959,.0273,.0781,.0713,.1475,.1328,.209,.0664,.0654,.1475,.1084,.2441,.1309s.208,.0332,.3359,.0332h.6533Z"/><path class="cls-1" d="M6.9072,85.8698h-.418v-1.1182h-1.2432v1.1182h-.418v-2.4844h.418v1.0059h1.2432v-1.0059h.418v2.4844Z"/><path class="cls-1" d="M9.7803,85.1178c0,.1201-.0244,.2275-.0723,.3203-.0488,.0938-.1143,.1719-.1992,.2334-.0947,.0703-.1982,.1201-.3105,.1514-.1113,.0312-.2588,.0469-.4414,.0469h-1.0273v-2.4844h.9609c.1855,0,.3252,.0068,.4189,.0195,.0947,.0127,.1826,.04,.2656,.083,.0938,.0488,.1621,.1133,.2061,.1914s.0654,.1709,.0654,.2783c0,.123-.0352,.2295-.1045,.3203-.0693,.0898-.1592,.1602-.2686,.2109v.0225c.1465,.0352,.2676,.1035,.3633,.2051s.1436,.2354,.1436,.4014Zm-.5625-1.0957c0-.0537-.0117-.1016-.0352-.1445-.0225-.043-.0576-.0771-.1055-.1006-.0625-.0312-.1318-.0488-.21-.0518-.0781-.0039-.1738-.0059-.2881-.0059h-.4355v.6807h.5225c.1094,0,.1904-.0039,.2432-.0127,.0527-.0078,.1055-.0283,.1592-.0605,.0566-.0361,.0957-.0781,.1172-.126s.0322-.1074,.0322-.1787Zm.1309,1.0986c0-.082-.0137-.1484-.04-.1992-.0264-.0518-.085-.0986-.1758-.1416-.0566-.0264-.1172-.042-.1826-.0479-.0645-.0049-.1553-.0078-.2705-.0078h-.5361v.8115h.3955c.166,0,.2939-.0049,.3838-.0166,.0898-.0107,.167-.0352,.2324-.0723s.1133-.082,.1455-.1357c.0322-.0527,.0479-.1162,.0479-.1904Z"/></g><g><path class="cls-1" d="M26.585,84.1911c0,.207-.0332,.3916-.0996,.5527-.0654,.1602-.1572,.2949-.2744,.4033-.126,.1172-.2793,.21-.46,.2793-.1807,.0684-.374,.1055-.5781,.1094v.3691h-.4385v-.3691c-.1982-.0039-.3887-.04-.5713-.1064s-.3379-.1611-.4668-.2822c-.1172-.1094-.209-.2451-.2754-.4053-.0654-.1592-.0986-.3438-.0986-.5508,0-.2021,.0322-.3779,.0957-.5293s.1523-.2832,.2646-.3965c.1201-.1201,.2705-.2148,.4502-.2842,.1807-.0693,.3809-.1074,.6016-.1133v-.3447h.4385v.3447c.2188,.0039,.4199,.043,.6025,.1152,.1826,.0732,.332,.167,.4492,.2822,.1113,.1084,.1992,.2402,.2637,.3945,.0645,.1533,.0967,.3311,.0967,.5312Zm-1.8506,1v-1.9785c-.1572,.001-.2881,.0225-.3936,.0625s-.2012,.1006-.2871,.1816c-.0859,.082-.1523,.1855-.2012,.3115-.0479,.126-.0723,.2607-.0723,.4053,0,.166,.0254,.3164,.0742,.4512,.0498,.1348,.1221,.2451,.2178,.3311,.0723,.0664,.166,.1221,.2812,.167,.1143,.0439,.2412,.0674,.3809,.0684Zm1.3926-1.0176c0-.1475-.0244-.2822-.0713-.4053-.0479-.123-.1152-.2266-.2021-.3115-.0869-.083-.1816-.1436-.2871-.1816-.1055-.0391-.2363-.0596-.3936-.0625v1.9785c.1387-.0029,.2656-.0254,.3799-.0674s.208-.0986,.2822-.168c.0967-.0889,.1689-.1982,.2178-.3271,.0498-.1289,.0742-.2803,.0742-.4551Z"/><path class="cls-1" d="M29.3086,84.6715h-1.8301c0,.1523,.0234,.2852,.0693,.3984s.1084,.207,.1885,.2793c.0771,.0713,.1689,.125,.2754,.1602,.1055,.0361,.2227,.0537,.3496,.0537,.1689,0,.3398-.0342,.5107-.1016s.293-.1338,.3662-.1992h.0215v.4561c-.1406,.0596-.2842,.1094-.4307,.1494-.1475,.04-.3018,.0596-.4629,.0596-.4121,0-.7344-.1113-.9648-.335-.2314-.2227-.3477-.5391-.3477-.9502,0-.4062,.1113-.7285,.333-.9678,.2217-.2383,.5127-.3574,.875-.3574,.335,0,.5928,.0977,.7744,.293,.1816,.1963,.2725,.4736,.2725,.834v.2275Zm-.4062-.3203c-.002-.2197-.0566-.3896-.166-.5098s-.2744-.1797-.4971-.1797c-.2236,0-.4023,.0654-.5352,.1973-.1318,.1328-.207,.2959-.2256,.4922h1.4238Z"/><path class="cls-1" d="M31.9932,85.1178c0,.1201-.0244,.2275-.0723,.3203-.0488,.0938-.1143,.1719-.1992,.2334-.0947,.0703-.1982,.1201-.3105,.1514-.1113,.0312-.2588,.0469-.4414,.0469h-1.0273v-2.4844h.9609c.1855,0,.3252,.0068,.4189,.0195,.0947,.0127,.1826,.04,.2656,.083,.0938,.0488,.1621,.1133,.2061,.1914s.0654,.1709,.0654,.2783c0,.123-.0352,.2295-.1045,.3203-.0693,.0898-.1592,.1602-.2686,.2109v.0225c.1465,.0352,.2676,.1035,.3633,.2051s.1436,.2354,.1436,.4014Zm-.5625-1.0957c0-.0537-.0117-.1016-.0352-.1445-.0225-.043-.0576-.0771-.1055-.1006-.0625-.0312-.1318-.0488-.21-.0518-.0781-.0039-.1738-.0059-.2881-.0059h-.4355v.6807h.5225c.1094,0,.1904-.0039,.2432-.0127,.0527-.0078,.1055-.0283,.1592-.0605,.0566-.0361,.0957-.0781,.1172-.126s.0322-.1074,.0322-.1787Zm.1309,1.0986c0-.082-.0137-.1484-.04-.1992-.0264-.0518-.085-.0986-.1758-.1416-.0566-.0264-.1172-.042-.1826-.0479-.0645-.0049-.1553-.0078-.2705-.0078h-.5361v.8115h.3955c.166,0,.2939-.0049,.3838-.0166,.0898-.0107,.167-.0352,.2324-.0723s.1133-.082,.1455-.1357c.0322-.0527,.0479-.1162,.0479-.1904Z"/></g><g><path class="cls-1" d="M48.4023,85.8698h-.4404v-2.8535l-.9209,1.9414h-.2617l-.9141-1.9414v2.8535h-.4121v-3.3115h.6006l.8828,1.8438,.8545-1.8438h.6113v3.3115Z"/><path class="cls-1" d="M51.1885,85.8698h-.416v-.2646c-.0371,.0254-.0869,.0605-.1504,.1055-.0625,.0459-.124,.0811-.1836,.1084-.0693,.0342-.1494,.0625-.2393,.085-.0908,.0234-.1973,.0352-.3184,.0352-.2236,0-.4141-.0742-.5693-.2227s-.2334-.3369-.2334-.5674c0-.1885,.04-.3408,.1211-.457s.1963-.208,.3457-.2744c.1514-.0664,.333-.1123,.5449-.1357s.4395-.041,.6826-.0537v-.0645c0-.0947-.0166-.1729-.0498-.2354s-.0811-.1113-.1436-.1465c-.0596-.0342-.1309-.0576-.2139-.0693s-.1699-.0176-.2598-.0176c-.1094,0-.2324,.0146-.3672,.043-.1348,.0293-.2744,.0713-.418,.126h-.0225v-.4248c.082-.0225,.1992-.0469,.3535-.0732s.3066-.04,.4561-.04c.1748,0,.3271,.0146,.457,.043,.1299,.0293,.2422,.0781,.3369,.1484,.0938,.0684,.165,.1562,.2139,.2646s.0732,.2422,.0732,.4023v1.6855Zm-.416-.6113v-.6914c-.1279,.0068-.2773,.0186-.4502,.0332s-.3096,.0361-.4102,.0645c-.1201,.0342-.2178,.0869-.292,.1592-.0732,.0713-.1104,.1709-.1104,.2969,0,.1416,.043,.249,.1289,.3213,.0859,.0713,.2168,.1074,.3936,.1074,.1465,0,.2803-.0283,.4023-.0859,.1211-.0566,.2344-.125,.3379-.2051Z"/><path class="cls-1" d="M54.1797,84.5973c0,.2021-.0293,.3867-.0869,.5527-.0576,.167-.1396,.3086-.2451,.4238-.0977,.1104-.2129,.1943-.3457,.2549-.1328,.0596-.2725,.0898-.4209,.0898-.1289,0-.2461-.0137-.3506-.042s-.2109-.0723-.3193-.1318v1.041h-.418v-3.4004h.418v.2607c.1113-.0938,.2363-.1719,.375-.2344,.1387-.0635,.2861-.0947,.4434-.0947,.2998,0,.5332,.1133,.7002,.3389,.166,.2266,.25,.54,.25,.9414Zm-.4316,.0117c0-.2998-.0508-.5234-.1533-.6719s-.2598-.2227-.4717-.2227c-.1201,0-.2412,.0264-.3623,.0781-.1221,.0518-.2383,.1201-.3496,.2051v1.4072c.1191,.0537,.2207,.0898,.3057,.1094,.0859,.0186,.1826,.0283,.291,.0283,.2324,0,.4141-.0781,.5449-.2354,.1299-.1572,.1953-.3896,.1953-.6982Z"/></g><g><path class="cls-1" d="M70.3926,85.8698h-.4697l-.3242-.9229h-1.4326l-.3242,.9229h-.4473l1.2051-3.3115h.5879l1.2051,3.3115Zm-.9297-1.3008l-.5801-1.626-.583,1.626h1.1631Z"/><path class="cls-1" d="M72.9404,85.8698h-.418v-2.124h-1.2432v2.124h-.418v-2.4844h2.0791v2.4844Z"/><path class="cls-1" d="M75.9502,84.5973c0,.2021-.0293,.3867-.0869,.5527-.0576,.167-.1396,.3086-.2451,.4238-.0977,.1104-.2129,.1943-.3457,.2549-.1328,.0596-.2725,.0898-.4209,.0898-.1289,0-.2461-.0137-.3506-.042s-.2109-.0723-.3193-.1318v1.041h-.418v-3.4004h.418v.2607c.1113-.0938,.2363-.1719,.375-.2344,.1387-.0635,.2861-.0947,.4434-.0947,.2998,0,.5332,.1133,.7002,.3389,.166,.2266,.25,.54,.25,.9414Zm-.4316,.0117c0-.2998-.0508-.5234-.1533-.6719s-.2598-.2227-.4717-.2227c-.1201,0-.2412,.0264-.3623,.0781-.1221,.0518-.2383,.1201-.3496,.2051v1.4072c.1191,.0537,.2207,.0898,.3057,.1094,.0859,.0186,.1826,.0283,.291,.0283,.2324,0,.4141-.0781,.5449-.2354,.1299-.1572,.1953-.3896,.1953-.6982Z"/></g><g><path class="cls-1" d="M262.3994,95.1735h-2.2412v-.4648c.1553-.1338,.3115-.2666,.4678-.4004,.1562-.1328,.3018-.2656,.4365-.3975,.2852-.2764,.4805-.4951,.585-.6572,.1055-.1631,.1582-.3379,.1582-.5264,0-.1719-.0566-.3066-.1699-.4033-.1133-.0977-.2715-.1455-.4746-.1455-.1357,0-.2812,.0234-.4385,.0713-.1572,.0469-.3105,.1201-.46,.2178h-.0225v-.4678c.1055-.0518,.2461-.0986,.4209-.1416,.1758-.043,.3457-.0645,.5107-.0645,.3398,0,.6055,.082,.7988,.2451,.1924,.1641,.2891,.3857,.2891,.666,0,.126-.0166,.2441-.0479,.3525-.0322,.1094-.0791,.2129-.1416,.3105-.0576,.0918-.126,.1826-.2031,.2715-.0781,.0889-.1729,.1875-.2842,.2959-.1582,.1553-.3223,.3066-.4912,.4521-.1689,.1465-.3271,.2812-.4736,.4062h1.7812v.3799Z"/><path class="cls-1" d="M265.29,93.5173c0,.5938-.0928,1.0303-.2783,1.3086-.1865,.2773-.4756,.417-.8662,.417-.3975,0-.6875-.1416-.8711-.4229-.1826-.2812-.2744-.7148-.2744-1.2988,0-.5889,.0928-1.0234,.2783-1.3037,.1846-.2812,.4736-.4219,.8672-.4219,.3975,0,.6875,.1426,.8701,.4277,.1836,.2861,.2744,.7168,.2744,1.2939Zm-.584,1.0088c.0518-.1201,.0869-.2607,.1055-.4229,.0186-.1631,.0273-.3584,.0273-.5859,0-.2256-.0088-.4219-.0273-.5879s-.0547-.3066-.1084-.4219c-.0518-.1143-.1221-.2002-.2119-.2578-.0898-.0586-.2051-.0869-.3457-.0869-.1396,0-.2549,.0283-.3457,.0869-.0918,.0576-.1641,.1445-.2168,.2617-.0508,.1104-.085,.2529-.1035,.4297-.0186,.1758-.0283,.3701-.0283,.5801,0,.2314,.0088,.4248,.0244,.5801,.0166,.1562,.0518,.2959,.1045,.4189,.0488,.1152,.1182,.2031,.208,.2637,.0898,.0615,.209,.0918,.3574,.0918,.1387,0,.2549-.0293,.3467-.0869s.1631-.1455,.2139-.2627Z"/><path class="cls-1" d="M268.1904,95.1735h-2.2412v-.4648c.1553-.1338,.3115-.2666,.4678-.4004,.1562-.1328,.3018-.2656,.4365-.3975,.2852-.2764,.4805-.4951,.585-.6572,.1055-.1631,.1582-.3379,.1582-.5264,0-.1719-.0566-.3066-.1699-.4033-.1133-.0977-.2715-.1455-.4746-.1455-.1357,0-.2812,.0234-.4385,.0713-.1572,.0469-.3105,.1201-.46,.2178h-.0225v-.4678c.1055-.0518,.2461-.0986,.4209-.1416,.1758-.043,.3457-.0645,.5107-.0645,.3398,0,.6055,.082,.7988,.2451,.1924,.1641,.2891,.3857,.2891,.666,0,.126-.0166,.2441-.0479,.3525-.0322,.1094-.0791,.2129-.1416,.3105-.0576,.0918-.126,.1826-.2031,.2715-.0781,.0889-.1729,.1875-.2842,.2959-.1582,.1553-.3223,.3066-.4912,.4521-.1689,.1465-.3271,.2812-.4736,.4062h1.7812v.3799Z"/><path class="cls-1" d="M270.8965,95.1735h-1.792v-.3379h.6895v-2.2197h-.6895v-.3018c.0938,0,.1934-.0078,.2998-.0234,.1074-.0156,.1875-.0381,.2432-.0684,.0674-.0371,.1221-.084,.1611-.1406,.0391-.0576,.0615-.1338,.0674-.2305h.3447v2.9844h.6758v.3379Z"/></g><g><path class="cls-1" d="M180.6182,85.6296c-.0811,.0361-.1553,.0693-.2207,.1006-.0664,.0303-.1523,.0635-.2598,.0977-.0898,.0283-.1885,.0518-.2939,.0723-.1064,.0195-.2236,.0293-.3506,.0293-.2402,0-.459-.0332-.6553-.1006s-.3672-.1729-.5127-.3174c-.1416-.1406-.2529-.3193-.333-.5371-.0801-.2168-.1201-.4688-.1201-.7568,0-.2725,.0381-.5166,.1152-.7314s.1885-.3965,.334-.5449c.1406-.1436,.3105-.2539,.5098-.3291,.2002-.0752,.4209-.1133,.6641-.1133,.1777,0,.3555,.0215,.5332,.0645,.1768,.043,.373,.1182,.5898,.2266v.5225h-.0332c-.1826-.1523-.3633-.2637-.543-.333-.1787-.0703-.3711-.1045-.5752-.1045-.168,0-.3184,.0264-.4531,.0811-.1338,.0537-.2539,.1377-.3594,.252-.1016,.1113-.1816,.252-.2383,.4219-.0576,.1699-.0859,.3652-.0859,.5879,0,.2324,.0312,.4326,.0947,.6006,.0625,.167,.1436,.3037,.2432,.4092,.1035,.1094,.2246,.1904,.3633,.2432s.2852,.0791,.4395,.0791c.2119,0,.4111-.0361,.5957-.1084,.1855-.0732,.3594-.1816,.5205-.3271h.0312v.5156Z"/><path class="cls-1" d="M183.2861,84.6715h-1.8301c0,.1523,.0234,.2852,.0693,.3984s.1084,.207,.1885,.2793c.0771,.0713,.1689,.125,.2754,.1602,.1055,.0361,.2227,.0537,.3496,.0537,.1689,0,.3398-.0342,.5107-.1016s.293-.1338,.3662-.1992h.0215v.4561c-.1406,.0596-.2842,.1094-.4307,.1494-.1475,.04-.3018,.0596-.4629,.0596-.4121,0-.7344-.1113-.9648-.335-.2314-.2227-.3477-.5391-.3477-.9502,0-.4062,.1113-.7285,.333-.9678,.2217-.2383,.5127-.3574,.875-.3574,.335,0,.5928,.0977,.7744,.293,.1816,.1963,.2725,.4736,.2725,.834v.2275Zm-.4062-.3203c-.002-.2197-.0566-.3896-.166-.5098s-.2744-.1797-.4971-.1797c-.2236,0-.4023,.0654-.5352,.1973-.1318,.1328-.207,.2959-.2256,.4922h1.4238Z"/><path class="cls-1" d="M185.999,85.8698h-.418v-1.1182h-1.2432v1.1182h-.418v-2.4844h.418v1.0059h1.2432v-1.0059h.418v2.4844Z"/></g><g><path class="cls-1" d="M202.708,82.9391c.1348,.1484,.2383,.3301,.3105,.5449,.0713,.2148,.1074,.458,.1074,.7314,0,.2725-.0361,.5166-.1104,.7324-.0732,.2158-.1758,.3955-.3076,.5391-.1367,.1504-.2979,.2627-.4834,.3379-.1865,.0762-.3984,.1143-.6377,.1143-.2324,0-.4443-.0391-.6348-.1162s-.3525-.1885-.4854-.3359c-.1338-.1465-.2363-.3262-.3086-.54-.0713-.2139-.1074-.457-.1074-.7314,0-.2695,.0352-.5117,.1064-.7266,.0713-.2139,.1748-.3975,.3115-.5498,.1309-.1455,.292-.2568,.4863-.334,.1934-.0771,.4043-.1152,.6318-.1152,.2373,0,.4512,.0391,.6396,.1162,.1895,.0781,.3496,.1885,.4814,.333Zm-.04,1.2764c0-.4297-.0967-.7617-.2891-.9951s-.4561-.3506-.7891-.3506c-.3369,0-.6016,.1172-.793,.3506-.1924,.2334-.2881,.5654-.2881,.9951,0,.4346,.0977,.7666,.2939,.9971,.1953,.2305,.458,.3457,.7871,.3457s.5908-.1152,.7861-.3457c.1943-.2305,.292-.5625,.292-.9971Z"/><path class="cls-1" d="M206.0332,85.8698h-.5479l-1.0312-1.1387h-.2266v1.1387h-.4189v-2.4844h.4189v1.0723c.1377,0,.249-.0244,.333-.0742,.085-.0498,.1562-.1299,.2158-.2393,.0205-.04,.041-.083,.0615-.1279,.0195-.0449,.0391-.0889,.0586-.1299,.0771-.168,.1738-.293,.2891-.376s.2812-.125,.498-.125h.1914v.3604h-.1846c-.1172,0-.209,.0254-.2744,.0752-.0664,.0488-.126,.1367-.1797,.2607-.0586,.1396-.1211,.2441-.1875,.3125-.0664,.0693-.1357,.1211-.21,.1572l1.1943,1.3184Z"/><path class="cls-1" d="M208.3125,83.7526h-.8984v2.1172h-.418v-2.1172h-.8984v-.3672h2.2148v.3672Z"/></g><g><path class="cls-1" d="M224.6338,85.8698h-.4404v-1.6211h-1.6523v1.6211h-.4404v-3.3115h.4404v1.2988h1.6523v-1.2988h.4404v3.3115Z"/><path class="cls-1" d="M227.6074,84.6286c0,.4053-.1035,.7246-.3115,.959-.207,.2344-.4854,.3516-.834,.3516-.3506,0-.6299-.1172-.8369-.3516s-.3105-.5537-.3105-.959c0-.4043,.1035-.7246,.3105-.959,.207-.2354,.4863-.3525,.8369-.3525,.3486,0,.627,.1172,.834,.3525,.208,.2344,.3115,.5547,.3115,.959Zm-.4316,0c0-.3213-.0625-.5605-.1885-.7168s-.3008-.2344-.5254-.2344c-.2266,0-.4023,.0781-.5273,.2344-.126,.1562-.1885,.3955-.1885,.7168,0,.3115,.0635,.5479,.1895,.709,.126,.1602,.3018,.2412,.5264,.2412,.2227,0,.3975-.0801,.5244-.2393,.126-.1592,.1895-.3965,.1895-.7109Z"/><path class="cls-1" d="M230.1621,85.8698h-.418v-.9854h-.4912l-.7695,.9854h-.4912l.8359-1.0254c-.2148-.0586-.3721-.1494-.4717-.2725-.0996-.1221-.1494-.2822-.1494-.4814,0-.1318,.0303-.2432,.0898-.3359,.0586-.0918,.1338-.166,.2246-.2246,.0889-.0557,.1904-.0938,.3066-.1143,.1152-.0195,.2412-.0303,.3779-.0303h.9561v2.4844Zm-.418-1.3145v-.8359h-.5273c-.1143,0-.1963,.0039-.2461,.0107-.0508,.0078-.1055,.0273-.165,.0605-.0576,.0322-.1006,.0762-.1279,.1318s-.041,.1162-.041,.1816c0,.0811,.0088,.1475,.0254,.1982,.0176,.0498,.0527,.0977,.1055,.1416,.0547,.043,.1221,.0723,.2002,.0879,.0791,.0156,.166,.0234,.2627,.0234h.5137Z"/></g><g><path class="cls-1" d="M246.9609,86.6188h-.4189v-.7578h-2.3389v.7578h-.418v-1.1406h.2666c.1924-.3174,.3467-.7314,.4619-1.2422,.1143-.5107,.1719-1.0693,.1719-1.6777h1.9609v2.9199h.3145v1.1406Zm-.7539-1.1406v-2.5371h-1.1074c-.0215,.5293-.0859,1.0137-.1963,1.4531-.1094,.4395-.252,.8008-.4268,1.084h1.7305Z"/><path class="cls-1" d="M249.6484,84.6715h-1.8301c0,.1523,.0234,.2852,.0693,.3984s.1084,.207,.1885,.2793c.0771,.0713,.1689,.125,.2754,.1602,.1055,.0361,.2227,.0537,.3496,.0537,.1689,0,.3398-.0342,.5107-.1016s.293-.1338,.3662-.1992h.0215v.4561c-.1406,.0596-.2842,.1094-.4307,.1494-.1475,.04-.3018,.0596-.4629,.0596-.4121,0-.7344-.1113-.9648-.335-.2314-.2227-.3477-.5391-.3477-.9502,0-.4062,.1113-.7285,.333-.9678,.2217-.2383,.5127-.3574,.875-.3574,.335,0,.5928,.0977,.7744,.293,.1816,.1963,.2725,.4736,.2725,.834v.2275Zm-.4062-.3203c-.002-.2197-.0566-.3896-.166-.5098s-.2744-.1797-.4971-.1797c-.2236,0-.4023,.0654-.5352,.1973-.1318,.1328-.207,.2959-.2256,.4922h1.4238Z"/><path class="cls-1" d="M252.5244,85.8698h-.5479l-1.0312-1.1387h-.2266v1.1387h-.4189v-2.4844h.4189v1.0723c.1377,0,.249-.0244,.333-.0742,.085-.0498,.1562-.1299,.2158-.2393,.0205-.04,.041-.083,.0615-.1279,.0195-.0449,.0391-.0889,.0586-.1299,.0771-.168,.1738-.293,.2891-.376s.2812-.125,.498-.125h.1914v.3604h-.1846c-.1172,0-.209,.0254-.2744,.0752-.0664,.0488-.126,.1367-.1797,.2607-.0586,.1396-.1211,.2441-.1875,.3125-.0664,.0693-.1357,.1211-.21,.1572l1.1943,1.3184Z"/></g><g><path class="cls-1" d="M268.5732,87.2633h-.4404v-1.3164h-.7139l-.9893,1.3164h-.5293l1.0635-1.3828c-.2227-.0762-.3955-.1924-.5176-.3506s-.1836-.3691-.1836-.6348c0-.1689,.0352-.3145,.1064-.4375,.0703-.1221,.1631-.2236,.2783-.3057,.1055-.0742,.2285-.126,.3691-.1553,.1416-.0293,.2969-.0449,.4678-.0449h1.0889v3.3115Zm-.4404-1.6836v-1.25h-.6709c-.1279,0-.2305,.0088-.3066,.0244-.0771,.0166-.1484,.0469-.2119,.0898-.0684,.0459-.1211,.1104-.1602,.1934-.0381,.083-.0576,.1738-.0576,.2734,0,.1182,.0137,.2168,.041,.2959,.0273,.0781,.0713,.1475,.1328,.209,.0664,.0654,.1475,.1084,.2441,.1309s.208,.0332,.3359,.0332h.6533Z"/><path class="cls-1" d="M271.5088,87.2633h-.418v-1.1182h-1.2432v1.1182h-.418v-2.4844h.418v1.0059h1.2432v-1.0059h.418v2.4844Z"/><path class="cls-1" d="M274.3828,86.5114c0,.1201-.0244,.2275-.0723,.3203-.0488,.0938-.1143,.1719-.1992,.2334-.0947,.0703-.1982,.1201-.3105,.1514-.1113,.0312-.2588,.0469-.4414,.0469h-1.0273v-2.4844h.9609c.1855,0,.3252,.0068,.4189,.0195,.0947,.0127,.1826,.04,.2656,.083,.0938,.0488,.1621,.1133,.2061,.1914s.0654,.1709,.0654,.2783c0,.123-.0352,.2295-.1045,.3203-.0693,.0898-.1592,.1602-.2686,.2109v.0225c.1465,.0352,.2676,.1035,.3633,.2051s.1436,.2354,.1436,.4014Zm-.5625-1.0957c0-.0537-.0117-.1016-.0352-.1445-.0225-.043-.0576-.0771-.1055-.1006-.0625-.0312-.1318-.0488-.21-.0518-.0781-.0039-.1738-.0059-.2881-.0059h-.4355v.6807h.5225c.1094,0,.1904-.0039,.2432-.0127,.0527-.0078,.1055-.0283,.1592-.0605,.0566-.0361,.0957-.0781,.1172-.126s.0322-.1074,.0322-.1787Zm.1309,1.0986c0-.082-.0137-.1484-.04-.1992-.0264-.0518-.085-.0986-.1758-.1416-.0566-.0264-.1172-.042-.1826-.0479-.0645-.0049-.1553-.0078-.2705-.0078h-.5361v.8115h.3955c.166,0,.2939-.0049,.3838-.0166,.0898-.0107,.167-.0352,.2324-.0723s.1133-.082,.1455-.1357c.0322-.0527,.0479-.1162,.0479-.1904Z"/></g><line class="cls-3" x1="259.599" y1="88.9213" x2="281.5456" y2="88.9213"/><line class="cls-3" x1=".3282" y1="88.8517" x2="258.4089" y2="88.8517"/><g><path class="cls-1" d="M2.5996,95.0387H.3584v-.4648c.1553-.1338,.3115-.2666,.4678-.4004,.1562-.1328,.3018-.2656,.4365-.3975,.2852-.2764,.4805-.4951,.585-.6572,.1055-.1631,.1582-.3379,.1582-.5264,0-.1719-.0566-.3066-.1699-.4033-.1133-.0977-.2715-.1455-.4746-.1455-.1357,0-.2812,.0234-.4385,.0713-.1572,.0469-.3105,.1201-.46,.2178h-.0225v-.4678c.1055-.0518,.2461-.0986,.4209-.1416,.1758-.043,.3457-.0645,.5107-.0645,.3398,0,.6055,.082,.7988,.2451,.1924,.1641,.2891,.3857,.2891,.666,0,.126-.0166,.2441-.0479,.3525-.0322,.1094-.0791,.2129-.1416,.3105-.0576,.0918-.126,.1826-.2031,.2715-.0781,.0889-.1729,.1875-.2842,.2959-.1582,.1553-.3223,.3066-.4912,.4521-.1689,.1465-.3271,.2812-.4736,.4062h1.7812v.3799Z"/><path class="cls-1" d="M5.4902,93.3825c0,.5938-.0928,1.0303-.2783,1.3086-.1865,.2773-.4756,.417-.8662,.417-.3975,0-.6875-.1416-.8711-.4229-.1826-.2812-.2744-.7148-.2744-1.2988,0-.5889,.0928-1.0234,.2783-1.3037,.1846-.2812,.4736-.4219,.8672-.4219,.3975,0,.6875,.1426,.8701,.4277,.1836,.2861,.2744,.7168,.2744,1.2939Zm-.584,1.0088c.0518-.1201,.0869-.2607,.1055-.4229,.0186-.1631,.0273-.3584,.0273-.5859,0-.2256-.0088-.4219-.0273-.5879s-.0547-.3066-.1084-.4219c-.0518-.1143-.1221-.2002-.2119-.2578-.0898-.0586-.2051-.0869-.3457-.0869-.1396,0-.2549,.0283-.3457,.0869-.0918,.0576-.1641,.1445-.2168,.2617-.0508,.1104-.085,.2529-.1035,.4297-.0186,.1758-.0283,.3701-.0283,.5801,0,.2314,.0088,.4248,.0244,.5801,.0166,.1562,.0518,.2959,.1045,.4189,.0488,.1152,.1182,.2031,.208,.2637,.0898,.0615,.209,.0918,.3574,.0918,.1387,0,.2549-.0293,.3467-.0869s.1631-.1455,.2139-.2627Z"/><path class="cls-1" d="M8.3906,95.0387h-2.2412v-.4648c.1553-.1338,.3115-.2666,.4678-.4004,.1562-.1328,.3018-.2656,.4365-.3975,.2852-.2764,.4805-.4951,.585-.6572,.1055-.1631,.1582-.3379,.1582-.5264,0-.1719-.0566-.3066-.1699-.4033-.1133-.0977-.2715-.1455-.4746-.1455-.1357,0-.2812,.0234-.4385,.0713-.1572,.0469-.3105,.1201-.46,.2178h-.0225v-.4678c.1055-.0518,.2461-.0986,.4209-.1416,.1758-.043,.3457-.0645,.5107-.0645,.3398,0,.6055,.082,.7988,.2451,.1924,.1641,.2891,.3857,.2891,.666,0,.126-.0166,.2441-.0479,.3525-.0322,.1094-.0791,.2129-.1416,.3105-.0576,.0918-.126,.1826-.2031,.2715-.0781,.0889-.1729,.1875-.2842,.2959-.1582,.1553-.3223,.3066-.4912,.4521-.1689,.1465-.3271,.2812-.4736,.4062h1.7812v.3799Z"/><path class="cls-1" d="M11.2812,93.3825c0,.5938-.0928,1.0303-.2783,1.3086-.1865,.2773-.4756,.417-.8662,.417-.3975,0-.6875-.1416-.8711-.4229-.1826-.2812-.2744-.7148-.2744-1.2988,0-.5889,.0928-1.0234,.2783-1.3037,.1846-.2812,.4736-.4219,.8672-.4219,.3975,0,.6875,.1426,.8701,.4277,.1836,.2861,.2744,.7168,.2744,1.2939Zm-.584,1.0088c.0518-.1201,.0869-.2607,.1055-.4229,.0186-.1631,.0273-.3584,.0273-.5859,0-.2256-.0088-.4219-.0273-.5879s-.0547-.3066-.1084-.4219c-.0518-.1143-.1221-.2002-.2119-.2578-.0898-.0586-.2051-.0869-.3457-.0869-.1396,0-.2549,.0283-.3457,.0869-.0918,.0576-.1641,.1445-.2168,.2617-.0508,.1104-.085,.2529-.1035,.4297-.0186,.1758-.0283,.3701-.0283,.5801,0,.2314,.0088,.4248,.0244,.5801,.0166,.1562,.0518,.2959,.1045,.4189,.0488,.1152,.1182,.2031,.208,.2637,.0898,.0615,.209,.0918,.3574,.0918,.1387,0,.2549-.0293,.3467-.0869s.1631-.1455,.2139-.2627Z"/></g></svg>