<?xml version="1.0" encoding="UTF-8"?><svg id="Layer_1" xmlns="http://www.w3.org/2000/svg" viewBox="0 0 281.8275 145.4746"><defs><style>.cls-1,.cls-2{fill:#7ec500;}.cls-3{fill:#222;}.cls-4{fill:#a2a2a2;}.cls-2,.cls-5{stroke:#fff;stroke-miterlimit:10;stroke-width:.5px;}.cls-5{fill:#1256bb;}</style></defs><rect class="cls-5" x="141.1039" y="61.7518" width="28.1708" height="75"/><rect class="cls-5" x="169.2746" y="42.7518" width="28.1708" height="94"/><rect class="cls-5" x="197.4454" y="23.7518" width="28.1708" height="113"/><rect class="cls-5" x="225.6161" y="15.7518" width="28.1708" height="121"/><g><path class="cls-3" d="M153.7111,53.6338v.3115l-1.7891,3.9629h-.4766l1.7588-3.8838h-2.1982v.7998h-.4336v-1.1904h3.1387Z"/><path class="cls-3" d="M154.5363,57.3682c.0605,.0625,.0908,.1416,.0908,.2354,0,.0488-.0068,.1016-.0215,.1582-.0137,.0576-.0352,.1221-.0635,.1953l-.2568,.8428h-.293l.208-.8848c-.0654-.0205-.1182-.0586-.1592-.1133s-.0615-.1211-.0615-.1982c0-.0938,.0312-.1729,.0918-.2354,.0615-.0635,.1387-.0947,.2324-.0947s.1709,.0312,.2324,.0947Z"/><path class="cls-3" d="M157.7384,55.7188c.2832,.2227,.4248,.5322,.4248,.9316,0,.248-.0586,.4707-.1738,.666-.1162,.1953-.29,.3486-.5225,.4609s-.5176,.168-.8555,.168c-.3047,0-.5947-.0498-.8701-.1494-.2744-.1006-.4951-.2334-.6621-.4004l.2139-.3486c.1426,.1475,.3291,.2666,.5615,.3574,.2324,.0918,.4824,.1377,.751,.1377,.3545,0,.6279-.0791,.8213-.2383,.1934-.1582,.29-.3701,.29-.6348,0-.293-.1084-.5156-.3262-.666s-.5859-.2256-1.1025-.2256h-.9102l.2197-2.1436h2.3389v.3906h-1.9541l-.1465,1.3623h.5498c.6191,0,1.0693,.1104,1.3525,.332Z"/></g><g><path class="cls-3" d="M181.8576,34.7393c.3008,.373,.4512,.8994,.4512,1.5791,0,.4766-.0811,.8789-.2441,1.209-.1621,.3301-.3906,.5791-.6836,.748s-.6348,.2539-1.0264,.2539c-.4229,0-.7607-.0771-1.0137-.2324l.1777-.3545c.2031,.1348,.4795,.2021,.8301,.2021,.4727,0,.8428-.1494,1.1113-.4492,.2686-.2988,.4033-.7334,.4033-1.3037,0-.1055-.0059-.2217-.0186-.3477-.1055,.2314-.2744,.4121-.5068,.54-.2314,.1279-.499,.1924-.7998,.1924-.2812,0-.5303-.0527-.748-.1592-.2178-.1055-.3877-.2549-.5098-.4482s-.1836-.4189-.1836-.6748c0-.2607,.0635-.4912,.1895-.6904s.2998-.3535,.5225-.4609c.2217-.1074,.4707-.1621,.748-.1621,.5654,0,.999,.1865,1.3008,.5586Zm-.6816,1.542c.165-.0811,.2949-.1934,.3887-.335,.0928-.1426,.1396-.3018,.1396-.4766,0-.1631-.043-.3135-.1309-.4521s-.2168-.25-.3877-.3359-.375-.1279-.6113-.1279c-.3086,0-.5605,.084-.7539,.2529s-.29,.3945-.29,.6748c0,.2812,.0967,.5049,.29,.6719s.4551,.251,.7852,.251c.2158,0,.4062-.041,.5703-.123Z"/><path class="cls-3" d="M183.4455,37.9521c.0605,.0625,.0908,.1416,.0908,.2354,0,.0488-.0068,.1016-.0215,.1582-.0137,.0576-.0352,.1221-.0635,.1953l-.2568,.8428h-.293l.208-.8848c-.0654-.0205-.1182-.0586-.1592-.1133s-.0615-.1211-.0615-.1982c0-.0938,.0312-.1729,.0918-.2354,.0615-.0635,.1387-.0947,.2324-.0947s.1709,.0312,.2324,.0947Z"/><path class="cls-3" d="M187.7257,37.3691h-.8545v1.123h-.4395v-1.123h-2.4131v-.3184l2.2656-2.833h.4893l-2.1865,2.7598h1.8564v-.9893h.4277v.9893h.8545v.3916Z"/></g><g><path class="cls-3" d="M208.4279,15.7412v4.2754h-.4395v-3.8848h-1.0078v-.3906h1.4473Z"/><path class="cls-3" d="M210.633,15.7412v4.2754h-.4395v-3.8848h-1.0078v-.3906h1.4473Z"/><path class="cls-3" d="M212.2209,19.4756c.0605,.0635,.0918,.1416,.0918,.2354,0,.0488-.0078,.1016-.0215,.1592-.0146,.0566-.0361,.1221-.0645,.1953l-.2559,.8428h-.2939l.208-.8857c-.0654-.0205-.1182-.0576-.1592-.1133-.04-.0547-.0615-.1211-.0615-.1982,0-.0938,.0312-.1719,.0918-.2354,.0615-.0625,.1387-.0947,.2324-.0947s.1709,.0322,.2324,.0947Z"/><path class="cls-3" d="M215.4845,17.9365c.2344,.2178,.3516,.502,.3516,.8525,0,.2441-.0596,.4609-.1777,.6504-.1172,.1895-.293,.3389-.5254,.4482-.2314,.1104-.5146,.165-.8486,.165-.3096,0-.6016-.0498-.876-.1494-.2754-.0996-.4961-.2334-.6621-.4004l.2129-.3477c.1426,.1465,.332,.2656,.5684,.3574s.4883,.1377,.7568,.1377c.3506,0,.6211-.0771,.8125-.2295s.2871-.3633,.2871-.6318c0-.2646-.0957-.4727-.2871-.623s-.4805-.2256-.8672-.2256h-.3057v-.3242l1.1855-1.4844h-2.1875v-.3906h2.748v.3115l-1.209,1.5205c.4482,.0244,.7891,.1455,1.0234,.3633Z"/></g><g><path class="cls-3" d="M235.6232,7.5762v4.2754h-.4395v-3.8848h-1.0078v-.3906h1.4473Z"/><path class="cls-3" d="M239.5627,11.4609v.3906h-2.999v-.3115l1.7773-1.7402c.2236-.2207,.376-.4102,.4551-.5713s.1191-.3232,.1191-.4854c0-.2529-.0869-.4492-.2598-.5898s-.4209-.2109-.7422-.2109c-.501,0-.8896,.1592-1.166,.4766l-.3115-.2686c.167-.1953,.3799-.3457,.6377-.4521,.2588-.1055,.5508-.1582,.877-.1582,.4355,0,.7803,.1025,1.0352,.3086,.2539,.2051,.3818,.4873,.3818,.8457,0,.2197-.0498,.4316-.1475,.6348-.0977,.2041-.2822,.4375-.5557,.7021l-1.4531,1.4297h2.3516Z"/><path class="cls-3" d="M240.7414,11.3105c.0605,.0635,.0908,.1416,.0908,.2354,0,.0488-.0068,.1016-.0215,.1592-.0137,.0566-.0352,.1221-.0635,.1953l-.2568,.8428h-.293l.208-.8857c-.0654-.0205-.1182-.0576-.1592-.1133-.041-.0547-.0615-.1211-.0615-.1982,0-.0938,.0312-.1719,.0918-.2354,.0615-.0625,.1387-.0947,.2324-.0947s.1709,.0322,.2324,.0947Z"/><path class="cls-3" d="M242.5793,7.5762v4.2754h-.4404v-3.8848h-1.0068v-.3906h1.4473Z"/></g><g><path class="cls-1" d="M263.2736,.916V5.1904h-.9893V1.71h-.8545V.916h1.8438Z"/><path class="cls-1" d="M267.213,4.3848v.8057h-3.2305v-.6406l1.6484-1.5576c.1748-.167,.293-.3105,.3545-.4307,.0605-.1201,.0918-.2393,.0918-.3574,0-.1709-.0586-.3018-.1748-.3936-.1152-.0918-.2861-.1377-.5098-.1377-.1875,0-.3564,.0361-.5068,.1074s-.2764,.1777-.3789,.3203l-.7197-.4639c.166-.249,.3965-.4434,.6895-.584,.293-.1396,.6289-.21,1.0078-.21,.3174,0,.5957,.0518,.834,.1553,.2373,.1035,.4229,.251,.5557,.4395,.1318,.1895,.1982,.4131,.1982,.6689,0,.2324-.0488,.4502-.1465,.6533-.0977,.2041-.2871,.4355-.5684,.6963l-.9834,.9287h1.8389Z"/><path class="cls-1" d="M268.672,4.2168c.1104,.1074,.165,.249,.165,.4238,0,.082-.0098,.1631-.0303,.2451-.0205,.0811-.0654,.2031-.1348,.3662l-.3477,.8789h-.6045l.2686-.9707c-.1016-.041-.1826-.1064-.2412-.1982-.0596-.0918-.0889-.1982-.0889-.3213,0-.1748,.0557-.3164,.168-.4238,.1123-.1084,.2539-.1621,.4248-.1621s.3115,.0537,.4209,.1621Z"/><path class="cls-1" d="M272.755,3.3584c.1113,.1709,.168,.3691,.168,.5928,0,.2646-.0752,.4951-.2266,.6934-.1504,.1973-.3623,.3496-.6348,.458-.2725,.1074-.5889,.1611-.9463,.1611-.3584,0-.6729-.0537-.9443-.1611-.2705-.1084-.4795-.2607-.6289-.458-.1484-.1982-.2227-.4287-.2227-.6934,0-.2236,.0557-.4219,.168-.5928s.2715-.3096,.4795-.415c-.1592-.0977-.2812-.2207-.3662-.3691-.0859-.1494-.1289-.3193-.1289-.5107,0-.248,.0693-.4639,.208-.6465,.1387-.1836,.332-.3252,.5801-.4248s.5332-.1494,.8555-.1494c.3252,0,.6133,.0498,.8643,.1494,.25,.0996,.4443,.2412,.583,.4248,.1377,.1826,.207,.3984,.207,.6465,0,.1914-.042,.3613-.1279,.5107-.085,.1484-.21,.2715-.3721,.3691,.2109,.1055,.373,.2441,.4854,.415Zm-1.0508,1.0107c.1445-.1113,.2168-.2617,.2168-.4482,0-.1875-.0723-.3359-.2168-.4463s-.3408-.165-.5889-.165c-.2441,0-.4385,.0547-.5801,.165-.1426,.1104-.2139,.2588-.2139,.4463,0,.1914,.0713,.3418,.2139,.4512,.1416,.1104,.3359,.165,.5801,.165,.248,0,.4443-.0557,.5889-.168Zm-1.0684-2.6562c-.1201,.0957-.1807,.2266-.1807,.3936,0,.1631,.0596,.291,.1777,.3848s.2783,.1406,.4824,.1406c.2031,0,.3662-.0469,.4883-.1406s.1836-.2217,.1836-.3848c0-.167-.0615-.2979-.1836-.3936s-.2852-.1436-.4883-.1436c-.2002,0-.3594,.0479-.4795,.1436Z"/></g><rect class="cls-2" x="253.7869" y="8.7518" width="26.9494" height="128"/><g><path class="cls-4" d="M124.507,143.959h-2.4609v-.5098c.1709-.1465,.3428-.293,.5146-.4395,.1709-.1465,.3311-.293,.4785-.4375,.3125-.3027,.5273-.543,.6426-.7217,.1152-.1777,.1738-.3701,.1738-.5771,0-.1885-.0625-.3369-.1875-.4434s-.2979-.1602-.5215-.1602c-.1475,0-.3086,.0264-.4805,.0781-.1719,.0527-.3408,.1328-.5059,.2402h-.0234v-.5137c.1152-.0566,.2695-.1084,.4629-.1562,.1914-.0469,.3789-.0703,.5596-.0703,.3721,0,.665,.0898,.876,.2695,.2119,.1797,.3184,.4238,.3184,.7314,0,.1387-.0176,.2676-.0527,.3867-.0352,.1201-.0869,.2334-.1553,.3408-.0635,.1006-.1377,.2002-.2236,.2979s-.1895,.2061-.3105,.3252c-.1748,.1699-.3545,.3359-.54,.4961s-.3584,.3086-.5205,.4453h1.9561v.418Z"/><path class="cls-4" d="M127.6808,142.1406c0,.6523-.1025,1.1309-.3057,1.4365-.2051,.3047-.5215,.458-.9512,.458-.4365,0-.7559-.1553-.957-.4648-.2002-.3086-.3008-.7842-.3008-1.4258,0-.6455,.1016-1.123,.3047-1.4316,.2041-.3086,.5215-.4629,.9531-.4629,.4355,0,.7539,.1572,.9551,.4707s.3018,.7861,.3018,1.4199Zm-.6416,1.1074c.0566-.1309,.0957-.2861,.1152-.4648,.0205-.1777,.0312-.3926,.0312-.6426,0-.248-.0107-.4629-.0312-.6445-.0195-.1826-.0596-.3379-.1182-.4648-.0576-.125-.1348-.2188-.2334-.2832-.0977-.0625-.2246-.0947-.3789-.0947-.1533,0-.2793,.0322-.3809,.0947-.0996,.0645-.1787,.1602-.2373,.2891-.0557,.1201-.0928,.2773-.1143,.4707-.0195,.1934-.0293,.4062-.0293,.6367,0,.2539,.0078,.4668,.0264,.6377s.0557,.3242,.1143,.459c.0547,.127,.1309,.2236,.2285,.29,.0986,.0674,.2295,.1006,.3926,.1006,.1523,0,.2793-.0322,.3809-.0947,.1006-.0645,.1787-.1602,.2344-.2891Z"/><path class="cls-4" d="M130.6564,143.959h-1.9668v-.3711h.7559v-2.4365h-.7559v-.332c.1016,0,.2119-.0088,.3291-.0254,.1172-.0176,.2061-.042,.2666-.0752,.0742-.04,.1328-.0918,.1758-.1543,.0439-.0625,.0684-.1475,.0752-.2529h.3779v3.2764h.7422v.3711Z"/><path class="cls-4" d="M134.0968,142.7793c0,.3701-.1221,.6719-.3643,.9053-.2441,.2334-.543,.3506-.8955,.3506-.1787,0-.3418-.0283-.4883-.084-.1465-.0547-.2764-.1367-.3877-.2461-.1406-.1348-.248-.3145-.3242-.5371s-.1133-.4912-.1133-.8057c0-.3223,.0352-.6084,.1035-.8564,.0693-.25,.1797-.4707,.3311-.6641,.1436-.1846,.3281-.3281,.5537-.4316,.2266-.1035,.4902-.1543,.791-.1543,.0967,0,.1777,.0039,.2422,.0117s.1309,.0225,.1973,.0439v.4658h-.0234c-.0459-.0234-.1152-.0469-.207-.0693-.0918-.0215-.1855-.0322-.2812-.0322-.3506,0-.6289,.1094-.8379,.3281s-.3301,.5146-.3633,.8867c.1367-.082,.2715-.1455,.4043-.1885,.1318-.043,.2852-.0654,.459-.0654,.1553,0,.291,.0146,.4102,.043,.1172,.0283,.2383,.0859,.3613,.1719,.1436,.0996,.252,.2246,.3242,.377,.0723,.1504,.1084,.335,.1084,.5508Zm-.4951,.0195c0-.1504-.0234-.2764-.0684-.375-.0439-.0996-.1172-.1855-.2207-.2598-.0742-.0518-.1572-.0859-.248-.1016-.0918-.0166-.1875-.0254-.2861-.0254-.1377,0-.2666,.0166-.3857,.0488-.1191,.0332-.2402,.084-.3662,.1523-.0029,.0352-.0059,.0703-.0068,.1035-.002,.0332-.0029,.0752-.0029,.125,0,.2578,.0264,.4609,.0791,.6094,.0527,.1494,.126,.2666,.2188,.3535,.0742,.0713,.1562,.124,.2422,.1572,.0879,.0332,.1826,.0498,.2852,.0498,.2363,0,.4219-.0723,.5566-.2158,.1348-.1445,.2031-.3516,.2031-.6221Z"/></g><g><path class="cls-4" d="M152.8586,143.959h-2.4609v-.5098c.1709-.1465,.3428-.293,.5146-.4395,.1709-.1465,.3311-.293,.4785-.4375,.3125-.3027,.5273-.543,.6426-.7217,.1152-.1777,.1738-.3701,.1738-.5771,0-.1885-.0625-.3369-.1875-.4434s-.2979-.1602-.5215-.1602c-.1475,0-.3086,.0264-.4805,.0781-.1719,.0527-.3408,.1328-.5059,.2402h-.0234v-.5137c.1152-.0566,.2695-.1084,.4629-.1562,.1914-.0469,.3789-.0703,.5596-.0703,.3721,0,.665,.0898,.876,.2695,.2119,.1797,.3184,.4238,.3184,.7314,0,.1387-.0176,.2676-.0527,.3867-.0352,.1201-.0869,.2334-.1553,.3408-.0635,.1006-.1377,.2002-.2236,.2979s-.1895,.2061-.3105,.3252c-.1748,.1699-.3545,.3359-.54,.4961s-.3584,.3086-.5205,.4453h1.9561v.418Z"/><path class="cls-4" d="M156.0324,142.1406c0,.6523-.1025,1.1309-.3057,1.4365-.2051,.3047-.5215,.458-.9512,.458-.4365,0-.7559-.1553-.957-.4648-.2002-.3086-.3008-.7842-.3008-1.4258,0-.6455,.1016-1.123,.3047-1.4316,.2041-.3086,.5215-.4629,.9531-.4629,.4355,0,.7539,.1572,.9551,.4707s.3018,.7861,.3018,1.4199Zm-.6416,1.1074c.0566-.1309,.0957-.2861,.1152-.4648,.0205-.1777,.0312-.3926,.0312-.6426,0-.248-.0107-.4629-.0312-.6445-.0195-.1826-.0596-.3379-.1182-.4648-.0576-.125-.1348-.2188-.2334-.2832-.0977-.0625-.2246-.0947-.3789-.0947-.1533,0-.2793,.0322-.3809,.0947-.0996,.0645-.1787,.1602-.2373,.2891-.0557,.1201-.0928,.2773-.1143,.4707-.0195,.1934-.0293,.4062-.0293,.6367,0,.2539,.0078,.4668,.0264,.6377s.0557,.3242,.1143,.459c.0547,.127,.1309,.2236,.2285,.29,.0986,.0674,.2295,.1006,.3926,.1006,.1523,0,.2793-.0322,.3809-.0947,.1006-.0645,.1787-.1602,.2344-.2891Z"/><path class="cls-4" d="M159.008,143.959h-1.9668v-.3711h.7559v-2.4365h-.7559v-.332c.1016,0,.2119-.0088,.3291-.0254,.1172-.0176,.2061-.042,.2666-.0752,.0742-.04,.1328-.0918,.1758-.1543,.0439-.0625,.0684-.1475,.0752-.2529h.3779v3.2764h.7422v.3711Z"/><path class="cls-4" d="M162.4045,140.8682l-1.6455,3.0908h-.5225l1.75-3.208h-2.0703v-.4268h2.4883v.5439Z"/></g><g><path class="cls-4" d="M181.2091,143.959h-2.4609v-.5098c.1709-.1465,.3428-.293,.5146-.4395,.1709-.1465,.3311-.293,.4795-.4375,.3125-.3027,.5264-.543,.6416-.7217,.1162-.1777,.1738-.3701,.1738-.5771,0-.1885-.0625-.3369-.1865-.4434-.125-.1064-.2988-.1602-.5215-.1602-.1484,0-.3086,.0264-.4814,.0781-.1719,.0527-.3408,.1328-.5049,.2402h-.0244v-.5137c.1152-.0566,.2695-.1084,.4629-.1562,.1924-.0469,.3789-.0703,.5596-.0703,.373,0,.665,.0898,.877,.2695,.2109,.1797,.3174,.4238,.3174,.7314,0,.1387-.0176,.2676-.0527,.3867-.0352,.1201-.0869,.2334-.1553,.3408-.0635,.1006-.1377,.2002-.2227,.2979-.0859,.0977-.1895,.2061-.3115,.3252-.1748,.1699-.3545,.3359-.54,.4961s-.3584,.3086-.5195,.4453h1.9551v.418Z"/><path class="cls-4" d="M184.383,142.1406c0,.6523-.1016,1.1309-.3057,1.4365-.2051,.3047-.5215,.458-.9512,.458-.4365,0-.7549-.1553-.9561-.4648-.2012-.3086-.3018-.7842-.3018-1.4258,0-.6455,.1016-1.123,.3057-1.4316,.2031-.3086,.5205-.4629,.9521-.4629,.4355,0,.7549,.1572,.9561,.4707,.2002,.3135,.3008,.7861,.3008,1.4199Zm-.6416,1.1074c.0566-.1309,.0957-.2861,.1162-.4648,.0195-.1777,.0303-.3926,.0303-.6426,0-.248-.0107-.4629-.0303-.6445-.0205-.1826-.0605-.3379-.1191-.4648-.0566-.125-.1348-.2188-.2324-.2832-.0986-.0625-.2256-.0947-.3799-.0947-.1533,0-.2793,.0322-.3799,.0947-.0996,.0645-.1797,.1602-.2383,.2891-.0547,.1201-.0928,.2773-.1133,.4707s-.0303,.4062-.0303,.6367c0,.2539,.0088,.4668,.0264,.6377,.0186,.1709,.0566,.3242,.1152,.459,.0537,.127,.1299,.2236,.2285,.29,.0977,.0674,.2285,.1006,.3916,.1006,.1523,0,.2793-.0322,.3809-.0947,.1006-.0645,.1787-.1602,.2344-.2891Z"/><path class="cls-4" d="M187.3595,143.959h-1.9678v-.3711h.7568v-2.4365h-.7568v-.332c.1025,0,.2119-.0088,.3291-.0254,.1172-.0176,.2061-.042,.2666-.0752,.0742-.04,.1338-.0918,.1768-.1543s.0684-.1475,.0742-.2529h.3789v3.2764h.7422v.3711Z"/><path class="cls-4" d="M190.7726,142.9453c0,.3145-.123,.5762-.3672,.7842-.2451,.208-.5537,.3125-.9248,.3125-.3936,0-.707-.1016-.9404-.3057-.2344-.2031-.3506-.4629-.3506-.7812,0-.2012,.0586-.3838,.1758-.5479,.1172-.1631,.2822-.293,.4951-.3896v-.0137c-.1953-.1045-.3398-.2188-.4326-.3418-.0938-.124-.1406-.2793-.1406-.4648,0-.2734,.1123-.501,.3369-.6836,.2246-.1816,.5098-.2734,.8564-.2734,.3633,0,.6533,.0879,.8691,.2617,.2168,.1738,.3252,.3955,.3252,.6641,0,.1641-.0518,.3262-.1543,.4844-.1025,.1592-.2529,.2832-.4512,.373v.0137c.2275,.0977,.4014,.2188,.5225,.3613,.1201,.1436,.1807,.3262,.1807,.5469Zm-.5029,.0469c0-.1494-.0332-.2695-.0986-.3604-.0664-.0898-.1953-.1807-.3877-.2725-.0762-.0352-.1602-.0684-.251-.0996-.0918-.0312-.2129-.0742-.3643-.1289-.1465,.0791-.2637,.1875-.3525,.3242s-.1328,.291-.1328,.4639c0,.2197,.0752,.4014,.2266,.5439,.1514,.1436,.3438,.2148,.5762,.2148,.2383,0,.4277-.0605,.5703-.1826s.2139-.29,.2139-.5029Zm-.0762-1.8213c0-.1738-.0664-.3125-.2012-.416-.1338-.1035-.3057-.1553-.5137-.1553-.2051,0-.373,.0488-.5039,.1465-.1318,.0977-.1973,.2295-.1973,.3955,0,.1172,.0332,.2188,.0996,.3037,.0654,.0859,.165,.1621,.2988,.2285,.0596,.0293,.1465,.0674,.2598,.1152,.1133,.0469,.2236,.0859,.3311,.1172,.1611-.1074,.2725-.2197,.334-.335,.0625-.1152,.0928-.249,.0928-.4004Z"/></g><g><path class="cls-4" d="M209.5607,143.959h-2.4609v-.5098c.1709-.1465,.3428-.293,.5146-.4395,.1709-.1465,.3311-.293,.4795-.4375,.3125-.3027,.5264-.543,.6416-.7217,.1162-.1777,.1738-.3701,.1738-.5771,0-.1885-.0625-.3369-.1865-.4434-.125-.1064-.2988-.1602-.5215-.1602-.1484,0-.3086,.0264-.4814,.0781-.1719,.0527-.3408,.1328-.5049,.2402h-.0244v-.5137c.1152-.0566,.2695-.1084,.4629-.1562,.1924-.0469,.3789-.0703,.5596-.0703,.373,0,.665,.0898,.877,.2695,.2109,.1797,.3174,.4238,.3174,.7314,0,.1387-.0176,.2676-.0527,.3867-.0352,.1201-.0869,.2334-.1553,.3408-.0635,.1006-.1377,.2002-.2227,.2979-.0859,.0977-.1895,.2061-.3115,.3252-.1748,.1699-.3545,.3359-.54,.4961s-.3584,.3086-.5195,.4453h1.9551v.418Z"/><path class="cls-4" d="M212.7345,142.1406c0,.6523-.1016,1.1309-.3057,1.4365-.2051,.3047-.5215,.458-.9512,.458-.4365,0-.7549-.1553-.9561-.4648-.2012-.3086-.3018-.7842-.3018-1.4258,0-.6455,.1016-1.123,.3057-1.4316,.2031-.3086,.5205-.4629,.9521-.4629,.4355,0,.7549,.1572,.9561,.4707,.2002,.3135,.3008,.7861,.3008,1.4199Zm-.6416,1.1074c.0566-.1309,.0957-.2861,.1162-.4648,.0195-.1777,.0303-.3926,.0303-.6426,0-.248-.0107-.4629-.0303-.6445-.0205-.1826-.0605-.3379-.1191-.4648-.0566-.125-.1348-.2188-.2324-.2832-.0986-.0625-.2256-.0947-.3799-.0947-.1533,0-.2793,.0322-.3799,.0947-.0996,.0645-.1797,.1602-.2383,.2891-.0547,.1201-.0928,.2773-.1133,.4707s-.0303,.4062-.0303,.6367c0,.2539,.0088,.4668,.0264,.6377,.0186,.1709,.0566,.3242,.1152,.459,.0537,.127,.1299,.2236,.2285,.29,.0977,.0674,.2285,.1006,.3916,.1006,.1523,0,.2793-.0322,.3809-.0947,.1006-.0645,.1787-.1602,.2344-.2891Z"/><path class="cls-4" d="M215.7111,143.959h-1.9678v-.3711h.7568v-2.4365h-.7568v-.332c.1025,0,.2119-.0088,.3291-.0254,.1172-.0176,.2061-.042,.2666-.0752,.0742-.04,.1338-.0918,.1768-.1543s.0684-.1475,.0742-.2529h.3789v3.2764h.7422v.3711Z"/><path class="cls-4" d="M219.092,141.9229c0,.3174-.0361,.6055-.1084,.8643s-.1816,.4795-.3281,.6621c-.1484,.1855-.334,.3281-.5566,.4297-.2236,.1006-.4854,.1504-.7861,.1504-.085,0-.165-.0039-.2393-.0127-.0752-.0088-.1416-.0234-.2002-.043v-.4658h.0244c.0469,.0234,.1133,.0469,.2002,.0693,.0859,.0215,.1816,.0322,.2881,.0322,.3594,0,.6416-.1074,.8457-.3232s.3223-.5127,.3555-.8916c-.1514,.0908-.2939,.1562-.4277,.1953-.1328,.0391-.2793,.0586-.4365,.0586-.1504,0-.2852-.0156-.4062-.0449-.1221-.0293-.2432-.0859-.3652-.1699-.1436-.0996-.251-.2256-.3232-.3789-.0732-.1533-.1094-.3359-.1094-.5488,0-.3711,.1221-.6738,.3662-.9062s.542-.3496,.8936-.3496c.1758,0,.3389,.0273,.4883,.082,.1504,.0547,.2812,.1367,.3936,.2461,.1377,.1348,.2451,.3086,.3193,.5205,.0752,.2129,.1123,.4873,.1123,.8242Zm-.4932-.1045c0-.2529-.0254-.4551-.0781-.6084-.0518-.1533-.123-.2715-.2148-.3564-.0762-.0732-.1582-.126-.2461-.1572-.0879-.0322-.1836-.0479-.2861-.0479-.2344,0-.4189,.0732-.5547,.2197-.1367,.1465-.2041,.3525-.2041,.6182,0,.1543,.0215,.2803,.0654,.3779s.1182,.1826,.2227,.2568c.0732,.0498,.1533,.084,.2412,.1006,.0879,.0176,.1855,.0264,.293,.0264,.127,0,.2559-.0176,.3857-.0518,.1309-.0342,.2529-.084,.3662-.1494,.002-.0332,.0039-.0674,.0068-.1006,.002-.0332,.0029-.0762,.0029-.1279Z"/></g><g><path class="cls-4" d="M11.1027,143.959h-2.4609v-.5098c.1709-.1465,.3428-.293,.5146-.4395,.1709-.1465,.3311-.293,.4785-.4375,.3125-.3027,.5273-.543,.6426-.7217,.1152-.1777,.1738-.3701,.1738-.5771,0-.1885-.0625-.3369-.1875-.4434s-.2979-.1602-.5215-.1602c-.1475,0-.3086,.0264-.4805,.0781-.1719,.0527-.3408,.1328-.5059,.2402h-.0234v-.5137c.1152-.0566,.2695-.1084,.4629-.1562,.1914-.0469,.3789-.0703,.5596-.0703,.3721,0,.665,.0898,.876,.2695,.2119,.1797,.3184,.4238,.3184,.7314,0,.1387-.0176,.2676-.0527,.3867-.0352,.1201-.0869,.2334-.1553,.3408-.0635,.1006-.1377,.2002-.2236,.2979s-.1895,.2061-.3105,.3252c-.1748,.1699-.3545,.3359-.54,.4961s-.3584,.3086-.5205,.4453h1.9561v.418Z"/><path class="cls-4" d="M14.2765,142.1406c0,.6523-.1025,1.1309-.3057,1.4365-.2051,.3047-.5215,.458-.9512,.458-.4365,0-.7559-.1553-.957-.4648-.2002-.3086-.3008-.7842-.3008-1.4258,0-.6455,.1016-1.123,.3047-1.4316,.2041-.3086,.5215-.4629,.9531-.4629,.4355,0,.7539,.1572,.9551,.4707s.3018,.7861,.3018,1.4199Zm-.6416,1.1074c.0566-.1309,.0957-.2861,.1152-.4648,.0205-.1777,.0312-.3926,.0312-.6426,0-.248-.0107-.4629-.0312-.6445-.0195-.1826-.0596-.3379-.1182-.4648-.0576-.125-.1348-.2188-.2334-.2832-.0977-.0625-.2246-.0947-.3789-.0947-.1533,0-.2793,.0322-.3809,.0947-.0996,.0645-.1787,.1602-.2373,.2891-.0557,.1201-.0928,.2773-.1143,.4707-.0195,.1934-.0293,.4062-.0293,.6367,0,.2539,.0078,.4668,.0264,.6377s.0557,.3242,.1143,.459c.0547,.127,.1309,.2236,.2285,.29,.0986,.0674,.2295,.1006,.3926,.1006,.1523,0,.2793-.0322,.3809-.0947,.1006-.0645,.1787-.1602,.2344-.2891Z"/><path class="cls-4" d="M17.2521,143.959h-1.9668v-.3711h.7559v-2.4365h-.7559v-.332c.1016,0,.2119-.0088,.3291-.0254,.1172-.0176,.2061-.042,.2666-.0752,.0742-.04,.1328-.0918,.1758-.1543,.0439-.0625,.0684-.1475,.0752-.2529h.3779v3.2764h.7422v.3711Z"/><path class="cls-4" d="M20.6388,143.959h-2.4609v-.5098c.1709-.1465,.3418-.293,.5137-.4395s.332-.293,.4805-.4375c.3125-.3027,.5254-.543,.6416-.7217,.1162-.1777,.1729-.3701,.1729-.5771,0-.1885-.0625-.3369-.1855-.4434-.125-.1064-.2988-.1602-.5215-.1602-.1484,0-.3086,.0264-.4814,.0781-.1729,.0527-.3408,.1328-.5049,.2402h-.0254v-.5137c.1162-.0566,.2695-.1084,.4629-.1562,.1934-.0469,.3799-.0703,.5605-.0703,.373,0,.665,.0898,.877,.2695,.2109,.1797,.3164,.4238,.3164,.7314,0,.1387-.0176,.2676-.0527,.3867-.0342,.1201-.0859,.2334-.1543,.3408-.0635,.1006-.1387,.2002-.2227,.2979-.0859,.0977-.1895,.2061-.3125,.3252-.1738,.1699-.3535,.3359-.5391,.4961s-.3594,.3086-.5195,.4453h1.9551v.418Z"/></g><g><path class="cls-4" d="M39.4543,143.959h-2.4609v-.5098c.1709-.1465,.3418-.293,.5137-.4395s.332-.293,.4795-.4375c.3125-.3027,.5264-.543,.6426-.7217,.1152-.1777,.1729-.3701,.1729-.5771,0-.1885-.0625-.3369-.1865-.4434-.125-.1064-.2979-.1602-.5215-.1602-.1475,0-.3086,.0264-.4805,.0781-.1729,.0527-.3408,.1328-.5059,.2402h-.0244v-.5137c.1162-.0566,.2695-.1084,.4629-.1562,.1924-.0469,.3799-.0703,.5605-.0703,.3721,0,.665,.0898,.876,.2695,.2119,.1797,.3174,.4238,.3174,.7314,0,.1387-.0176,.2676-.0527,.3867-.0342,.1201-.0859,.2334-.1543,.3408-.0635,.1006-.1387,.2002-.2236,.2979-.0859,.0977-.1895,.2061-.3115,.3252-.1738,.1699-.3535,.3359-.5391,.4961s-.3594,.3086-.5205,.4453h1.9561v.418Z"/><path class="cls-4" d="M42.6281,142.1406c0,.6523-.1025,1.1309-.3066,1.4365-.2041,.3047-.5215,.458-.9512,.458-.4355,0-.7549-.1553-.9561-.4648-.2002-.3086-.3008-.7842-.3008-1.4258,0-.6455,.1016-1.123,.3047-1.4316,.2041-.3086,.5215-.4629,.9521-.4629,.4365,0,.7549,.1572,.9561,.4707s.3018,.7861,.3018,1.4199Zm-.6426,1.1074c.0576-.1309,.0957-.2861,.1162-.4648,.0205-.1777,.0303-.3926,.0303-.6426,0-.248-.0098-.4629-.0303-.6445-.0205-.1826-.0596-.3379-.1182-.4648-.0576-.125-.1348-.2188-.2334-.2832-.0986-.0625-.2246-.0947-.3799-.0947-.1523,0-.2793,.0322-.3799,.0947-.0996,.0645-.1787,.1602-.2373,.2891-.0557,.1201-.0938,.2773-.1143,.4707-.0195,.1934-.0303,.4062-.0303,.6367,0,.2539,.0088,.4668,.0273,.6377,.0176,.1709,.0557,.3242,.1143,.459,.0537,.127,.1299,.2236,.2285,.29,.0986,.0674,.2295,.1006,.3916,.1006,.1533,0,.2803-.0322,.3809-.0947,.1016-.0645,.1797-.1602,.2344-.2891Z"/><path class="cls-4" d="M45.6037,143.959h-1.9678v-.3711h.7568v-2.4365h-.7568v-.332c.1025,0,.2129-.0088,.3301-.0254,.1172-.0176,.2061-.042,.2656-.0752,.0752-.04,.1338-.0918,.1768-.1543,.0439-.0625,.0684-.1475,.0752-.2529h.3779v3.2764h.7422v.3711Z"/><path class="cls-4" d="M48.6701,142.209c.0781,.0693,.1426,.1572,.1934,.2637,.0498,.1055,.0752,.2422,.0752,.4102,0,.166-.0303,.3174-.0898,.4561-.0605,.1387-.1455,.2588-.2539,.3613-.1221,.1143-.2656,.1982-.4316,.2529-.165,.0547-.3457,.082-.543,.082-.2012,0-.4004-.0244-.5957-.0723s-.3555-.1006-.4805-.1582v-.5098h.0361c.1387,.0908,.3018,.167,.4883,.2266,.1875,.0605,.3682,.0908,.542,.0908,.1025,0,.2119-.0166,.3271-.0518,.1162-.0332,.209-.084,.2812-.1504,.0742-.0723,.1299-.1514,.167-.2373,.0361-.0859,.0547-.1953,.0547-.3271,0-.1299-.0205-.2383-.0625-.3232-.041-.0859-.0986-.1533-.1719-.2021-.0732-.0498-.1621-.085-.2656-.1035-.1045-.0186-.2168-.0273-.3369-.0273h-.2197v-.4062h.1709c.2471,0,.4443-.0508,.5918-.1543s.2207-.2549,.2207-.4531c0-.0879-.0186-.165-.0557-.2305-.0381-.0664-.0898-.1201-.1562-.1621-.0703-.043-.1455-.0723-.2246-.0879-.0801-.0166-.1699-.0254-.2715-.0254-.1543,0-.3184,.0283-.4932,.084-.1738,.0547-.3379,.1328-.4932,.2344h-.0244v-.5107c.1162-.0566,.2695-.1094,.4629-.1572,.1924-.0479,.3799-.0723,.5605-.0723,.1768,0,.333,.0166,.4688,.0488,.1348,.0322,.2568,.085,.3662,.1562,.1172,.0781,.2061,.1729,.2656,.2832,.0605,.1104,.0908,.2402,.0908,.3887,0,.2012-.0713,.3779-.2139,.5283s-.3105,.2451-.5039,.2842v.0342c.0781,.0127,.167,.04,.2686,.082,.1006,.041,.1865,.0928,.2559,.1553Z"/></g><g><path class="cls-4" d="M67.8048,143.959h-2.4609v-.5098c.1709-.1465,.3428-.293,.5146-.4395,.1709-.1465,.3311-.293,.4795-.4375,.3125-.3027,.5264-.543,.6416-.7217,.1162-.1777,.1738-.3701,.1738-.5771,0-.1885-.0625-.3369-.1865-.4434-.125-.1064-.2988-.1602-.5215-.1602-.1484,0-.3086,.0264-.4814,.0781-.1719,.0527-.3408,.1328-.5049,.2402h-.0244v-.5137c.1152-.0566,.2695-.1084,.4629-.1562,.1924-.0469,.3789-.0703,.5596-.0703,.373,0,.665,.0898,.877,.2695,.2109,.1797,.3174,.4238,.3174,.7314,0,.1387-.0176,.2676-.0527,.3867-.0352,.1201-.0869,.2334-.1553,.3408-.0635,.1006-.1377,.2002-.2227,.2979-.0859,.0977-.1895,.2061-.3115,.3252-.1748,.1699-.3545,.3359-.54,.4961s-.3584,.3086-.5195,.4453h1.9551v.418Z"/><path class="cls-4" d="M70.9787,142.1406c0,.6523-.1016,1.1309-.3057,1.4365-.2051,.3047-.5215,.458-.9512,.458-.4365,0-.7549-.1553-.9561-.4648-.2012-.3086-.3018-.7842-.3018-1.4258,0-.6455,.1016-1.123,.3057-1.4316,.2031-.3086,.5205-.4629,.9521-.4629,.4355,0,.7549,.1572,.9561,.4707,.2002,.3135,.3008,.7861,.3008,1.4199Zm-.6416,1.1074c.0566-.1309,.0957-.2861,.1162-.4648,.0195-.1777,.0303-.3926,.0303-.6426,0-.248-.0107-.4629-.0303-.6445-.0205-.1826-.0605-.3379-.1191-.4648-.0566-.125-.1348-.2188-.2324-.2832-.0986-.0625-.2256-.0947-.3799-.0947-.1533,0-.2793,.0322-.3799,.0947-.0996,.0645-.1797,.1602-.2383,.2891-.0547,.1201-.0928,.2773-.1133,.4707s-.0303,.4062-.0303,.6367c0,.2539,.0088,.4668,.0264,.6377,.0186,.1709,.0566,.3242,.1152,.459,.0537,.127,.1299,.2236,.2285,.29,.0977,.0674,.2285,.1006,.3916,.1006,.1523,0,.2793-.0322,.3809-.0947,.1006-.0645,.1787-.1602,.2344-.2891Z"/><path class="cls-4" d="M73.9552,143.959h-1.9678v-.3711h.7568v-2.4365h-.7568v-.332c.1025,0,.2119-.0088,.3291-.0254,.1172-.0176,.2061-.042,.2666-.0752,.0742-.04,.1338-.0918,.1768-.1543s.0684-.1475,.0742-.2529h.3789v3.2764h.7422v.3711Z"/><path class="cls-4" d="M77.424,142.9355h-.5391v1.0234h-.4688v-1.0234h-1.7412v-.5605l1.7607-2.0508h.4492v2.2207h.5391v.3906Zm-1.0078-.3906v-1.6406l-1.4092,1.6406h1.4092Z"/></g><g><path class="cls-4" d="M96.1564,143.959h-2.4609v-.5098c.1699-.1465,.3418-.293,.5137-.4395s.332-.293,.4795-.4375c.3125-.3027,.5264-.543,.6416-.7217,.1162-.1777,.1738-.3701,.1738-.5771,0-.1885-.0625-.3369-.1865-.4434-.125-.1064-.2979-.1602-.5215-.1602-.1475,0-.3086,.0264-.4814,.0781-.1719,.0527-.3398,.1328-.5049,.2402h-.0244v-.5137c.1152-.0566,.2695-.1084,.4629-.1562,.1924-.0469,.3789-.0703,.5605-.0703,.3721,0,.6641,.0898,.876,.2695s.3174,.4238,.3174,.7314c0,.1387-.0176,.2676-.0527,.3867-.0352,.1201-.0859,.2334-.1543,.3408-.0645,.1006-.1387,.2002-.2236,.2979-.0859,.0977-.1895,.2061-.3115,.3252-.1738,.1699-.3535,.3359-.5391,.4961s-.3594,.3086-.5205,.4453h1.9561v.418Z"/><path class="cls-4" d="M99.3302,142.1406c0,.6523-.1025,1.1309-.3066,1.4365-.2051,.3047-.5215,.458-.9512,.458-.4355,0-.7549-.1553-.9561-.4648-.2002-.3086-.3018-.7842-.3018-1.4258,0-.6455,.1016-1.123,.3057-1.4316s.5205-.4629,.9521-.4629c.4355,0,.7549,.1572,.9561,.4707,.2002,.3135,.3018,.7861,.3018,1.4199Zm-.6426,1.1074c.0566-.1309,.0957-.2861,.1162-.4648,.0205-.1777,.0303-.3926,.0303-.6426,0-.248-.0098-.4629-.0303-.6445-.0205-.1826-.0596-.3379-.1182-.4648-.0576-.125-.1348-.2188-.2334-.2832-.0986-.0625-.2256-.0947-.3799-.0947-.1523,0-.2793,.0322-.3799,.0947-.0996,.0645-.1787,.1602-.2373,.2891-.0557,.1201-.0938,.2773-.1143,.4707s-.0303,.4062-.0303,.6367c0,.2539,.0088,.4668,.0273,.6377,.0176,.1709,.0557,.3242,.1143,.459,.0537,.127,.1299,.2236,.2285,.29,.0986,.0674,.2295,.1006,.3916,.1006,.1523,0,.2793-.0322,.3809-.0947,.1016-.0645,.1797-.1602,.2344-.2891Z"/><path class="cls-4" d="M102.3058,143.959h-1.9678v-.3711h.7568v-2.4365h-.7568v-.332c.1025,0,.2129-.0088,.3301-.0254,.1172-.0176,.2051-.042,.2656-.0752,.0742-.04,.1338-.0918,.1768-.1543,.0439-.0625,.0684-.1475,.0752-.2529h.3779v3.2764h.7422v.3711Z"/><path class="cls-4" d="M105.6623,142.8047c0,.1689-.0303,.3311-.0918,.4854-.0625,.1543-.1465,.2852-.2539,.3906-.1172,.1143-.2578,.2012-.4189,.2627-.1621,.0605-.3496,.0918-.5635,.0918-.1982,0-.3887-.0215-.5732-.0625-.1846-.042-.3389-.0918-.4658-.1504v-.5156h.0332c.1338,.085,.29,.1572,.4688,.2168,.1797,.0596,.3555,.0889,.5273,.0889,.1162,0,.2285-.0166,.3359-.0488,.1084-.0322,.2051-.0898,.2891-.1709,.0723-.0703,.126-.1543,.1631-.252,.0361-.0977,.0547-.21,.0547-.3389,0-.125-.0215-.2314-.0645-.3174-.0439-.0859-.1025-.1553-.1797-.207-.085-.0625-.1875-.1055-.3086-.1309-.1221-.0254-.2568-.0381-.4072-.0381-.1426,0-.2812,.0098-.4131,.0293-.1328,.0195-.2471,.0391-.3428,.0586v-1.8721h2.1875v.4268h-1.7168v.9668c.0703-.0068,.1416-.0117,.2148-.0146s.1367-.0049,.1904-.0049c.1963,0,.3701,.0166,.5176,.0498s.2842,.0928,.4072,.1777c.1309,.0889,.2314,.2051,.3027,.3457,.0723,.1426,.1074,.3193,.1074,.5332Z"/></g><g><path class="cls-4" d="M237.9113,143.959h-2.4609v-.5098c.1709-.1465,.3428-.293,.5146-.4395,.1709-.1465,.3311-.293,.4795-.4375,.3125-.3027,.5264-.543,.6416-.7217,.1162-.1777,.1738-.3701,.1738-.5771,0-.1885-.0625-.3369-.1865-.4434-.125-.1064-.2988-.1602-.5215-.1602-.1484,0-.3086,.0264-.4814,.0781-.1719,.0527-.3408,.1328-.5049,.2402h-.0244v-.5137c.1152-.0566,.2695-.1084,.4629-.1562,.1924-.0469,.3789-.0703,.5596-.0703,.373,0,.665,.0898,.877,.2695,.2109,.1797,.3174,.4238,.3174,.7314,0,.1387-.0176,.2676-.0527,.3867-.0352,.1201-.0869,.2334-.1553,.3408-.0635,.1006-.1377,.2002-.2227,.2979-.0859,.0977-.1895,.2061-.3115,.3252-.1748,.1699-.3545,.3359-.54,.4961s-.3584,.3086-.5195,.4453h1.9551v.418Z"/><path class="cls-4" d="M241.0851,142.1406c0,.6523-.1016,1.1309-.3057,1.4365-.2051,.3047-.5215,.458-.9512,.458-.4365,0-.7549-.1553-.9561-.4648-.2012-.3086-.3018-.7842-.3018-1.4258,0-.6455,.1016-1.123,.3057-1.4316,.2031-.3086,.5205-.4629,.9521-.4629,.4355,0,.7549,.1572,.9561,.4707,.2002,.3135,.3008,.7861,.3008,1.4199Zm-.6416,1.1074c.0566-.1309,.0957-.2861,.1162-.4648,.0195-.1777,.0303-.3926,.0303-.6426,0-.248-.0107-.4629-.0303-.6445-.0205-.1826-.0605-.3379-.1191-.4648-.0566-.125-.1348-.2188-.2324-.2832-.0986-.0625-.2256-.0947-.3799-.0947-.1533,0-.2793,.0322-.3799,.0947-.0996,.0645-.1797,.1602-.2383,.2891-.0547,.1201-.0928,.2773-.1133,.4707s-.0303,.4062-.0303,.6367c0,.2539,.0088,.4668,.0264,.6377,.0186,.1709,.0566,.3242,.1152,.459,.0537,.127,.1299,.2236,.2285,.29,.0977,.0674,.2285,.1006,.3916,.1006,.1523,0,.2793-.0322,.3809-.0947,.1006-.0645,.1787-.1602,.2344-.2891Z"/><path class="cls-4" d="M244.2687,143.959h-2.4609v-.5098c.1709-.1465,.3428-.293,.5146-.4395,.1709-.1465,.3311-.293,.4795-.4375,.3125-.3027,.5264-.543,.6416-.7217,.1162-.1777,.1738-.3701,.1738-.5771,0-.1885-.0625-.3369-.1865-.4434-.125-.1064-.2988-.1602-.5215-.1602-.1484,0-.3086,.0264-.4814,.0781-.1719,.0527-.3408,.1328-.5049,.2402h-.0244v-.5137c.1152-.0566,.2695-.1084,.4629-.1562,.1924-.0469,.3789-.0703,.5596-.0703,.373,0,.665,.0898,.877,.2695,.2109,.1797,.3174,.4238,.3174,.7314,0,.1387-.0176,.2676-.0527,.3867-.0352,.1201-.0869,.2334-.1553,.3408-.0635,.1006-.1377,.2002-.2227,.2979-.0859,.0977-.1895,.2061-.3115,.3252-.1748,.1699-.3545,.3359-.54,.4961s-.3584,.3086-.5195,.4453h1.9551v.418Z"/><path class="cls-4" d="M247.4425,142.1406c0,.6523-.1016,1.1309-.3057,1.4365-.2051,.3047-.5215,.458-.9512,.458-.4365,0-.7549-.1553-.9561-.4648-.2012-.3086-.3018-.7842-.3018-1.4258,0-.6455,.1016-1.123,.3057-1.4316,.2031-.3086,.5205-.4629,.9521-.4629,.4355,0,.7549,.1572,.9561,.4707,.2002,.3135,.3008,.7861,.3008,1.4199Zm-.6416,1.1074c.0566-.1309,.0957-.2861,.1162-.4648,.0195-.1777,.0303-.3926,.0303-.6426,0-.248-.0107-.4629-.0303-.6445-.0205-.1826-.0605-.3379-.1191-.4648-.0566-.125-.1348-.2188-.2324-.2832-.0986-.0625-.2256-.0947-.3799-.0947-.1533,0-.2793,.0322-.3799,.0947-.0996,.0645-.1797,.1602-.2383,.2891-.0547,.1201-.0928,.2773-.1133,.4707s-.0303,.4062-.0303,.6367c0,.2539,.0088,.4668,.0264,.6377,.0186,.1709,.0566,.3242,.1152,.459,.0537,.127,.1299,.2236,.2285,.29,.0977,.0674,.2285,.1006,.3916,.1006,.1523,0,.2793-.0322,.3809-.0947,.1006-.0645,.1787-.1602,.2344-.2891Z"/></g><g><path class="cls-4" d="M266.2629,143.959h-2.4609v-.5098c.1709-.1465,.3428-.293,.5146-.4395,.1709-.1465,.3311-.293,.4785-.4375,.3125-.3027,.5273-.543,.6426-.7217,.1152-.1777,.1738-.3701,.1738-.5771,0-.1885-.0625-.3369-.1875-.4434s-.2979-.1602-.5215-.1602c-.1475,0-.3086,.0264-.4805,.0781-.1719,.0527-.3408,.1328-.5059,.2402h-.0234v-.5137c.1152-.0566,.2695-.1084,.4629-.1562,.1914-.0469,.3789-.0703,.5596-.0703,.3721,0,.665,.0898,.876,.2695,.2119,.1797,.3184,.4238,.3184,.7314,0,.1387-.0176,.2676-.0527,.3867-.0352,.1201-.0869,.2334-.1553,.3408-.0635,.1006-.1377,.2002-.2236,.2979s-.1895,.2061-.3105,.3252c-.1748,.1699-.3545,.3359-.54,.4961s-.3584,.3086-.5205,.4453h1.9561v.418Z"/><path class="cls-4" d="M269.4367,142.1406c0,.6523-.1025,1.1309-.3057,1.4365-.2051,.3047-.5215,.458-.9512,.458-.4365,0-.7559-.1553-.957-.4648-.2002-.3086-.3008-.7842-.3008-1.4258,0-.6455,.1016-1.123,.3047-1.4316,.2041-.3086,.5215-.4629,.9531-.4629,.4355,0,.7539,.1572,.9551,.4707s.3018,.7861,.3018,1.4199Zm-.6416,1.1074c.0566-.1309,.0957-.2861,.1152-.4648,.0205-.1777,.0312-.3926,.0312-.6426,0-.248-.0107-.4629-.0312-.6445-.0195-.1826-.0596-.3379-.1182-.4648-.0576-.125-.1348-.2188-.2334-.2832-.0977-.0625-.2246-.0947-.3789-.0947-.1533,0-.2793,.0322-.3809,.0947-.0996,.0645-.1787,.1602-.2373,.2891-.0557,.1201-.0928,.2773-.1143,.4707-.0195,.1934-.0293,.4062-.0293,.6367,0,.2539,.0078,.4668,.0264,.6377s.0557,.3242,.1143,.459c.0547,.127,.1309,.2236,.2285,.29,.0986,.0674,.2295,.1006,.3926,.1006,.1523,0,.2793-.0322,.3809-.0947,.1006-.0645,.1787-.1602,.2344-.2891Z"/><path class="cls-4" d="M272.6203,143.959h-2.4609v-.5098c.1709-.1465,.3428-.293,.5146-.4395,.1709-.1465,.3311-.293,.4785-.4375,.3125-.3027,.5273-.543,.6426-.7217,.1152-.1777,.1738-.3701,.1738-.5771,0-.1885-.0625-.3369-.1875-.4434s-.2979-.1602-.5215-.1602c-.1475,0-.3086,.0264-.4805,.0781-.1719,.0527-.3408,.1328-.5059,.2402h-.0234v-.5137c.1152-.0566,.2695-.1084,.4629-.1562,.1914-.0469,.3789-.0703,.5596-.0703,.3721,0,.665,.0898,.876,.2695,.2119,.1797,.3184,.4238,.3184,.7314,0,.1387-.0176,.2676-.0527,.3867-.0352,.1201-.0869,.2334-.1553,.3408-.0635,.1006-.1377,.2002-.2236,.2979s-.1895,.2061-.3105,.3252c-.1748,.1699-.3545,.3359-.54,.4961s-.3584,.3086-.5205,.4453h1.9561v.418Z"/><path class="cls-4" d="M275.592,143.959h-1.9688v-.3711h.7578v-2.4365h-.7578v-.332c.1035,0,.2129-.0088,.3301-.0254,.1172-.0176,.2061-.042,.2656-.0752,.0752-.04,.1348-.0918,.1777-.1543s.0684-.1475,.0742-.2529h.3789v3.2764h.7422v.3711Z"/></g><rect class="cls-5" x="28.4208" y="84.7518" width="28.1708" height="52"/><rect class="cls-5" x=".25" y="90.7518" width="28.1708" height="46"/><rect class="cls-5" x="56.5916" y="81.7518" width="28.1708" height="55"/><rect class="cls-5" x="84.7624" y="77.7518" width="28.1708" height="59"/><rect class="cls-5" x="112.9331" y="74.7518" width="28.1708" height="62"/><g><path class="cls-3" d="M40.5773,79.5625c.2822,.2217,.4248,.5322,.4248,.9316,0,.248-.0586,.4697-.1738,.665-.1172,.1953-.291,.3496-.5234,.4609-.2314,.1123-.5166,.168-.8545,.168-.3057,0-.5947-.0498-.8701-.1494s-.4961-.2334-.6621-.4004l.2129-.3477c.1426,.1465,.3301,.2656,.5625,.3574s.4824,.1377,.751,.1377c.3545,0,.6279-.0801,.8213-.2383,.1934-.1592,.29-.3711,.29-.6357,0-.293-.1084-.5146-.3271-.665-.2168-.1514-.585-.2266-1.1016-.2266h-.9102l.2197-2.1436h2.3389v.3906h-1.9541l-.1465,1.3623h.5498c.6191,0,1.0693,.1113,1.3525,.333Z"/><path class="cls-3" d="M42.1252,81.2109c.0615,.0635,.0918,.1416,.0918,.2354,0,.0488-.0078,.1016-.0215,.1592-.0137,.0566-.0352,.1221-.0645,.1953l-.2559,.8428h-.293l.207-.8857c-.0645-.0205-.1172-.0576-.1582-.1133-.041-.0547-.0615-.1211-.0615-.1982,0-.0938,.0303-.1719,.0918-.2354,.0615-.0625,.1377-.0947,.2314-.0947s.1719,.0322,.2324,.0947Z"/><path class="cls-3" d="M45.8322,81.3613v.3906h-2.998v-.3115l1.7764-1.7402c.2236-.2207,.376-.4102,.4551-.5713s.1191-.3232,.1191-.4854c0-.2529-.0869-.4492-.2598-.5898s-.4209-.2109-.7412-.2109c-.502,0-.8906,.1592-1.167,.4766l-.3115-.2686c.167-.1953,.3799-.3457,.6387-.4521,.2578-.1055,.5508-.1582,.876-.1582,.4355,0,.7803,.1025,1.0352,.3086,.2549,.2051,.3818,.4873,.3818,.8457,0,.2197-.0488,.4316-.1465,.6348-.0977,.2041-.2832,.4375-.5566,.7021l-1.4531,1.4297h2.3516Z"/></g><g><path class="cls-3" d="M14.1847,86.8174h-.8545v1.123h-.4395v-1.123h-2.4131v-.3184l2.2656-2.833h.4893l-2.1865,2.7598h1.8564v-.9893h.4277v.9893h.8545v.3916Z"/><path class="cls-3" d="M15.2785,87.4004c.0605,.0625,.0908,.1416,.0908,.2354,0,.0488-.0068,.1016-.0215,.1582-.0137,.0576-.0352,.1221-.0635,.1953l-.2568,.8428h-.293l.208-.8848c-.0654-.0205-.1182-.0586-.1592-.1133s-.0615-.1211-.0615-.1982c0-.0938,.0312-.1729,.0918-.2354,.0615-.0635,.1387-.0947,.2324-.0947s.1709,.0312,.2324,.0947Z"/><path class="cls-3" d="M18.4572,85.541c.2178,.1055,.3877,.2549,.5098,.4482s.1826,.4189,.1826,.6748c0,.2607-.0625,.4912-.1895,.6904-.126,.1992-.2998,.3535-.5215,.4609-.2227,.1084-.4717,.1621-.748,.1621-.5664,0-1-.1865-1.3008-.5586-.3018-.373-.4521-.8994-.4521-1.5791,0-.4766,.0811-.8789,.2441-1.209s.3906-.5791,.6836-.748c.2939-.1689,.6357-.2539,1.0264-.2539,.4238,0,.7617,.0771,1.0137,.2324l-.1768,.3545c-.2041-.1348-.4805-.2021-.8311-.2021-.4717,0-.8428,.1494-1.1113,.4492-.2686,.2988-.4033,.7334-.4033,1.3037,0,.1016,.0068,.2178,.0186,.3477,.1064-.2314,.2754-.4121,.5068-.54,.2324-.1279,.499-.1924,.7998-.1924,.2812,0,.5303,.0527,.749,.1592Zm-.0312,1.8105c.1934-.1689,.29-.3945,.29-.6748,0-.2812-.0967-.5049-.29-.6719s-.4551-.251-.7842-.251c-.2158,0-.4062,.041-.5713,.123-.165,.0811-.2939,.1934-.3877,.335-.0938,.1426-.1406,.3018-.1406,.4766,0,.1631,.0439,.3135,.1309,.4521,.0879,.1387,.2168,.25,.3887,.3359,.1709,.0859,.374,.1279,.6104,.1279,.3096,0,.5605-.084,.7539-.2529Z"/></g><g><path class="cls-3" d="M68.3664,76.4531c.2832,.2227,.4248,.5322,.4248,.9316,0,.248-.0586,.4707-.1738,.666-.1162,.1953-.29,.3486-.5225,.4609s-.5176,.168-.8555,.168c-.3047,0-.5947-.0498-.8701-.1494-.2744-.1006-.4951-.2334-.6621-.4004l.2139-.3486c.1426,.1475,.3291,.2666,.5615,.3574,.2324,.0918,.4824,.1377,.751,.1377,.3545,0,.6279-.0791,.8213-.2383,.1934-.1582,.29-.3701,.29-.6348,0-.293-.1084-.5156-.3262-.666s-.5859-.2256-1.1025-.2256h-.9102l.2197-2.1436h2.3389v.3906h-1.9541l-.1465,1.3623h.5498c.6191,0,1.0693,.1104,1.3525,.332Z"/><path class="cls-3" d="M69.9152,78.1025c.0605,.0625,.0908,.1416,.0908,.2354,0,.0488-.0068,.1016-.0215,.1582-.0137,.0576-.0352,.1221-.0635,.1953l-.2568,.8428h-.293l.208-.8848c-.0654-.0205-.1182-.0586-.1592-.1133s-.0615-.1211-.0615-.1982c0-.0938,.0312-.1729,.0918-.2354,.0615-.0635,.1387-.0947,.2324-.0947s.1709,.0312,.2324,.0947Z"/><path class="cls-3" d="M73.1173,76.4531c.2832,.2227,.4248,.5322,.4248,.9316,0,.248-.0586,.4707-.1738,.666-.1162,.1953-.29,.3486-.5225,.4609s-.5176,.168-.8555,.168c-.3047,0-.5947-.0498-.8701-.1494-.2744-.1006-.4951-.2334-.6621-.4004l.2139-.3486c.1426,.1475,.3291,.2666,.5615,.3574,.2324,.0918,.4824,.1377,.751,.1377,.3545,0,.6279-.0791,.8213-.2383,.1934-.1582,.29-.3701,.29-.6348,0-.293-.1084-.5156-.3262-.666s-.5859-.2256-1.1025-.2256h-.9102l.2197-2.1436h2.3389v.3906h-1.9541l-.1465,1.3623h.5498c.6191,0,1.0693,.1104,1.3525,.332Z"/></g><g><path class="cls-3" d="M97.4064,72.5771c.2832,.2217,.4238,.5322,.4238,.9316,0,.248-.0576,.4697-.1738,.665-.1152,.1953-.2891,.3496-.5215,.4609-.2324,.1123-.5176,.168-.8555,.168-.3047,0-.5957-.0498-.8701-.1494s-.4951-.2334-.6631-.4004l.2148-.3477c.1426,.1465,.3291,.2656,.5615,.3574,.2314,.0918,.4824,.1377,.751,.1377,.3535,0,.6279-.0801,.8213-.2383,.1934-.1592,.29-.3711,.29-.6357,0-.293-.1094-.5146-.3262-.665-.2188-.1514-.5859-.2266-1.1025-.2266h-.9102l.2197-2.1436h2.3389v.3906h-1.9541l-.1465,1.3623h.5498c.6182,0,1.0693,.1113,1.3525,.333Z"/><path class="cls-3" d="M98.9552,74.2256c.0605,.0635,.0908,.1416,.0908,.2354,0,.0488-.0068,.1016-.0215,.1592-.0146,.0566-.0361,.1221-.0635,.1953l-.2568,.8428h-.2939l.209-.8857c-.0664-.0205-.1191-.0576-.1602-.1133-.04-.0547-.0605-.1211-.0605-.1982,0-.0938,.0312-.1719,.0918-.2354,.0605-.0625,.1387-.0947,.2324-.0947s.1699,.0322,.2324,.0947Z"/><path class="cls-3" d="M102.3127,71.0137c.3018,.3721,.4521,.8984,.4521,1.5781,0,.4766-.0811,.8799-.2441,1.21-.1631,.3291-.3906,.5791-.6846,.748-.293,.1689-.6348,.2529-1.0254,.2529-.4238,0-.7617-.0771-1.0137-.2314l.1777-.3545c.2031,.1348,.4795,.2012,.8301,.2012,.4727,0,.8428-.1494,1.1113-.4482,.2686-.2998,.4023-.7344,.4023-1.3037,0-.1064-.0059-.2227-.0176-.3486-.1055,.2324-.2754,.4121-.5068,.541-.2314,.1279-.499,.1924-.7998,.1924-.2812,0-.5312-.0537-.748-.1592-.2188-.1055-.3887-.2559-.5098-.4492-.123-.1934-.1836-.418-.1836-.6748,0-.2607,.0625-.4902,.1895-.6895,.126-.2002,.2998-.3535,.5215-.4619,.2227-.1074,.4717-.1611,.748-.1611,.5664,0,1,.1855,1.3008,.5586Zm-.6807,1.542c.165-.0811,.2939-.1934,.3877-.3359s.1406-.3008,.1406-.4766c0-.1621-.043-.3135-.1309-.4521-.0879-.1377-.2168-.25-.3887-.335-.1699-.0859-.374-.1289-.6104-.1289-.3096,0-.5605,.085-.7539,.2539s-.29,.3936-.29,.6748c0,.2803,.0967,.5049,.29,.6719s.4551,.25,.7842,.25c.2168,0,.4062-.041,.5713-.1221Z"/></g><g><path class="cls-3" d="M124.5529,69.2578c.2178,.1055,.3877,.2549,.5098,.4482s.1836,.4189,.1836,.6748c0,.2607-.0635,.4912-.1895,.6904-.127,.1992-.3008,.3535-.5225,.4609-.2217,.1084-.4717,.1621-.748,.1621-.5654,0-.999-.1865-1.3008-.5586-.3018-.373-.4521-.8994-.4521-1.5791,0-.4766,.082-.8789,.2441-1.209,.1631-.3301,.3906-.5791,.6836-.748,.2939-.1689,.6357-.2539,1.0273-.2539,.4229,0,.7607,.0771,1.0137,.2324l-.1777,.3545c-.2031-.1348-.4805-.2021-.8301-.2021-.4727,0-.8438,.1494-1.1113,.4492-.2695,.2988-.4043,.7334-.4043,1.3037,0,.1016,.0068,.2178,.0195,.3477,.1055-.2314,.2744-.4121,.5059-.54,.2324-.1279,.499-.1924,.8008-.1924,.2812,0,.5293,.0527,.748,.1592Zm-.0312,1.8105c.1934-.1689,.291-.3945,.291-.6748,0-.2812-.0977-.5049-.291-.6719s-.4551-.251-.7842-.251c-.2158,0-.4062,.041-.5713,.123-.1641,.0811-.2939,.1934-.3877,.335-.0938,.1426-.1396,.3018-.1396,.4766,0,.1631,.043,.3135,.1309,.4521s.2168,.25,.3877,.3359,.374,.1279,.6104,.1279c.3096,0,.5605-.084,.7539-.2529Z"/><path class="cls-3" d="M126.382,71.1172c.0615,.0625,.0908,.1416,.0908,.2354,0,.0488-.0068,.1016-.0215,.1582-.0137,.0576-.0352,.1221-.0635,.1953l-.2568,.8428h-.293l.208-.8848c-.0654-.0205-.1182-.0586-.1592-.1133s-.0605-.1211-.0605-.1982c0-.0938,.0303-.1729,.0918-.2354,.0605-.0635,.1377-.0947,.2314-.0947s.1709,.0312,.2324,.0947Z"/><path class="cls-3" d="M130.088,71.2666v.3906h-2.998v-.3115l1.7773-1.7402c.2236-.2197,.375-.4102,.4551-.5713,.0791-.1602,.1191-.3223,.1191-.4854,0-.252-.0869-.4482-.2598-.5889-.1738-.1406-.4209-.2109-.7422-.2109-.501,0-.8896,.1592-1.166,.4766l-.3125-.2686c.168-.1963,.3809-.3467,.6387-.4521,.2588-.1064,.5508-.1592,.877-.1592,.4355,0,.7803,.1035,1.0352,.3086,.2539,.2061,.3809,.4873,.3809,.8457,0,.2197-.0488,.4316-.1465,.6357-.0977,.2031-.2832,.4375-.5557,.7021l-1.4531,1.4287h2.3506Z"/></g></svg>