<?xml version="1.0" encoding="UTF-8"?><svg id="Layer_1" xmlns="http://www.w3.org/2000/svg" viewBox="0 0 339.9832 205.3148"><defs><style>.cls-1,.cls-2{fill:#7ec500;}.cls-3{fill:#222;}.cls-4{fill:#a2a2a2;}.cls-2,.cls-5{stroke:#fff;stroke-miterlimit:10;stroke-width:.5px;}.cls-5{fill:#1256bb;}</style></defs><g><path class="cls-3" d="M3.7064,5.6504l-.0049-2.3203-1.1504,1.9199h-.29l-1.1499-1.8896v2.29H.4965V2.1504h.5347l1.3853,2.3145,1.3701-2.3145h.5298l.0103,3.5h-.6201Z"/><path class="cls-3" d="M5.3314,2.1504h.6396v2.4844l1.8804-2.4844h.605v3.5h-.6401V3.17l-1.8799,2.4805h-.605V2.1504Z"/><path class="cls-3" d="M12.5663,2.1504v3.5h-.6499v-1.5h-1.8101v1.5h-.6499V2.1504h.6499v1.4443h1.8101v-1.4443h.6499Z"/><path class="cls-3" d="M13.5712,2.1504h.6396v2.4844l1.8804-2.4844h.605v3.5h-.6401V3.17l-1.8799,2.4805h-.605V2.1504Z"/><path class="cls-3" d="M20.9115,5.6504l-.0049-2.3203-1.1504,1.9199h-.29l-1.1499-1.8896v2.29h-.6147V2.1504h.5347l1.3853,2.3145,1.3701-2.3145h.5298l.0103,3.5h-.6201Z"/><path class="cls-3" d="M24.8515,4.8399h-1.75l-.3452,.8105h-.6699l1.5752-3.5h.6396l1.5801,3.5h-.6797l-.3501-.8105Zm-.2148-.5098l-.6602-1.5303-.6553,1.5303h1.3154Z"/><path class="cls-3" d="M29.4262,2.1504v3.5h-.6401V2.7002h-1.3799l-.0298,.875c-.0171,.4902-.0571,.8877-.1201,1.1924-.0635,.3047-.165,.5371-.3052,.6953-.1396,.1582-.333,.2373-.5801,.2373-.0864,0-.2046-.0166-.355-.0498l.0454-.5654c.043,.0137,.0933,.0205,.1499,.0205,.2031,0,.3472-.1211,.4321-.3633,.0854-.2412,.1377-.6221,.1577-1.1416l.0498-1.4502h2.5752Z"/><path class="cls-3" d="M33.0136,3.6172c.2251,.1885,.3379,.4678,.3379,.8379,0,.3867-.1235,.6826-.3701,.8877s-.5933,.3076-1.04,.3076h-1.5049V2.1504h.6396v1.1846h.9702c.4199,0,.7427,.0947,.9673,.2822Zm-.5171,1.3584c.1362-.1172,.2046-.2871,.2046-.5107,0-.4229-.2632-.6348-.7896-.6348h-.8354v1.3203h.8354c.2529,0,.4482-.0586,.585-.1748Z"/><path class="cls-3" d="M37.1464,2.1504v3.5h-.6499v-1.5h-1.8101v1.5h-.6499V2.1504h.6499v1.4443h1.8101v-1.4443h.6499Z"/><path class="cls-3" d="M40.4662,4.8399h-1.75l-.3452,.8105h-.6699l1.5752-3.5h.6396l1.5801,3.5h-.6797l-.3501-.8105Zm-.2148-.5098l-.6602-1.5303-.6553,1.5303h1.3154Z"/><path class="cls-3" d="M44.726,2.1504v3.5h-.6401v-.9756h-.9351l-.6499,.9756h-.6851l.75-1.0801c-.2432-.0898-.4307-.2324-.5625-.4277s-.1973-.4307-.1973-.707c0-.2666,.0601-.4971,.1797-.6904,.1201-.1934,.29-.3408,.5103-.4424,.2197-.1016,.478-.1523,.7749-.1523h1.4551Zm-2.0474,.7344c-.1421,.124-.2129,.3037-.2129,.54,0,.2305,.0684,.4082,.2051,.5332s.335,.1875,.5952,.1875h.8198v-1.4453h-.7949c-.2666,0-.4707,.0615-.6123,.1846Z"/><path class="cls-3" d="M50.3461,5.6504l-.0049-2.3203-1.1504,1.9199h-.29l-1.1499-1.8896v2.29h-.6147V2.1504h.5347l1.3853,2.3145,1.3701-2.3145h.5298l.0103,3.5h-.6201Z"/><path class="cls-3" d="M54.5912,5.1055v.5449h-2.625V2.1504h2.5547v.5449h-1.9048v.9102h1.6899v.5352h-1.6899v.9648h1.9751Z"/><path class="cls-3" d="M55.9887,5.4678c-.2852-.1553-.5083-.3691-.6699-.6426-.1621-.2734-.2427-.582-.2427-.9248,0-.3438,.0815-.6523,.2451-.9248,.1631-.2734,.3872-.4883,.6724-.6426,.2852-.1553,.604-.2324,.9575-.2324,.2866,0,.5483,.0498,.7852,.1494,.2363,.1006,.4365,.2451,.6001,.4355l-.4204,.3945c-.2534-.2734-.5649-.4102-.9351-.4102-.2397,0-.4546,.0527-.6445,.1582-.1904,.1045-.3384,.25-.4453,.4375-.1064,.1865-.1602,.3975-.1602,.6348,0,.2363,.0537,.4482,.1602,.6348,.1069,.1865,.2549,.332,.4453,.4375,.1899,.1055,.4048,.1572,.6445,.1572,.3701,0,.6816-.1377,.9351-.415l.4204,.4004c-.1636,.1895-.3643,.335-.6025,.4346-.2388,.1006-.501,.1504-.7876,.1504-.3535,0-.6724-.0771-.9575-.2324Z"/><path class="cls-3" d="M61.6361,2.1504v3.5h-.6401v-.9756h-.9351l-.6499,.9756h-.6851l.75-1.0801c-.2432-.0898-.4307-.2324-.5625-.4277s-.1973-.4307-.1973-.707c0-.2666,.0601-.4971,.1797-.6904,.1201-.1934,.29-.3408,.5103-.4424,.2197-.1016,.478-.1523,.7749-.1523h1.4551Zm-2.0474,.7344c-.1421,.124-.2129,.3037-.2129,.54,0,.2305,.0684,.4082,.2051,.5332s.335,.1875,.5952,.1875h.8198v-1.4453h-.7949c-.2666,0-.4707,.0615-.6123,.1846Z"/><path class="cls-3" d="M65.371,2.1504v3.5h-.645v-1.3203c-.3301,.123-.6436,.1855-.9404,.1855-.4463,0-.7905-.1084-1.0322-.3232s-.3623-.5234-.3623-.9268v-1.1152h.6445v1.0449c0,.2461,.0718,.4346,.2153,.5645,.1431,.1309,.3481,.1953,.6147,.1953,.3032,0,.5903-.0615,.8604-.1846v-1.6201h.645Z"/><path class="cls-3" d="M69.4809,2.1504v3.5h-.6499v-1.5h-1.8101v1.5h-.6499V2.1504h.6499v1.4443h1.8101v-1.4443h.6499Z"/><path class="cls-3" d="M72.8007,4.8399h-1.75l-.3452,.8105h-.6699l1.5752-3.5h.6396l1.5801,3.5h-.6797l-.3501-.8105Zm-.2148-.5098l-.6602-1.5303-.6553,1.5303h1.3154Z"/><path class="cls-3" d="M77.0609,2.1504v3.5h-.6401v-.9756h-.9351l-.6499,.9756h-.6851l.75-1.0801c-.2432-.0898-.4307-.2324-.5625-.4277s-.1973-.4307-.1973-.707c0-.2666,.0601-.4971,.1797-.6904,.1201-.1934,.29-.3408,.5103-.4424,.2197-.1016,.478-.1523,.7749-.1523h1.4551Zm-2.0474,.7344c-.1421,.124-.2129,.3037-.2129,.54,0,.2305,.0684,.4082,.2051,.5332s.335,.1875,.5952,.1875h.8198v-1.4453h-.7949c-.2666,0-.4707,.0615-.6123,.1846Z"/><path class="cls-3" d="M81.7978,4.1475c.1187,.1484,.1777,.3223,.1777,.5225,0,.21-.0684,.3926-.2051,.5479s-.3193,.2744-.5474,.3574c-.2285,.083-.4775,.125-.7476,.125-.2334,0-.4673-.0322-.7026-.0977-.2349-.0645-.4521-.1621-.6523-.292l.21-.4756c.1533,.1035,.3232,.1826,.5103,.2373,.1865,.0557,.3716,.083,.5547,.083,.2632,0,.4824-.0518,.6577-.1553,.1748-.1035,.2622-.2451,.2622-.4248,0-.1533-.063-.2705-.1899-.3496-.1265-.0801-.3018-.1201-.5249-.1201h-.8149v-.5107h.7651c.1929,0,.3447-.04,.4546-.1191,.1104-.0801,.165-.1885,.165-.3252,0-.1631-.0742-.29-.2222-.3799-.1484-.0908-.3379-.1357-.5679-.1357-.1567,0-.3184,.0225-.4849,.0684-.1665,.0449-.3232,.1104-.4697,.1973l-.2051-.5254c.1797-.0967,.3706-.1689,.5723-.2178,.2017-.0479,.4028-.0723,.6025-.0723,.2603,0,.499,.04,.7178,.1201,.2183,.0801,.3921,.1943,.5225,.3428,.1299,.1484,.1948,.3223,.1948,.5225,0,.1729-.0469,.3252-.1401,.4551s-.2217,.2295-.3848,.2998c.21,.0664,.374,.1738,.4922,.3223Z"/><path class="cls-3" d="M85.0507,4.8399h-1.75l-.3452,.8105h-.6699l1.5752-3.5h.6396l1.5801,3.5h-.6797l-.3501-.8105Zm-.2148-.5098l-.6602-1.5303-.6553,1.5303h1.3154Z"/><path class="cls-3" d="M88.8681,2.2999c.2246,.1006,.3975,.2441,.5176,.4307,.1196,.1865,.1797,.4082,.1797,.665,0,.2529-.0601,.4736-.1797,.6621-.1201,.1885-.293,.333-.5176,.4326-.2251,.0996-.4893,.1504-.7925,.1504h-.79v1.0098h-.6499V2.1504h1.4399c.3032,0,.5674,.0498,.7925,.1494Zm-.1777,1.6104c.1465-.1201,.2202-.292,.2202-.5146,0-.2236-.0737-.3955-.2202-.5156s-.3618-.1797-.645-.1797h-.7598v1.3896h.7598c.2832,0,.4985-.0596,.645-.1797Z"/><path class="cls-3" d="M92.5707,4.8399h-1.75l-.3452,.8105h-.6699l1.5752-3.5h.6396l1.5801,3.5h-.6797l-.3501-.8105Zm-.2148-.5098l-.6602-1.5303-.6553,1.5303h1.3154Z"/><path class="cls-3" d="M94.1605,2.1504h2.7251v.5352h-2.0854v.8594h1.0352c.4199,0,.7393,.0879,.9575,.2627s.3276,.4277,.3276,.7578c0,.3467-.1201,.6143-.3599,.8018-.2402,.1885-.582,.2832-1.0254,.2832h-1.5747V2.1504Zm1.54,3c.25,0,.4399-.0488,.5698-.1455s.1948-.2363,.1948-.4199c0-.3594-.2549-.54-.7646-.54h-.9004v1.1055h.9004Z"/><path class="cls-3" d="M98.5053,5.4678c-.2866-.1553-.5117-.3701-.6748-.6455-.1636-.2744-.2451-.582-.2451-.9219s.0815-.6475,.2451-.9229c.1631-.2744,.3882-.4902,.6748-.6445,.2866-.1553,.6084-.2324,.9648-.2324,.3569,0,.6782,.0771,.9653,.2324,.2866,.1543,.5112,.3691,.6748,.6426,.1631,.2725,.2451,.5811,.2451,.9248,0,.3428-.082,.6514-.2451,.9248-.1636,.2734-.3882,.4873-.6748,.6426-.2871,.1553-.6084,.2324-.9653,.2324-.3564,0-.6782-.0771-.9648-.2324Zm1.5952-.4951c.1865-.1055,.333-.252,.4399-.4404,.1064-.1875,.1597-.3984,.1597-.6318s-.0532-.4443-.1597-.6328c-.1069-.1885-.2534-.335-.4399-.4395-.187-.1055-.397-.1582-.6304-.1582s-.4434,.0527-.6299,.1582c-.1865,.1045-.3335,.251-.4399,.4395-.1069,.1885-.1602,.3994-.1602,.6328s.0532,.4443,.1602,.6318c.1064,.1885,.2534,.335,.4399,.4404s.3965,.1572,.6299,.1572,.4434-.0518,.6304-.1572Z"/><path class="cls-3" d="M104.6352,2.7002h-1.1597v2.9502h-.645V2.7002h-1.1553v-.5498h2.96v.5498Z"/><path class="cls-3" d="M108.3256,2.1504v3.5h-.6499v-1.5h-1.8101v1.5h-.6499V2.1504h.6499v1.4443h1.8101v-1.4443h.6499Z"/><path class="cls-3" d="M111.6454,4.8399h-1.75l-.3452,.8105h-.6699l1.5752-3.5h.6396l1.5801,3.5h-.6797l-.3501-.8105Zm-.2148-.5098l-.6602-1.5303-.6553,1.5303h1.3154Z"/><path class="cls-3" d="M115.9052,2.1504v3.5h-.6401v-.9756h-.9351l-.6499,.9756h-.6851l.75-1.0801c-.2432-.0898-.4307-.2324-.5625-.4277s-.1973-.4307-.1973-.707c0-.2666,.0601-.4971,.1797-.6904,.1201-.1934,.29-.3408,.5103-.4424,.2197-.1016,.478-.1523,.7749-.1523h1.4551Zm-2.0474,.7344c-.1421,.124-.2129,.3037-.2129,.54,0,.2305,.0684,.4082,.2051,.5332s.335,.1875,.5952,.1875h.8198v-1.4453h-.7949c-.2666,0-.4707,.0615-.6123,.1846Z"/><path class="cls-3" d="M121.4101,2.1504v3.5h-.6396V2.7002h-1.8154v2.9502h-.6396V2.1504h3.0947Z"/><path class="cls-3" d="M125.4052,2.1504v3.5h-.6401V2.7002h-1.3799l-.0298,.875c-.0171,.4902-.0571,.8877-.1201,1.1924-.0635,.3047-.165,.5371-.3052,.6953-.1396,.1582-.333,.2373-.5801,.2373-.0864,0-.2046-.0166-.355-.0498l.0454-.5654c.043,.0137,.0933,.0205,.1499,.0205,.2031,0,.3472-.1211,.4321-.3633,.0854-.2412,.1377-.6221,.1577-1.1416l.0498-1.4502h2.5752Z"/><path class="cls-3" d="M128.7304,4.8399h-1.75l-.3452,.8105h-.6699l1.5752-3.5h.6396l1.5801,3.5h-.6797l-.3501-.8105Zm-.2148-.5098l-.6602-1.5303-.6553,1.5303h1.3154Z"/><path class="cls-3" d="M132.8549,2.7002h-1.1597v2.9502h-.645V2.7002h-1.1553v-.5498h2.96v.5498Z"/><path class="cls-3" d="M135.7553,4.8399h-1.75l-.3452,.8105h-.6699l1.5752-3.5h.6396l1.5801,3.5h-.6797l-.3501-.8105Zm-.2148-.5098l-.6602-1.5303-.6553,1.5303h1.3154Z"/><path class="cls-3" d="M141.5551,4.1377c.1167,.1445,.1748,.3262,.1748,.542,0,.3076-.1133,.5459-.3398,.7158-.2271,.1699-.5552,.2549-.9854,.2549h-1.6597V2.1504h1.5649c.3931,0,.6997,.0781,.9199,.2344,.2202,.1572,.3301,.3789,.3301,.665,0,.1836-.0444,.3418-.1323,.4756-.0884,.1328-.2163,.2344-.3828,.3047,.2231,.0605,.3936,.1621,.5103,.3076Zm-2.1704-.4922h.8701c.21,0,.3701-.042,.48-.125,.1104-.084,.165-.207,.165-.3701s-.0547-.2881-.165-.373c-.1099-.085-.27-.127-.48-.127h-.8701v.9951Zm1.6904,.9844c0-.3398-.23-.5098-.6904-.5098h-1v1.0303h1c.4604,0,.6904-.1738,.6904-.5205Z"/><path class="cls-3" d="M146.1225,2.2999c.2246,.1006,.3975,.2441,.5176,.4307,.1196,.1865,.1797,.4082,.1797,.665,0,.2529-.0601,.4736-.1797,.6621-.1201,.1885-.293,.333-.5176,.4326-.2251,.0996-.4893,.1504-.7925,.1504h-.79v1.0098h-.6499V2.1504h1.4399c.3032,0,.5674,.0498,.7925,.1494Zm-.1777,1.6104c.1465-.1201,.2202-.292,.2202-.5146,0-.2236-.0737-.3955-.2202-.5156s-.3618-.1797-.645-.1797h-.7598v1.3896h.7598c.2832,0,.4985-.0596,.645-.1797Z"/><path class="cls-3" d="M148.1596,5.4678c-.2866-.1553-.5117-.3701-.6748-.6455-.1636-.2744-.2451-.582-.2451-.9219s.0815-.6475,.2451-.9229c.1631-.2744,.3882-.4902,.6748-.6445,.2866-.1553,.6084-.2324,.9648-.2324,.3569,0,.6782,.0771,.9653,.2324,.2866,.1543,.5112,.3691,.6748,.6426,.1631,.2725,.2451,.5811,.2451,.9248,0,.3428-.082,.6514-.2451,.9248-.1636,.2734-.3882,.4873-.6748,.6426-.2871,.1553-.6084,.2324-.9653,.2324-.3564,0-.6782-.0771-.9648-.2324Zm1.5952-.4951c.1865-.1055,.333-.252,.4399-.4404,.1064-.1875,.1597-.3984,.1597-.6318s-.0532-.4443-.1597-.6328c-.1069-.1885-.2534-.335-.4399-.4395-.187-.1055-.397-.1582-.6304-.1582s-.4434,.0527-.6299,.1582c-.1865,.1045-.3335,.251-.4399,.4395-.1069,.1885-.1602,.3994-.1602,.6328s.0532,.4443,.1602,.6318c.1064,.1885,.2534,.335,.4399,.4404s.3965,.1572,.6299,.1572,.4434-.0518,.6304-.1572Z"/><path class="cls-3" d="M152.4022,5.4678c-.2852-.1553-.5083-.3691-.6699-.6426-.1621-.2734-.2427-.582-.2427-.9248,0-.3438,.0815-.6523,.2451-.9248,.1631-.2734,.3872-.4883,.6724-.6426,.2852-.1553,.604-.2324,.9575-.2324,.2866,0,.5483,.0498,.7852,.1494,.2363,.1006,.4365,.2451,.6001,.4355l-.4204,.3945c-.2534-.2734-.5649-.4102-.9351-.4102-.2397,0-.4546,.0527-.6445,.1582-.1904,.1045-.3384,.25-.4453,.4375-.1064,.1865-.1602,.3975-.1602,.6348,0,.2363,.0537,.4482,.1602,.6348,.1069,.1865,.2549,.332,.4453,.4375,.1899,.1055,.4048,.1572,.6445,.1572,.3701,0,.6816-.1377,.9351-.415l.4204,.4004c-.1636,.1895-.3643,.335-.6025,.4346-.2388,.1006-.501,.1504-.7876,.1504-.3535,0-.6724-.0771-.9575-.2324Z"/><path class="cls-3" d="M156.0272,5.4678c-.2852-.1553-.5083-.3691-.6699-.6426-.1621-.2734-.2427-.582-.2427-.9248,0-.3438,.0815-.6523,.2451-.9248,.1631-.2734,.3872-.4883,.6724-.6426,.2852-.1553,.604-.2324,.9575-.2324,.2866,0,.5483,.0498,.7852,.1494,.2363,.1006,.4365,.2451,.6001,.4355l-.4204,.3945c-.2534-.2734-.5649-.4102-.9351-.4102-.2397,0-.4546,.0527-.6445,.1582-.1904,.1045-.3384,.25-.4453,.4375-.1064,.1865-.1602,.3975-.1602,.6348,0,.2363,.0537,.4482,.1602,.6348,.1069,.1865,.2549,.332,.4453,.4375,.1899,.1055,.4048,.1572,.6445,.1572,.3701,0,.6816-.1377,.9351-.415l.4204,.4004c-.1636,.1895-.3643,.335-.6025,.4346-.2388,.1006-.501,.1504-.7876,.1504-.3535,0-.6724-.0771-.9575-.2324Z"/><path class="cls-3" d="M159.0048,2.1504h.6396v2.4844l1.8804-2.4844h.605v3.5h-.6401V3.17l-1.8799,2.4805h-.605V2.1504Z"/><path class="cls-3" d="M163.1347,2.1504h.6396v2.4844l1.8804-2.4844h.605v3.5h-.6401V3.17l-1.8799,2.4805h-.605V2.1504Z"/><path class="cls-3" d="M167.6742,4.9698c.0767,.0771,.1152,.1768,.1152,.3008,0,.0527-.0073,.1084-.0225,.167s-.0459,.1465-.0928,.2627l-.2549,.7051h-.4048l.1997-.7646c-.0732-.0303-.1309-.0781-.1724-.1426-.0415-.0654-.0625-.1416-.0625-.2275,0-.124,.0381-.2236,.1152-.3008,.0767-.0762,.1729-.1143,.29-.1143,.1162,0,.2129,.0381,.2896,.1143Z"/><path class="cls-3" d="M172.4394,2.7002h-1.1597v2.9502h-.645V2.7002h-1.1553v-.5498h2.96v.5498Z"/><path class="cls-3" d="M175.6015,3.6172c.2251,.1885,.3379,.4678,.3379,.8379,0,.3867-.1235,.6826-.3701,.8877s-.5933,.3076-1.04,.3076h-1.5049V2.1504h.6396v1.1846h.9702c.4199,0,.7427,.0947,.9673,.2822Zm-.5171,1.3584c.1362-.1172,.2046-.2871,.2046-.5107,0-.4229-.2632-.6348-.7896-.6348h-.8354v1.3203h.8354c.2529,0,.4482-.0586,.585-.1748Zm1.3599-2.8252h.6401v3.5h-.6401V2.1504Z"/><path class="cls-3" d="M178.7421,5.4678c-.2852-.1553-.5083-.3691-.6699-.6426-.1621-.2734-.2427-.582-.2427-.9248,0-.3438,.0815-.6523,.2451-.9248,.1631-.2734,.3872-.4883,.6724-.6426,.2852-.1553,.604-.2324,.9575-.2324,.2866,0,.5483,.0498,.7852,.1494,.2363,.1006,.4365,.2451,.6001,.4355l-.4204,.3945c-.2534-.2734-.5649-.4102-.9351-.4102-.2397,0-.4546,.0527-.6445,.1582-.1904,.1045-.3384,.25-.4453,.4375-.1064,.1865-.1602,.3975-.1602,.6348,0,.2363,.0537,.4482,.1602,.6348,.1069,.1865,.2549,.332,.4453,.4375,.1899,.1055,.4048,.1572,.6445,.1572,.3701,0,.6816-.1377,.9351-.415l.4204,.4004c-.1636,.1895-.3643,.335-.6025,.4346-.2388,.1006-.501,.1504-.7876,.1504-.3535,0-.6724-.0771-.9575-.2324Z"/><path class="cls-3" d="M181.5443,5.5674c-.0796-.0781-.1196-.1768-.1196-.2969,0-.124,.0391-.2236,.1172-.3008,.0786-.0762,.1758-.1143,.2925-.1143s.2144,.0381,.2925,.1143c.0786,.0771,.1177,.1768,.1177,.3008,0,.1201-.04,.2188-.1201,.2969-.0801,.0791-.1768,.1182-.29,.1182s-.21-.0391-.29-.1182Z"/><path class="cls-3" d="M186.5868,2.2999c.2246,.1006,.3975,.2441,.5176,.4307,.1196,.1865,.1797,.4082,.1797,.665,0,.2529-.0601,.4736-.1797,.6621-.1201,.1885-.293,.333-.5176,.4326-.2251,.0996-.4893,.1504-.7925,.1504h-.79v1.0098h-.6499V2.1504h1.4399c.3032,0,.5674,.0498,.7925,.1494Zm-.1777,1.6104c.1465-.1201,.2202-.292,.2202-.5146,0-.2236-.0737-.3955-.2202-.5156s-.3618-.1797-.645-.1797h-.7598v1.3896h.7598c.2832,0,.4985-.0596,.645-.1797Z"/><path class="cls-3" d="M190.974,2.1504l-1.52,2.8252c-.1333,.25-.2925,.4375-.4775,.5625s-.3857,.1875-.6025,.1875c-.1733,0-.3452-.0371-.5151-.1104l.1602-.5098c.1367,.043,.25,.0645,.3398,.0645,.21,0,.3833-.1084,.52-.3252l.0552-.085-1.395-2.6094h.6948l1.0352,2.0547,1.0649-2.0547h.6401Z"/><path class="cls-3" d="M191.5243,2.1504h2.7251v.5352h-2.0854v.8594h1.0352c.4199,0,.7393,.0879,.9575,.2627s.3276,.4277,.3276,.7578c0,.3467-.1201,.6143-.3599,.8018-.2402,.1885-.582,.2832-1.0254,.2832h-1.5747V2.1504Zm1.54,3c.25,0,.4399-.0488,.5698-.1455s.1948-.2363,.1948-.4199c0-.3594-.2549-.54-.7646-.54h-.9004v1.1055h.9004Z"/></g><rect class="cls-5" x="141.121" y="101.2917" width="28.1708" height="75"/><rect class="cls-5" x="169.2918" y="82.2917" width="28.1708" height="94"/><rect class="cls-5" x="197.4625" y="63.2917" width="28.1708" height="113"/><rect class="cls-5" x="225.6333" y="55.2917" width="28.1708" height="121"/><g><path class="cls-3" d="M153.7284,93.1729v.3115l-1.7896,3.9639h-.4761l1.7588-3.8848h-2.1987v.8008h-.4336v-1.1914h3.1392Z"/><path class="cls-3" d="M154.5531,96.9073c.061,.0635,.0913,.1416,.0913,.2354,0,.0488-.0073,.1016-.0215,.1592-.0142,.0566-.0356,.1221-.064,.1953l-.2563,.8428h-.2935l.208-.8857c-.0654-.0205-.1182-.0576-.1592-.1133-.0405-.0547-.061-.1211-.061-.1982,0-.0938,.0308-.1719,.0918-.2354,.061-.0625,.1382-.0947,.2319-.0947s.1709,.0322,.2324,.0947Z"/><path class="cls-3" d="M157.7558,95.2588c.2827,.2217,.4243,.5322,.4243,.9316,0,.248-.0581,.4697-.1738,.665-.1162,.1953-.29,.3496-.5225,.4609-.2319,.1123-.5171,.168-.855,.168-.3052,0-.5952-.0498-.8701-.1494s-.4956-.2334-.6626-.4004l.2139-.3477c.1426,.1465,.3296,.2656,.562,.3574,.2319,.0918,.4824,.1377,.751,.1377,.354,0,.6279-.0801,.8213-.2383,.1934-.1592,.29-.3711,.29-.6357,0-.293-.1089-.5146-.3267-.665-.2178-.1514-.5854-.2266-1.1021-.2266h-.9102l.2197-2.1436h2.3389v.3906h-1.9541l-.1465,1.3623h.5498c.6187,0,1.0693,.1113,1.3525,.333Z"/></g><g><path class="cls-3" d="M181.8744,74.2793c.3013,.3721,.4517,.8984,.4517,1.5781,0,.4766-.0811,.8799-.2441,1.21-.1626,.3291-.3906,.5791-.6841,.748-.293,.1689-.6348,.2529-1.0259,.2529-.4233,0-.7612-.0771-1.0137-.2314l.1772-.3545c.2036,.1348,.48,.2012,.8306,.2012,.4722,0,.8428-.1494,1.1113-.4482,.2686-.2998,.4028-.7344,.4028-1.3037,0-.1064-.0059-.2227-.0181-.3486-.106,.2324-.2749,.4121-.5068,.541-.2319,.1279-.499,.1924-.8003,.1924-.2808,0-.5303-.0537-.748-.1592s-.3877-.2559-.5098-.4492-.1831-.418-.1831-.6748c0-.2607,.063-.4902,.189-.6895,.1265-.2002,.3003-.3535,.5225-.4619,.2217-.1074,.4712-.1611,.748-.1611,.5659,0,.9995,.1855,1.3008,.5586Zm-.6812,1.542c.165-.0811,.2944-.1934,.3882-.3359,.0933-.1426,.1401-.3008,.1401-.4766,0-.1621-.0435-.3135-.1313-.4521-.0874-.1377-.2168-.25-.3877-.335-.1709-.0859-.3745-.1289-.6108-.1289-.3091,0-.5605,.085-.7539,.2539s-.29,.3936-.29,.6748c0,.2803,.0967,.5049,.29,.6719s.4551,.25,.7847,.25c.2158,0,.4062-.041,.5708-.1221Z"/><path class="cls-3" d="M183.4623,77.4913c.061,.0635,.0913,.1416,.0913,.2354,0,.0488-.0073,.1016-.0215,.1592-.0142,.0566-.0356,.1221-.064,.1953l-.2563,.8428h-.2935l.208-.8857c-.0654-.0205-.1182-.0576-.1592-.1133-.0405-.0547-.061-.1211-.061-.1982,0-.0938,.0308-.1719,.0918-.2354,.061-.0625,.1382-.0947,.2319-.0947s.1709,.0322,.2324,.0947Z"/><path class="cls-3" d="M187.7431,76.9082h-.855v1.124h-.4395v-1.124h-2.4126v-.3174l2.2656-2.834h.4888l-2.1865,2.7607h1.8569v-.9893h.4272v.9893h.855v.3906Z"/></g><g><path class="cls-3" d="M208.4457,55.2813v4.2754h-.4399v-3.8848h-1.0073v-.3906h1.4473Z"/><path class="cls-3" d="M210.6503,55.2813v4.2754h-.4399v-3.8848h-1.0073v-.3906h1.4473Z"/><path class="cls-3" d="M212.2382,59.0157c.061,.0635,.0913,.1416,.0913,.2354,0,.0488-.0073,.1016-.0215,.1592-.0142,.0566-.0356,.1221-.064,.1953l-.2563,.8428h-.2935l.208-.8857c-.0654-.0205-.1182-.0576-.1592-.1133-.0405-.0547-.061-.1211-.061-.1982,0-.0938,.0308-.1719,.0918-.2354,.061-.0625,.1382-.0947,.2319-.0947s.1709,.0322,.2324,.0947Z"/><path class="cls-3" d="M215.5019,57.4766c.2339,.2178,.3511,.502,.3511,.8525,0,.2441-.0591,.4609-.1772,.6504-.1177,.1895-.293,.3389-.5249,.4482-.2319,.1104-.5151,.165-.8491,.165-.3091,0-.6016-.0498-.876-.1494-.2749-.0996-.4961-.2334-.6626-.4004l.2134-.3477c.1426,.1465,.332,.2656,.5679,.3574,.2363,.0918,.4888,.1377,.7573,.1377,.3501,0,.6211-.0771,.8125-.2295s.2871-.3633,.2871-.6318c0-.2646-.0957-.4727-.2871-.623s-.4805-.2256-.8672-.2256h-.3057v-.3242l1.1851-1.4844h-2.1865v-.3906h2.748v.3115l-1.209,1.5205c.4478,.0244,.7886,.1455,1.0229,.3633Z"/></g><g><path class="cls-3" d="M235.6405,47.1163v4.2754h-.4399v-3.8848h-1.0073v-.3906h1.4473Z"/><path class="cls-3" d="M239.5795,51.001v.3906h-2.9985v-.3125l1.7769-1.7402c.2241-.2197,.376-.4102,.4551-.5703,.0796-.1611,.1191-.3232,.1191-.4863,0-.252-.0864-.4482-.2598-.5889-.1729-.1406-.4204-.2109-.7417-.2109-.501,0-.8896,.1592-1.1665,.4766l-.3115-.2686c.167-.1953,.3799-.3457,.6382-.4521,.2588-.1064,.5508-.1592,.8765-.1592,.4355,0,.7808,.1035,1.0352,.3086,.2544,.2061,.3818,.4883,.3818,.8457,0,.2207-.0493,.4316-.147,.6357s-.2827,.4375-.5557,.7021l-1.4531,1.4297h2.3511Z"/><path class="cls-3" d="M240.7582,50.8506c.061,.0625,.0913,.1416,.0913,.2354,0,.0488-.0073,.1016-.0215,.1592-.0142,.0566-.0356,.1211-.064,.1953l-.2563,.8418h-.2935l.208-.8848c-.0654-.0205-.1182-.0586-.1592-.1133-.0405-.0547-.061-.1211-.061-.1982,0-.0938,.0308-.1729,.0918-.2354s.1382-.0947,.2319-.0947,.1709,.0322,.2324,.0947Z"/><path class="cls-3" d="M242.5961,47.1163v4.2754h-.4399v-3.8848h-1.0073v-.3906h1.4473Z"/></g><g><path class="cls-1" d="M263.2909,40.4561v4.2744h-.9893v-3.4805h-.855v-.7939h1.8442Z"/><path class="cls-1" d="M267.2299,43.9249v.8057h-3.2305v-.6406l1.6489-1.5576c.1748-.167,.293-.3105,.354-.4307s.0918-.2393,.0918-.3574c0-.1709-.0581-.3018-.1743-.3936-.1157-.0918-.2861-.1377-.5098-.1377-.1875,0-.3564,.0361-.5068,.1074-.1509,.0713-.2769,.1777-.3789,.3203l-.7202-.4639c.1665-.249,.3965-.4434,.6899-.584,.293-.1396,.6289-.21,1.0073-.21,.3179,0,.5957,.0518,.834,.1553,.2378,.1035,.4233,.251,.5557,.4395,.1323,.1895,.1982,.4131,.1982,.6689,0,.2324-.0488,.4502-.1465,.6533-.0977,.2041-.2871,.4355-.5679,.6963l-.9834,.9287h1.8384Z"/><path class="cls-1" d="M268.6894,43.7569c.1099,.1074,.165,.249,.165,.4238,0,.082-.0103,.1631-.0308,.2451-.0205,.0811-.0649,.2031-.1343,.3662l-.3481,.8789h-.6045l.2686-.9707c-.1016-.041-.1821-.1064-.2412-.1982s-.0884-.1982-.0884-.3213c0-.1748,.0557-.3164,.168-.4238,.1118-.1084,.2534-.1621,.4243-.1621s.3115,.0537,.4214,.1621Z"/><path class="cls-1" d="M272.7719,42.8985c.1118,.1709,.168,.3691,.168,.5928,0,.2646-.0752,.4951-.2261,.6934-.1504,.1973-.3623,.3496-.6353,.458-.2725,.1074-.5884,.1611-.9463,.1611-.3584,0-.6729-.0537-.9438-.1611-.2705-.1084-.48-.2607-.6289-.458-.1484-.1982-.2227-.4287-.2227-.6934,0-.2236,.0557-.4219,.168-.5928,.1118-.1709,.2715-.3096,.4795-.415-.1592-.0977-.2812-.2207-.3667-.3691-.0854-.1494-.1284-.3193-.1284-.5107,0-.248,.0693-.4639,.208-.6465,.1382-.1836,.3315-.3252,.5801-.4248,.248-.0996,.5332-.1494,.855-.1494,.3257,0,.6138,.0498,.8643,.1494,.25,.0996,.4443,.2412,.583,.4248,.1382,.1826,.2075,.3984,.2075,.6465,0,.1914-.0425,.3613-.1279,.5107-.0854,.1484-.21,.2715-.3726,.3691,.2114,.1055,.3735,.2441,.4854,.415Zm-1.0503,1.0107c.1445-.1113,.2168-.2617,.2168-.4482,0-.1875-.0723-.3359-.2168-.4463s-.3413-.165-.5894-.165c-.2441,0-.438,.0547-.5801,.165-.1426,.1104-.2139,.2588-.2139,.4463,0,.1914,.0713,.3418,.2139,.4512,.1421,.1104,.3359,.165,.5801,.165,.248,0,.4448-.0557,.5894-.168Zm-1.0688-2.6562c-.1201,.0957-.1802,.2266-.1802,.3936,0,.1631,.0591,.291,.1772,.3848s.2788,.1406,.4824,.1406,.3662-.0469,.4883-.1406c.1226-.0938,.1836-.2217,.1836-.3848,0-.167-.061-.2979-.1836-.3936-.1221-.0957-.2847-.1436-.4883-.1436-.1997,0-.3594,.0479-.4795,.1436Z"/></g><rect class="cls-2" x="253.804" y="48.2917" width="26.9494" height="128"/><g><path class="cls-4" d="M124.5243,183.4991h-2.4609v-.5098c.1709-.1465,.3423-.293,.5142-.4395,.1714-.1465,.3315-.293,.4795-.4375,.3125-.3027,.5264-.543,.6421-.7217,.1157-.1777,.1733-.3701,.1733-.5771,0-.1885-.0625-.3369-.1865-.4434-.125-.1064-.2983-.1602-.5215-.1602-.1479,0-.3086,.0264-.481,.0781-.1724,.0527-.3408,.1328-.5054,.2402h-.0244v-.5137c.1157-.0566,.2695-.1084,.4629-.1562,.1924-.0469,.3794-.0703,.5601-.0703,.3726,0,.665,.0898,.8765,.2695s.3174,.4238,.3174,.7314c0,.1387-.0176,.2676-.0527,.3867-.0347,.1201-.0864,.2334-.1548,.3408-.0635,.1006-.1382,.2002-.2231,.2979-.0859,.0977-.1895,.2061-.3115,.3252-.1743,.1699-.354,.3359-.5396,.4961s-.3589,.3086-.52,.4453h1.9556v.418Z"/><path class="cls-4" d="M127.6981,181.6807c0,.6523-.1021,1.1309-.3062,1.4365-.2046,.3047-.5215,.458-.9512,.458-.436,0-.7549-.1553-.9561-.4648-.2007-.3086-.3013-.7842-.3013-1.4258,0-.6455,.1016-1.123,.3052-1.4316s.521-.4629,.9521-.4629c.436,0,.7549,.1572,.9561,.4707,.2007,.3135,.3013,.7861,.3013,1.4199Zm-.6421,1.1074c.0571-.1309,.0957-.2861,.1162-.4648,.02-.1777,.0303-.3926,.0303-.6426,0-.248-.0103-.4629-.0303-.6445-.0205-.1826-.0601-.3379-.1187-.4648-.0571-.125-.1348-.2188-.2329-.2832-.0986-.0625-.2251-.0947-.3799-.0947-.1528,0-.2793,.0322-.3799,.0947-.0996,.0645-.1792,.1602-.2378,.2891-.0552,.1201-.0933,.2773-.1138,.4707-.02,.1934-.0303,.4062-.0303,.6367,0,.2539,.0088,.4668,.0269,.6377s.0562,.3242,.1147,.459c.0537,.127,.1299,.2236,.2285,.29,.0981,.0674,.229,.1006,.3916,.1006,.1528,0,.2798-.0322,.3809-.0947,.1011-.0645,.1792-.1602,.2344-.2891Z"/><path class="cls-4" d="M130.6742,183.4991h-1.9678v-.3711h.7568v-2.4365h-.7568v-.332c.1025,0,.2124-.0088,.3296-.0254,.1172-.0176,.2061-.042,.2661-.0752,.0747-.04,.1338-.0918,.1768-.1543,.0435-.0625,.0684-.1475,.0747-.2529h.3784v3.2764h.7422v.3711Z"/><path class="cls-4" d="M134.1142,182.3194c0,.3701-.1216,.6719-.3647,.9053-.2437,.2334-.542,.3506-.895,.3506-.1792,0-.3418-.0283-.4883-.084-.1465-.0547-.2759-.1367-.3882-.2461-.1401-.1348-.248-.3145-.3232-.5371-.0762-.2227-.1138-.4912-.1138-.8057,0-.3223,.0347-.6084,.104-.8564,.0688-.25,.1792-.4707,.3306-.6641,.1431-.1846,.3281-.3281,.5542-.4316s.4897-.1543,.791-.1543c.0962,0,.1768,.0039,.2417,.0117s.1309,.0225,.1978,.0439v.4658h-.0244c-.0454-.0234-.1143-.0469-.2061-.0693-.0923-.0215-.186-.0322-.2822-.0322-.3501,0-.6289,.1094-.8374,.3281s-.3296,.5146-.3638,.8867c.1367-.082,.2715-.1455,.4043-.1885,.1323-.043,.2856-.0654,.46-.0654,.1548,0,.291,.0146,.4092,.043,.1177,.0283,.2388,.0859,.3623,.1719,.1431,.0996,.251,.2246,.3232,.377,.0728,.1504,.1089,.335,.1089,.5508Zm-.4956,.0195c0-.1504-.0225-.2764-.0674-.375-.0444-.0996-.1182-.1855-.2207-.2598-.0747-.0518-.1577-.0859-.249-.1016-.0913-.0166-.1865-.0254-.2856-.0254-.1382,0-.2671,.0166-.3857,.0488-.1187,.0332-.2407,.084-.3662,.1523-.0034,.0352-.0059,.0703-.0073,.1035s-.0024,.0752-.0024,.125c0,.2578,.0264,.4609,.0796,.6094,.0527,.1494,.1255,.2666,.2183,.3535,.0747,.0713,.1558,.124,.2427,.1572,.0874,.0332,.1821,.0498,.2847,.0498,.2358,0,.4214-.0723,.5566-.2158,.1353-.1445,.2026-.3516,.2026-.6221Z"/></g><g><path class="cls-4" d="M152.8754,183.4991h-2.4609v-.5098c.1709-.1465,.3423-.293,.5142-.4395,.1714-.1465,.3315-.293,.4795-.4375,.3125-.3027,.5264-.543,.6421-.7217,.1157-.1777,.1733-.3701,.1733-.5771,0-.1885-.0625-.3369-.1865-.4434-.125-.1064-.2983-.1602-.5215-.1602-.1479,0-.3086,.0264-.481,.0781-.1724,.0527-.3408,.1328-.5054,.2402h-.0244v-.5137c.1157-.0566,.2695-.1084,.4629-.1562,.1924-.0469,.3794-.0703,.5601-.0703,.3726,0,.665,.0898,.8765,.2695s.3174,.4238,.3174,.7314c0,.1387-.0176,.2676-.0527,.3867-.0347,.1201-.0864,.2334-.1548,.3408-.0635,.1006-.1382,.2002-.2231,.2979-.0859,.0977-.1895,.2061-.3115,.3252-.1743,.1699-.354,.3359-.5396,.4961s-.3589,.3086-.52,.4453h1.9556v.418Z"/><path class="cls-4" d="M156.0492,181.6807c0,.6523-.1021,1.1309-.3062,1.4365-.2046,.3047-.5215,.458-.9512,.458-.436,0-.7549-.1553-.9561-.4648-.2007-.3086-.3013-.7842-.3013-1.4258,0-.6455,.1016-1.123,.3052-1.4316s.521-.4629,.9521-.4629c.436,0,.7549,.1572,.9561,.4707,.2007,.3135,.3013,.7861,.3013,1.4199Zm-.6421,1.1074c.0571-.1309,.0957-.2861,.1162-.4648,.02-.1777,.0303-.3926,.0303-.6426,0-.248-.0103-.4629-.0303-.6445-.0205-.1826-.0601-.3379-.1187-.4648-.0571-.125-.1348-.2188-.2329-.2832-.0986-.0625-.2251-.0947-.3799-.0947-.1528,0-.2793,.0322-.3799,.0947-.0996,.0645-.1792,.1602-.2378,.2891-.0552,.1201-.0933,.2773-.1138,.4707-.02,.1934-.0303,.4062-.0303,.6367,0,.2539,.0088,.4668,.0269,.6377s.0562,.3242,.1147,.459c.0537,.127,.1299,.2236,.2285,.29,.0981,.0674,.229,.1006,.3916,.1006,.1528,0,.2798-.0322,.3809-.0947,.1011-.0645,.1792-.1602,.2344-.2891Z"/><path class="cls-4" d="M159.0253,183.4991h-1.9678v-.3711h.7568v-2.4365h-.7568v-.332c.1025,0,.2124-.0088,.3296-.0254,.1172-.0176,.2061-.042,.2661-.0752,.0747-.04,.1338-.0918,.1768-.1543,.0435-.0625,.0684-.1475,.0747-.2529h.3784v3.2764h.7422v.3711Z"/><path class="cls-4" d="M162.4213,180.4082l-1.6455,3.0908h-.5225l1.7505-3.208h-2.0703v-.4268h2.4878v.5439Z"/></g><g><path class="cls-4" d="M181.2265,183.4991h-2.4609v-.5098c.1709-.1465,.3423-.293,.5142-.4395,.1714-.1465,.3315-.293,.4795-.4375,.3125-.3027,.5264-.543,.6421-.7217,.1157-.1777,.1733-.3701,.1733-.5771,0-.1885-.0625-.3369-.1865-.4434-.125-.1064-.2983-.1602-.5215-.1602-.1479,0-.3086,.0264-.481,.0781-.1724,.0527-.3408,.1328-.5054,.2402h-.0244v-.5137c.1157-.0566,.2695-.1084,.4629-.1562,.1924-.0469,.3794-.0703,.5601-.0703,.3726,0,.665,.0898,.8765,.2695s.3174,.4238,.3174,.7314c0,.1387-.0176,.2676-.0527,.3867-.0347,.1201-.0864,.2334-.1548,.3408-.0635,.1006-.1382,.2002-.2231,.2979-.0859,.0977-.1895,.2061-.3115,.3252-.1743,.1699-.354,.3359-.5396,.4961s-.3589,.3086-.52,.4453h1.9556v.418Z"/><path class="cls-4" d="M184.4003,181.6807c0,.6523-.1021,1.1309-.3062,1.4365-.2046,.3047-.5215,.458-.9512,.458-.436,0-.7549-.1553-.9561-.4648-.2007-.3086-.3013-.7842-.3013-1.4258,0-.6455,.1016-1.123,.3052-1.4316s.521-.4629,.9521-.4629c.436,0,.7549,.1572,.9561,.4707,.2007,.3135,.3013,.7861,.3013,1.4199Zm-.6421,1.1074c.0571-.1309,.0957-.2861,.1162-.4648,.02-.1777,.0303-.3926,.0303-.6426,0-.248-.0103-.4629-.0303-.6445-.0205-.1826-.0601-.3379-.1187-.4648-.0571-.125-.1348-.2188-.2329-.2832-.0986-.0625-.2251-.0947-.3799-.0947-.1528,0-.2793,.0322-.3799,.0947-.0996,.0645-.1792,.1602-.2378,.2891-.0552,.1201-.0933,.2773-.1138,.4707-.02,.1934-.0303,.4062-.0303,.6367,0,.2539,.0088,.4668,.0269,.6377s.0562,.3242,.1147,.459c.0537,.127,.1299,.2236,.2285,.29,.0981,.0674,.229,.1006,.3916,.1006,.1528,0,.2798-.0322,.3809-.0947,.1011-.0645,.1792-.1602,.2344-.2891Z"/><path class="cls-4" d="M187.3764,183.4991h-1.9678v-.3711h.7568v-2.4365h-.7568v-.332c.1025,0,.2124-.0088,.3296-.0254,.1172-.0176,.2061-.042,.2661-.0752,.0747-.04,.1338-.0918,.1768-.1543,.0435-.0625,.0684-.1475,.0747-.2529h.3784v3.2764h.7422v.3711Z"/><path class="cls-4" d="M190.7895,182.4854c0,.3145-.1226,.5762-.3672,.7842-.2451,.208-.5532,.3125-.9243,.3125-.394,0-.7075-.1016-.9409-.3057-.2339-.2031-.3506-.4629-.3506-.7812,0-.2012,.0586-.3838,.1758-.5479,.1172-.1631,.2822-.293,.4956-.3896v-.0137c-.1953-.1045-.3398-.2188-.4331-.3418-.0938-.124-.1406-.2793-.1406-.4648,0-.2734,.1123-.501,.3369-.6836,.2246-.1816,.5103-.2734,.8569-.2734,.3628,0,.6528,.0879,.8691,.2617s.3247,.3955,.3247,.6641c0,.1641-.0513,.3262-.1538,.4844-.1025,.1592-.2529,.2832-.4517,.373v.0137c.228,.0977,.4019,.2188,.5225,.3613,.1206,.1436,.1807,.3262,.1807,.5469Zm-.5029,.0469c0-.1494-.0332-.2695-.0986-.3604-.0664-.0898-.1953-.1807-.3872-.2725-.0767-.0352-.1602-.0684-.2515-.0996s-.2124-.0742-.3638-.1289c-.1465,.0791-.2642,.1875-.353,.3242-.0884,.1367-.1328,.291-.1328,.4639,0,.2197,.0757,.4014,.2271,.5439,.1514,.1436,.3433,.2148,.5762,.2148,.2378,0,.4277-.0605,.5698-.1826,.1426-.1221,.2139-.29,.2139-.5029Zm-.0757-1.8213c0-.1738-.0669-.3125-.2017-.416-.1338-.1035-.3052-.1553-.5137-.1553-.2051,0-.373,.0488-.5039,.1465-.1313,.0977-.1968,.2295-.1968,.3955,0,.1172,.0327,.2188,.0991,.3037,.0654,.0859,.1655,.1621,.2988,.2285,.0601,.0293,.147,.0674,.2598,.1152,.1133,.0469,.2236,.0859,.3311,.1172,.1611-.1074,.2725-.2197,.3345-.335s.0928-.249,.0928-.4004Z"/></g><g><path class="cls-4" d="M209.578,183.4991h-2.4609v-.5098c.1709-.1465,.3423-.293,.5142-.4395,.1714-.1465,.3315-.293,.4795-.4375,.3125-.3027,.5264-.543,.6421-.7217,.1157-.1777,.1733-.3701,.1733-.5771,0-.1885-.0625-.3369-.1865-.4434-.125-.1064-.2983-.1602-.5215-.1602-.1479,0-.3086,.0264-.481,.0781-.1724,.0527-.3408,.1328-.5054,.2402h-.0244v-.5137c.1157-.0566,.2695-.1084,.4629-.1562,.1924-.0469,.3794-.0703,.5601-.0703,.3726,0,.665,.0898,.8765,.2695s.3174,.4238,.3174,.7314c0,.1387-.0176,.2676-.0527,.3867-.0347,.1201-.0864,.2334-.1548,.3408-.0635,.1006-.1382,.2002-.2231,.2979-.0859,.0977-.1895,.2061-.3115,.3252-.1743,.1699-.354,.3359-.5396,.4961s-.3589,.3086-.52,.4453h1.9556v.418Z"/><path class="cls-4" d="M212.7519,181.6807c0,.6523-.1021,1.1309-.3062,1.4365-.2046,.3047-.5215,.458-.9512,.458-.436,0-.7549-.1553-.9561-.4648-.2007-.3086-.3013-.7842-.3013-1.4258,0-.6455,.1016-1.123,.3052-1.4316s.521-.4629,.9521-.4629c.436,0,.7549,.1572,.9561,.4707,.2007,.3135,.3013,.7861,.3013,1.4199Zm-.6421,1.1074c.0571-.1309,.0957-.2861,.1162-.4648,.02-.1777,.0303-.3926,.0303-.6426,0-.248-.0103-.4629-.0303-.6445-.0205-.1826-.0601-.3379-.1187-.4648-.0571-.125-.1348-.2188-.2329-.2832-.0986-.0625-.2251-.0947-.3799-.0947-.1528,0-.2793,.0322-.3799,.0947-.0996,.0645-.1792,.1602-.2378,.2891-.0552,.1201-.0933,.2773-.1138,.4707-.02,.1934-.0303,.4062-.0303,.6367,0,.2539,.0088,.4668,.0269,.6377s.0562,.3242,.1147,.459c.0537,.127,.1299,.2236,.2285,.29,.0981,.0674,.229,.1006,.3916,.1006,.1528,0,.2798-.0322,.3809-.0947,.1011-.0645,.1792-.1602,.2344-.2891Z"/><path class="cls-4" d="M215.7279,183.4991h-1.9678v-.3711h.7568v-2.4365h-.7568v-.332c.1025,0,.2124-.0088,.3296-.0254,.1172-.0176,.2061-.042,.2661-.0752,.0747-.04,.1338-.0918,.1768-.1543,.0435-.0625,.0684-.1475,.0747-.2529h.3784v3.2764h.7422v.3711Z"/><path class="cls-4" d="M219.1093,181.4629c0,.3174-.0361,.6055-.1089,.8643-.0723,.2588-.1816,.4795-.3281,.6621-.1479,.1855-.3335,.3281-.5566,.4297-.2231,.1006-.4849,.1504-.7861,.1504-.0845,0-.1646-.0039-.2393-.0127s-.1416-.0234-.2002-.043v-.4658h.0244c.0474,.0234,.1138,.0469,.2002,.0693,.0864,.0215,.1821,.0322,.2881,.0322,.3599,0,.6416-.1074,.8457-.3232,.2046-.2158,.3228-.5127,.3555-.8916-.1514,.0908-.2939,.1562-.4272,.1953s-.2793,.0586-.437,.0586c-.1499,0-.2852-.0156-.4062-.0449-.1216-.0293-.2432-.0859-.3652-.1699-.1431-.0996-.251-.2256-.3232-.3789-.0728-.1533-.1089-.3359-.1089-.5488,0-.3711,.1221-.6738,.3662-.9062s.542-.3496,.8936-.3496c.1758,0,.3384,.0273,.4883,.082s.2808,.1367,.3931,.2461c.1382,.1348,.2451,.3086,.3198,.5205,.0747,.2129,.1123,.4873,.1123,.8242Zm-.4932-.1045c0-.2529-.0259-.4551-.0781-.6084s-.1235-.2715-.2148-.3564c-.0767-.0732-.1587-.126-.2466-.1572-.0879-.0322-.1831-.0479-.2856-.0479-.2344,0-.4194,.0732-.5552,.2197-.1362,.1465-.2041,.3525-.2041,.6182,0,.1543,.022,.2803,.0659,.3779s.1182,.1826,.2222,.2568c.0732,.0498,.1538,.084,.2417,.1006,.0879,.0176,.1855,.0264,.293,.0264,.127,0,.2554-.0176,.3857-.0518s.2524-.084,.3662-.1494c.0015-.0332,.0034-.0674,.0063-.1006,.002-.0332,.0034-.0762,.0034-.1279Z"/></g><g><path class="cls-4" d="M11.1195,183.4991h-2.4609v-.5098c.1709-.1465,.3423-.293,.5142-.4395,.1714-.1465,.3315-.293,.4795-.4375,.3125-.3027,.5264-.543,.6421-.7217,.1157-.1777,.1733-.3701,.1733-.5771,0-.1885-.0625-.3369-.1865-.4434-.125-.1064-.2983-.1602-.5215-.1602-.1479,0-.3086,.0264-.481,.0781-.1724,.0527-.3408,.1328-.5054,.2402h-.0244v-.5137c.1157-.0566,.2695-.1084,.4629-.1562,.1924-.0469,.3794-.0703,.5601-.0703,.3726,0,.665,.0898,.8765,.2695s.3174,.4238,.3174,.7314c0,.1387-.0176,.2676-.0527,.3867-.0347,.1201-.0864,.2334-.1548,.3408-.0635,.1006-.1382,.2002-.2231,.2979-.0859,.0977-.1895,.2061-.3115,.3252-.1743,.1699-.354,.3359-.5396,.4961s-.3589,.3086-.52,.4453h1.9556v.418Z"/><path class="cls-4" d="M14.2934,181.6807c0,.6523-.1021,1.1309-.3062,1.4365-.2046,.3047-.5215,.458-.9512,.458-.436,0-.7549-.1553-.9561-.4648-.2007-.3086-.3013-.7842-.3013-1.4258,0-.6455,.1016-1.123,.3052-1.4316s.521-.4629,.9521-.4629c.436,0,.7549,.1572,.9561,.4707,.2007,.3135,.3013,.7861,.3013,1.4199Zm-.6421,1.1074c.0571-.1309,.0957-.2861,.1162-.4648,.02-.1777,.0303-.3926,.0303-.6426,0-.248-.0103-.4629-.0303-.6445-.0205-.1826-.0601-.3379-.1187-.4648-.0571-.125-.1348-.2188-.2329-.2832-.0986-.0625-.2251-.0947-.3799-.0947-.1528,0-.2793,.0322-.3799,.0947-.0996,.0645-.1792,.1602-.2378,.2891-.0552,.1201-.0933,.2773-.1138,.4707-.02,.1934-.0303,.4062-.0303,.6367,0,.2539,.0088,.4668,.0269,.6377s.0562,.3242,.1147,.459c.0537,.127,.1299,.2236,.2285,.29,.0981,.0674,.229,.1006,.3916,.1006,.1528,0,.2798-.0322,.3809-.0947,.1011-.0645,.1792-.1602,.2344-.2891Z"/><path class="cls-4" d="M17.2694,183.4991h-1.9678v-.3711h.7568v-2.4365h-.7568v-.332c.1025,0,.2124-.0088,.3296-.0254,.1172-.0176,.2061-.042,.2661-.0752,.0747-.04,.1338-.0918,.1768-.1543,.0435-.0625,.0684-.1475,.0747-.2529h.3784v3.2764h.7422v.3711Z"/><path class="cls-4" d="M20.6557,183.4991h-2.4609v-.5098c.1709-.1465,.3423-.293,.5142-.4395,.1714-.1465,.3315-.293,.4795-.4375,.3125-.3027,.5264-.543,.6421-.7217,.1157-.1777,.1733-.3701,.1733-.5771,0-.1885-.0625-.3369-.1865-.4434-.125-.1064-.2983-.1602-.5215-.1602-.1479,0-.3086,.0264-.481,.0781-.1724,.0527-.3408,.1328-.5054,.2402h-.0244v-.5137c.1157-.0566,.2695-.1084,.4629-.1562,.1924-.0469,.3794-.0703,.5601-.0703,.3726,0,.665,.0898,.8765,.2695s.3174,.4238,.3174,.7314c0,.1387-.0176,.2676-.0527,.3867-.0347,.1201-.0864,.2334-.1548,.3408-.0635,.1006-.1382,.2002-.2231,.2979-.0859,.0977-.1895,.2061-.3115,.3252-.1743,.1699-.354,.3359-.5396,.4961s-.3589,.3086-.52,.4453h1.9556v.418Z"/></g><g><path class="cls-4" d="M39.4711,183.4991h-2.4609v-.5098c.1709-.1465,.3423-.293,.5142-.4395,.1714-.1465,.3315-.293,.4795-.4375,.3125-.3027,.5264-.543,.6421-.7217,.1157-.1777,.1733-.3701,.1733-.5771,0-.1885-.0625-.3369-.1865-.4434-.125-.1064-.2983-.1602-.5215-.1602-.1479,0-.3086,.0264-.481,.0781-.1724,.0527-.3408,.1328-.5054,.2402h-.0244v-.5137c.1157-.0566,.2695-.1084,.4629-.1562,.1924-.0469,.3794-.0703,.5601-.0703,.3726,0,.665,.0898,.8765,.2695s.3174,.4238,.3174,.7314c0,.1387-.0176,.2676-.0527,.3867-.0347,.1201-.0864,.2334-.1548,.3408-.0635,.1006-.1382,.2002-.2231,.2979-.0859,.0977-.1895,.2061-.3115,.3252-.1743,.1699-.354,.3359-.5396,.4961s-.3589,.3086-.52,.4453h1.9556v.418Z"/><path class="cls-4" d="M42.6449,181.6807c0,.6523-.1021,1.1309-.3062,1.4365-.2046,.3047-.5215,.458-.9512,.458-.436,0-.7549-.1553-.9561-.4648-.2007-.3086-.3013-.7842-.3013-1.4258,0-.6455,.1016-1.123,.3052-1.4316s.521-.4629,.9521-.4629c.436,0,.7549,.1572,.9561,.4707,.2007,.3135,.3013,.7861,.3013,1.4199Zm-.6421,1.1074c.0571-.1309,.0957-.2861,.1162-.4648,.02-.1777,.0303-.3926,.0303-.6426,0-.248-.0103-.4629-.0303-.6445-.0205-.1826-.0601-.3379-.1187-.4648-.0571-.125-.1348-.2188-.2329-.2832-.0986-.0625-.2251-.0947-.3799-.0947-.1528,0-.2793,.0322-.3799,.0947-.0996,.0645-.1792,.1602-.2378,.2891-.0552,.1201-.0933,.2773-.1138,.4707-.02,.1934-.0303,.4062-.0303,.6367,0,.2539,.0088,.4668,.0269,.6377s.0562,.3242,.1147,.459c.0537,.127,.1299,.2236,.2285,.29,.0981,.0674,.229,.1006,.3916,.1006,.1528,0,.2798-.0322,.3809-.0947,.1011-.0645,.1792-.1602,.2344-.2891Z"/><path class="cls-4" d="M45.621,183.4991h-1.9678v-.3711h.7568v-2.4365h-.7568v-.332c.1025,0,.2124-.0088,.3296-.0254,.1172-.0176,.2061-.042,.2661-.0752,.0747-.04,.1338-.0918,.1768-.1543,.0435-.0625,.0684-.1475,.0747-.2529h.3784v3.2764h.7422v.3711Z"/><path class="cls-4" d="M48.6874,181.7491c.0781,.0693,.1426,.1572,.1929,.2637,.0503,.1055,.0757,.2422,.0757,.4102,0,.166-.0303,.3174-.0903,.4561s-.145,.2588-.2539,.3613c-.1221,.1143-.2656,.1982-.4312,.2529-.165,.0547-.3462,.082-.543,.082-.2017,0-.4004-.0244-.5957-.0723s-.3555-.1006-.481-.1582v-.5098h.0366c.1382,.0908,.3013,.167,.4883,.2266,.187,.0605,.3677,.0908,.542,.0908,.1025,0,.2114-.0166,.3271-.0518,.1157-.0332,.209-.084,.2808-.1504,.0747-.0723,.1304-.1514,.1675-.2373,.0361-.0859,.0547-.1953,.0547-.3271,0-.1299-.0205-.2383-.0625-.3232-.041-.0859-.0986-.1533-.1719-.2021-.0732-.0498-.1621-.085-.2661-.1035s-.2163-.0273-.3369-.0273h-.2197v-.4062h.1709c.2476,0,.4448-.0508,.5923-.1543,.147-.1035,.2207-.2549,.2207-.4531,0-.0879-.0186-.165-.0562-.2305-.0376-.0664-.0894-.1201-.1562-.1621-.0698-.043-.145-.0723-.2246-.0879-.0796-.0166-.1699-.0254-.271-.0254-.1548,0-.3188,.0283-.4932,.084-.1743,.0547-.3384,.1328-.4932,.2344h-.0244v-.5107c.1157-.0566,.2695-.1094,.4629-.1572,.1924-.0479,.3794-.0723,.5601-.0723,.1772,0,.3335,.0166,.4688,.0488s.2573,.085,.3662,.1562c.1172,.0781,.2061,.1729,.2661,.2832s.0903,.2402,.0903,.3887c0,.2012-.0713,.3779-.2134,.5283-.1426,.1504-.3105,.2451-.5044,.2842v.0342c.0781,.0127,.1675,.04,.2686,.082,.1011,.041,.1865,.0928,.2563,.1553Z"/></g><g><path class="cls-4" d="M67.8222,183.4991h-2.4609v-.5098c.1709-.1465,.3423-.293,.5142-.4395,.1714-.1465,.3315-.293,.4795-.4375,.3125-.3027,.5264-.543,.6421-.7217,.1157-.1777,.1733-.3701,.1733-.5771,0-.1885-.0625-.3369-.1865-.4434-.125-.1064-.2983-.1602-.5215-.1602-.1479,0-.3086,.0264-.481,.0781-.1724,.0527-.3408,.1328-.5054,.2402h-.0244v-.5137c.1157-.0566,.2695-.1084,.4629-.1562,.1924-.0469,.3794-.0703,.5601-.0703,.3726,0,.665,.0898,.8765,.2695s.3174,.4238,.3174,.7314c0,.1387-.0176,.2676-.0527,.3867-.0347,.1201-.0864,.2334-.1548,.3408-.0635,.1006-.1382,.2002-.2231,.2979-.0859,.0977-.1895,.2061-.3115,.3252-.1743,.1699-.354,.3359-.5396,.4961s-.3589,.3086-.52,.4453h1.9556v.418Z"/><path class="cls-4" d="M70.996,181.6807c0,.6523-.1021,1.1309-.3062,1.4365-.2046,.3047-.5215,.458-.9512,.458-.436,0-.7549-.1553-.9561-.4648-.2007-.3086-.3013-.7842-.3013-1.4258,0-.6455,.1016-1.123,.3052-1.4316s.521-.4629,.9521-.4629c.436,0,.7549,.1572,.9561,.4707,.2007,.3135,.3013,.7861,.3013,1.4199Zm-.6421,1.1074c.0571-.1309,.0957-.2861,.1162-.4648,.02-.1777,.0303-.3926,.0303-.6426,0-.248-.0103-.4629-.0303-.6445-.0205-.1826-.0601-.3379-.1187-.4648-.0571-.125-.1348-.2188-.2329-.2832-.0986-.0625-.2251-.0947-.3799-.0947-.1528,0-.2793,.0322-.3799,.0947-.0996,.0645-.1792,.1602-.2378,.2891-.0552,.1201-.0933,.2773-.1138,.4707-.02,.1934-.0303,.4062-.0303,.6367,0,.2539,.0088,.4668,.0269,.6377s.0562,.3242,.1147,.459c.0537,.127,.1299,.2236,.2285,.29,.0981,.0674,.229,.1006,.3916,.1006,.1528,0,.2798-.0322,.3809-.0947,.1011-.0645,.1792-.1602,.2344-.2891Z"/><path class="cls-4" d="M73.9721,183.4991h-1.9678v-.3711h.7568v-2.4365h-.7568v-.332c.1025,0,.2124-.0088,.3296-.0254,.1172-.0176,.2061-.042,.2661-.0752,.0747-.04,.1338-.0918,.1768-.1543,.0435-.0625,.0684-.1475,.0747-.2529h.3784v3.2764h.7422v.3711Z"/><path class="cls-4" d="M77.4413,182.4756h-.5396v1.0234h-.4688v-1.0234h-1.7407v-.5605l1.7603-2.0508h.4492v2.2207h.5396v.3906Zm-1.0083-.3906v-1.6406l-1.4087,1.6406h1.4087Z"/></g><g><path class="cls-4" d="M96.1732,183.4991h-2.4609v-.5098c.1709-.1465,.3423-.293,.5142-.4395,.1714-.1465,.3315-.293,.4795-.4375,.3125-.3027,.5264-.543,.6421-.7217,.1157-.1777,.1733-.3701,.1733-.5771,0-.1885-.0625-.3369-.1865-.4434-.125-.1064-.2983-.1602-.5215-.1602-.1479,0-.3086,.0264-.481,.0781-.1724,.0527-.3408,.1328-.5054,.2402h-.0244v-.5137c.1157-.0566,.2695-.1084,.4629-.1562,.1924-.0469,.3794-.0703,.5601-.0703,.3726,0,.665,.0898,.8765,.2695s.3174,.4238,.3174,.7314c0,.1387-.0176,.2676-.0527,.3867-.0347,.1201-.0864,.2334-.1548,.3408-.0635,.1006-.1382,.2002-.2231,.2979-.0859,.0977-.1895,.2061-.3115,.3252-.1743,.1699-.354,.3359-.5396,.4961s-.3589,.3086-.52,.4453h1.9556v.418Z"/><path class="cls-4" d="M99.3471,181.6807c0,.6523-.1021,1.1309-.3062,1.4365-.2046,.3047-.5215,.458-.9512,.458-.436,0-.7549-.1553-.9561-.4648-.2007-.3086-.3013-.7842-.3013-1.4258,0-.6455,.1016-1.123,.3052-1.4316s.521-.4629,.9521-.4629c.436,0,.7549,.1572,.9561,.4707,.2007,.3135,.3013,.7861,.3013,1.4199Zm-.6421,1.1074c.0571-.1309,.0957-.2861,.1162-.4648,.02-.1777,.0303-.3926,.0303-.6426,0-.248-.0103-.4629-.0303-.6445-.0205-.1826-.0601-.3379-.1187-.4648-.0571-.125-.1348-.2188-.2329-.2832-.0986-.0625-.2251-.0947-.3799-.0947-.1528,0-.2793,.0322-.3799,.0947-.0996,.0645-.1792,.1602-.2378,.2891-.0552,.1201-.0933,.2773-.1138,.4707-.02,.1934-.0303,.4062-.0303,.6367,0,.2539,.0088,.4668,.0269,.6377s.0562,.3242,.1147,.459c.0537,.127,.1299,.2236,.2285,.29,.0981,.0674,.229,.1006,.3916,.1006,.1528,0,.2798-.0322,.3809-.0947,.1011-.0645,.1792-.1602,.2344-.2891Z"/><path class="cls-4" d="M102.3231,183.4991h-1.9678v-.3711h.7568v-2.4365h-.7568v-.332c.1025,0,.2124-.0088,.3296-.0254,.1172-.0176,.2061-.042,.2661-.0752,.0747-.04,.1338-.0918,.1768-.1543,.0435-.0625,.0684-.1475,.0747-.2529h.3784v3.2764h.7422v.3711Z"/><path class="cls-4" d="M105.6801,182.3448c0,.1689-.0308,.3311-.0928,.4854s-.1465,.2852-.2539,.3906c-.1172,.1143-.2568,.2012-.4185,.2627-.1621,.0605-.3496,.0918-.563,.0918-.1987,0-.3896-.0215-.5737-.0625-.1841-.042-.3394-.0918-.4663-.1504v-.5156h.0342c.1333,.085,.2896,.1572,.4688,.2168s.355,.0889,.5273,.0889c.1157,0,.2275-.0166,.3354-.0488,.1084-.0322,.2051-.0898,.2896-.1709,.0718-.0703,.1255-.1543,.1626-.252,.0361-.0977,.0547-.21,.0547-.3389,0-.125-.0215-.2314-.0645-.3174-.0435-.0859-.103-.1553-.1797-.207-.0845-.0625-.1875-.1055-.3086-.1309-.1216-.0254-.2568-.0381-.4067-.0381-.1431,0-.2812,.0098-.4136,.0293-.1328,.0195-.2471,.0391-.3433,.0586v-1.8721h2.1875v.4268h-1.7163v.9668c.0698-.0068,.1416-.0117,.2148-.0146s.1367-.0049,.1904-.0049c.1968,0,.3696,.0166,.5176,.0498s.2842,.0928,.4077,.1777c.1304,.0889,.231,.2051,.3027,.3457,.0718,.1426,.1074,.3193,.1074,.5332Z"/></g><g><path class="cls-4" d="M237.9286,183.4991h-2.4609v-.5098c.1709-.1465,.3423-.293,.5142-.4395,.1714-.1465,.3315-.293,.4795-.4375,.3125-.3027,.5264-.543,.6421-.7217,.1157-.1777,.1733-.3701,.1733-.5771,0-.1885-.0625-.3369-.1865-.4434-.125-.1064-.2983-.1602-.5215-.1602-.1479,0-.3086,.0264-.481,.0781-.1724,.0527-.3408,.1328-.5054,.2402h-.0244v-.5137c.1157-.0566,.2695-.1084,.4629-.1562,.1924-.0469,.3794-.0703,.5601-.0703,.3726,0,.665,.0898,.8765,.2695s.3174,.4238,.3174,.7314c0,.1387-.0176,.2676-.0527,.3867-.0347,.1201-.0864,.2334-.1548,.3408-.0635,.1006-.1382,.2002-.2231,.2979-.0859,.0977-.1895,.2061-.3115,.3252-.1743,.1699-.354,.3359-.5396,.4961s-.3589,.3086-.52,.4453h1.9556v.418Z"/><path class="cls-4" d="M241.1024,181.6807c0,.6523-.1021,1.1309-.3062,1.4365-.2046,.3047-.5215,.458-.9512,.458-.436,0-.7549-.1553-.9561-.4648-.2007-.3086-.3013-.7842-.3013-1.4258,0-.6455,.1016-1.123,.3052-1.4316s.521-.4629,.9521-.4629c.436,0,.7549,.1572,.9561,.4707,.2007,.3135,.3013,.7861,.3013,1.4199Zm-.6421,1.1074c.0571-.1309,.0957-.2861,.1162-.4648,.02-.1777,.0303-.3926,.0303-.6426,0-.248-.0103-.4629-.0303-.6445-.0205-.1826-.0601-.3379-.1187-.4648-.0571-.125-.1348-.2188-.2329-.2832-.0986-.0625-.2251-.0947-.3799-.0947-.1528,0-.2793,.0322-.3799,.0947-.0996,.0645-.1792,.1602-.2378,.2891-.0552,.1201-.0933,.2773-.1138,.4707-.02,.1934-.0303,.4062-.0303,.6367,0,.2539,.0088,.4668,.0269,.6377s.0562,.3242,.1147,.459c.0537,.127,.1299,.2236,.2285,.29,.0981,.0674,.229,.1006,.3916,.1006,.1528,0,.2798-.0322,.3809-.0947,.1011-.0645,.1792-.1602,.2344-.2891Z"/><path class="cls-4" d="M244.286,183.4991h-2.4609v-.5098c.1709-.1465,.3423-.293,.5142-.4395,.1714-.1465,.3315-.293,.4795-.4375,.3125-.3027,.5264-.543,.6421-.7217,.1157-.1777,.1733-.3701,.1733-.5771,0-.1885-.0625-.3369-.1865-.4434-.125-.1064-.2983-.1602-.5215-.1602-.1479,0-.3086,.0264-.481,.0781-.1724,.0527-.3408,.1328-.5054,.2402h-.0244v-.5137c.1157-.0566,.2695-.1084,.4629-.1562,.1924-.0469,.3794-.0703,.5601-.0703,.3726,0,.665,.0898,.8765,.2695s.3174,.4238,.3174,.7314c0,.1387-.0176,.2676-.0527,.3867-.0347,.1201-.0864,.2334-.1548,.3408-.0635,.1006-.1382,.2002-.2231,.2979-.0859,.0977-.1895,.2061-.3115,.3252-.1743,.1699-.354,.3359-.5396,.4961s-.3589,.3086-.52,.4453h1.9556v.418Z"/><path class="cls-4" d="M247.4599,181.6807c0,.6523-.1021,1.1309-.3062,1.4365-.2046,.3047-.5215,.458-.9512,.458-.436,0-.7549-.1553-.9561-.4648-.2007-.3086-.3013-.7842-.3013-1.4258,0-.6455,.1016-1.123,.3052-1.4316s.521-.4629,.9521-.4629c.436,0,.7549,.1572,.9561,.4707,.2007,.3135,.3013,.7861,.3013,1.4199Zm-.6421,1.1074c.0571-.1309,.0957-.2861,.1162-.4648,.02-.1777,.0303-.3926,.0303-.6426,0-.248-.0103-.4629-.0303-.6445-.0205-.1826-.0601-.3379-.1187-.4648-.0571-.125-.1348-.2188-.2329-.2832-.0986-.0625-.2251-.0947-.3799-.0947-.1528,0-.2793,.0322-.3799,.0947-.0996,.0645-.1792,.1602-.2378,.2891-.0552,.1201-.0933,.2773-.1138,.4707-.02,.1934-.0303,.4062-.0303,.6367,0,.2539,.0088,.4668,.0269,.6377s.0562,.3242,.1147,.459c.0537,.127,.1299,.2236,.2285,.29,.0981,.0674,.229,.1006,.3916,.1006,.1528,0,.2798-.0322,.3809-.0947,.1011-.0645,.1792-.1602,.2344-.2891Z"/></g><g><path class="cls-4" d="M266.2802,183.4991h-2.4609v-.5098c.1709-.1465,.3423-.293,.5142-.4395,.1714-.1465,.3315-.293,.4795-.4375,.3125-.3027,.5264-.543,.6421-.7217,.1157-.1777,.1733-.3701,.1733-.5771,0-.1885-.0625-.3369-.1865-.4434-.125-.1064-.2983-.1602-.5215-.1602-.1479,0-.3086,.0264-.481,.0781-.1724,.0527-.3408,.1328-.5054,.2402h-.0244v-.5137c.1157-.0566,.2695-.1084,.4629-.1562,.1924-.0469,.3794-.0703,.5601-.0703,.3726,0,.665,.0898,.8765,.2695s.3174,.4238,.3174,.7314c0,.1387-.0176,.2676-.0527,.3867-.0347,.1201-.0864,.2334-.1548,.3408-.0635,.1006-.1382,.2002-.2231,.2979-.0859,.0977-.1895,.2061-.3115,.3252-.1743,.1699-.354,.3359-.5396,.4961s-.3589,.3086-.52,.4453h1.9556v.418Z"/><path class="cls-4" d="M269.454,181.6807c0,.6523-.1021,1.1309-.3062,1.4365-.2046,.3047-.5215,.458-.9512,.458-.436,0-.7549-.1553-.9561-.4648-.2007-.3086-.3013-.7842-.3013-1.4258,0-.6455,.1016-1.123,.3052-1.4316s.521-.4629,.9521-.4629c.436,0,.7549,.1572,.9561,.4707,.2007,.3135,.3013,.7861,.3013,1.4199Zm-.6421,1.1074c.0571-.1309,.0957-.2861,.1162-.4648,.02-.1777,.0303-.3926,.0303-.6426,0-.248-.0103-.4629-.0303-.6445-.0205-.1826-.0601-.3379-.1187-.4648-.0571-.125-.1348-.2188-.2329-.2832-.0986-.0625-.2251-.0947-.3799-.0947-.1528,0-.2793,.0322-.3799,.0947-.0996,.0645-.1792,.1602-.2378,.2891-.0552,.1201-.0933,.2773-.1138,.4707-.02,.1934-.0303,.4062-.0303,.6367,0,.2539,.0088,.4668,.0269,.6377s.0562,.3242,.1147,.459c.0537,.127,.1299,.2236,.2285,.29,.0981,.0674,.229,.1006,.3916,.1006,.1528,0,.2798-.0322,.3809-.0947,.1011-.0645,.1792-.1602,.2344-.2891Z"/><path class="cls-4" d="M272.6376,183.4991h-2.4609v-.5098c.1709-.1465,.3423-.293,.5142-.4395,.1714-.1465,.3315-.293,.4795-.4375,.3125-.3027,.5264-.543,.6421-.7217,.1157-.1777,.1733-.3701,.1733-.5771,0-.1885-.0625-.3369-.1865-.4434-.125-.1064-.2983-.1602-.5215-.1602-.1479,0-.3086,.0264-.481,.0781-.1724,.0527-.3408,.1328-.5054,.2402h-.0244v-.5137c.1157-.0566,.2695-.1084,.4629-.1562,.1924-.0469,.3794-.0703,.5601-.0703,.3726,0,.665,.0898,.8765,.2695s.3174,.4238,.3174,.7314c0,.1387-.0176,.2676-.0527,.3867-.0347,.1201-.0864,.2334-.1548,.3408-.0635,.1006-.1382,.2002-.2231,.2979-.0859,.0977-.1895,.2061-.3115,.3252-.1743,.1699-.354,.3359-.5396,.4961s-.3589,.3086-.52,.4453h1.9556v.418Z"/><path class="cls-4" d="M275.6088,183.4991h-1.9678v-.3711h.7568v-2.4365h-.7568v-.332c.1025,0,.2124-.0088,.3296-.0254,.1172-.0176,.2061-.042,.2661-.0752,.0747-.04,.1338-.0918,.1768-.1543,.0435-.0625,.0684-.1475,.0747-.2529h.3784v3.2764h.7422v.3711Z"/></g><rect class="cls-5" x="28.4379" y="124.2917" width="28.1708" height="52"/><rect class="cls-5" x=".2671" y="130.2917" width="28.1708" height="46"/><rect class="cls-5" x="56.6087" y="121.2917" width="28.1708" height="55"/><rect class="cls-5" x="84.7795" y="117.2917" width="28.1708" height="59"/><rect class="cls-5" x="112.9502" y="114.2917" width="28.1708" height="62"/><g><path class="cls-3" d="M40.5946,119.1026c.2827,.2217,.4243,.5322,.4243,.9316,0,.248-.0581,.4697-.1738,.665-.1162,.1953-.29,.3496-.5225,.4609-.2319,.1123-.5171,.168-.855,.168-.3052,0-.5952-.0498-.8701-.1494s-.4956-.2334-.6626-.4004l.2139-.3477c.1426,.1465,.3296,.2656,.562,.3574,.2319,.0918,.4824,.1377,.751,.1377,.354,0,.6279-.0801,.8213-.2383,.1934-.1592,.29-.3711,.29-.6357,0-.293-.1089-.5146-.3267-.665-.2178-.1514-.5854-.2266-1.1021-.2266h-.9102l.2197-2.1436h2.3389v.3906h-1.9541l-.1465,1.3623h.5498c.6187,0,1.0693,.1113,1.3525,.333Z"/><path class="cls-3" d="M42.143,120.751c.061,.0635,.0913,.1416,.0913,.2354,0,.0488-.0073,.1016-.0215,.1592-.0142,.0566-.0356,.1221-.064,.1953l-.2563,.8428h-.2935l.208-.8857c-.0654-.0205-.1182-.0576-.1592-.1133-.0405-.0547-.061-.1211-.061-.1982,0-.0938,.0308-.1719,.0918-.2354,.061-.0625,.1382-.0947,.2319-.0947s.1709,.0322,.2324,.0947Z"/><path class="cls-3" d="M45.8495,120.9014v.3906h-2.9985v-.3115l1.7769-1.7402c.2241-.2207,.376-.4102,.4551-.5713,.0796-.1611,.1191-.3232,.1191-.4854,0-.2529-.0864-.4492-.2598-.5898-.1729-.1406-.4204-.2109-.7417-.2109-.501,0-.8896,.1592-1.1665,.4766l-.3115-.2686c.167-.1953,.3799-.3457,.6382-.4521,.2588-.1055,.5508-.1582,.8765-.1582,.4355,0,.7808,.1025,1.0352,.3086,.2544,.2051,.3818,.4873,.3818,.8457,0,.2197-.0493,.4316-.147,.6348-.0977,.2041-.2827,.4375-.5557,.7021l-1.4531,1.4297h2.3511Z"/></g><g><path class="cls-3" d="M14.2021,126.3575h-.855v1.123h-.4395v-1.123h-2.4126v-.3184l2.2656-2.833h.4888l-2.1865,2.7598h1.8569v-.9893h.4272v.9893h.855v.3916Z"/><path class="cls-3" d="M15.2953,126.9405c.061,.0625,.0913,.1416,.0913,.2354,0,.0488-.0073,.1016-.0215,.1582-.0142,.0576-.0356,.1221-.064,.1953l-.2563,.8428h-.2935l.208-.8848c-.0654-.0205-.1182-.0586-.1592-.1133-.0405-.0547-.061-.1211-.061-.1982,0-.0938,.0308-.1729,.0918-.2354,.061-.0635,.1382-.0947,.2319-.0947s.1709,.0312,.2324,.0947Z"/><path class="cls-3" d="M18.474,125.0811c.2178,.1055,.3877,.2549,.5098,.4482s.1831,.4189,.1831,.6748c0,.2607-.063,.4912-.1895,.6904-.126,.1992-.3003,.3535-.522,.4609-.2222,.1084-.4712,.1621-.748,.1621-.5659,0-.9995-.1865-1.3008-.5586-.3013-.373-.4521-.8994-.4521-1.5791,0-.4766,.0815-.8789,.2446-1.209,.1626-.3301,.3906-.5791,.6836-.748,.2935-.1689,.6353-.2539,1.0264-.2539,.4233,0,.7612,.0771,1.0137,.2324l-.1772,.3545c-.2036-.1348-.4805-.2021-.8306-.2021-.4722,0-.8428,.1494-1.1113,.4492-.2686,.2988-.4033,.7334-.4033,1.3037,0,.1016,.0063,.2178,.0186,.3477,.106-.2314,.2749-.4121,.5068-.54s.4985-.1924,.7998-.1924c.2812,0,.5303,.0527,.7485,.1592Zm-.0308,1.8105c.1934-.1689,.29-.3945,.29-.6748,0-.2812-.0967-.5049-.29-.6719s-.4551-.251-.7847-.251c-.2158,0-.4062,.041-.5713,.123-.1646,.0811-.2939,.1934-.3877,.335-.0938,.1426-.1401,.3018-.1401,.4766,0,.1631,.0435,.3135,.1309,.4521,.0879,.1387,.2168,.25,.3882,.3359,.1709,.0859,.3745,.1279,.6104,.1279,.3096,0,.561-.084,.7544-.2529Z"/></g><g><path class="cls-3" d="M68.3837,115.9932c.2827,.2227,.4243,.5322,.4243,.9316,0,.248-.0581,.4707-.1738,.666-.1162,.1953-.29,.3486-.5225,.4609-.2319,.1123-.5171,.168-.855,.168-.3052,0-.5952-.0498-.8701-.1494-.2749-.1006-.4956-.2334-.6626-.4004l.2139-.3486c.1426,.1475,.3296,.2666,.562,.3574,.2319,.0918,.4824,.1377,.751,.1377,.354,0,.6279-.0791,.8213-.2383,.1934-.1582,.29-.3701,.29-.6348,0-.293-.1089-.5156-.3267-.666s-.5854-.2256-1.1021-.2256h-.9102l.2197-2.1436h2.3389v.3906h-1.9541l-.1465,1.3623h.5498c.6187,0,1.0693,.1104,1.3525,.332Z"/><path class="cls-3" d="M69.932,117.6426c.061,.0625,.0913,.1416,.0913,.2354,0,.0488-.0073,.1016-.0215,.1582-.0142,.0576-.0356,.1221-.064,.1953l-.2563,.8428h-.2935l.208-.8848c-.0654-.0205-.1182-.0586-.1592-.1133-.0405-.0547-.061-.1211-.061-.1982,0-.0938,.0308-.1729,.0918-.2354,.061-.0635,.1382-.0947,.2319-.0947s.1709,.0312,.2324,.0947Z"/><path class="cls-3" d="M73.1347,115.9932c.2827,.2227,.4243,.5322,.4243,.9316,0,.248-.0581,.4707-.1738,.666-.1162,.1953-.29,.3486-.5225,.4609-.2319,.1123-.5171,.168-.855,.168-.3052,0-.5952-.0498-.8701-.1494-.2749-.1006-.4956-.2334-.6626-.4004l.2139-.3486c.1426,.1475,.3296,.2666,.562,.3574,.2319,.0918,.4824,.1377,.751,.1377,.354,0,.6279-.0791,.8213-.2383,.1934-.1582,.29-.3701,.29-.6348,0-.293-.1089-.5156-.3267-.666s-.5854-.2256-1.1021-.2256h-.9102l.2197-2.1436h2.3389v.3906h-1.9541l-.1465,1.3623h.5498c.6187,0,1.0693,.1104,1.3525,.332Z"/></g><g><path class="cls-3" d="M97.4237,112.1172c.2827,.2217,.4243,.5322,.4243,.9316,0,.248-.0581,.4697-.1738,.665-.1162,.1953-.29,.3496-.5225,.4609-.2319,.1123-.5171,.168-.855,.168-.3052,0-.5952-.0498-.8701-.1494s-.4956-.2334-.6626-.4004l.2139-.3477c.1426,.1465,.3296,.2656,.562,.3574,.2319,.0918,.4824,.1377,.751,.1377,.354,0,.6279-.0801,.8213-.2383,.1934-.1592,.29-.3711,.29-.6357,0-.293-.1089-.5146-.3267-.665-.2178-.1514-.5854-.2266-1.1021-.2266h-.9102l.2197-2.1436h2.3389v.3906h-1.9541l-.1465,1.3623h.5498c.6187,0,1.0693,.1113,1.3525,.333Z"/><path class="cls-3" d="M98.9721,113.7657c.061,.0635,.0913,.1416,.0913,.2354,0,.0488-.0073,.1016-.0215,.1592-.0142,.0566-.0356,.1221-.064,.1953l-.2563,.8428h-.2935l.208-.8857c-.0654-.0205-.1182-.0576-.1592-.1133-.0405-.0547-.061-.1211-.061-.1982,0-.0938,.0308-.1719,.0918-.2354,.061-.0625,.1382-.0947,.2319-.0947s.1709,.0322,.2324,.0947Z"/><path class="cls-3" d="M102.3305,110.5538c.3013,.3721,.4517,.8984,.4517,1.5781,0,.4766-.0811,.8799-.2441,1.21-.1626,.3291-.3906,.5791-.6841,.748-.293,.1689-.6348,.2529-1.0259,.2529-.4233,0-.7612-.0771-1.0137-.2314l.1772-.3545c.2036,.1348,.48,.2012,.8306,.2012,.4722,0,.8428-.1494,1.1113-.4482,.2686-.2998,.4028-.7344,.4028-1.3037,0-.1064-.0059-.2227-.0181-.3486-.106,.2324-.2749,.4121-.5068,.541-.2319,.1279-.499,.1924-.8003,.1924-.2808,0-.5303-.0537-.748-.1592s-.3877-.2559-.5098-.4492-.1831-.418-.1831-.6748c0-.2607,.063-.4902,.189-.6895,.1265-.2002,.3003-.3535,.5225-.4619,.2217-.1074,.4712-.1611,.748-.1611,.5659,0,.9995,.1855,1.3008,.5586Zm-.6812,1.542c.165-.0811,.2944-.1934,.3882-.3359,.0933-.1426,.1401-.3008,.1401-.4766,0-.1621-.0435-.3135-.1313-.4521-.0874-.1377-.2168-.25-.3877-.335-.1709-.0859-.3745-.1289-.6108-.1289-.3091,0-.5605,.085-.7539,.2539s-.29,.3936-.29,.6748c0,.2803,.0967,.5049,.29,.6719s.4551,.25,.7847,.25c.2158,0,.4062-.041,.5708-.1221Z"/></g><g><path class="cls-3" d="M124.5702,108.7979c.2178,.1055,.3877,.2549,.5098,.4482s.1831,.4189,.1831,.6748c0,.2607-.063,.4912-.1895,.6904-.126,.1992-.3003,.3535-.522,.4609-.2222,.1084-.4712,.1621-.748,.1621-.5659,0-.9995-.1865-1.3008-.5586-.3013-.373-.4521-.8994-.4521-1.5791,0-.4766,.0815-.8789,.2446-1.209,.1626-.3301,.3906-.5791,.6836-.748,.2935-.1689,.6353-.2539,1.0264-.2539,.4233,0,.7612,.0771,1.0137,.2324l-.1772,.3545c-.2036-.1348-.4805-.2021-.8306-.2021-.4722,0-.8428,.1494-1.1113,.4492-.2686,.2988-.4033,.7334-.4033,1.3037,0,.1016,.0063,.2178,.0186,.3477,.106-.2314,.2749-.4121,.5068-.54s.4985-.1924,.7998-.1924c.2812,0,.5303,.0527,.7485,.1592Zm-.0308,1.8105c.1934-.1689,.29-.3945,.29-.6748,0-.2812-.0967-.5049-.29-.6719s-.4551-.251-.7847-.251c-.2158,0-.4062,.041-.5713,.123-.1646,.0811-.2939,.1934-.3877,.335-.0938,.1426-.1401,.3018-.1401,.4766,0,.1631,.0435,.3135,.1309,.4521,.0879,.1387,.2168,.25,.3882,.3359,.1709,.0859,.3745,.1279,.6104,.1279,.3096,0,.561-.084,.7544-.2529Z"/><path class="cls-3" d="M126.3993,110.6573c.061,.0625,.0913,.1416,.0913,.2354,0,.0488-.0073,.1016-.0215,.1582-.0142,.0576-.0356,.1221-.064,.1953l-.2563,.8428h-.2935l.208-.8848c-.0654-.0205-.1182-.0586-.1592-.1133-.0405-.0547-.061-.1211-.061-.1982,0-.0938,.0308-.1729,.0918-.2354,.061-.0635,.1382-.0947,.2319-.0947s.1709,.0312,.2324,.0947Z"/><path class="cls-3" d="M130.1059,110.8067v.3906h-2.9985v-.3115l1.7769-1.7402c.2241-.2197,.376-.4102,.4551-.5713,.0796-.1602,.1191-.3223,.1191-.4854,0-.252-.0864-.4482-.2598-.5889-.1729-.1406-.4204-.2109-.7417-.2109-.501,0-.8896,.1592-1.1665,.4766l-.3115-.2686c.167-.1963,.3799-.3467,.6382-.4521,.2588-.1064,.5508-.1592,.8765-.1592,.4355,0,.7808,.1035,1.0352,.3086,.2544,.2061,.3818,.4873,.3818,.8457,0,.2197-.0493,.4316-.147,.6357-.0977,.2031-.2827,.4375-.5557,.7021l-1.4531,1.4287h2.3511Z"/></g></svg>