<?xml version="1.0" encoding="UTF-8"?><svg id="Layer_1" xmlns="http://www.w3.org/2000/svg" viewBox="0 0 281.5456 96.5544"><defs><style>.cls-1{fill:#a2a2a2;font-family:Verdana, Verdana;font-size:4.5543px;}.cls-2{stroke:#1256bb;}.cls-2,.cls-3{fill:none;stroke-miterlimit:10;}.cls-3{stroke:#a2a2a2;stroke-width:.5px;}</style></defs><path class="cls-2" d="M.3597,68.2396c5.8295,2.5781,6.8034-.8351,11.8636-1.0074,6.3424,1.0061,4.7357-2.4403,9.1666-4.0701,4.2307-.8131,8.3024,2.3626,12.3958,1.079,3.8318-1.8178,8.3502,1.4253,11.5886-2.408,3.2354-3.016,5.5347,3.6019,8.9666,1.8055,3.4988-2.1885,8.5577,2.0963,8.9181-.0605,1.8737-15.7539,2.0649-31.7502,3.2122-47.6022,.495-2.3288,.2291-16.4085,2.2991-15.427,1.4244,1.0588,2.3461,2.8392,3.482,4.2863,3.3372,1.9695,7.6957,.0486,11.242-.6192,2.8008,.9306,3.3839,15.5636,5.1129,19.2087,.9621,1.6665,3.3609-.4219,4.7808-.4529,2.5442-.8181,3.2568,3.2851,4.3864,5.2434,1.3434,3.2062,3.2046,5.9204,5.2629,8.4542,1.6849,2.3254,3.7787,.0782,5.5637-.815,1.7398-.8664,2.0187-.5344,2.4835,1.3136,.7677,3.0519,1.3385,6.1769,2.0092,9.2656,1.5167,5.3097,.2957,9.2184,6.0497,5.7983,1.1595-.5064,2.2935-.2803,3.3409,.4556,2.467,2.3559,5.4784,1.6709,8.3678,1.8536,2.5022,.247,3.4212,13.0524,5.8906,11.1385,5.9188-13.9477,4.3904-17.0639,18.8792-17.2068,3.9816-.5633,3.5607-7.4503,5.5695-10.7324l.5761-.6092c2.8583-1.9065,7.7763,9.3403,11.0258,10.0787,5.2572,.8779,5.9614,1.909,8.1584-4.6281,.7829-1.396,1.0725-4.0308,2.8118-3.926,2.617,.2543,5.4283-.2189,7.6496,1.8471,3.0859,2.7022,7.1452,2.7807,10.1069,5.7775,1.3925,1.3661,3.1333,1.5897,4.7486,.7929,5.3229-2.8006,11.2178,2.0792,16.5319-.5602,.919-.3111,2.5103-1.4055,2.9596,.2026,1.7495,4.5516,2.0087,9.7961,3.9601,14.2489,1.9298,2.7791,4.1087-10.3867,5.0437-11.9369,4.8122-6.8838,14.3433,1.3354,19.6253-4.8443,.7721-.7131,1.68-1.2197,2.684-1.0343,7.956,.7015,8.299,13.9927,15.0917,.9883"/><text class="cls-1" transform="translate(89.0703 85.8698)"><tspan x="0" y="0">Май</tspan></text><text class="cls-1" transform="translate(110.7939 85.8698)"><tspan x="0" y="0">Июн</tspan></text><text class="cls-1" transform="translate(132.8818 85.8698)"><tspan x="0" y="0">Июл</tspan></text><text class="cls-1" transform="translate(155.9805 85.8698)"><tspan x="0" y="0">Авг</tspan></text><text class="cls-1" transform="translate(1.2012 85.8698)"><tspan x="0" y="0">Янв</tspan></text><text class="cls-1" transform="translate(23.0889 85.8698)"><tspan x="0" y="0">Фев</tspan></text><text class="cls-1" transform="translate(45.0088 85.8698)"><tspan x="0" y="0">Мар</tspan></text><text class="cls-1" transform="translate(67.3369 85.8698)"><tspan x="0" y="0">Апр</tspan></text><text class="cls-1" transform="translate(259.7998 95.1735)"><tspan x="0" y="0">2021</tspan></text><text class="cls-1" transform="translate(177.6162 85.8698)"><tspan x="0" y="0">Сен</tspan></text><text class="cls-1" transform="translate(199.7949 85.8698)"><tspan x="0" y="0">Окт</tspan></text><text class="cls-1" transform="translate(221.6562 85.8698)"><tspan x="0" y="0">Ноя</tspan></text><text class="cls-1" transform="translate(243.7627 85.8698)"><tspan x="0" y="0">Дек</tspan></text><text class="cls-1" transform="translate(265.8027 87.2633)"><tspan x="0" y="0">Янв</tspan></text><line class="cls-3" x1="259.599" y1="88.9213" x2="281.5456" y2="88.9213"/><line class="cls-3" x1=".3282" y1="88.8517" x2="258.4089" y2="88.8517"/><text class="cls-1" transform="translate(0 95.0387)"><tspan x="0" y="0">2020</tspan></text></svg>