<?xml version="1.0" encoding="UTF-8"?><svg id="Layer_1" xmlns="http://www.w3.org/2000/svg" viewBox="0 0 313.4502 158.9707"><defs><style>.cls-1{letter-spacing:-.0101em;}.cls-2,.cls-3{font-family:Montserrat-Bold, Montserrat;font-size:6.107px;}.cls-2,.cls-4{fill:#1256bb;}.cls-3,.cls-5{fill:#7ec500;}.cls-6{letter-spacing:.004em;}.cls-7{fill:#a2a2a2;font-family:Verdana, Verdana;font-size:5px;}.cls-8,.cls-9{fill:#f8f8f7;}.cls-8,.cls-9,.cls-10,.cls-11,.cls-12{stroke-miterlimit:10;}.cls-8,.cls-10{stroke:#1256bb;}.cls-9,.cls-11{stroke:#7ec500;}.cls-13{letter-spacing:.01em;}.cls-10,.cls-11,.cls-12{fill:none;}.cls-14{font-family:Montserrat-Regular, Montserrat;font-size:4.9429px;}.cls-15{letter-spacing:-.0161em;}.cls-16{letter-spacing:-.013em;}.cls-17{letter-spacing:-.013em;}.cls-12{stroke:#a2a2a2;stroke-width:.5px;}</style></defs><g><text class="cls-7" transform="translate(102.1934 147.335)"><tspan x="0" y="0">Q1 </tspan></text><text class="cls-7" transform="translate(114.4941 147.335)"><tspan x="0" y="0">Q2 </tspan></text><text class="cls-7" transform="translate(126.7949 147.335)"><tspan x="0" y="0">Q3 </tspan></text><text class="cls-7" transform="translate(139.0967 147.335)"><tspan x="0" y="0">Q4 </tspan></text><line class="cls-12" x1="100.7479" y1="150.6615" x2="149.0275" y2="150.6615"/><text class="cls-7" transform="translate(100.6851 157.4542)"><tspan x="0" y="0">2018</tspan></text></g><g><text class="cls-7" transform="translate(51.8506 147.335)"><tspan x="0" y="0">Q1 </tspan></text><text class="cls-7" transform="translate(64.1514 147.335)"><tspan x="0" y="0">Q2 </tspan></text><text class="cls-7" transform="translate(76.4521 147.335)"><tspan x="0" y="0">Q3 </tspan></text><text class="cls-7" transform="translate(88.7539 147.335)"><tspan x="0" y="0">Q4 </tspan></text><line class="cls-12" x1="50.4052" y1="150.6615" x2="98.6849" y2="150.6615"/><text class="cls-7" transform="translate(50.3423 157.4542)"><tspan x="0" y="0">2017</tspan></text></g><g><text class="cls-7" transform="translate(1.5083 147.335)"><tspan x="0" y="0">Q1 </tspan></text><text class="cls-7" transform="translate(13.8091 147.335)"><tspan x="0" y="0">Q2 </tspan></text><text class="cls-7" transform="translate(26.1099 147.335)"><tspan x="0" y="0">Q3 </tspan></text><text class="cls-7" transform="translate(38.4116 147.335)"><tspan x="0" y="0">Q4 </tspan></text><line class="cls-12" x1=".3827" y1="150.6615" x2="48.3425" y2="150.6615"/><text class="cls-7" transform="translate(0 157.4542)"><tspan x="0" y="0">2016</tspan></text></g><g><text class="cls-7" transform="translate(152.5359 147.335)"><tspan x="0" y="0">Q1 </tspan></text><text class="cls-7" transform="translate(164.8367 147.335)"><tspan x="0" y="0">Q2 </tspan></text><text class="cls-7" transform="translate(177.1375 147.335)"><tspan x="0" y="0">Q3 </tspan></text><text class="cls-7" transform="translate(189.4392 147.335)"><tspan x="0" y="0">Q4 </tspan></text><line class="cls-12" x1="151.0904" y1="150.6615" x2="199.37" y2="150.6615"/><text class="cls-7" transform="translate(151.0276 157.4542)"><tspan x="0" y="0">2019</tspan></text></g><g><text class="cls-7" transform="translate(202.8782 147.335)"><tspan x="0" y="0">Q1 </tspan></text><text class="cls-7" transform="translate(215.179 147.335)"><tspan x="0" y="0">Q2 </tspan></text><text class="cls-7" transform="translate(227.4797 147.335)"><tspan x="0" y="0">Q3 </tspan></text><text class="cls-7" transform="translate(239.7815 147.335)"><tspan x="0" y="0">Q4 </tspan></text><line class="cls-12" x1="201.4327" y1="150.6615" x2="249.7123" y2="150.6615"/><text class="cls-7" transform="translate(201.3699 157.4542)"><tspan x="0" y="0">2020</tspan></text></g><g><text class="cls-7" transform="translate(253.2205 147.335)"><tspan x="0" y="0">Q1 </tspan></text><text class="cls-7" transform="translate(265.5212 147.335)"><tspan x="0" y="0">Q2 </tspan></text><text class="cls-7" transform="translate(277.822 147.335)"><tspan x="0" y="0">Q3 </tspan></text><text class="cls-7" transform="translate(290.1238 147.335)"><tspan x="0" y="0">Q4 </tspan></text><line class="cls-12" x1="251.7749" y1="150.6615" x2="300.0546" y2="150.6615"/><text class="cls-7" transform="translate(251.7122 157.4542)"><tspan x="0" y="0">2021</tspan></text></g><text class="cls-3" transform="translate(298.8057 91.7521)"><tspan class="cls-17" x="0" y="0">0</tspan><tspan x="4.0674" y="0">,</tspan><tspan class="cls-1" x="5.6675" y="0">5</tspan><tspan x="9.2397" y="0">%</tspan></text><text class="cls-3" transform="translate(198.4697 129.6186)"><tspan class="cls-6" x="0" y="0">−</tspan><tspan class="cls-13" x="3.6826" y="0">6</tspan><tspan class="cls-15" x="7.6338" y="0">,</tspan><tspan x="9.1357" y="0">1%</tspan></text><text class="cls-2" transform="translate(298.7996 79.0763)"><tspan class="cls-13" x="0" y="0">2,</tspan><tspan class="cls-1" x="5.3252" y="0">8</tspan><tspan x="9.2944" y="0">%</tspan></text><text class="cls-2" transform="translate(102.0762 31.2794)"><tspan x="0" y="0">1</tspan><tspan class="cls-16" x="2.394" y="0">0</tspan><tspan class="cls-13" x="6.4609" y="0">,2</tspan><tspan x="11.7861" y="0">%</tspan></text><text class="cls-14" transform="translate(11.0806 5.2014)"><tspan x="0" y="0">Рост реальных распола-</tspan><tspan x="0" y="5.9316">гаемых доходов, год к году</tspan></text><text class="cls-14" transform="translate(11.0806 19.5402)"><tspan x="0" y="0">Рост реальной заработной</tspan><tspan x="0" y="5.9316">платы, год к году</tspan></text><circle class="cls-4" cx="3.6986" cy="17.4758" r="2.1363"/><circle class="cls-5" cx="3.6986" cy="3.8777" r="2.1363"/><polyline class="cls-10" points="6.6235 96.5482 19.1524 91.4919 31.6825 86.5725 44.2126 83.163 56.7427 83.0217 69.2728 73.9974 81.8029 75.7119 94.333 59.7808 106.8631 35.5316 119.3932 50.2026 131.9234 57.6884 144.4535 69.9647 156.9836 85.8957 169.5137 78.5353 182.0438 76.2668 194.5739 67.1919 207.104 58.0664 219.6329 93.7417 232.163 83.0723 244.693 80.8038 257.2231 84.1821 269.7533 62.1 282.2834 81.8247 294.8135 77.4762"/><polyline class="cls-11" points="6.6226 108.103 19.1527 122.8496 31.6827 114.8462 44.2129 125.0176 56.743 92.693 69.2731 97.2638 81.8032 98.8671 94.3333 94.4155 106.8634 85.9461 119.3935 90.4334 131.9236 91.4916 144.4537 96.6342 156.9838 105.0537 169.5127 89.3245 182.244 79.0393 194.5729 79.1149 207.103 80.8036 219.6331 127.7654 232.1632 115.4385 244.6933 93.9744 257.2234 115.0854 269.7535 54.7393 282.2836 43.3959 294.8137 89.4747"/><circle class="cls-9" cx="294.8135" cy="89.3685" r="1.6001"/><circle class="cls-8" cx="294.5598" cy="77.4762" r="1.6001"/><circle class="cls-8" cx="106.6294" cy="35.5316" r="1.6001"/><circle class="cls-9" cx="219.6149" cy="126.7654" r="1.6001"/></svg>