<?xml version="1.0" encoding="utf-8"?>
<!-- Generator: Adobe Illustrator 26.5.0, SVG Export Plug-In . SVG Version: 6.00 Build 0)  -->
<svg version="1.1" id="Layer_1" xmlns="http://www.w3.org/2000/svg" xmlns:xlink="http://www.w3.org/1999/xlink" x="0px" y="0px"
	 viewBox="0 0 85.8 21.5" style="enable-background:new 0 0 85.8 21.5;" xml:space="preserve">
<style type="text/css">
	.st0{fill:#FFFFFF;}
	.st1{fill:#81BB3C;}
</style>
<g>
	<path class="st0" d="M5.9,13.3v7.6c0,0.2,0,0.3-0.1,0.4c-0.1,0.1-0.2,0.2-0.4,0.2H0.6c-0.2,0-0.3-0.1-0.4-0.2C0.1,21.2,0,21,0,20.9
		V0.7c0-0.2,0.1-0.3,0.2-0.4c0.1-0.1,0.2-0.2,0.4-0.2h6c0.2,0,0.3,0.1,0.4,0.2c0.1,0.1,0.2,0.3,0.2,0.4v3.9C7.2,4.8,7.1,4.9,7,5
		C6.9,5.1,6.8,5.2,6.6,5.2H5.9v3.1h0.7c0.4,0,0.6,0.2,0.6,0.6v3.9c0,0.4-0.2,0.6-0.6,0.6L5.9,13.3z"/>
	<path class="st0" d="M8.5,13.3c-0.2,0-0.3-0.1-0.4-0.2s-0.2-0.2-0.2-0.4V8.8c0-0.2,0.1-0.3,0.2-0.4c0.1-0.1,0.2-0.2,0.4-0.2h6.1
		c0.4,0,0.6,0.2,0.6,0.6v3.9c0,0.4-0.2,0.6-0.6,0.6H8.5z"/>
	<path class="st0" d="M18.1,5.3c-0.1,0-0.3-0.1-0.3-0.2c-0.1-0.1-0.1-0.2-0.1-0.4v-4c0-0.4,0.2-0.6,0.5-0.6h4.2
		c0.1,0,0.3,0.1,0.4,0.2C22.9,0.4,23,0.6,23,0.7v4c0,0.2-0.1,0.3-0.1,0.4c-0.1,0.1-0.2,0.2-0.4,0.2H18.1z M18.1,21.5
		c-0.1,0-0.3-0.1-0.4-0.2c-0.1-0.1-0.1-0.2-0.1-0.4V6.6c0-0.2,0-0.3,0.1-0.4C17.8,6.1,17.9,6,18,6h4.2c0.1,0,0.3,0.1,0.4,0.2
		c0.1,0.1,0.2,0.2,0.2,0.4v14.3c0,0.2-0.1,0.3-0.1,0.4c-0.1,0.1-0.2,0.2-0.4,0.2H18.1z"/>
	<path class="st0" d="M40.4,21.5c-0.1,0-0.2,0-0.3-0.1c-0.1-0.1-0.2-0.1-0.2-0.2c-0.6-1-1.3-2-2.1-3.2s-1.6-2.4-2.5-3.8l-4.6,7
		c0,0-0.1,0.1-0.2,0.1c-0.1,0.1-0.2,0.1-0.3,0.1h-5.5c-0.2,0-0.4-0.1-0.5-0.3c-0.1-0.2-0.1-0.4,0.1-0.6l7.2-10.4
		c0-0.1,0.1-0.1,0.2-0.2c0.1,0,0.2-0.1,0.2-0.1h6.8c0.2,0,0.3,0.1,0.4,0.2l7.1,10.5c0.1,0.2,0.2,0.4,0.1,0.6
		c-0.1,0.2-0.3,0.3-0.5,0.3L40.4,21.5z M39.8,8.9c0,0-0.1,0.1-0.2,0.1c-0.1,0.1-0.2,0.1-0.2,0.1h-8c-0.1,0-0.1,0-0.2-0.1
		C31.1,9,31,8.9,31,8.9l-5.4-7.8c-0.1-0.2-0.2-0.4-0.1-0.6c0.1-0.2,0.3-0.3,0.5-0.3h5.6c0.1,0,0.2,0,0.3,0.1
		c0.1,0.1,0.2,0.1,0.2,0.1l3.3,5.3l3.5-5.4c0,0,0.1-0.1,0.2-0.2C39.2,0,39.3,0,39.4,0H45c0.3,0,0.4,0.1,0.5,0.3
		c0.1,0.2,0.1,0.4-0.1,0.6L39.8,8.9z"/>
	<path class="st1" d="M65.5,16.5c0,2-1.6,3.7-3.7,3.7c-2,0-3.7-1.6-3.7-3.7c0-2,1.6-3.7,3.7-3.7S65.5,14.4,65.5,16.5z"/>
	<path class="st1" d="M75.6,16.5c0,2-1.6,3.7-3.7,3.7c-2,0-3.7-1.6-3.7-3.7c0-2,1.6-3.7,3.7-3.7C74,12.8,75.6,14.4,75.6,16.5z"/>
	<path class="st0" d="M85.8,16.5c0,2-1.6,3.7-3.7,3.7c-2,0-3.7-1.6-3.7-3.7c0-2,1.6-3.7,3.7-3.7C84.1,12.8,85.8,14.4,85.8,16.5z"/>
	<path class="st1" d="M63.5,3c-0.9-0.9-2-1.4-3.3-1.4C59,1.6,57.9,2,57,2.9c-0.9,0.9-1.3,1.9-1.3,3.1v5.6h1.4V6.1
		c0-0.8,0.3-1.5,0.9-2.1c0.6-0.6,1.3-0.9,2.2-0.9s1.7,0.3,2.3,1l0.1,0.1l1-1L63.5,3z"/>
	<path class="st1" d="M64.9,1.9v9.8h1.4V1.9H64.9z"/>
	<path class="st1" d="M75.7,3c-0.9-0.9-2-1.4-3.3-1.4c-1.2,0-2.3,0.4-3.2,1.3c-0.9,0.9-1.3,1.9-1.3,3.1v1.3c0,1.2,0.4,2.2,1.3,3.1
		c0.9,0.8,2,1.2,3.2,1.2c1.3,0,2.4-0.4,3.3-1.3l0.1-0.1l-1-1l-0.1,0.1c-0.6,0.7-1.4,1-2.3,1c-0.8,0-1.6-0.3-2.2-0.9
		c-0.6-0.6-0.9-1.3-0.9-2.1V6c0-0.8,0.3-1.5,0.9-2.1C70.8,3.3,71.6,3,72.4,3c0.9,0,1.7,0.3,2.3,1l0.1,0.1l1-1L75.7,3z"/>
	<path class="st1" d="M53.2,3c-0.9-0.9-1.9-1.3-3.2-1.3c-1.2,0-2.3,0.4-3.2,1.3c-0.9,0.9-1.3,1.9-1.3,3.1v0.2v8.1v0.2h1.4
		c0,0,0-3.4,0-4.1c0.3,0.3,0.7,0.6,1.2,0.8c0.6,0.3,1.2,0.4,1.9,0.4c1.2,0,2.3-0.4,3.2-1.2c0.9-0.9,1.3-1.9,1.3-3.1V6.1
		C54.5,4.9,54.1,3.8,53.2,3z M52.2,9.5c-0.6,0.6-1.3,0.9-2.2,0.9c-0.8,0-1.6-0.3-2.2-0.9c-0.6-0.6-0.9-1.3-0.9-2.1V6.1
		c0-0.8,0.3-1.5,0.9-2.1c0.6-0.6,1.3-0.9,2.2-0.9c0.9,0,1.6,0.3,2.2,0.9c0.6,0.6,0.9,1.3,0.9,2.1v1.3C53.1,8.2,52.9,8.9,52.2,9.5z"
		/>
	<path class="st1" d="M83.5,9.4c-0.6,0.6-1.4,1-2.3,1c-0.8,0-1.6-0.3-2.2-0.9c-0.6-0.6-0.9-1.3-0.9-2.1c0.4,0,7.6,0,7.6,0V6
		c0-1.2-0.4-2.3-1.3-3.1c-0.9-0.8-1.9-1.3-3.2-1.3C80,1.6,78.9,2,78,2.9c-0.9,0.8-1.3,1.9-1.3,3.1v1.3c0,1.2,0.4,2.2,1.3,3.1
		c0.9,0.8,2,1.2,3.2,1.2c1.3,0,2.4-0.4,3.3-1.3l0.1-0.1l-1-1L83.5,9.4z M79,3.9C79.6,3.3,80.4,3,81.2,3c0.9,0,1.6,0.3,2.2,0.9
		C84,4.5,84.3,5.2,84.3,6c-0.4,0-5.8,0-6.2,0C78.1,5.2,78.4,4.5,79,3.9z"/>
	<path class="st0" d="M15.9,3.4V0.8c0-0.2-0.1-0.3-0.2-0.4s-0.2-0.2-0.4-0.2h-0.9h-0.9h-5c-0.2,0-0.3,0.1-0.4,0.2C8,0.5,8,0.6,8,0.7
		v0.1V2v2.6C8,4.8,8.1,4.9,8.2,5c0.1,0.1,0.2,0.2,0.4,0.2h0.9h0.9h5c0.2,0,0.3-0.1,0.4-0.2c0.1-0.1,0.1-0.2,0.1-0.3V4.6V3.4z"/>
</g>
</svg>
